<?xml version="1.0" encoding="UTF-8"?>
<!DOCTYPE svg PUBLIC "-//W3C//DTD SVG 1.1//EN" "http://www.w3.org/Graphics/SVG/1.1/DTD/svg11.dtd">
<svg xmlns="http://www.w3.org/2000/svg" version="1.1" width="256px" height="256px" style="shape-rendering:geometricPrecision; text-rendering:geometricPrecision; image-rendering:optimizeQuality; fill-rule:evenodd; clip-rule:evenodd" xmlns:xlink="http://www.w3.org/1999/xlink">
<g><path style="opacity:0.84" fill="#037bc4" d="M 196.5,-0.5 C 199.5,-0.5 202.5,-0.5 205.5,-0.5C 207.833,1.16667 209.833,3.16667 211.5,5.5C 212.833,8.5 212.833,11.5 211.5,14.5C 210.662,14.8417 210.328,15.5084 210.5,16.5C 209.833,16.5 209.5,16.8333 209.5,17.5C 208.833,17.5 208.5,17.8333 208.5,18.5C 207.833,18.5 207.5,18.8333 207.5,19.5C 206.833,19.5 206.5,19.8333 206.5,20.5C 204.11,21.8908 202.443,23.8908 201.5,26.5C 200.833,26.5 200.5,26.8333 200.5,27.5C 199.833,27.5 199.5,27.8333 199.5,28.5C 198.833,28.5 198.5,28.8333 198.5,29.5C 197.833,29.5 197.5,29.8333 197.5,30.5C 196.833,30.5 196.5,30.8333 196.5,31.5C 195.833,31.5 195.5,31.8333 195.5,32.5C 194.833,32.5 194.5,32.8333 194.5,33.5C 192.5,34.8333 190.833,36.5 189.5,38.5C 188.508,38.3284 187.842,38.6618 187.5,39.5C 184.751,39.7261 182.084,39.3928 179.5,38.5C 178.575,39.3569 177.908,40.3569 177.5,41.5C 176.833,41.5 176.5,41.8333 176.5,42.5C 175.833,42.5 175.5,42.8333 175.5,43.5C 174.833,43.5 174.5,43.8333 174.5,44.5C 173.833,44.5 173.5,44.8333 173.5,45.5C 172.833,45.5 172.5,45.8333 172.5,46.5C 171.833,46.5 171.5,46.8333 171.5,47.5C 170.833,47.5 170.5,47.8333 170.5,48.5C 169.163,49.3149 168.163,50.4815 167.5,52C 172.508,52.5008 177.508,53.0008 182.5,53.5C 183.93,54.5375 185.597,55.2041 187.5,55.5C 194.72,59.3877 201.053,64.3877 206.5,70.5C 206.66,72.153 207.326,73.4863 208.5,74.5C 208.992,76.8185 209.992,78.8185 211.5,80.5C 211.263,81.791 211.596,82.791 212.5,83.5C 215.104,97.1564 215.104,110.823 212.5,124.5C 211.566,125.568 211.232,126.901 211.5,128.5C 210.076,130.515 209.41,132.848 209.5,135.5C 208.596,136.209 208.263,137.209 208.5,138.5C 207.596,139.209 207.263,140.209 207.5,141.5C 206.662,141.842 206.328,142.508 206.5,143.5C 205.596,144.209 205.263,145.209 205.5,146.5C 204.662,146.842 204.328,147.508 204.5,148.5C 203.596,149.209 203.263,150.209 203.5,151.5C 202.662,151.842 202.328,152.508 202.5,153.5C 201.662,153.842 201.328,154.508 201.5,155.5C 200.596,156.209 200.263,157.209 200.5,158.5C 199.662,158.842 199.328,159.508 199.5,160.5C 198.662,160.842 198.328,161.508 198.5,162.5C 197.662,162.842 197.328,163.508 197.5,164.5C 196.662,164.842 196.328,165.508 196.5,166.5C 195.662,166.842 195.328,167.508 195.5,168.5C 194.662,168.842 194.328,169.508 194.5,170.5C 193.833,170.5 193.5,170.833 193.5,171.5C 192.662,171.842 192.328,172.508 192.5,173.5C 191.662,173.842 191.328,174.508 191.5,175.5C 190.662,175.842 190.328,176.508 190.5,177.5C 189.662,177.842 189.328,178.508 189.5,179.5C 188.662,179.842 188.328,180.508 188.5,181.5C 187.596,182.209 187.263,183.209 187.5,184.5C 185.528,187.084 184.528,190.084 184.5,193.5C 182.584,197.163 181.584,201.163 181.5,205.5C 179.421,211.558 178.087,217.891 177.5,224.5C 176.566,225.568 176.232,226.901 176.5,228.5C 175.566,229.568 175.232,230.901 175.5,232.5C 174.596,233.209 174.263,234.209 174.5,235.5C 173.596,236.209 173.263,237.209 173.5,238.5C 172.662,238.842 172.328,239.508 172.5,240.5C 171.662,240.842 171.328,241.508 171.5,242.5C 170.662,242.842 170.328,243.508 170.5,244.5C 169.662,244.842 169.328,245.508 169.5,246.5C 168.833,246.5 168.5,246.833 168.5,247.5C 167.833,247.5 167.5,247.833 167.5,248.5C 166.833,248.5 166.5,248.833 166.5,249.5C 165.833,249.5 165.5,249.833 165.5,250.5C 164.833,250.5 164.5,250.833 164.5,251.5C 163.508,251.328 162.842,251.662 162.5,252.5C 159.214,253.207 155.881,253.54 152.5,253.5C 151.486,252.326 150.153,251.66 148.5,251.5C 145.633,247.76 143.3,243.76 141.5,239.5C 141.768,237.901 141.434,236.568 140.5,235.5C 138.853,219.983 136.853,204.649 134.5,189.5C 134.678,185.878 134.011,182.544 132.5,179.5C 132.737,178.209 132.404,177.209 131.5,176.5C 131.737,175.209 131.404,174.209 130.5,173.5C 130.586,172.504 130.252,171.671 129.5,171C 127.934,170.235 126.601,170.402 125.5,171.5C 124.662,171.842 124.328,172.508 124.5,173.5C 123.662,173.842 123.328,174.508 123.5,175.5C 122.596,176.209 122.263,177.209 122.5,178.5C 121.566,179.568 121.232,180.901 121.5,182.5C 120.549,183.919 120.216,185.585 120.5,187.5C 117.983,202.627 115.983,217.96 114.5,233.5C 113.232,235.905 112.565,238.572 112.5,241.5C 110.992,243.181 109.992,245.181 109.5,247.5C 108.094,247.973 107.427,248.973 107.5,250.5C 106.833,250.5 106.5,250.833 106.5,251.5C 105.508,251.328 104.842,251.662 104.5,252.5C 103.508,252.328 102.842,252.662 102.5,253.5C 99.8333,253.5 97.1667,253.5 94.5,253.5C 93.4863,252.326 92.153,251.66 90.5,251.5C 89.1667,249.5 87.5,247.833 85.5,246.5C 83.8007,243.101 82.134,239.768 80.5,236.5C 80.7373,235.209 80.404,234.209 79.5,233.5C 79.4349,230.572 78.7682,227.905 77.5,225.5C 77.5797,222.219 76.913,219.219 75.5,216.5C 75.7845,214.585 75.4511,212.919 74.5,211.5C 74.5797,208.219 73.913,205.219 72.5,202.5C 72.7062,199.505 72.0395,196.838 70.5,194.5C 70.5905,191.848 69.9238,189.515 68.5,187.5C 68.5979,185.447 67.9313,183.78 66.5,182.5C 66.7709,180.62 66.1042,179.287 64.5,178.5C 64.6716,177.508 64.3382,176.842 63.5,176.5C 63.6716,175.508 63.3382,174.842 62.5,174.5C 62.0075,172.181 61.0075,170.181 59.5,168.5C 59.6716,167.508 59.3382,166.842 58.5,166.5C 58.6716,165.508 58.3382,164.842 57.5,164.5C 57.6716,163.508 57.3382,162.842 56.5,162.5C 54.7365,157.978 52.7365,153.645 50.5,149.5C 50.2041,147.597 49.5375,145.93 48.5,144.5C 48.5979,142.447 47.9313,140.78 46.5,139.5C 46.7373,138.209 46.404,137.209 45.5,136.5C 45.5905,133.848 44.9238,131.515 43.5,129.5C 43.7678,127.901 43.4345,126.568 42.5,125.5C 42.7678,123.901 42.4345,122.568 41.5,121.5C 40.1775,111.057 39.8442,100.723 40.5,90.5C 41.7682,88.0948 42.4349,85.4282 42.5,82.5C 44.4806,78.5388 46.4806,74.5388 48.5,70.5C 55.9025,61.4672 65.2358,55.4672 76.5,52.5C 87.3579,51.8566 98.0246,52.8566 108.5,55.5C 110.649,56.7362 112.982,57.7362 115.5,58.5C 116.209,59.404 117.209,59.7373 118.5,59.5C 125.318,62.3148 131.985,61.9815 138.5,58.5C 142.137,57.7365 145.47,56.4032 148.5,54.5C 150.099,54.7678 151.432,54.4345 152.5,53.5C 153.873,53.6567 155.207,53.49 156.5,53C 162.5,46.3333 168.5,39.6667 174.5,33C 172.074,29.9874 171.907,26.8208 174,23.5C 176.669,20.0003 179.502,16.667 182.5,13.5C 183.167,13.5 183.5,13.1667 183.5,12.5C 187.5,7.83333 191.833,3.5 196.5,-0.5 Z M 198.5,7.5 C 200.167,6.16667 201.833,6.16667 203.5,7.5C 202.761,7.36899 202.094,7.53566 201.5,8C 202.38,9.35613 202.714,10.8561 202.5,12.5C 200.5,13.8333 198.833,15.5 197.5,17.5C 196.833,17.5 196.5,17.8333 196.5,18.5C 195.833,18.5 195.5,18.8333 195.5,19.5C 194.094,19.9731 193.427,20.9731 193.5,22.5C 190.833,24.5 188.5,26.8333 186.5,29.5C 185.833,29.5 185.5,29.8333 185.5,30.5C 184.5,30.5 183.5,30.5 182.5,30.5C 182.5,29.1667 182.5,27.8333 182.5,26.5C 183.167,26.5 183.5,26.1667 183.5,25.5C 184.167,25.5 184.5,25.1667 184.5,24.5C 187.138,21.5256 189.805,18.5256 192.5,15.5C 193.167,15.5 193.5,15.1667 193.5,14.5C 194.167,14.5 194.5,14.1667 194.5,13.5C 195.977,11.193 197.977,9.35968 200.5,8C 199.906,7.53566 199.239,7.36899 198.5,7.5 Z M 194.5,11.5 C 194.5,12.1667 194.5,12.8333 194.5,13.5C 193.833,13.5 193.5,13.8333 193.5,14.5C 192.833,14.5 192.5,14.8333 192.5,15.5C 192.167,15.5 191.833,15.5 191.5,15.5C 191.738,13.5956 192.738,12.2623 194.5,11.5 Z M 197.5,17.5 C 197.833,17.5 198.167,17.5 198.5,17.5C 198.262,19.4044 197.262,20.7377 195.5,21.5C 195.5,20.8333 195.5,20.1667 195.5,19.5C 196.167,19.5 196.5,19.1667 196.5,18.5C 197.167,18.5 197.5,18.1667 197.5,17.5 Z M 184.5,22.5 C 184.5,23.1667 184.5,23.8333 184.5,24.5C 183.833,24.5 183.5,24.8333 183.5,25.5C 182.833,25.5 182.5,25.8333 182.5,26.5C 182.167,26.5 181.833,26.5 181.5,26.5C 181.738,24.5956 182.738,23.2623 184.5,22.5 Z M 186.5,29.5 C 186.833,29.5 187.167,29.5 187.5,29.5C 187.5,30.8333 186.833,31.5 185.5,31.5C 185.5,31.1667 185.5,30.8333 185.5,30.5C 186.167,30.5 186.5,30.1667 186.5,29.5 Z M 99.5,61.5 C 101.099,61.2322 102.432,61.5655 103.5,62.5C 104.791,62.2627 105.791,62.596 106.5,63.5C 107.791,63.2627 108.791,63.596 109.5,64.5C 108.761,64.369 108.094,64.5357 107.5,65C 113.487,67.163 118.487,70.663 122.5,75.5C 122.5,76.1667 122.833,76.5 123.5,76.5C 124.172,77.2674 125.005,77.9341 126,78.5C 126.399,78.2716 126.565,77.9382 126.5,77.5C 129.455,78.1587 132.455,78.4921 135.5,78.5C 135.5,78.8333 135.5,79.1667 135.5,79.5C 133.302,79.4088 132.969,80.0755 134.5,81.5C 133.115,82.5736 131.949,83.9069 131,85.5C 130.308,86.4368 130.475,87.1034 131.5,87.5C 131.573,89.0269 130.906,90.0269 129.5,90.5C 129.167,89.1667 128.833,89.1667 128.5,90.5C 122.014,91.7755 122.014,92.4422 128.5,92.5C 123.669,93.5382 119.003,92.8715 114.5,90.5C 115.552,90.6495 116.552,90.4828 117.5,90C 116,89.5 114.5,89 113,88.5C 112.235,88.5699 111.735,88.9033 111.5,89.5C 102.415,87.9283 93.4146,88.2617 84.5,90.5C 83.4863,91.6737 82.153,92.3404 80.5,92.5C 78.3152,91.9131 76.6485,92.9131 75.5,95.5C 74.1667,95.5 73.5,96.1667 73.5,97.5C 71.6503,98.2418 70.9836,99.2418 71.5,100.5C 71.6716,101.492 71.3382,102.158 70.5,102.5C 70.19,101.262 69.69,101.262 69,102.5C 68.3083,103.437 68.475,104.103 69.5,104.5C 69.0719,107.785 68.0719,110.785 66.5,113.5C 66.5,119.833 66.5,126.167 66.5,132.5C 67.4511,133.919 67.7845,135.585 67.5,137.5C 68.4345,138.568 68.7678,139.901 68.5,141.5C 69.404,142.209 69.7373,143.209 69.5,144.5C 70.404,145.209 70.7373,146.209 70.5,147.5C 71.404,148.209 71.7373,149.209 71.5,150.5C 71.1046,153.532 71.9379,156.532 74,159.5C 74.4643,158.906 74.631,158.239 74.5,157.5C 75.404,158.209 75.7373,159.209 75.5,160.5C 74.5354,161.721 74.702,163.054 76,164.5C 76.4643,163.906 76.631,163.239 76.5,162.5C 77.404,163.209 77.7373,164.209 77.5,165.5C 76.5354,166.721 76.702,168.054 78,169.5C 78.4643,168.906 78.631,168.239 78.5,167.5C 79.404,168.209 79.7373,169.209 79.5,170.5C 80.404,171.209 80.7373,172.209 80.5,173.5C 82.0395,175.838 82.7062,178.505 82.5,181.5C 83.4614,183.265 83.7947,185.265 83.5,187.5C 84.4682,189.607 84.8016,191.941 84.5,194.5C 85.9573,199.598 86.624,204.931 86.5,210.5C 85.2318,212.905 84.5651,215.572 84.5,218.5C 83.5489,217.081 83.2155,215.415 83.5,213.5C 82.5489,212.081 82.2155,210.415 82.5,208.5C 81.087,205.781 80.4203,202.781 80.5,199.5C 79.5655,198.432 79.2322,197.099 79.5,195.5C 78.0762,193.485 77.4095,191.152 77.5,188.5C 76.596,187.791 76.2627,186.791 76.5,185.5C 75.596,184.791 75.2627,183.791 75.5,182.5C 76.4646,181.279 76.298,179.946 75,178.5C 74.5357,179.094 74.369,179.761 74.5,180.5C 73.0687,179.22 72.4021,177.553 72.5,175.5C 71.6618,175.158 71.3284,174.492 71.5,173.5C 70.6618,173.158 70.3284,172.492 70.5,171.5C 68.0721,164.608 64.9054,157.608 61,150.5C 60.5357,151.094 60.369,151.761 60.5,152.5C 59.0687,151.22 58.4021,149.553 58.5,147.5C 59.4646,146.279 59.298,144.946 58,143.5C 57.5357,144.094 57.369,144.761 57.5,145.5C 56.596,144.791 56.2627,143.791 56.5,142.5C 53.8605,137.915 52.1938,132.915 51.5,127.5C 50.5655,126.432 50.2322,125.099 50.5,123.5C 48.9177,120.124 48.2511,116.458 48.5,112.5C 49.8333,106.167 49.8333,99.8333 48.5,93.5C 48.2155,91.5853 48.5489,89.9187 49.5,88.5C 49.2322,86.901 49.5655,85.5676 50.5,84.5C 50.4021,82.4471 51.0687,80.7804 52.5,79.5C 52.369,80.2389 52.5357,80.9056 53,81.5C 54.0395,79.2537 55.2062,77.087 56.5,75C 56.2716,74.6012 55.9382,74.4346 55.5,74.5C 55.427,72.9731 56.0937,71.9731 57.5,71.5C 57.4346,71.9382 57.6012,72.2716 58,72.5C 60.2336,70.3002 62.7336,68.4669 65.5,67C 66.7383,66.31 66.7383,65.81 65.5,65.5C 66.287,63.8958 67.6203,63.2291 69.5,63.5C 69.56,64.0431 69.8933,64.3764 70.5,64.5C 71.7946,63.9017 73.1279,63.4017 74.5,63C 73.552,62.5172 72.552,62.3505 71.5,62.5C 72.5676,61.5655 73.901,61.2322 75.5,61.5C 83.5,58.8333 91.5,58.8333 99.5,61.5 Z M 173.5,60.5 C 169.298,60.1832 165.298,60.5166 161.5,61.5C 160.833,61.5 160.5,61.8333 160.5,62.5C 160.167,62.5 159.833,62.5 159.5,62.5C 159.414,61.5041 159.748,60.6708 160.5,60C 165.02,59.1864 169.354,59.353 173.5,60.5 Z M 173.5,60.5 C 176.829,60.2153 179.829,60.8819 182.5,62.5C 183.791,62.2627 184.791,62.596 185.5,63.5C 184.761,63.369 184.094,63.5357 183.5,64C 187.021,65.5918 190.354,67.4251 193.5,69.5C 193.5,70.1667 193.833,70.5 194.5,70.5C 194.5,71.1667 194.833,71.5 195.5,71.5C 195.5,72.1667 195.833,72.5 196.5,72.5C 197.504,73.6828 198.338,75.0161 199,76.5C 199.69,77.7383 200.19,77.7383 200.5,76.5C 201.338,76.8417 201.672,77.5084 201.5,78.5C 202.338,78.8417 202.672,79.5084 202.5,80.5C 201.535,81.7211 201.702,83.0544 203,84.5C 203.464,83.9056 203.631,83.2389 203.5,82.5C 204.404,83.209 204.737,84.209 204.5,85.5C 205.434,86.5676 205.768,87.901 205.5,89.5C 208.379,101.991 207.712,114.324 203.5,126.5C 203.59,129.152 202.924,131.485 201.5,133.5C 201.649,132.448 201.483,131.448 201,130.5C 199.932,133.871 198.765,137.204 197.5,140.5C 197.624,141.107 197.957,141.44 198.5,141.5C 198.737,142.791 198.404,143.791 197.5,144.5C 197.598,146.553 196.931,148.22 195.5,149.5C 195.631,148.761 195.464,148.094 195,147.5C 194.167,149.167 193.333,150.833 192.5,152.5C 192.624,153.107 192.957,153.44 193.5,153.5C 192.958,156.912 191.625,159.912 189.5,162.5C 189.573,164.027 188.906,165.027 187.5,165.5C 187.672,166.492 187.338,167.158 186.5,167.5C 186.19,166.262 185.69,166.262 185,167.5C 183.167,171.167 181.333,174.833 179.5,178.5C 179.624,179.107 179.957,179.44 180.5,179.5C 180.598,181.553 179.931,183.22 178.5,184.5C 178.737,185.791 178.404,186.791 177.5,187.5C 177.59,190.152 176.924,192.485 175.5,194.5C 175.768,196.099 175.434,197.432 174.5,198.5C 174.768,200.099 174.434,201.432 173.5,202.5C 172.913,209.109 171.579,215.442 169.5,221.5C 169.405,219.214 168.738,217.214 167.5,215.5C 168.029,205.257 169.363,195.257 171.5,185.5C 171.322,181.878 171.989,178.544 173.5,175.5C 173.263,174.209 173.596,173.209 174.5,172.5C 174.263,171.209 174.596,170.209 175.5,169.5C 175.263,168.209 175.596,167.209 176.5,166.5C 176.369,167.239 176.536,167.906 177,168.5C 178.298,167.054 178.465,165.721 177.5,164.5C 177.402,162.447 178.069,160.78 179.5,159.5C 179.402,157.447 180.069,155.78 181.5,154.5C 181.402,152.447 182.069,150.78 183.5,149.5C 183.263,148.209 183.596,147.209 184.5,146.5C 184.263,145.209 184.596,144.209 185.5,143.5C 187.912,134.333 188.912,124.999 188.5,115.5C 187.232,113.095 186.565,110.428 186.5,107.5C 187.043,107.44 187.376,107.107 187.5,106.5C 186.667,104.833 185.833,103.167 185,101.5C 184.31,100.262 183.81,100.262 183.5,101.5C 182.094,101.027 181.427,100.027 181.5,98.5C 179.766,94.4598 176.433,91.4598 171.5,89.5C 170.893,89.6236 170.56,89.9569 170.5,90.5C 169.209,90.7373 168.209,90.404 167.5,89.5C 160.869,88.669 154.202,88.3357 147.5,88.5C 146.432,89.4345 145.099,89.7678 143.5,89.5C 142.89,88.609 142.557,87.609 142.5,86.5C 144.303,84.5187 145.97,82.352 147.5,80C 147.272,79.6012 146.938,79.4346 146.5,79.5C 146.427,77.9731 147.094,76.9731 148.5,76.5C 149.329,77.3324 150.162,76.999 151,75.5C 153.998,71.0081 157.165,66.6748 160.5,62.5C 161.167,62.5 161.5,62.1667 161.5,61.5C 165.702,61.8168 169.702,61.4834 173.5,60.5 Z M 145.5,64.5 C 146.209,63.596 147.209,63.2627 148.5,63.5C 148.167,64.5 147.5,65.1667 146.5,65.5C 146.5,64.8333 146.167,64.5 145.5,64.5 Z M 143.5,65.5 C 143.833,66.1667 144.167,66.8333 144.5,67.5C 142.063,68.7382 141.063,70.4048 141.5,72.5C 141.573,74.0269 140.906,75.0269 139.5,75.5C 139.013,74.5266 138.513,73.5266 138,72.5C 137.31,71.2617 136.81,71.2617 136.5,72.5C 134.597,72.2041 132.93,71.5375 131.5,70.5C 132.791,70.7373 133.791,70.404 134.5,69.5C 138.5,69.1667 138.5,68.8333 134.5,68.5C 137.215,66.9281 140.215,65.9281 143.5,65.5 Z M 134.5,68.5 C 134.5,68.8333 134.5,69.1667 134.5,69.5C 133.209,69.2627 132.209,69.596 131.5,70.5C 130.078,70.2914 128.745,69.7914 127.5,69C 129.81,68.5034 132.143,68.3367 134.5,68.5 Z M 193.5,69.5 C 193.5,69.1667 193.5,68.8333 193.5,68.5C 195.833,68.8333 197.167,70.1667 197.5,72.5C 197.167,72.5 196.833,72.5 196.5,72.5C 195.833,72.5 195.5,72.1667 195.5,71.5C 194.833,71.5 194.5,71.1667 194.5,70.5C 193.833,70.5 193.5,70.1667 193.5,69.5 Z M 122.5,75.5 C 122.5,75.1667 122.5,74.8333 122.5,74.5C 124.027,74.427 125.027,75.0937 125.5,76.5C 124.833,76.5 124.167,76.5 123.5,76.5C 122.833,76.5 122.5,76.1667 122.5,75.5 Z M 139.5,89.5 C 139.5,90.1667 139.833,90.5 140.5,90.5C 140.44,91.0431 140.107,91.3764 139.5,91.5C 138.227,90.7435 138.227,90.0768 139.5,89.5 Z M 112.5,98.5 C 116.553,99.0127 120.553,99.846 124.5,101C 123.956,101.717 123.289,102.217 122.5,102.5C 122.19,101.262 121.69,101.262 121,102.5C 119.833,104.833 118.667,107.167 117.5,109.5C 117.624,110.107 117.957,110.44 118.5,110.5C 118.573,112.027 117.906,113.027 116.5,113.5C 115.958,116.912 114.625,119.912 112.5,122.5C 112.631,121.761 112.464,121.094 112,120.5C 111.167,122.167 110.333,123.833 109.5,125.5C 109.624,126.107 109.957,126.44 110.5,126.5C 110.598,128.553 109.931,130.22 108.5,131.5C 108.631,130.761 108.464,130.094 108,129.5C 106.702,130.946 106.535,132.279 107.5,133.5C 107.737,134.791 107.404,135.791 106.5,136.5C 106.598,138.553 105.931,140.22 104.5,141.5C 104.737,142.791 104.404,143.791 103.5,144.5C 103.279,141.903 102.779,141.903 102,144.5C 101.5,146 101,147.5 100.5,149C 100.57,149.765 100.903,150.265 101.5,150.5C 101.737,151.791 101.404,152.791 100.5,153.5C 100.59,156.152 99.9238,158.485 98.5,160.5C 98.7678,162.099 98.4345,163.432 97.5,164.5C 96.143,173.298 94.8097,181.965 93.5,190.5C 93.6646,193.518 93.498,196.518 93,199.5C 91.9716,191.135 90.805,182.802 89.5,174.5C 87.9281,171.785 86.9281,168.785 86.5,165.5C 85.0687,164.22 84.4021,162.553 84.5,160.5C 85.4646,159.279 85.298,157.946 84,156.5C 83.5357,157.094 83.369,157.761 83.5,158.5C 82.596,157.791 82.2627,156.791 82.5,155.5C 83.4646,154.279 83.298,152.946 82,151.5C 81.5357,152.094 81.369,152.761 81.5,153.5C 80.596,152.791 80.2627,151.791 80.5,150.5C 79.0687,149.22 78.4021,147.553 78.5,145.5C 77.0762,143.485 76.4095,141.152 76.5,138.5C 75.5655,137.432 75.2322,136.099 75.5,134.5C 74.5386,132.735 74.2053,130.735 74.5,128.5C 73.3547,124.689 73.1881,120.689 74,116.5C 74.1558,113.809 74.9891,111.476 76.5,109.5C 76.2627,108.209 76.596,107.209 77.5,106.5C 77.369,107.239 77.5357,107.906 78,108.5C 79.9018,103.6 83.4018,100.433 88.5,99C 87.9056,98.5357 87.2389,98.369 86.5,98.5C 87.209,97.596 88.209,97.2627 89.5,97.5C 90.9187,96.5489 92.5853,96.2155 94.5,96.5C 100.689,95.0527 106.689,95.7194 112.5,98.5 Z M 165.5,97.5 C 166.791,97.2627 167.791,97.596 168.5,98.5C 167.761,98.369 167.094,98.5357 166.5,99C 167.745,99.7914 169.078,100.291 170.5,100.5C 170.5,101.167 170.833,101.5 171.5,101.5C 174.038,103.54 175.871,106.206 177,109.5C 177.464,108.906 177.631,108.239 177.5,107.5C 179.074,109.102 179.741,111.102 179.5,113.5C 182.017,121.578 181.683,129.578 178.5,137.5C 178.768,139.099 178.434,140.432 177.5,141.5C 177.649,140.448 177.483,139.448 177,138.5C 176.167,141 175.333,143.5 174.5,146C 174.57,146.765 174.903,147.265 175.5,147.5C 175.598,149.553 174.931,151.22 173.5,152.5C 173.598,154.553 172.931,156.22 171.5,157.5C 171.598,159.553 170.931,161.22 169.5,162.5C 169.631,161.761 169.464,161.094 169,160.5C 167.702,161.946 167.535,163.279 168.5,164.5C 168.737,165.791 168.404,166.791 167.5,167.5C 167.405,169.786 166.738,171.786 165.5,173.5C 165.768,175.099 165.434,176.432 164.5,177.5C 164.784,179.415 164.451,181.081 163.5,182.5C 163.795,184.735 163.461,186.735 162.5,188.5C 161.971,198.743 160.637,208.743 158.5,218.5C 158.819,220.75 158.319,222.75 157,224.5C 155.551,213.212 154.717,201.878 154.5,190.5C 153.291,186.382 152.624,182.049 152.5,177.5C 151.566,176.432 151.232,175.099 151.5,173.5C 152.262,170.848 151.762,168.182 150,165.5C 149.536,166.094 149.369,166.761 149.5,167.5C 148.069,166.22 147.402,164.553 147.5,162.5C 146.094,162.027 145.427,161.027 145.5,159.5C 146.525,159.103 146.692,158.437 146,157.5C 145,156.5 144,155.5 143,154.5C 142.601,154.728 142.435,155.062 142.5,155.5C 140.833,154.5 139.5,153.167 138.5,151.5C 139.239,151.631 139.906,151.464 140.5,151C 138.695,150.028 137.028,148.861 135.5,147.5C 134.893,147.624 134.56,147.957 134.5,148.5C 133.209,148.737 132.209,148.404 131.5,147.5C 127.785,147.423 124.119,147.756 120.5,148.5C 119.503,147.287 118.503,147.454 117.5,149C 117.728,149.399 118.062,149.565 118.5,149.5C 118.027,150.906 117.027,151.573 115.5,151.5C 115.565,151.062 115.399,150.728 115,150.5C 113.833,151.667 112.667,152.833 111.5,154C 111.728,154.399 112.062,154.565 112.5,154.5C 112.573,156.027 111.906,157.027 110.5,157.5C 110.5,156.833 110.167,156.5 109.5,156.5C 109.737,155.209 109.404,154.209 108.5,153.5C 108.263,152.209 108.596,151.209 109.5,150.5C 109.263,149.209 109.596,148.209 110.5,147.5C 110.721,150.097 111.221,150.097 112,147.5C 112.402,146.128 112.902,144.795 113.5,143.5C 113.376,142.893 113.043,142.56 112.5,142.5C 112.263,141.209 112.596,140.209 113.5,139.5C 113.402,137.447 114.069,135.78 115.5,134.5C 115.369,135.239 115.536,135.906 116,136.5C 117.298,135.054 117.465,133.721 116.5,132.5C 116.402,130.447 117.069,128.78 118.5,127.5C 118.369,128.239 118.536,128.906 119,129.5C 123.245,120.676 127.745,112.01 132.5,103.5C 132.376,102.893 132.043,102.56 131.5,102.5C 133.09,100.179 135.423,99.179 138.5,99.5C 140.515,98.0762 142.848,97.4095 145.5,97.5C 152.167,94.8333 158.833,94.8333 165.5,97.5 Z M 170.5,100.5 C 170.5,100.167 170.5,99.8333 170.5,99.5C 172.027,99.427 173.027,100.094 173.5,101.5C 172.833,101.5 172.167,101.5 171.5,101.5C 170.833,101.5 170.5,101.167 170.5,100.5 Z M 108.5,153.5 C 108.263,154.791 108.596,155.791 109.5,156.5C 109.5,156.833 109.5,157.167 109.5,157.5C 107.952,157.821 107.285,158.821 107.5,160.5C 107.167,160.5 106.833,160.5 106.5,160.5C 106.41,157.848 107.076,155.515 108.5,153.5 Z M 122.5,156.5 C 122.842,155.662 123.508,155.328 124.5,155.5C 130.627,155.829 135.127,158.829 138,164.5C 138.399,164.272 138.565,163.938 138.5,163.5C 140.539,164.911 141.539,166.911 141.5,169.5C 141.167,169.5 140.833,169.5 140.5,169.5C 140.167,166.833 139.833,166.833 139.5,169.5C 137.901,167.396 136.068,165.396 134,163.5C 133.601,163.728 133.435,164.062 133.5,164.5C 132.508,164.672 131.842,164.338 131.5,163.5C 128.833,163.5 126.167,163.5 123.5,163.5C 123.103,162.475 122.437,162.308 121.5,163C 120,164.5 118.5,166 117,167.5C 116.308,168.437 116.475,169.103 117.5,169.5C 117.34,171.153 116.674,172.486 115.5,173.5C 115.167,170.833 114.833,170.833 114.5,173.5C 113.833,172.833 113.167,172.167 112.5,171.5C 112.263,170.209 112.596,169.209 113.5,168.5C 113.369,169.239 113.536,169.906 114,170.5C 115.513,167.473 117.013,164.473 118.5,161.5C 119.167,161.5 119.5,161.167 119.5,160.5C 120.167,160.5 120.5,160.167 120.5,159.5C 121.167,159.5 121.5,159.167 121.5,158.5C 122.167,158.5 122.5,158.167 122.5,157.5C 123.833,157.167 123.833,156.833 122.5,156.5 Z M 122.5,156.5 C 122.5,156.833 122.5,157.167 122.5,157.5C 121.833,157.5 121.5,157.833 121.5,158.5C 120.833,158.5 120.5,158.833 120.5,159.5C 119.833,159.5 119.5,159.833 119.5,160.5C 118.833,160.5 118.5,160.833 118.5,161.5C 118.167,161.5 117.833,161.5 117.5,161.5C 118.167,158.833 119.833,157.167 122.5,156.5 Z M 106.5,160.5 C 106.328,161.492 106.662,162.158 107.5,162.5C 107.672,163.492 107.338,164.158 106.5,164.5C 106.5,163.833 106.167,163.5 105.5,163.5C 105.263,162.209 105.596,161.209 106.5,160.5 Z M 105.5,163.5 C 106.167,163.5 106.5,163.833 106.5,164.5C 105.871,167.397 104.871,170.064 103.5,172.5C 103.676,169.273 104.343,166.273 105.5,163.5 Z M 139.5,169.5 C 139.833,169.5 140.167,169.5 140.5,169.5C 140.833,172.167 141.167,172.167 141.5,169.5C 142.404,170.209 142.737,171.209 142.5,172.5C 141.833,173.167 141.167,173.833 140.5,174.5C 140.167,171.833 139.833,171.833 139.5,174.5C 138.596,173.791 138.263,172.791 138.5,171.5C 139.338,171.158 139.672,170.492 139.5,169.5 Z M 125.5,171.5 C 126.601,170.402 127.934,170.235 129.5,171C 130.252,171.671 130.586,172.504 130.5,173.5C 129.833,173.167 129.167,172.833 128.5,172.5C 127.791,171.596 126.791,171.263 125.5,171.5 Z M 142.5,172.5 C 144.04,174.838 144.706,177.505 144.5,180.5C 143.475,181.374 142.808,182.541 142.5,184C 143.861,189.751 144.528,195.585 144.5,201.5C 143.089,193.644 141.756,185.644 140.5,177.5C 140.833,177.5 141.167,177.5 141.5,177.5C 142.038,175.883 142.371,174.216 142.5,172.5 Z M 111.5,174.5 C 111.402,176.553 112.069,178.22 113.5,179.5C 113.784,181.415 113.451,183.081 112.5,184.5C 112.741,182.102 112.074,180.102 110.5,178.5C 110.232,176.901 110.566,175.568 111.5,174.5 Z M 110.5,178.5 C 110.259,180.898 110.926,182.898 112.5,184.5C 112.795,186.735 112.461,188.735 111.5,190.5C 111.819,188.25 111.319,186.25 110,184.5C 109.814,187.036 109.314,189.369 108.5,191.5C 108.28,186.9 108.946,182.567 110.5,178.5 Z M 145.5,186.5 C 147.069,200.382 148.736,214.382 150.5,228.5C 149.833,227.833 149.167,227.167 148.5,226.5C 148.167,219.833 147.833,219.833 147.5,226.5C 146.532,224.393 146.198,222.059 146.5,219.5C 147.833,216.167 147.833,212.833 146.5,209.5C 146.404,201.821 146.07,194.154 145.5,186.5 Z M 111.5,190.5 C 110.946,202.065 109.613,213.398 107.5,224.5C 107.795,222.265 107.461,220.265 106.5,218.5C 106.303,209.288 106.97,200.288 108.5,191.5C 108.05,199.839 107.884,208.172 108,216.5C 108.716,207.627 109.882,198.961 111.5,190.5 Z M 144.5,201.5 C 145.167,204.167 145.833,206.833 146.5,209.5C 146.5,212.833 146.5,216.167 146.5,219.5C 145.19,213.712 144.523,207.712 144.5,201.5 Z M 86.5,210.5 C 87.4682,212.607 87.8016,214.941 87.5,217.5C 88.6572,220.273 89.3239,223.273 89.5,226.5C 88.9046,229.321 90.0713,231.654 93,233.5C 93.3988,233.272 93.5654,232.938 93.5,232.5C 95.4352,233.15 97.4352,233.483 99.5,233.5C 101.292,234.473 102.625,233.806 103.5,231.5C 103.833,231.5 104.167,231.5 104.5,231.5C 104.232,233.099 104.566,234.432 105.5,235.5C 105.768,237.099 105.434,238.432 104.5,239.5C 104.771,241.38 104.104,242.713 102.5,243.5C 100.357,247.147 97.6905,247.481 94.5,244.5C 95.2389,244.631 95.9056,244.464 96.5,244C 92.3692,240.92 89.8692,236.753 89,231.5C 88.5172,232.448 88.3505,233.448 88.5,234.5C 87.0762,232.485 86.4095,230.152 86.5,227.5C 85.087,224.781 84.4203,221.781 84.5,218.5C 86.2227,216.22 86.8893,213.553 86.5,210.5 Z M 96.5,220.5 C 95.5489,219.081 95.2155,217.415 95.5,215.5C 96.5,215.5 97.5,215.5 98.5,215.5C 98.7886,218.649 98.2886,221.649 97,224.5C 96.51,223.207 96.3433,221.873 96.5,220.5 Z M 167.5,215.5 C 167.054,218.01 167.72,220.01 169.5,221.5C 169.416,225.837 168.416,229.837 166.5,233.5C 166.649,232.448 166.483,231.448 166,230.5C 164.994,235.347 162.828,239.514 159.5,243C 160.094,243.464 160.761,243.631 161.5,243.5C 158.715,246.666 155.715,246.999 152.5,244.5C 154.933,244.214 154.933,243.548 152.5,242.5C 152.108,240.821 151.608,239.154 151,237.5C 150.517,238.448 150.351,239.448 150.5,240.5C 148.96,238.162 148.294,235.495 148.5,232.5C 149.167,231.833 149.833,231.167 150.5,230.5C 151.242,232.35 152.242,233.016 153.5,232.5C 155.435,233.15 157.435,233.483 159.5,233.5C 161.664,234.118 163.33,233.118 164.5,230.5C 164.376,229.893 164.043,229.56 163.5,229.5C 163.66,227.847 164.326,226.514 165.5,225.5C 165.232,223.901 165.566,222.568 166.5,221.5C 166.205,219.265 166.539,217.265 167.5,215.5 Z M 105.5,224.5 C 105.714,226.144 105.38,227.644 104.5,229C 105.044,229.717 105.711,230.217 106.5,230.5C 106.784,232.415 106.451,234.081 105.5,235.5C 105.768,233.901 105.434,232.568 104.5,231.5C 104.167,230.167 103.833,230.167 103.5,231.5C 103.167,231.5 102.833,231.5 102.5,231.5C 103.264,228.982 104.264,226.649 105.5,224.5 Z M 109.5,247.5 C 109.573,249.027 108.906,250.027 107.5,250.5C 107.427,248.973 108.094,247.973 109.5,247.5 Z"/></g>
<g><path style="opacity:0.006" fill="#037bc4" d="M 212.5,5.5 C 212.167,5.5 211.833,5.5 211.5,5.5C 211.833,2.83333 212.167,2.83333 212.5,5.5 Z"/></g>
<g><path style="opacity:0.009" fill="#037bc4" d="M 212.5,5.5 C 213.573,6.25057 213.74,7.25057 213,8.5C 212.517,7.55198 212.351,6.55198 212.5,5.5 Z"/></g>
<g><path style="opacity:0.01" fill="#037bc4" d="M 203.5,7.5 C 203.5,9.16667 203.5,10.8333 203.5,12.5C 203.167,12.5 202.833,12.5 202.5,12.5C 202.714,10.8561 202.38,9.35613 201.5,8C 202.094,7.53566 202.761,7.36899 203.5,7.5 Z"/></g>
<g><path style="opacity:0.004" fill="#057bc5" d="M 183.5,12.5 C 182.833,12.5 182.5,12.8333 182.5,13.5C 181.287,12.5029 181.454,11.5029 183,10.5C 183.464,11.0944 183.631,11.7611 183.5,12.5 Z"/></g>
<g><path style="opacity:0.008" fill="#037bc4" d="M 212.5,14.5 C 212.351,13.448 212.517,12.448 213,11.5C 213.74,12.7494 213.573,13.7494 212.5,14.5 Z"/></g>
<g><path style="opacity:0.008" fill="#037cc4" d="M 211.5,14.5 C 211.833,14.5 212.167,14.5 212.5,14.5C 212.672,15.4916 212.338,16.1583 211.5,16.5C 211.5,15.8333 211.5,15.1667 211.5,14.5 Z"/></g>
<g><path style="opacity:0.008" fill="#037ac4" d="M 210.5,16.5 C 210.833,16.5 211.167,16.5 211.5,16.5C 211.315,17.1701 210.981,17.1701 210.5,16.5 Z"/></g>
<g><path style="opacity:0.016" fill="#037bc4" d="M 209.5,17.5 C 209.833,17.5 210.167,17.5 210.5,17.5C 210.315,18.1701 209.981,18.1701 209.5,17.5 Z"/></g>
<g><path style="opacity:0.016" fill="#047bc4" d="M 208.5,18.5 C 208.833,18.5 209.167,18.5 209.5,18.5C 209.315,19.1701 208.981,19.1701 208.5,18.5 Z"/></g>
<g><path style="opacity:0.016" fill="#057bc4" d="M 207.5,19.5 C 207.833,19.5 208.167,19.5 208.5,19.5C 208.315,20.1701 207.981,20.1701 207.5,19.5 Z"/></g>
<g><path style="opacity:0.004" fill="#057bc4" d="M 195.5,19.5 C 195.5,20.1667 195.5,20.8333 195.5,21.5C 194.833,21.5 194.5,21.8333 194.5,22.5C 194.167,22.5 193.833,22.5 193.5,22.5C 193.427,20.9731 194.094,19.9731 195.5,19.5 Z"/></g>
<g><path style="opacity:0.012" fill="#047ac4" d="M 206.5,20.5 C 206.833,20.5 207.167,20.5 207.5,20.5C 207.315,21.1701 206.981,21.1701 206.5,20.5 Z"/></g>
<g><path style="opacity:0.012" fill="#037bc3" d="M 171.5,24.5 C 172.525,24.8966 172.692,25.5632 172,26.5C 171.536,25.9056 171.369,25.2389 171.5,24.5 Z"/></g>
<g><path style="opacity:0.012" fill="#037ac4" d="M 201.5,26.5 C 202.833,27.1667 202.833,27.1667 201.5,26.5 Z"/></g>
<g><path style="opacity:0.016" fill="#037ac4" d="M 200.5,27.5 C 200.833,27.5 201.167,27.5 201.5,27.5C 201.315,28.1701 200.981,28.1701 200.5,27.5 Z"/></g>
<g><path style="opacity:0.016" fill="#037ac4" d="M 199.5,28.5 C 199.833,28.5 200.167,28.5 200.5,28.5C 200.315,29.1701 199.981,29.1701 199.5,28.5 Z"/></g>
<g><path style="opacity:0.016" fill="#037bc4" d="M 198.5,29.5 C 198.833,29.5 199.167,29.5 199.5,29.5C 199.315,30.1701 198.981,30.1701 198.5,29.5 Z"/></g>
<g><path style="opacity:0.01" fill="#037bc5" d="M 171.5,30.5 C 172.525,30.8966 172.692,31.5632 172,32.5C 171.536,31.9056 171.369,31.2389 171.5,30.5 Z"/></g>
<g><path style="opacity:0.016" fill="#047bc4" d="M 197.5,30.5 C 197.833,30.5 198.167,30.5 198.5,30.5C 198.315,31.1701 197.981,31.1701 197.5,30.5 Z"/></g>
<g><path style="opacity:0.012" fill="#057ac5" d="M 196.5,31.5 C 196.833,31.5 197.167,31.5 197.5,31.5C 197.315,32.1701 196.981,32.1701 196.5,31.5 Z"/></g>
<g><path style="opacity:0.008" fill="#067ac4" d="M 195.5,32.5 C 195.833,32.5 196.167,32.5 196.5,32.5C 196.315,33.1701 195.981,33.1701 195.5,32.5 Z"/></g>
<g><path style="opacity:0.004" fill="#037bc5" d="M 194.5,33.5 C 194.833,33.5 195.167,33.5 195.5,33.5C 195.672,34.4916 195.338,35.1583 194.5,35.5C 194.5,34.8333 194.5,34.1667 194.5,33.5 Z"/></g>
<g><path style="opacity:0.008" fill="#037ac4" d="M 194.5,35.5 C 193.833,36.1667 193.833,36.1667 194.5,35.5 Z"/></g>
<g><path style="opacity:0.008" fill="#037ac4" d="M 193.5,36.5 C 192.833,37.1667 192.833,37.1667 193.5,36.5 Z"/></g>
<g><path style="opacity:0.004" fill="#037bc4" d="M 192.5,37.5 C 191.833,38.1667 191.833,38.1667 192.5,37.5 Z"/></g>
<g><path style="opacity:0.012" fill="#047ac4" d="M 189.5,38.5 C 190.833,39.1667 190.833,39.1667 189.5,38.5 Z"/></g>
<g><path style="opacity:0.01" fill="#037bc4" d="M 187.5,39.5 C 188.167,39.5 188.833,39.5 189.5,39.5C 188.833,40.8333 188.167,40.8333 187.5,39.5 Z"/></g>
<g><path style="opacity:0.01" fill="#037bc4" d="M 181.5,41.5 C 182.946,40.3871 184.613,40.2204 186.5,41C 184.866,41.4935 183.199,41.6602 181.5,41.5 Z"/></g>
<g><path style="opacity:0.012" fill="#0279c4" d="M 177.5,41.5 C 178.833,42.1667 178.833,42.1667 177.5,41.5 Z"/></g>
<g><path style="opacity:0.012" fill="#027ac4" d="M 176.5,42.5 C 176.833,42.5 177.167,42.5 177.5,42.5C 177.315,43.1701 176.981,43.1701 176.5,42.5 Z"/></g>
<g><path style="opacity:0.016" fill="#037ac4" d="M 175.5,43.5 C 175.833,43.5 176.167,43.5 176.5,43.5C 176.315,44.1701 175.981,44.1701 175.5,43.5 Z"/></g>
<g><path style="opacity:0.016" fill="#037ac4" d="M 174.5,44.5 C 174.833,44.5 175.167,44.5 175.5,44.5C 175.315,45.1701 174.981,45.1701 174.5,44.5 Z"/></g>
<g><path style="opacity:0.016" fill="#037ac4" d="M 173.5,45.5 C 173.833,45.5 174.167,45.5 174.5,45.5C 174.315,46.1701 173.981,46.1701 173.5,45.5 Z"/></g>
<g><path style="opacity:0.016" fill="#047ac3" d="M 172.5,46.5 C 172.833,46.5 173.167,46.5 173.5,46.5C 173.315,47.1701 172.981,47.1701 172.5,46.5 Z"/></g>
<g><path style="opacity:0.012" fill="#057ac3" d="M 171.5,47.5 C 171.833,47.5 172.167,47.5 172.5,47.5C 172.315,48.1701 171.981,48.1701 171.5,47.5 Z"/></g>
<g><path style="opacity:0.01" fill="#037bc4" d="M 170.5,48.5 C 170.833,48.5 171.167,48.5 171.5,48.5C 172.949,50.1644 174.949,50.9977 177.5,51C 174.833,51.6667 172.167,51.6667 169.5,51C 170.252,50.3292 170.586,49.4959 170.5,48.5 Z"/></g>
<g><path style="opacity:0.011" fill="#047bc4" d="M 77.5,51.5 C 80.3035,50.3622 83.3035,50.1955 86.5,51C 83.5184,51.498 80.5184,51.6646 77.5,51.5 Z"/></g>
<g><path style="opacity:0.011" fill="#047bc4" d="M 87.5,51.5 C 90.3035,50.3622 93.3035,50.1955 96.5,51C 93.5184,51.498 90.5184,51.6646 87.5,51.5 Z"/></g>
<g><path style="opacity:0.01" fill="#037bc3" d="M 76.5,52.5 C 75.448,52.6495 74.448,52.4828 73.5,52C 74.7494,51.2599 75.7494,51.4265 76.5,52.5 Z"/></g>
<g><path style="opacity:0.01" fill="#037bc4" d="M 98.5,52.5 C 99.2506,51.4265 100.251,51.2599 101.5,52C 100.552,52.4828 99.552,52.6495 98.5,52.5 Z"/></g>
<g><path style="opacity:0.009" fill="#037bc4" d="M 178.5,52.5 C 179.251,51.4265 180.251,51.2599 181.5,52C 180.552,52.4828 179.552,52.6495 178.5,52.5 Z"/></g>
<g><path style="opacity:0.012" fill="#037cc4" d="M 152.5,53.5 C 151.448,53.6495 150.448,53.4828 149.5,53C 150.749,52.2599 151.749,52.4265 152.5,53.5 Z"/></g>
<g><path style="opacity:0.01" fill="#037ac4" d="M 182.5,53.5 C 182.897,52.475 183.563,52.3083 184.5,53C 183.906,53.4643 183.239,53.631 182.5,53.5 Z"/></g>
<g><path style="opacity:0.01" fill="#037bc4" d="M 148.5,54.5 C 147.761,54.631 147.094,54.4643 146.5,54C 147.437,53.3083 148.103,53.475 148.5,54.5 Z"/></g>
<g><path style="opacity:0.012" fill="#047bc4" d="M 108.5,55.5 C 108.897,54.475 109.563,54.3083 110.5,55C 109.906,55.4643 109.239,55.631 108.5,55.5 Z"/></g>
<g><path style="opacity:0.008" fill="#037bc4" d="M 143.5,55.5 C 143.897,54.475 144.563,54.3083 145.5,55C 144.906,55.4643 144.239,55.631 143.5,55.5 Z"/></g>
<g><path style="opacity:0.012" fill="#047bc5" d="M 187.5,55.5 C 187.897,54.475 188.563,54.3083 189.5,55C 188.906,55.4643 188.239,55.631 187.5,55.5 Z"/></g>
<g><path style="opacity:0.012" fill="#037ac5" d="M 190.5,55.5 C 191.833,56.1667 191.833,56.1667 190.5,55.5 Z"/></g>
<g><path style="opacity:0.012" fill="#047bc4" d="M 115.5,58.5 C 115.897,57.475 116.563,57.3083 117.5,58C 116.906,58.4643 116.239,58.631 115.5,58.5 Z"/></g>
<g><path style="opacity:0.008" fill="#037cc4" d="M 138.5,58.5 C 137.761,58.631 137.094,58.4643 136.5,58C 137.437,57.3083 138.103,57.475 138.5,58.5 Z"/></g>
<g><path style="opacity:0.012" fill="#037bc4" d="M 118.5,59.5 C 119.251,58.4265 120.251,58.2599 121.5,59C 120.552,59.4828 119.552,59.6495 118.5,59.5 Z"/></g>
<g><path style="opacity:0.009" fill="#027bc4" d="M 132.5,59.5 C 133.251,58.4265 134.251,58.2599 135.5,59C 134.552,59.4828 133.552,59.6495 132.5,59.5 Z"/></g>
<g><path style="opacity:0.012" fill="#047bc4" d="M 143.5,65.5 C 144.833,65.5 145.5,66.1667 145.5,67.5C 145.167,67.5 144.833,67.5 144.5,67.5C 144.167,66.8333 143.833,66.1667 143.5,65.5 Z"/></g>
<g><path style="opacity:0.008" fill="#037ac4" d="M 48.5,67.5 C 49.8333,68.1667 49.8333,68.1667 48.5,67.5 Z"/></g>
<g><path style="opacity:0.012" fill="#047bc5" d="M 48.5,70.5 C 47.8333,69.1667 47.8333,69.1667 48.5,70.5 Z"/></g>
<g><path style="opacity:0.012" fill="#037ac4" d="M 206.5,69.5 C 207.833,70.1667 207.833,70.1667 206.5,69.5 Z"/></g>
<g><path style="opacity:0.012" fill="#037ac5" d="M 47.5,70.5 C 46.8333,71.1667 46.8333,71.1667 47.5,70.5 Z"/></g>
<g><path style="opacity:0.004" fill="#047cc5" d="M 209.5,74.5 C 209.167,74.5 208.833,74.5 208.5,74.5C 208.833,71.8333 209.167,71.8333 209.5,74.5 Z"/></g>
<g><path style="opacity:0.012" fill="#037ac5" d="M 209.5,74.5 C 210.833,75.1667 210.833,75.1667 209.5,74.5 Z"/></g>
<g><path style="opacity:0.01" fill="#037bc5" d="M 211.5,80.5 C 211.369,79.7611 211.536,79.0944 212,78.5C 212.692,79.4368 212.525,80.1034 211.5,80.5 Z"/></g>
<g><path style="opacity:0.014" fill="#047bc4" d="M 135.5,79.5 C 135.5,80.1667 135.5,80.8333 135.5,81.5C 135.167,81.5 134.833,81.5 134.5,81.5C 132.969,80.0755 133.302,79.4088 135.5,79.5 Z"/></g>
<g><path style="opacity:0.01" fill="#037bc5" d="M 42.5,82.5 C 41.475,82.1034 41.3083,81.4368 42,80.5C 42.4643,81.0944 42.631,81.7611 42.5,82.5 Z"/></g>
<g><path style="opacity:0.008" fill="#057cc4" d="M 212.5,83.5 C 212.369,82.7611 212.536,82.0944 213,81.5C 213.692,82.4368 213.525,83.1034 212.5,83.5 Z"/></g>
<g><path style="opacity:0.012" fill="#037bc4" d="M 40.5,83.5 C 41.525,83.8966 41.6917,84.5632 41,85.5C 40.5357,84.9056 40.369,84.2389 40.5,83.5 Z"/></g>
<g><path style="opacity:0.01" fill="#037cc4" d="M 213.5,84.5 C 214.525,84.8966 214.692,85.5632 214,86.5C 213.536,85.9056 213.369,85.2389 213.5,84.5 Z"/></g>
<g><path style="opacity:0.009" fill="#047bc4" d="M 40.5,90.5 C 39.4017,89.3991 39.235,88.0657 40,86.5C 40.49,87.7932 40.6567,89.1266 40.5,90.5 Z"/></g>
<g><path style="opacity:0.012" fill="#037bc4" d="M 141.5,86.5 C 141.833,86.5 142.167,86.5 142.5,86.5C 142.557,87.609 142.89,88.609 143.5,89.5C 142.209,89.7373 141.209,89.404 140.5,88.5C 141.338,88.1583 141.672,87.4916 141.5,86.5 Z"/></g>
<g><path style="opacity:0.01" fill="#037bc3" d="M 214.5,87.5 C 215.598,88.6009 215.765,89.9343 215,91.5C 214.51,90.2068 214.343,88.8734 214.5,87.5 Z"/></g>
<g><path style="opacity:0.013" fill="#047bc4" d="M 128.5,90.5 C 128.5,91.1667 128.5,91.8333 128.5,92.5C 122.014,92.4422 122.014,91.7755 128.5,90.5 Z"/></g>
<g><path style="opacity:0.01" fill="#037ac4" d="M 38.5,91.5 C 39.6291,93.6282 39.7958,95.9615 39,98.5C 38.5034,96.1902 38.3367,93.8568 38.5,91.5 Z"/></g>
<g><path style="opacity:0.012" fill="#037bc4" d="M 215.5,93.5 C 216.653,99.3188 216.819,105.319 216,111.5C 215.501,105.509 215.334,99.5092 215.5,93.5 Z"/></g>
<g><path style="opacity:0.004" fill="#037dc6" d="M 75.5,95.5 C 75.5,95.8333 75.5,96.1667 75.5,96.5C 74.8333,96.5 74.5,96.8333 74.5,97.5C 74.1667,97.5 73.8333,97.5 73.5,97.5C 73.5,96.1667 74.1667,95.5 75.5,95.5 Z"/></g>
<g><path style="opacity:0.009" fill="#037bc4" d="M 38.5,105.5 C 39.6378,108.304 39.8045,111.304 39,114.5C 38.502,111.518 38.3354,108.518 38.5,105.5 Z"/></g>
<g><path style="opacity:0.009" fill="#037bc4" d="M 214.5,114.5 C 215.598,115.601 215.765,116.934 215,118.5C 214.51,117.207 214.343,115.873 214.5,114.5 Z"/></g>
<g><path style="opacity:0.011" fill="#037bc4" d="M 39.5,116.5 C 40.5983,117.601 40.765,118.934 40,120.5C 39.51,119.207 39.3433,117.873 39.5,116.5 Z"/></g>
<g><path style="opacity:0.009" fill="#037bc4" d="M 213.5,120.5 C 214.573,121.251 214.74,122.251 214,123.5C 213.517,122.552 213.351,121.552 213.5,120.5 Z"/></g>
<g><path style="opacity:0.012" fill="#047bc4" d="M 41.5,121.5 C 41.6495,122.552 41.4828,123.552 41,124.5C 40.2599,123.251 40.4265,122.251 41.5,121.5 Z"/></g>
<g><path style="opacity:0.009" fill="#047bc5" d="M 42.5,125.5 C 42.6495,126.552 42.4828,127.552 42,128.5C 41.2599,127.251 41.4265,126.251 42.5,125.5 Z"/></g>
<g><path style="opacity:0.012" fill="#047bc4" d="M 212.5,124.5 C 213.573,125.251 213.74,126.251 213,127.5C 212.517,126.552 212.351,125.552 212.5,124.5 Z"/></g>
<g><path style="opacity:0.009" fill="#047bc4" d="M 211.5,128.5 C 212.573,129.251 212.74,130.251 212,131.5C 211.517,130.552 211.351,129.552 211.5,128.5 Z"/></g>
<g><path style="opacity:0.01" fill="#037bc4" d="M 43.5,129.5 C 43.6495,130.552 43.4828,131.552 43,132.5C 42.2599,131.251 42.4265,130.251 43.5,129.5 Z"/></g>
<g><path style="opacity:0.01" fill="#037bc4" d="M 210.5,132.5 C 211.525,132.897 211.692,133.563 211,134.5C 210.536,133.906 210.369,133.239 210.5,132.5 Z"/></g>
<g><path style="opacity:0.01" fill="#047bc4" d="M 43.5,133.5 C 44.525,133.897 44.6917,134.563 44,135.5C 43.5357,134.906 43.369,134.239 43.5,133.5 Z"/></g>
<g><path style="opacity:0.01" fill="#037ac4" d="M 209.5,135.5 C 210.525,135.897 210.692,136.563 210,137.5C 209.536,136.906 209.369,136.239 209.5,135.5 Z"/></g>
<g><path style="opacity:0.01" fill="#037bc4" d="M 45.5,136.5 C 45.631,137.239 45.4643,137.906 45,138.5C 44.3083,137.563 44.475,136.897 45.5,136.5 Z"/></g>
<g><path style="opacity:0.01" fill="#037bc4" d="M 208.5,138.5 C 209.525,138.897 209.692,139.563 209,140.5C 208.536,139.906 208.369,139.239 208.5,138.5 Z"/></g>
<g><path style="opacity:0.01" fill="#037bc4" d="M 46.5,139.5 C 46.631,140.239 46.4643,140.906 46,141.5C 45.3083,140.563 45.475,139.897 46.5,139.5 Z"/></g>
<g><path style="opacity:0.008" fill="#037cc4" d="M 207.5,141.5 C 208.833,142.167 208.833,142.833 207.5,143.5C 207.5,142.833 207.5,142.167 207.5,141.5 Z"/></g>
<g><path style="opacity:0.008" fill="#037ac4" d="M 47.5,144.5 C 46.475,144.103 46.3083,143.437 47,142.5C 47.4643,143.094 47.631,143.761 47.5,144.5 Z"/></g>
<g><path style="opacity:0.008" fill="#037bc4" d="M 206.5,143.5 C 206.833,143.5 207.167,143.5 207.5,143.5C 207.737,144.791 207.404,145.791 206.5,146.5C 206.5,145.5 206.5,144.5 206.5,143.5 Z"/></g>
<g><path style="opacity:0.012" fill="#037bc4" d="M 47.5,144.5 C 47.8333,144.5 48.1667,144.5 48.5,144.5C 48.1667,147.167 47.8333,147.167 47.5,144.5 Z"/></g>
<g><path style="opacity:0.01" fill="#037bc4" d="M 205.5,146.5 C 205.833,146.5 206.167,146.5 206.5,146.5C 206.672,147.492 206.338,148.158 205.5,148.5C 205.5,147.833 205.5,147.167 205.5,146.5 Z"/></g>
<g><path style="opacity:0.008" fill="#047bc3" d="M 204.5,148.5 C 204.833,148.5 205.167,148.5 205.5,148.5C 205.167,151.167 204.833,151.167 204.5,148.5 Z"/></g>
<g><path style="opacity:0.008" fill="#037bc4" d="M 50.5,149.5 C 50.631,150.239 50.4643,150.906 50,151.5C 49.3083,150.563 49.475,149.897 50.5,149.5 Z"/></g>
<g><path style="opacity:0.008" fill="#037bc4" d="M 203.5,151.5 C 204.833,152.167 204.833,152.833 203.5,153.5C 203.5,152.833 203.5,152.167 203.5,151.5 Z"/></g>
<g><path style="opacity:0.012" fill="#037ac4" d="M 50.5,152.5 C 51.8333,153.167 51.8333,153.167 50.5,152.5 Z"/></g>
<g><path style="opacity:0.01" fill="#037cc4" d="M 202.5,153.5 C 202.833,153.5 203.167,153.5 203.5,153.5C 203.672,154.492 203.338,155.158 202.5,155.5C 202.5,154.833 202.5,154.167 202.5,153.5 Z"/></g>
<g><path style="opacity:0.008" fill="#047bc3" d="M 201.5,155.5 C 201.833,155.5 202.167,155.5 202.5,155.5C 202.167,158.167 201.833,158.167 201.5,155.5 Z"/></g>
<g><path style="opacity:0.013" fill="#037bc4" d="M 109.5,157.5 C 109.5,157.833 109.5,158.167 109.5,158.5C 108.662,158.842 108.328,159.508 108.5,160.5C 108.167,160.5 107.833,160.5 107.5,160.5C 107.285,158.821 107.952,157.821 109.5,157.5 Z"/></g>
<g><path style="opacity:0.012" fill="#037ac3" d="M 200.5,158.5 C 201.833,159.167 201.833,159.167 200.5,158.5 Z"/></g>
<g><path style="opacity:0.012" fill="#037ac4" d="M 199.5,160.5 C 200.833,161.167 200.833,161.167 199.5,160.5 Z"/></g>
<g><path style="opacity:0.012" fill="#047ac4" d="M 198.5,162.5 C 199.833,163.167 199.833,163.167 198.5,162.5 Z"/></g>
<g><path style="opacity:0.008" fill="#047cc4" d="M 56.5,162.5 C 56.5,163.167 56.5,163.833 56.5,164.5C 55.1667,163.833 55.1667,163.167 56.5,162.5 Z"/></g>
<g><path style="opacity:0.012" fill="#047ac4" d="M 197.5,164.5 C 198.833,165.167 198.833,165.167 197.5,164.5 Z"/></g>
<g><path style="opacity:0.008" fill="#047bc4" d="M 56.5,164.5 C 56.8333,164.5 57.1667,164.5 57.5,164.5C 57.5,165.167 57.5,165.833 57.5,166.5C 56.6618,166.158 56.3284,165.492 56.5,164.5 Z"/></g>
<g><path style="opacity:0.012" fill="#037ac4" d="M 196.5,166.5 C 197.833,167.167 197.833,167.167 196.5,166.5 Z"/></g>
<g><path style="opacity:0.008" fill="#047bc4" d="M 57.5,166.5 C 57.8333,166.5 58.1667,166.5 58.5,166.5C 58.5,167.167 58.5,167.833 58.5,168.5C 57.6618,168.158 57.3284,167.492 57.5,166.5 Z"/></g>
<g><path style="opacity:0.012" fill="#037ac4" d="M 195.5,168.5 C 196.833,169.167 196.833,169.167 195.5,168.5 Z"/></g>
<g><path style="opacity:0.008" fill="#047bc4" d="M 58.5,168.5 C 58.8333,168.5 59.1667,168.5 59.5,168.5C 59.1667,171.167 58.8333,171.167 58.5,168.5 Z"/></g>
<g><path style="opacity:0.012" fill="#037ac5" d="M 194.5,170.5 C 195.833,171.167 195.833,171.167 194.5,170.5 Z"/></g>
<g><path style="opacity:0.009" fill="#037bc4" d="M 112.5,171.5 C 113.167,172.167 113.833,172.833 114.5,173.5C 114.5,174.5 114.5,175.5 114.5,176.5C 114.167,176.5 113.833,176.5 113.5,176.5C 113.672,175.508 113.338,174.842 112.5,174.5C 112.5,173.5 112.5,172.5 112.5,171.5 Z"/></g>
<g><path style="opacity:0.013" fill="#027bc4" d="M 125.5,171.5 C 126.791,171.263 127.791,171.596 128.5,172.5C 127.391,172.557 126.391,172.89 125.5,173.5C 125.5,172.833 125.5,172.167 125.5,171.5 Z"/></g>
<g><path style="opacity:0.006" fill="#047bc4" d="M 193.5,171.5 C 193.833,171.5 194.167,171.5 194.5,171.5C 194.672,172.492 194.338,173.158 193.5,173.5C 193.5,172.833 193.5,172.167 193.5,171.5 Z"/></g>
<g><path style="opacity:0.008" fill="#037bc4" d="M 142.5,172.5 C 142.371,174.216 142.038,175.883 141.5,177.5C 141.167,177.5 140.833,177.5 140.5,177.5C 140.5,176.5 140.5,175.5 140.5,174.5C 141.167,173.833 141.833,173.167 142.5,172.5 Z"/></g>
<g><path style="opacity:0.01" fill="#027bc4" d="M 124.5,173.5 C 124.833,173.5 125.167,173.5 125.5,173.5C 125.672,174.492 125.338,175.158 124.5,175.5C 124.5,174.833 124.5,174.167 124.5,173.5 Z"/></g>
<g><path style="opacity:0.008" fill="#037bc4" d="M 192.5,173.5 C 192.833,173.5 193.167,173.5 193.5,173.5C 193.672,174.492 193.338,175.158 192.5,175.5C 192.5,174.833 192.5,174.167 192.5,173.5 Z"/></g>
<g><path style="opacity:0.012" fill="#037ac4" d="M 62.5,174.5 C 61.8333,175.167 61.8333,175.167 62.5,174.5 Z"/></g>
<g><path style="opacity:0.01" fill="#037bc4" d="M 111.5,174.5 C 111.833,174.5 112.167,174.5 112.5,174.5C 112.328,175.492 112.662,176.158 113.5,176.5C 113.5,177.5 113.5,178.5 113.5,179.5C 112.069,178.22 111.402,176.553 111.5,174.5 Z"/></g>
<g><path style="opacity:0.01" fill="#037bc4" d="M 123.5,175.5 C 123.833,175.5 124.167,175.5 124.5,175.5C 124.167,178.167 123.833,178.167 123.5,175.5 Z"/></g>
<g><path style="opacity:0.008" fill="#037bc4" d="M 191.5,175.5 C 191.833,175.5 192.167,175.5 192.5,175.5C 192.672,176.492 192.338,177.158 191.5,177.5C 191.5,176.833 191.5,176.167 191.5,175.5 Z"/></g>
<g><path style="opacity:0.012" fill="#037bc4" d="M 63.5,176.5 C 62.8333,177.167 62.8333,177.167 63.5,176.5 Z"/></g>
<g><path style="opacity:0.01" fill="#037bc4" d="M 131.5,176.5 C 131.631,177.239 131.464,177.906 131,178.5C 130.308,177.563 130.475,176.897 131.5,176.5 Z"/></g>
<g><path style="opacity:0.009" fill="#027bc4" d="M 141.5,177.5 C 143.964,177.062 144.13,178.062 142,180.5C 141.517,179.552 141.351,178.552 141.5,177.5 Z"/></g>
<g><path style="opacity:0.008" fill="#037ac4" d="M 190.5,177.5 C 190.833,177.5 191.167,177.5 191.5,177.5C 191.672,178.492 191.338,179.158 190.5,179.5C 190.5,178.833 190.5,178.167 190.5,177.5 Z"/></g>
<g><path style="opacity:0.012" fill="#037ac4" d="M 64.5,178.5 C 63.8333,179.167 63.8333,179.167 64.5,178.5 Z"/></g>
<g><path style="opacity:0.008" fill="#047bc4" d="M 122.5,178.5 C 123.573,179.251 123.74,180.251 123,181.5C 122.517,180.552 122.351,179.552 122.5,178.5 Z"/></g>
<g><path style="opacity:0.01" fill="#037bc4" d="M 110.5,178.5 C 112.074,180.102 112.741,182.102 112.5,184.5C 110.926,182.898 110.259,180.898 110.5,178.5 Z"/></g>
<g><path style="opacity:0.01" fill="#037bc4" d="M 132.5,179.5 C 132.649,180.552 132.483,181.552 132,182.5C 131.26,181.251 131.427,180.251 132.5,179.5 Z"/></g>
<g><path style="opacity:0.01" fill="#037ac4" d="M 189.5,179.5 C 189.833,179.5 190.167,179.5 190.5,179.5C 190.672,180.492 190.338,181.158 189.5,181.5C 189.5,180.833 189.5,180.167 189.5,179.5 Z"/></g>
<g><path style="opacity:0.008" fill="#027cc4" d="M 65.5,182.5 C 64.475,182.103 64.3083,181.437 65,180.5C 65.4643,181.094 65.631,181.761 65.5,182.5 Z"/></g>
<g><path style="opacity:0.013" fill="#037bc4" d="M 93.5,190.5 C 92.4043,187.334 91.9043,184.001 92,180.5C 93.4051,183.619 93.9051,186.952 93.5,190.5 Z"/></g>
<g><path style="opacity:0.01" fill="#037bc4" d="M 144.5,180.5 C 144.205,182.735 144.539,184.735 145.5,186.5C 146.07,194.154 146.404,201.821 146.5,209.5C 145.833,206.833 145.167,204.167 144.5,201.5C 144.528,195.585 143.861,189.751 142.5,184C 142.808,182.541 143.475,181.374 144.5,180.5 Z"/></g>
<g><path style="opacity:0.01" fill="#037bc4" d="M 65.5,182.5 C 65.8333,182.5 66.1667,182.5 66.5,182.5C 66.1667,185.167 65.8333,185.167 65.5,182.5 Z"/></g>
<g><path style="opacity:0.009" fill="#047bc4" d="M 121.5,182.5 C 122.598,183.601 122.765,184.934 122,186.5C 121.51,185.207 121.343,183.873 121.5,182.5 Z"/></g>
<g><path style="opacity:0.012" fill="#047bc4" d="M 188.5,181.5 C 188.833,181.5 189.167,181.5 189.5,181.5C 189.167,184.167 188.833,184.167 188.5,181.5 Z"/></g>
<g><path style="opacity:0.012" fill="#037bc4" d="M 111.5,190.5 C 109.882,198.961 108.716,207.627 108,216.5C 107.884,208.172 108.05,199.839 108.5,191.5C 109.314,189.369 109.814,187.036 110,184.5C 111.319,186.25 111.819,188.25 111.5,190.5 Z"/></g>
<g><path style="opacity:0.01" fill="#037bc4" d="M 132.5,184.5 C 133.598,185.601 133.765,186.934 133,188.5C 132.51,187.207 132.343,185.873 132.5,184.5 Z"/></g>
<g><path style="opacity:0.01" fill="#037bc3" d="M 187.5,184.5 C 188.525,184.897 188.692,185.563 188,186.5C 187.536,185.906 187.369,185.239 187.5,184.5 Z"/></g>
<g><path style="opacity:0.008" fill="#027bc5" d="M 67.5,187.5 C 66.475,187.103 66.3083,186.437 67,185.5C 67.4643,186.094 67.631,186.761 67.5,187.5 Z"/></g>
<g><path style="opacity:0.008" fill="#037cc4" d="M 186.5,187.5 C 187.525,187.897 187.692,188.563 187,189.5C 186.536,188.906 186.369,188.239 186.5,187.5 Z"/></g>
<g><path style="opacity:0.008" fill="#047cc3" d="M 67.5,187.5 C 67.8333,187.5 68.1667,187.5 68.5,187.5C 68.1667,191.5 67.8333,191.5 67.5,187.5 Z"/></g>
<g><path style="opacity:0.01" fill="#037bc4" d="M 120.5,187.5 C 121.613,188.946 121.78,190.613 121,192.5C 120.506,190.866 120.34,189.199 120.5,187.5 Z"/></g>
<g><path style="opacity:0.009" fill="#037bc3" d="M 134.5,189.5 C 134.662,191.527 134.495,193.527 134,195.5C 133.211,193.288 133.378,191.288 134.5,189.5 Z"/></g>
<g><path style="opacity:0.012" fill="#037bc4" d="M 185.5,190.5 C 186.525,190.897 186.692,191.563 186,192.5C 185.536,191.906 185.369,191.239 185.5,190.5 Z"/></g>
<g><path style="opacity:0.01" fill="#037bc4" d="M 68.5,191.5 C 69.525,191.897 69.6917,192.563 69,193.5C 68.5357,192.906 68.369,192.239 68.5,191.5 Z"/></g>
<g><path style="opacity:0.009" fill="#027bc4" d="M 184.5,193.5 C 185.573,194.251 185.74,195.251 185,196.5C 184.517,195.552 184.351,194.552 184.5,193.5 Z"/></g>
<g><path style="opacity:0.009" fill="#037bc4" d="M 70.5,194.5 C 70.6495,195.552 70.4828,196.552 70,197.5C 69.2599,196.251 69.4265,195.251 70.5,194.5 Z"/></g>
<g><path style="opacity:0.01" fill="#037bc4" d="M 119.5,194.5 C 120.622,196.288 120.789,198.288 120,200.5C 119.505,198.527 119.338,196.527 119.5,194.5 Z"/></g>
<g><path style="opacity:0.01" fill="#037bc4" d="M 134.5,197.5 C 135.622,199.288 135.789,201.288 135,203.5C 134.505,201.527 134.338,199.527 134.5,197.5 Z"/></g>
<g><path style="opacity:0.009" fill="#037bc4" d="M 183.5,197.5 C 184.573,198.251 184.74,199.251 184,200.5C 183.517,199.552 183.351,198.552 183.5,197.5 Z"/></g>
<g><path style="opacity:0.009" fill="#037bc4" d="M 70.5,198.5 C 71.5735,199.251 71.7401,200.251 71,201.5C 70.5172,200.552 70.3505,199.552 70.5,198.5 Z"/></g>
<g><path style="opacity:0.009" fill="#037bc4" d="M 182.5,201.5 C 183.573,202.251 183.74,203.251 183,204.5C 182.517,203.552 182.351,202.552 182.5,201.5 Z"/></g>
<g><path style="opacity:0.01" fill="#037bc4" d="M 72.5,202.5 C 72.6495,203.552 72.4828,204.552 72,205.5C 71.2599,204.251 71.4265,203.251 72.5,202.5 Z"/></g>
<g><path style="opacity:0.01" fill="#037bc4" d="M 118.5,202.5 C 119.634,204.966 119.801,207.633 119,210.5C 118.503,207.854 118.336,205.187 118.5,202.5 Z"/></g>
<g><path style="opacity:0.01" fill="#037bc4" d="M 158.5,218.5 C 157.778,218.082 157.278,217.416 157,216.5C 156.333,212.833 156.333,209.167 157,205.5C 157.583,209.832 158.083,214.165 158.5,218.5 Z"/></g>
<g><path style="opacity:0.01" fill="#037bc4" d="M 135.5,206.5 C 136.622,208.288 136.789,210.288 136,212.5C 135.505,210.527 135.338,208.527 135.5,206.5 Z"/></g>
<g><path style="opacity:0.009" fill="#037bc4" d="M 181.5,205.5 C 182.598,206.601 182.765,207.934 182,209.5C 181.51,208.207 181.343,206.873 181.5,205.5 Z"/></g>
<g><path style="opacity:0.009" fill="#037bc4" d="M 72.5,207.5 C 73.5735,208.251 73.7401,209.251 73,210.5C 72.5172,209.552 72.3505,208.552 72.5,207.5 Z"/></g>
<g><path style="opacity:0.01" fill="#027bc4" d="M 168.5,208.5 C 169.693,210.97 170.193,213.636 170,216.5C 168.748,213.986 168.248,211.32 168.5,208.5 Z"/></g>
<g><path style="opacity:0.012" fill="#037bc4" d="M 180.5,210.5 C 181.573,211.251 181.74,212.251 181,213.5C 180.517,212.552 180.351,211.552 180.5,210.5 Z"/></g>
<g><path style="opacity:0.01" fill="#037bc4" d="M 86.5,210.5 C 86.8893,213.553 86.2227,216.22 84.5,218.5C 84.5651,215.572 85.2318,212.905 86.5,210.5 Z"/></g>
<g><path style="opacity:0.01" fill="#037bc4" d="M 74.5,211.5 C 74.6567,212.873 74.49,214.207 74,215.5C 73.235,213.934 73.4017,212.601 74.5,211.5 Z"/></g>
<g><path style="opacity:0.009" fill="#037bc4" d="M 117.5,212.5 C 118.629,214.628 118.796,216.961 118,219.5C 117.503,217.19 117.337,214.857 117.5,212.5 Z"/></g>
<g><path style="opacity:0.01" fill="#037bc4" d="M 136.5,215.5 C 137.622,217.288 137.789,219.288 137,221.5C 136.505,219.527 136.338,217.527 136.5,215.5 Z"/></g>
<g><path style="opacity:0.009" fill="#037ac4" d="M 75.5,216.5 C 75.6567,217.873 75.49,219.207 75,220.5C 74.235,218.934 74.4017,217.601 75.5,216.5 Z"/></g>
<g><path style="opacity:0.011" fill="#037bc4" d="M 167.5,215.5 C 168.738,217.214 169.405,219.214 169.5,221.5C 167.72,220.01 167.054,218.01 167.5,215.5 Z"/></g>
<g><path style="opacity:0.01" fill="#027bc4" d="M 179.5,215.5 C 180.573,216.251 180.74,217.251 180,218.5C 179.517,217.552 179.351,216.552 179.5,215.5 Z"/></g>
<g><path style="opacity:0.01" fill="#037bc4" d="M 87.5,217.5 C 87.7852,219.288 87.4519,220.955 86.5,222.5C 85.3664,220.561 85.6997,218.895 87.5,217.5 Z"/></g>
<g><path style="opacity:0.01" fill="#037bc4" d="M 178.5,220.5 C 179.573,221.251 179.74,222.251 179,223.5C 178.517,222.552 178.351,221.552 178.5,220.5 Z"/></g>
<g><path style="opacity:0.01" fill="#037bc4" d="M 75.5,221.5 C 76.5735,222.251 76.7401,223.251 76,224.5C 75.5172,223.552 75.3505,222.552 75.5,221.5 Z"/></g>
<g><path style="opacity:0.009" fill="#037bc4" d="M 166.5,221.5 C 168.273,222.314 168.773,223.648 168,225.5C 166.812,224.437 166.312,223.103 166.5,221.5 Z"/></g>
<g><path style="opacity:0.01" fill="#037bc4" d="M 116.5,221.5 C 117.613,222.946 117.78,224.613 117,226.5C 116.506,224.866 116.34,223.199 116.5,221.5 Z"/></g>
<g><path style="opacity:0.01" fill="#037bc4" d="M 86.5,227.5 C 86.238,226.022 86.5713,224.689 87.5,223.5C 88.4212,225.031 88.0878,226.365 86.5,227.5 Z"/></g>
<g><path style="opacity:0.011" fill="#037bc4" d="M 137.5,223.5 C 138.613,224.946 138.78,226.613 138,228.5C 137.506,226.866 137.34,225.199 137.5,223.5 Z"/></g>
<g><path style="opacity:0.01" fill="#037bc4" d="M 177.5,224.5 C 178.573,225.251 178.74,226.251 178,227.5C 177.517,226.552 177.351,225.552 177.5,224.5 Z"/></g>
<g><path style="opacity:0.008" fill="#037ac5" d="M 77.5,225.5 C 77.6567,226.873 77.49,228.207 77,229.5C 76.235,227.934 76.4017,226.601 77.5,225.5 Z"/></g>
<g><path style="opacity:0.014" fill="#047bc4" d="M 105.5,224.5 C 106.461,226.265 106.795,228.265 106.5,230.5C 105.711,230.217 105.044,229.717 104.5,229C 105.38,227.644 105.714,226.144 105.5,224.5 Z"/></g>
<g><path style="opacity:0.009" fill="#027bc4" d="M 165.5,225.5 C 167.273,226.314 167.773,227.648 167,229.5C 166.209,228.255 165.709,226.922 165.5,225.5 Z"/></g>
<g><path style="opacity:0.012" fill="#037bc4" d="M 148.5,226.5 C 149.167,227.167 149.833,227.833 150.5,228.5C 150.5,229.167 150.5,229.833 150.5,230.5C 149.833,231.167 149.167,231.833 148.5,232.5C 148.5,230.5 148.5,228.5 148.5,226.5 Z"/></g>
<g><path style="opacity:0.01" fill="#037cc4" d="M 115.5,228.5 C 116.598,229.601 116.765,230.934 116,232.5C 115.51,231.207 115.343,229.873 115.5,228.5 Z"/></g>
<g><path style="opacity:0.012" fill="#027bc4" d="M 176.5,228.5 C 177.573,229.251 177.74,230.251 177,231.5C 176.517,230.552 176.351,229.552 176.5,228.5 Z"/></g>
<g><path style="opacity:0.012" fill="#037bc4" d="M 77.5,230.5 C 78.525,230.897 78.6917,231.563 78,232.5C 77.5357,231.906 77.369,231.239 77.5,230.5 Z"/></g>
<g><path style="opacity:0.009" fill="#037bc4" d="M 138.5,230.5 C 139.598,231.601 139.765,232.934 139,234.5C 138.51,233.207 138.343,231.873 138.5,230.5 Z"/></g>
<g><path style="opacity:0.012" fill="#037bc4" d="M 175.5,232.5 C 176.525,232.897 176.692,233.563 176,234.5C 175.536,233.906 175.369,233.239 175.5,232.5 Z"/></g>
<g><path style="opacity:0.012" fill="#037cc3" d="M 79.5,233.5 C 79.631,234.239 79.4643,234.906 79,235.5C 78.3083,234.563 78.475,233.897 79.5,233.5 Z"/></g>
<g><path style="opacity:0.009" fill="#037bc4" d="M 114.5,233.5 C 115.598,234.601 115.765,235.934 115,237.5C 114.51,236.207 114.343,234.873 114.5,233.5 Z"/></g>
<g><path style="opacity:0.009" fill="#037bc4" d="M 140.5,235.5 C 140.649,236.552 140.483,237.552 140,238.5C 139.26,237.251 139.427,236.251 140.5,235.5 Z"/></g>
<g><path style="opacity:0.01" fill="#037bc4" d="M 174.5,235.5 C 175.525,235.897 175.692,236.563 175,237.5C 174.536,236.906 174.369,236.239 174.5,235.5 Z"/></g>
<g><path style="opacity:0.01" fill="#047bc5" d="M 80.5,236.5 C 80.631,237.239 80.4643,237.906 80,238.5C 79.3083,237.563 79.475,236.897 80.5,236.5 Z"/></g>
<g><path style="opacity:0.01" fill="#037bc4" d="M 113.5,238.5 C 114.525,238.897 114.692,239.563 114,240.5C 113.536,239.906 113.369,239.239 113.5,238.5 Z"/></g>
<g><path style="opacity:0.01" fill="#027bc4" d="M 173.5,238.5 C 174.833,239.167 174.833,239.833 173.5,240.5C 173.5,239.833 173.5,239.167 173.5,238.5 Z"/></g>
<g><path style="opacity:0.01" fill="#037bc4" d="M 141.5,239.5 C 141.631,240.239 141.464,240.906 141,241.5C 140.308,240.563 140.475,239.897 141.5,239.5 Z"/></g>
<g><path style="opacity:0.01" fill="#037bc4" d="M 112.5,241.5 C 113.525,241.897 113.692,242.563 113,243.5C 112.536,242.906 112.369,242.239 112.5,241.5 Z"/></g>
<g><path style="opacity:0.008" fill="#047cc3" d="M 172.5,240.5 C 172.833,240.5 173.167,240.5 173.5,240.5C 173.672,241.492 173.338,242.158 172.5,242.5C 172.5,241.833 172.5,241.167 172.5,240.5 Z"/></g>
<g><path style="opacity:0.009" fill="#027ac4" d="M 152.5,242.5 C 154.933,243.548 154.933,244.214 152.5,244.5C 152.5,243.833 152.5,243.167 152.5,242.5 Z"/></g>
<g><path style="opacity:0.008" fill="#047bc5" d="M 171.5,242.5 C 171.833,242.5 172.167,242.5 172.5,242.5C 172.672,243.492 172.338,244.158 171.5,244.5C 171.5,243.833 171.5,243.167 171.5,242.5 Z"/></g>
<g><path style="opacity:0.012" fill="#037bc4" d="M 111.5,244.5 C 112.833,245.167 112.833,245.167 111.5,244.5 Z"/></g>
<g><path style="opacity:0.012" fill="#047bc4" d="M 170.5,244.5 C 170.833,244.5 171.167,244.5 171.5,244.5C 171.315,245.17 170.981,245.17 170.5,244.5 Z"/></g>
<g><path style="opacity:0.012" fill="#047bc5" d="M 85.5,246.5 C 84.8333,247.167 84.8333,247.167 85.5,246.5 Z"/></g>
<g><path style="opacity:0.008" fill="#037ac5" d="M 110.5,246.5 C 111.833,247.167 111.833,247.167 110.5,246.5 Z"/></g>
<g><path style="opacity:0.008" fill="#037ac4" d="M 169.5,246.5 C 170.833,247.167 170.833,247.167 169.5,246.5 Z"/></g>
<g><path style="opacity:0.012" fill="#037ac4" d="M 168.5,247.5 C 168.833,247.5 169.167,247.5 169.5,247.5C 169.315,248.17 168.981,248.17 168.5,247.5 Z"/></g>
<g><path style="opacity:0.004" fill="#0379c4" d="M 86.5,249.5 C 85.8333,248.167 85.8333,248.167 86.5,249.5 Z"/></g>
<g><path style="opacity:0.016" fill="#047bc4" d="M 167.5,248.5 C 167.833,248.5 168.167,248.5 168.5,248.5C 168.315,249.17 167.981,249.17 167.5,248.5 Z"/></g>
<g><path style="opacity:0.008" fill="#0379c4" d="M 86.5,249.5 C 87.1667,249.5 87.5,249.833 87.5,250.5C 87.1667,250.167 86.8333,249.833 86.5,249.5 Z"/></g>
<g><path style="opacity:0.012" fill="#057bc4" d="M 166.5,249.5 C 166.833,249.5 167.167,249.5 167.5,249.5C 167.315,250.17 166.981,250.17 166.5,249.5 Z"/></g>
<g><path style="opacity:0.004" fill="#0379c4" d="M 87.5,250.5 C 88.8333,251.167 88.8333,251.167 87.5,250.5 Z"/></g>
<g><path style="opacity:0.012" fill="#037bc5" d="M 165.5,250.5 C 165.833,250.5 166.167,250.5 166.5,250.5C 166.315,251.17 165.981,251.17 165.5,250.5 Z"/></g>
<g><path style="opacity:0.012" fill="#047ac4" d="M 90.5,251.5 C 90.5,251.833 90.5,252.167 90.5,252.5C 89.8299,252.019 89.8299,251.685 90.5,251.5 Z"/></g>
<g><path style="opacity:0.008" fill="#027ac4" d="M 106.5,251.5 C 107.833,252.167 107.833,252.167 106.5,251.5 Z"/></g>
<g><path style="opacity:0.012" fill="#037bc3" d="M 148.5,251.5 C 148.5,251.833 148.5,252.167 148.5,252.5C 147.83,252.019 147.83,251.685 148.5,251.5 Z"/></g>
<g><path style="opacity:0.012" fill="#037bc4" d="M 164.5,251.5 C 164.833,251.5 165.167,251.5 165.5,251.5C 165.315,252.17 164.981,252.17 164.5,251.5 Z"/></g>
<g><path style="opacity:0.008" fill="#037ac4" d="M 90.5,252.5 C 91.8333,253.167 91.8333,253.167 90.5,252.5 Z"/></g>
<g><path style="opacity:0.004" fill="#027cc4" d="M 104.5,253.5 C 104.5,253.167 104.5,252.833 104.5,252.5C 105.167,252.5 105.833,252.5 106.5,252.5C 106.158,253.338 105.492,253.672 104.5,253.5 Z"/></g>
<g><path style="opacity:0.008" fill="#037bc5" d="M 148.5,252.5 C 149.833,253.167 149.833,253.167 148.5,252.5 Z"/></g>
<g><path style="opacity:0.008" fill="#037bc4" d="M 162.5,253.5 C 162.5,253.167 162.5,252.833 162.5,252.5C 163.167,252.5 163.833,252.5 164.5,252.5C 164.158,253.338 163.492,253.672 162.5,253.5 Z"/></g>
<g><path style="opacity:0.01" fill="#037bc4" d="M 94.5,253.5 C 94.1034,254.525 93.4368,254.692 92.5,254C 93.0944,253.536 93.7611,253.369 94.5,253.5 Z"/></g>
<g><path style="opacity:0.01" fill="#027bc4" d="M 102.5,253.5 C 103.167,253.5 103.833,253.5 104.5,253.5C 103.833,254.833 103.167,254.833 102.5,253.5 Z"/></g>
<g><path style="opacity:0.01" fill="#047bc4" d="M 152.5,253.5 C 152.103,254.525 151.437,254.692 150.5,254C 151.094,253.536 151.761,253.369 152.5,253.5 Z"/></g>
<g><path style="opacity:0.008" fill="#037bc4" d="M 162.5,253.5 C 162.103,254.525 161.437,254.692 160.5,254C 161.094,253.536 161.761,253.369 162.5,253.5 Z"/></g>
<g><path style="opacity:0.007" fill="#027bc4" d="M 95.5,255.5 C 97.5,254.167 99.5,254.167 101.5,255.5C 99.5,255.5 97.5,255.5 95.5,255.5 Z"/></g>
<g><path style="opacity:0.007" fill="#027bc4" d="M 153.5,255.5 C 155.5,254.167 157.5,254.167 159.5,255.5C 157.5,255.5 155.5,255.5 153.5,255.5 Z"/></g>
</svg>
