<?xml version="1.0" encoding="UTF-8"?>
<!DOCTYPE svg PUBLIC "-//W3C//DTD SVG 1.1//EN" "http://www.w3.org/Graphics/SVG/1.1/DTD/svg11.dtd">
<svg xmlns="http://www.w3.org/2000/svg" version="1.1" width="256px" height="256px" style="shape-rendering:geometricPrecision; text-rendering:geometricPrecision; image-rendering:optimizeQuality; fill-rule:evenodd; clip-rule:evenodd" xmlns:xlink="http://www.w3.org/1999/xlink">
<g><path style="opacity:0.918" fill="#0e91f6" d="M 255.5,41.5 C 255.5,45.8333 255.5,50.1667 255.5,54.5C 251.819,63.539 246.819,71.8724 240.5,79.5C 248.157,87.485 253.157,96.8183 255.5,107.5C 255.5,113.167 255.5,118.833 255.5,124.5C 247.807,153.497 228.807,167.83 198.5,167.5C 197.671,186.137 194.837,204.471 190,222.5C 187.423,231.493 182.923,239.327 176.5,246C 171.527,247.939 166.527,247.939 161.5,246C 153.727,239.225 147.893,231.059 144,221.5C 138.53,208.251 133.363,194.918 128.5,181.5C 122.325,200.519 114.492,218.852 105,236.5C 102.117,241.05 98.2837,244.55 93.5,247C 86.363,249.004 80.5297,247.171 76,241.5C 70.0349,231.609 66.0349,220.942 64,209.5C 62.3419,201.218 61.0086,192.885 60,184.5C 59.586,184.043 59.086,183.709 58.5,183.5C 46.6854,186.885 35.3521,185.719 24.5,180C 18.8829,174.289 17.0496,167.455 19,159.5C 25.0532,145.101 33.8865,132.601 45.5,122C 38.7821,108.968 34.6154,95.1342 33,80.5C 30,74.5 27,68.5 24,62.5C 16.0441,57.772 7.87742,53.4387 -0.5,49.5C -0.5,47.5 -0.5,45.5 -0.5,43.5C 7.14011,39.6799 14.8068,35.8466 22.5,32C 27.0486,24.4045 31.2153,16.5712 35,8.5C 37.3333,7.16667 39.6667,7.16667 42,8.5C 45.0785,14.9913 48.4118,21.3246 52,27.5C 63.4015,17.6901 76.5681,14.1901 91.5,17C 105.147,20.1577 117.48,25.991 128.5,34.5C 139.52,25.991 151.853,20.1577 165.5,17C 183.346,13.8363 198.18,19.003 210,32.5C 223.861,27.8035 237.361,28.6368 250.5,35C 252.066,37.3256 253.732,39.4922 255.5,41.5 Z M 37.5,21.5 C 41.0353,25.5389 43.8686,30.2055 46,35.5C 47.1667,36.6667 48.3333,37.8333 49.5,39C 54.3257,41.2455 58.9923,43.7455 63.5,46.5C 58.9923,49.2545 54.3257,51.7545 49.5,54C 48.3333,55.1667 47.1667,56.3333 46,57.5C 43.7545,62.3257 41.2545,66.9923 38.5,71.5C 35.7455,66.9923 33.2455,62.3257 31,57.5C 29.8333,56.3333 28.6667,55.1667 27.5,54C 22.6743,51.7545 18.0077,49.2545 13.5,46.5C 18.0077,43.7455 22.6743,41.2455 27.5,39C 31.9951,33.8447 35.3284,28.0114 37.5,21.5 Z M 214.5,65.5 C 189.064,62.6328 170.231,72.2995 158,94.5C 152.668,107.48 152.168,120.646 156.5,134C 128.335,151.247 98.3346,164.414 66.5,173.5C 65.9159,160.821 65.0825,148.154 64,135.5C 51.1389,120.118 44.1389,102.451 43,82.5C 46.3333,75.8333 49.6667,69.1667 53,62.5C 60.8404,57.9125 68.8404,53.5791 77,49.5C 77.7581,47.2305 77.5914,45.0639 76.5,43C 70.8333,40.1667 65.1667,37.3333 59.5,34.5C 58.479,33.9984 58.3123,33.3317 59,32.5C 67.9533,25.3869 78.12,22.8869 89.5,25C 95.7684,26.2006 101.768,28.2006 107.5,31C 116.353,35.9246 124.686,41.5913 132.5,48C 143.785,54.7616 155.952,58.9283 169,60.5C 170.167,60.1667 171.333,59.8333 172.5,59.5C 173.374,57.2534 173.708,54.9201 173.5,52.5C 159.741,51.6359 147.074,47.4692 135.5,40C 143.777,34.0274 152.777,29.3608 162.5,26C 193.138,21.4983 210.471,34.665 214.5,65.5 Z M 225.5,37.5 C 232.067,37.5088 238.4,38.6754 244.5,41C 247.36,44.6814 248.193,48.8481 247,53.5C 243.867,61.125 239.367,67.7917 233.5,73.5C 230.254,71.9608 227.088,70.2941 224,68.5C 222.712,58.6755 219.878,49.3421 215.5,40.5C 218.759,39.0203 222.092,38.0203 225.5,37.5 Z M 195.5,73.5 C 222.903,71.1013 240.07,83.1013 247,109.5C 249.064,128.87 241.898,143.703 225.5,154C 201.484,164.289 181.984,158.789 167,137.5C 157.031,115.543 161.198,96.7093 179.5,81C 184.603,77.8092 189.936,75.3092 195.5,73.5 Z M 200.5,92.5 C 203.167,92.5 205.833,92.5 208.5,92.5C 208.334,98.5092 208.501,104.509 209,110.5C 209.75,111.126 210.584,111.626 211.5,112C 217.157,112.499 222.824,112.666 228.5,112.5C 228.5,115.167 228.5,117.833 228.5,120.5C 222.491,120.334 216.491,120.501 210.5,121C 210,121.5 209.5,122 209,122.5C 208.501,128.491 208.334,134.491 208.5,140.5C 205.833,140.5 203.167,140.5 200.5,140.5C 200.666,134.491 200.499,128.491 200,122.5C 199.5,122 199,121.5 198.5,121C 192.509,120.501 186.509,120.334 180.5,120.5C 180.5,117.833 180.5,115.167 180.5,112.5C 186.952,112.916 193.285,112.416 199.5,111C 200.476,104.924 200.81,98.7576 200.5,92.5 Z M 48.5,130.5 C 51.8049,132.654 54.3049,135.654 56,139.5C 57.5839,151.495 58.0839,163.495 57.5,175.5C 50.2058,177.662 42.8725,177.829 35.5,176C 27.9135,173.997 25.0801,169.164 27,161.5C 32.4079,149.929 39.5745,139.596 48.5,130.5 Z M 158.5,142.5 C 159.239,142.369 159.906,142.536 160.5,143C 167.961,154.452 178.295,162.118 191.5,166C 189.792,184.914 186.458,203.58 181.5,222C 179.699,228.606 176.366,234.273 171.5,239C 167.646,239.836 164.479,238.669 162,235.5C 156.907,228.32 152.574,220.653 149,212.5C 144.47,200.576 140.136,188.576 136,176.5C 131,171.167 126,171.167 121,176.5C 115.616,195.326 108.282,213.326 99,230.5C 97.1877,233.28 95.021,235.78 92.5,238C 90.3046,239.373 87.9712,239.706 85.5,239C 80.1244,233.565 76.6244,227.065 75,219.5C 71.792,207.293 69.292,194.96 67.5,182.5C 99.4943,172.663 129.828,159.33 158.5,142.5 Z"/></g>
<g><path style="opacity:0.903" fill="#0e91f6" d="M 194.5,84.5 C 201.508,84.3337 208.508,84.5004 215.5,85C 216.478,91.4102 216.811,97.9102 216.5,104.5C 222.868,104.17 229.202,104.504 235.5,105.5C 236.63,112.45 236.797,119.45 236,126.5C 235.5,127 235,127.5 234.5,128C 228.509,128.499 222.509,128.666 216.5,128.5C 216.666,134.509 216.499,140.509 216,146.5C 215.25,147.126 214.416,147.626 213.5,148C 207.5,148.667 201.5,148.667 195.5,148C 194.584,147.626 193.75,147.126 193,146.5C 192.501,140.509 192.334,134.509 192.5,128.5C 186.048,128.916 179.715,128.416 173.5,127C 172.18,119.863 172.18,112.697 173.5,105.5C 179.798,104.504 186.132,104.17 192.5,104.5C 192.334,98.4908 192.501,92.4908 193,86.5C 193.717,85.9558 194.217,85.2891 194.5,84.5 Z M 200.5,92.5 C 200.81,98.7576 200.476,104.924 199.5,111C 193.285,112.416 186.952,112.916 180.5,112.5C 180.5,115.167 180.5,117.833 180.5,120.5C 186.509,120.334 192.509,120.501 198.5,121C 199,121.5 199.5,122 200,122.5C 200.499,128.491 200.666,134.491 200.5,140.5C 203.167,140.5 205.833,140.5 208.5,140.5C 208.334,134.491 208.501,128.491 209,122.5C 209.5,122 210,121.5 210.5,121C 216.491,120.501 222.491,120.334 228.5,120.5C 228.5,117.833 228.5,115.167 228.5,112.5C 222.824,112.666 217.157,112.499 211.5,112C 210.584,111.626 209.75,111.126 209,110.5C 208.501,104.509 208.334,98.5092 208.5,92.5C 205.833,92.5 203.167,92.5 200.5,92.5 Z"/></g>
<g><path style="opacity:0.92" fill="#1092f6" d="M 222.5,168.5 C 224.199,168.34 225.866,168.506 227.5,169C 230.128,173.755 232.628,178.588 235,183.5C 239.755,186.128 244.588,188.628 249.5,191C 250.769,193.139 250.769,195.305 249.5,197.5C 244.426,199.786 239.592,202.453 235,205.5C 232.833,209.833 230.667,214.167 228.5,218.5C 226.167,221.167 223.833,221.167 221.5,218.5C 219.333,214.167 217.167,209.833 215,205.5C 210.245,202.872 205.412,200.372 200.5,198C 199.167,195.667 199.167,193.333 200.5,191C 205.412,188.628 210.245,186.128 215,183.5C 217.513,178.473 220.013,173.473 222.5,168.5 Z M 224.5,181.5 C 226.226,183.942 227.726,186.609 229,189.5C 231.414,191.291 233.914,192.957 236.5,194.5C 233.914,196.043 231.414,197.709 229,199.5C 227.92,201.996 226.586,204.33 225,206.5C 223.414,204.33 222.08,201.996 221,199.5C 218.586,197.709 216.086,196.043 213.5,194.5C 216.086,192.957 218.586,191.291 221,189.5C 222.454,186.929 223.62,184.262 224.5,181.5 Z"/></g>
</svg>
