<?xml version="1.0" encoding="UTF-8"?>
<!DOCTYPE svg PUBLIC "-//W3C//DTD SVG 1.1//EN" "http://www.w3.org/Graphics/SVG/1.1/DTD/svg11.dtd">
<svg xmlns="http://www.w3.org/2000/svg" version="1.1" width="256px" height="256px" style="shape-rendering:geometricPrecision; text-rendering:geometricPrecision; image-rendering:optimizeQuality; fill-rule:evenodd; clip-rule:evenodd" xmlns:xlink="http://www.w3.org/1999/xlink">
<g><path style="opacity:0.011" fill="#037bc4" d="M 231.5,12.5 C 234.976,11.3567 238.642,11.1901 242.5,12C 238.848,12.4986 235.182,12.6653 231.5,12.5 Z"/></g>
<g><path style="opacity:0.012" fill="#037ac3" d="M 229.5,12.5 C 230.833,13.1667 230.833,13.1667 229.5,12.5 Z"/></g>
<g><path style="opacity:0.84" fill="#037bc4" d="M 247.5,16.5 C 249.916,18.9078 251.916,21.5744 253.5,24.5C 253.833,27.1667 254.167,29.8333 254.5,32.5C 253.566,33.5676 253.232,34.901 253.5,36.5C 252.662,36.8417 252.328,37.5084 252.5,38.5C 251.094,38.9731 250.427,39.9731 250.5,41.5C 249.833,41.5 249.5,41.8333 249.5,42.5C 248.833,42.5 248.5,42.8333 248.5,43.5C 247.833,43.5 247.5,43.8333 247.5,44.5C 246.833,44.5 246.5,44.8333 246.5,45.5C 245.833,45.5 245.5,45.8333 245.5,46.5C 244.833,46.5 244.5,46.8333 244.5,47.5C 243.833,47.5 243.5,47.8333 243.5,48.5C 242.833,48.5 242.5,48.8333 242.5,49.5C 241.833,49.5 241.5,49.8333 241.5,50.5C 240.833,50.5 240.5,50.8333 240.5,51.5C 239.833,51.5 239.5,51.8333 239.5,52.5C 238.833,52.5 238.5,52.8333 238.5,53.5C 237.833,53.5 237.5,53.8333 237.5,54.5C 236.833,54.5 236.5,54.8333 236.5,55.5C 235.833,55.5 235.5,55.8333 235.5,56.5C 234.833,56.5 234.5,56.8333 234.5,57.5C 233.833,57.5 233.5,57.8333 233.5,58.5C 232.833,58.5 232.5,58.8333 232.5,59.5C 231.833,59.5 231.5,59.8333 231.5,60.5C 230.833,60.5 230.5,60.8333 230.5,61.5C 229.833,61.5 229.5,61.8333 229.5,62.5C 228.833,62.5 228.5,62.8333 228.5,63.5C 227.833,63.5 227.5,63.8333 227.5,64.5C 226.833,64.5 226.5,64.8333 226.5,65.5C 225.833,65.5 225.5,65.8333 225.5,66.5C 224.833,66.5 224.5,66.8333 224.5,67.5C 223.833,67.5 223.5,67.8333 223.5,68.5C 222.833,68.5 222.5,68.8333 222.5,69.5C 221.833,69.5 221.5,69.8333 221.5,70.5C 220.833,70.5 220.5,70.8333 220.5,71.5C 219.833,71.5 219.5,71.8333 219.5,72.5C 218.833,72.5 218.5,72.8333 218.5,73.5C 217.508,73.3284 216.842,73.6618 216.5,74.5C 215.508,74.3284 214.842,74.6618 214.5,75.5C 213.508,75.3284 212.842,75.6618 212.5,76.5C 210.973,76.427 209.973,77.0937 209.5,78.5C 208.508,78.3284 207.842,78.6618 207.5,79.5C 203.833,79.8333 201.833,81.8333 201.5,85.5C 200.833,85.5 200.5,85.8333 200.5,86.5C 199.662,86.8417 199.328,87.5084 199.5,88.5C 198.833,88.5 198.5,88.8333 198.5,89.5C 197.662,89.8417 197.328,90.5084 197.5,91.5C 194.815,94.1897 192.482,97.1897 190.5,100.5C 189.833,100.5 189.5,100.833 189.5,101.5C 188.833,101.5 188.5,101.833 188.5,102.5C 186.457,103.579 185.124,105.246 184.5,107.5C 183.833,107.5 183.5,107.833 183.5,108.5C 182.833,108.5 182.5,108.833 182.5,109.5C 180.251,110.08 178.585,111.413 177.5,113.5C 176.833,113.5 176.5,113.833 176.5,114.5C 175.833,114.5 175.5,114.833 175.5,115.5C 173.973,115.427 172.973,116.094 172.5,117.5C 171.833,117.5 171.5,117.833 171.5,118.5C 169.973,118.427 168.973,119.094 168.5,120.5C 166.973,120.427 165.973,121.094 165.5,122.5C 164.508,122.328 163.842,122.662 163.5,123.5C 162.508,123.328 161.842,123.662 161.5,124.5C 160.508,124.328 159.842,124.662 159.5,125.5C 158.508,125.328 157.842,125.662 157.5,126.5C 156.508,126.328 155.842,126.662 155.5,127.5C 154.209,127.263 153.209,127.596 152.5,128.5C 143.265,130.964 133.932,131.631 124.5,130.5C 124.672,129.508 124.338,128.842 123.5,128.5C 143.386,107.111 163.886,86.1114 185,65.5C 187.78,60.9384 190.28,56.2717 192.5,51.5C 203.574,38.591 215.574,26.4243 228.5,15C 235.118,12.6477 241.451,13.1477 247.5,16.5 Z M 238.5,20.5 C 239.791,20.2627 240.791,20.596 241.5,21.5C 240.761,21.369 240.094,21.5357 239.5,22C 241.081,22.7065 242.581,23.5399 244,24.5C 244.399,24.2716 244.565,23.9382 244.5,23.5C 246.104,24.287 246.771,25.6203 246.5,27.5C 245.167,29.1667 245.167,30.8333 246.5,32.5C 246.737,33.791 246.404,34.791 245.5,35.5C 245.167,32.8333 244.833,32.8333 244.5,35.5C 243.833,35.5 243.5,35.8333 243.5,36.5C 240.529,39.8076 237.529,43.141 234.5,46.5C 231.5,47.5 229.5,49.5 228.5,52.5C 224.668,56.1638 220.668,59.6638 216.5,63C 217.094,63.4643 217.761,63.631 218.5,63.5C 218.217,64.2891 217.717,64.9558 217,65.5C 213.962,62.6306 211.129,59.6306 208.5,56.5C 207.5,56.5 206.5,56.5 205.5,56.5C 204.922,55.453 204.256,55.6197 203.5,57C 203.728,57.3988 204.062,57.5654 204.5,57.5C 204.443,58.609 204.11,59.609 203.5,60.5C 202.475,60.8966 202.308,61.5632 203,62.5C 204.704,64.3734 206.537,66.0401 208.5,67.5C 208.5,68.1667 208.5,68.8333 208.5,69.5C 205.847,70.6756 203.181,71.5089 200.5,72C 198.316,69.9835 196.316,67.8169 194.5,65.5C 195.04,64.2519 195.707,63.0852 196.5,62C 196.272,61.6012 195.938,61.4346 195.5,61.5C 195.328,60.5084 195.662,59.8417 196.5,59.5C 196.81,60.7383 197.31,60.7383 198,59.5C 199.298,58.0544 199.465,56.7211 198.5,55.5C 198.427,53.9731 199.094,52.9731 200.5,52.5C 210.968,43.5503 221.301,33.717 231.5,23C 235.449,22.1932 235.449,21.6932 231.5,21.5C 233.713,19.6883 236.047,19.3549 238.5,20.5 Z M 244.5,35.5 C 244.833,35.5 245.167,35.5 245.5,35.5C 245.573,37.0269 244.906,38.0269 243.5,38.5C 243.5,37.8333 243.5,37.1667 243.5,36.5C 244.167,36.5 244.5,36.1667 244.5,35.5 Z M 193.5,83.5 C 193.672,84.4916 193.338,85.1583 192.5,85.5C 192.573,87.0269 191.906,88.0269 190.5,88.5C 190.565,88.0618 190.399,87.7284 190,87.5C 188.248,89.3509 186.748,91.3509 185.5,93.5C 184.833,93.5 184.5,93.8333 184.5,94.5C 180.167,99.5 175.5,104.167 170.5,108.5C 169.833,108.5 169.5,108.833 169.5,109.5C 167.895,110.006 167.561,110.673 168.5,111.5C 168.027,112.906 167.027,113.573 165.5,113.5C 161.279,114.581 156.946,116.415 152.5,119C 153.094,119.464 153.761,119.631 154.5,119.5C 153.791,120.404 152.791,120.737 151.5,120.5C 150.791,121.404 149.791,121.737 148.5,121.5C 147.432,122.434 146.099,122.768 144.5,122.5C 143.432,121.566 142.099,121.232 140.5,121.5C 155.965,105.535 171.632,89.7014 187.5,74C 190.093,74.5465 192.26,76.0465 194,78.5C 194.265,80.1626 193.765,81.6626 192.5,83C 192.728,83.3988 193.062,83.5654 193.5,83.5 Z M 185.5,93.5 C 185.833,93.5 186.167,93.5 186.5,93.5C 186.573,95.0269 185.906,96.0269 184.5,96.5C 184.5,95.8333 184.5,95.1667 184.5,94.5C 185.167,94.5 185.5,94.1667 185.5,93.5 Z M 170.5,108.5 C 171.167,108.5 171.833,108.5 172.5,108.5C 172.027,109.906 171.027,110.573 169.5,110.5C 169.5,110.167 169.5,109.833 169.5,109.5C 170.167,109.5 170.5,109.167 170.5,108.5 Z M 140.5,121.5 C 141.568,122.434 142.901,122.768 144.5,122.5C 141.72,123.82 138.72,124.32 135.5,124C 136.044,123.283 136.711,122.783 137.5,122.5C 137.435,122.938 137.601,123.272 138,123.5C 138.708,122.619 139.542,121.953 140.5,121.5 Z"/></g>
<g><path style="opacity:0.008" fill="#057ac4" d="M 247.5,15.5 C 248.833,16.1667 248.833,16.1667 247.5,15.5 Z"/></g>
<g><path style="opacity:0.004" fill="#0279c4" d="M 249.5,16.5 C 250.833,17.1667 250.833,17.1667 249.5,16.5 Z"/></g>
<g><path style="opacity:0.004" fill="#057bc4" d="M 254.5,24.5 C 254.167,24.5 253.833,24.5 253.5,24.5C 253.833,21.8333 254.167,21.8333 254.5,24.5 Z"/></g>
<g><path style="opacity:0.009" fill="#037bc4" d="M 254.5,24.5 C 254.833,24.5 255.167,24.5 255.5,24.5C 255.5,25.5 255.5,26.5 255.5,27.5C 254.596,26.791 254.263,25.791 254.5,24.5 Z"/></g>
<g><path style="opacity:0.012" fill="#047bc3" d="M 254.5,32.5 C 254.833,32.5 255.167,32.5 255.5,32.5C 255.5,33.5 255.5,34.5 255.5,35.5C 254.596,34.791 254.263,33.791 254.5,32.5 Z"/></g>
<g><path style="opacity:0.008" fill="#037bc4" d="M 253.5,36.5 C 254.833,37.1667 254.833,37.8333 253.5,38.5C 253.5,37.8333 253.5,37.1667 253.5,36.5 Z"/></g>
<g><path style="opacity:0.012" fill="#047ac5" d="M 252.5,38.5 C 252.833,38.5 253.167,38.5 253.5,38.5C 253.315,39.1701 252.981,39.1701 252.5,38.5 Z"/></g>
<g><path style="opacity:0.008" fill="#037ac4" d="M 251.5,40.5 C 252.833,41.1667 252.833,41.1667 251.5,40.5 Z"/></g>
<g><path style="opacity:0.012" fill="#037ac4" d="M 250.5,41.5 C 250.833,41.5 251.167,41.5 251.5,41.5C 251.315,42.1701 250.981,42.1701 250.5,41.5 Z"/></g>
<g><path style="opacity:0.016" fill="#037ac5" d="M 249.5,42.5 C 249.833,42.5 250.167,42.5 250.5,42.5C 250.315,43.1701 249.981,43.1701 249.5,42.5 Z"/></g>
<g><path style="opacity:0.016" fill="#037ac5" d="M 248.5,43.5 C 248.833,43.5 249.167,43.5 249.5,43.5C 249.315,44.1701 248.981,44.1701 248.5,43.5 Z"/></g>
<g><path style="opacity:0.016" fill="#037ac4" d="M 247.5,44.5 C 247.833,44.5 248.167,44.5 248.5,44.5C 248.315,45.1701 247.981,45.1701 247.5,44.5 Z"/></g>
<g><path style="opacity:0.016" fill="#037ac4" d="M 246.5,45.5 C 246.833,45.5 247.167,45.5 247.5,45.5C 247.315,46.1701 246.981,46.1701 246.5,45.5 Z"/></g>
<g><path style="opacity:0.016" fill="#037ac4" d="M 245.5,46.5 C 245.833,46.5 246.167,46.5 246.5,46.5C 246.315,47.1701 245.981,47.1701 245.5,46.5 Z"/></g>
<g><path style="opacity:0.004" fill="#057bc5" d="M 234.5,46.5 C 234.5,46.8333 234.5,47.1667 234.5,47.5C 233.833,47.5 233.5,47.8333 233.5,48.5C 232.833,48.5 232.5,48.8333 232.5,49.5C 231.833,49.5 231.5,49.8333 231.5,50.5C 230.833,50.5 230.5,50.8333 230.5,51.5C 229.833,51.5 229.5,51.8333 229.5,52.5C 229.167,52.5 228.833,52.5 228.5,52.5C 229.5,49.5 231.5,47.5 234.5,46.5 Z"/></g>
<g><path style="opacity:0.016" fill="#037ac5" d="M 244.5,47.5 C 244.833,47.5 245.167,47.5 245.5,47.5C 245.315,48.1701 244.981,48.1701 244.5,47.5 Z"/></g>
<g><path style="opacity:0.016" fill="#037ac4" d="M 243.5,48.5 C 243.833,48.5 244.167,48.5 244.5,48.5C 244.315,49.1701 243.981,49.1701 243.5,48.5 Z"/></g>
<g><path style="opacity:0.016" fill="#037ac5" d="M 242.5,49.5 C 242.833,49.5 243.167,49.5 243.5,49.5C 243.315,50.1701 242.981,50.1701 242.5,49.5 Z"/></g>
<g><path style="opacity:0.008" fill="#047cc3" d="M 192.5,51.5 C 192.167,51.5 191.833,51.5 191.5,51.5C 191.833,48.8333 192.167,48.8333 192.5,51.5 Z"/></g>
<g><path style="opacity:0.016" fill="#037ac4" d="M 241.5,50.5 C 241.833,50.5 242.167,50.5 242.5,50.5C 242.315,51.1701 241.981,51.1701 241.5,50.5 Z"/></g>
<g><path style="opacity:0.012" fill="#037ac4" d="M 191.5,51.5 C 190.833,52.1667 190.833,52.1667 191.5,51.5 Z"/></g>
<g><path style="opacity:0.016" fill="#037ac4" d="M 240.5,51.5 C 240.833,51.5 241.167,51.5 241.5,51.5C 241.315,52.1701 240.981,52.1701 240.5,51.5 Z"/></g>
<g><path style="opacity:0.016" fill="#037ac5" d="M 239.5,52.5 C 239.833,52.5 240.167,52.5 240.5,52.5C 240.315,53.1701 239.981,53.1701 239.5,52.5 Z"/></g>
<g><path style="opacity:0.016" fill="#037ac5" d="M 238.5,53.5 C 238.833,53.5 239.167,53.5 239.5,53.5C 239.315,54.1701 238.981,54.1701 238.5,53.5 Z"/></g>
<g><path style="opacity:0.016" fill="#037ac5" d="M 237.5,54.5 C 237.833,54.5 238.167,54.5 238.5,54.5C 238.315,55.1701 237.981,55.1701 237.5,54.5 Z"/></g>
<g><path style="opacity:0.016" fill="#037ac4" d="M 236.5,55.5 C 236.833,55.5 237.167,55.5 237.5,55.5C 237.315,56.1701 236.981,56.1701 236.5,55.5 Z"/></g>
<g><path style="opacity:0.016" fill="#037ac4" d="M 235.5,56.5 C 235.833,56.5 236.167,56.5 236.5,56.5C 236.315,57.1701 235.981,57.1701 235.5,56.5 Z"/></g>
<g><path style="opacity:0.016" fill="#037ac4" d="M 234.5,57.5 C 234.833,57.5 235.167,57.5 235.5,57.5C 235.315,58.1701 234.981,58.1701 234.5,57.5 Z"/></g>
<g><path style="opacity:0.016" fill="#037ac4" d="M 233.5,58.5 C 233.833,58.5 234.167,58.5 234.5,58.5C 234.315,59.1701 233.981,59.1701 233.5,58.5 Z"/></g>
<g><path style="opacity:0.016" fill="#037ac4" d="M 232.5,59.5 C 232.833,59.5 233.167,59.5 233.5,59.5C 233.315,60.1701 232.981,60.1701 232.5,59.5 Z"/></g>
<g><path style="opacity:0.016" fill="#037ac4" d="M 231.5,60.5 C 231.833,60.5 232.167,60.5 232.5,60.5C 232.315,61.1701 231.981,61.1701 231.5,60.5 Z"/></g>
<g><path style="opacity:0.016" fill="#037ac4" d="M 230.5,61.5 C 230.833,61.5 231.167,61.5 231.5,61.5C 231.315,62.1701 230.981,62.1701 230.5,61.5 Z"/></g>
<g><path style="opacity:0.016" fill="#037ac4" d="M 229.5,62.5 C 229.833,62.5 230.167,62.5 230.5,62.5C 230.315,63.1701 229.981,63.1701 229.5,62.5 Z"/></g>
<g><path style="opacity:0.781" fill="#037bc4" d="M 130.5,65.5 C 130.946,74.187 131.613,82.8537 132.5,91.5C 130.858,93.0808 128.858,93.7475 126.5,93.5C 124.992,84.2401 123.992,74.9068 123.5,65.5C 125.833,62.8333 128.167,62.8333 130.5,65.5 Z"/></g>
<g><path style="opacity:0.016" fill="#037ac4" d="M 228.5,63.5 C 228.833,63.5 229.167,63.5 229.5,63.5C 229.315,64.1701 228.981,64.1701 228.5,63.5 Z"/></g>
<g><path style="opacity:0.008" fill="#057ac6" d="M 123.5,65.5 C 122.833,64.1667 122.833,64.1667 123.5,65.5 Z"/></g>
<g><path style="opacity:0.008" fill="#037ac4" d="M 131.5,65.5 C 130.833,64.1667 130.833,64.1667 131.5,65.5 Z"/></g>
<g><path style="opacity:0.016" fill="#037ac4" d="M 227.5,64.5 C 227.833,64.5 228.167,64.5 228.5,64.5C 228.315,65.1701 227.981,65.1701 227.5,64.5 Z"/></g>
<g><path style="opacity:0.005" fill="#027bc4" d="M 122.5,65.5 C 122.657,66.8734 122.49,68.2068 122,69.5C 121.235,67.9343 121.402,66.6009 122.5,65.5 Z"/></g>
<g><path style="opacity:0.011" fill="#037bc4" d="M 131.5,65.5 C 132.634,67.9664 132.801,70.633 132,73.5C 131.503,70.854 131.336,68.1873 131.5,65.5 Z"/></g>
<g><path style="opacity:0.016" fill="#037ac4" d="M 226.5,65.5 C 226.833,65.5 227.167,65.5 227.5,65.5C 227.315,66.1701 226.981,66.1701 226.5,65.5 Z"/></g>
<g><path style="opacity:0.016" fill="#037ac4" d="M 225.5,66.5 C 225.833,66.5 226.167,66.5 226.5,66.5C 226.315,67.1701 225.981,67.1701 225.5,66.5 Z"/></g>
<g><path style="opacity:0.016" fill="#037ac4" d="M 224.5,67.5 C 224.833,67.5 225.167,67.5 225.5,67.5C 225.315,68.1701 224.981,68.1701 224.5,67.5 Z"/></g>
<g><path style="opacity:0.012" fill="#037ac4" d="M 99.5,69.5 C 99.8966,68.475 100.563,68.3083 101.5,69C 100.906,69.4643 100.239,69.631 99.5,69.5 Z"/></g>
<g><path style="opacity:0.016" fill="#037ac4" d="M 223.5,68.5 C 223.833,68.5 224.167,68.5 224.5,68.5C 224.315,69.1701 223.981,69.1701 223.5,68.5 Z"/></g>
<g><path style="opacity:0.016" fill="#037ac4" d="M 222.5,69.5 C 222.833,69.5 223.167,69.5 223.5,69.5C 223.315,70.1701 222.981,70.1701 222.5,69.5 Z"/></g>
<g><path style="opacity:0.819" fill="#037bc4" d="M 106.5,76.5 C 107.079,79.3311 108.412,81.6644 110.5,83.5C 111.079,86.3311 112.412,88.6644 114.5,90.5C 114.992,92.8185 115.992,94.8185 117.5,96.5C 117.5,96.8333 117.5,97.1667 117.5,97.5C 116.662,97.8417 116.328,98.5084 116.5,99.5C 115.508,99.3284 114.842,99.6618 114.5,100.5C 112.938,100.267 111.605,99.6005 110.5,98.5C 110.068,97.2905 109.401,96.2905 108.5,95.5C 107.921,92.6689 106.588,90.3356 104.5,88.5C 103.921,85.6689 102.588,83.3356 100.5,81.5C 99.6257,78.9227 98.6257,76.4227 97.5,74C 97.7666,70.8358 99.4333,69.8358 102.5,71C 103.488,73.167 104.821,75.0003 106.5,76.5 Z"/></g>
<g><path style="opacity:0.016" fill="#037ac5" d="M 221.5,70.5 C 221.833,70.5 222.167,70.5 222.5,70.5C 222.315,71.1701 221.981,71.1701 221.5,70.5 Z"/></g>
<g><path style="opacity:0.006" fill="#047bc4" d="M 95.5,71.5 C 96.525,71.8966 96.6917,72.5632 96,73.5C 95.5357,72.9056 95.369,72.2389 95.5,71.5 Z"/></g>
<g><path style="opacity:0.016" fill="#037ac5" d="M 220.5,71.5 C 220.833,71.5 221.167,71.5 221.5,71.5C 221.315,72.1701 220.981,72.1701 220.5,71.5 Z"/></g>
<g><path style="opacity:0.012" fill="#037ac5" d="M 219.5,72.5 C 219.833,72.5 220.167,72.5 220.5,72.5C 220.315,73.1701 219.981,73.1701 219.5,72.5 Z"/></g>
<g><path style="opacity:0.01" fill="#037bc4" d="M 122.5,73.5 C 123.634,75.9664 123.801,78.633 123,81.5C 122.503,78.854 122.336,76.1873 122.5,73.5 Z"/></g>
<g><path style="opacity:0.008" fill="#037ac5" d="M 218.5,73.5 C 218.833,73.5 219.167,73.5 219.5,73.5C 219.315,74.1701 218.981,74.1701 218.5,73.5 Z"/></g>
<g><path style="opacity:0.006" fill="#037bc5" d="M 95.5,74.5 C 96.525,74.8966 96.6917,75.5632 96,76.5C 95.5357,75.9056 95.369,75.2389 95.5,74.5 Z"/></g>
<g><path style="opacity:0.012" fill="#047bc5" d="M 216.5,74.5 C 217.833,75.1667 217.833,75.1667 216.5,74.5 Z"/></g>
<g><path style="opacity:0.012" fill="#037ac4" d="M 106.5,75.5 C 107.833,76.1667 107.833,76.1667 106.5,75.5 Z"/></g>
<g><path style="opacity:0.008" fill="#037bc4" d="M 214.5,76.5 C 214.5,76.1667 214.5,75.8333 214.5,75.5C 215.167,75.5 215.833,75.5 216.5,75.5C 216.158,76.3382 215.492,76.6716 214.5,76.5 Z"/></g>
<g><path style="opacity:0.01" fill="#037bc4" d="M 132.5,76.5 C 133.638,79.3035 133.805,82.3035 133,85.5C 132.502,82.5184 132.335,79.5184 132.5,76.5 Z"/></g>
<g><path style="opacity:0.008" fill="#037bc4" d="M 212.5,77.5 C 212.5,77.1667 212.5,76.8333 212.5,76.5C 213.167,76.5 213.833,76.5 214.5,76.5C 214.158,77.3382 213.492,77.6716 212.5,77.5 Z"/></g>
<g><path style="opacity:0.012" fill="#037ac5" d="M 212.5,77.5 C 211.833,78.1667 211.833,78.1667 212.5,77.5 Z"/></g>
<g><path style="opacity:0.012" fill="#0379c4" d="M 209.5,78.5 C 210.833,79.1667 210.833,79.1667 209.5,78.5 Z"/></g>
<g><path style="opacity:0.008" fill="#027bc4" d="M 207.5,79.5 C 208.167,79.5 208.833,79.5 209.5,79.5C 208.833,80.8333 208.167,80.8333 207.5,79.5 Z"/></g>
<g><path style="opacity:0.012" fill="#047ac4" d="M 100.5,81.5 C 99.8333,82.1667 99.8333,82.1667 100.5,81.5 Z"/></g>
<g><path style="opacity:0.012" fill="#037ac5" d="M 110.5,82.5 C 111.833,83.1667 111.833,83.1667 110.5,82.5 Z"/></g>
<g><path style="opacity:0.012" fill="#037ac4" d="M 201.5,85.5 C 202.833,86.1667 202.833,86.1667 201.5,85.5 Z"/></g>
<g><path style="opacity:0.006" fill="#037bc5" d="M 200.5,86.5 C 200.833,86.5 201.167,86.5 201.5,86.5C 201.672,87.4916 201.338,88.1583 200.5,88.5C 200.5,87.8333 200.5,87.1667 200.5,86.5 Z"/></g>
<g><path style="opacity:0.013" fill="#037bc4" d="M 123.5,85.5 C 124.622,87.2884 124.789,89.2884 124,91.5C 123.505,89.5273 123.338,87.5273 123.5,85.5 Z"/></g>
<g><path style="opacity:0.008" fill="#037ac4" d="M 83.5,89.5 C 82.8333,88.1667 82.8333,88.1667 83.5,89.5 Z"/></g>
<g><path style="opacity:0.016" fill="#047ac4" d="M 104.5,88.5 C 103.833,89.1667 103.833,89.1667 104.5,88.5 Z"/></g>
<g><path style="opacity:0.004" fill="#027ac4" d="M 133.5,91.5 C 133.351,90.448 133.517,89.448 134,88.5C 134.74,89.7494 134.573,90.7494 133.5,91.5 Z"/></g>
<g><path style="opacity:0.016" fill="#037ac5" d="M 199.5,88.5 C 199.833,88.5 200.167,88.5 200.5,88.5C 200.315,89.1701 199.981,89.1701 199.5,88.5 Z"/></g>
<g><path style="opacity:0.012" fill="#047cc5" d="M 83.5,89.5 C 84.8333,90.1667 84.8333,90.1667 83.5,89.5 Z"/></g>
<g><path style="opacity:0.012" fill="#037ac4" d="M 114.5,89.5 C 115.833,90.1667 115.833,90.1667 114.5,89.5 Z"/></g>
<g><path style="opacity:0.006" fill="#037bc4" d="M 198.5,89.5 C 198.833,89.5 199.167,89.5 199.5,89.5C 199.672,90.4916 199.338,91.1583 198.5,91.5C 198.5,90.8333 198.5,90.1667 198.5,89.5 Z"/></g>
<g><path style="opacity:0.004" fill="#037ac4" d="M 76.5,90.5 C 77.8333,91.1667 77.8333,91.1667 76.5,90.5 Z"/></g>
<g><path style="opacity:0.804" fill="#037bc4" d="M 83.5,90.5 C 86.4459,93.3131 89.7792,95.6465 93.5,97.5C 96.4459,100.313 99.7792,102.646 103.5,104.5C 103.5,105.833 103.5,107.167 103.5,108.5C 102.833,108.5 102.5,108.833 102.5,109.5C 101.833,109.5 101.5,109.833 101.5,110.5C 100.833,110.5 100.167,110.5 99.5,110.5C 97.7772,108.782 95.7772,107.449 93.5,106.5C 90.5249,103.677 87.1916,101.344 83.5,99.5C 81.215,97.8818 79.215,95.8818 77.5,93.5C 78.6338,90.2637 80.6338,89.2637 83.5,90.5 Z"/></g>
<g><path style="opacity:0.012" fill="#037ac4" d="M 85.5,90.5 C 86.8333,91.1667 86.8333,91.1667 85.5,90.5 Z"/></g>
<g><path style="opacity:0.008" fill="#047bc5" d="M 132.5,91.5 C 132.833,91.5 133.167,91.5 133.5,91.5C 133.315,92.1701 132.981,92.1701 132.5,91.5 Z"/></g>
<g><path style="opacity:0.012" fill="#037bc5" d="M 197.5,91.5 C 197.833,91.5 198.167,91.5 198.5,91.5C 198.315,92.1701 197.981,92.1701 197.5,91.5 Z"/></g>
<g><path style="opacity:0.004" fill="#047ac5" d="M 75.5,92.5 C 76.8333,93.1667 76.8333,93.1667 75.5,92.5 Z"/></g>
<g><path style="opacity:0.004" fill="#0279c5" d="M 125.5,93.5 C 124.833,92.1667 124.833,92.1667 125.5,93.5 Z"/></g>
<g><path style="opacity:0.004" fill="#0279c4" d="M 125.5,93.5 C 125.833,93.5 126.167,93.5 126.5,93.5C 126.315,94.1701 125.981,94.1701 125.5,93.5 Z"/></g>
<g><path style="opacity:0.006" fill="#037bc4" d="M 117.5,96.5 C 117.369,95.7611 117.536,95.0944 118,94.5C 118.692,95.4368 118.525,96.1034 117.5,96.5 Z"/></g>
<g><path style="opacity:0.012" fill="#037bc4" d="M 127.5,95.5 C 128.251,94.4265 129.251,94.2599 130.5,95C 129.552,95.4828 128.552,95.6495 127.5,95.5 Z"/></g>
<g><path style="opacity:0.016" fill="#047ac4" d="M 108.5,95.5 C 107.833,96.1667 107.833,96.1667 108.5,95.5 Z"/></g>
<g><path style="opacity:0.016" fill="#047ac4" d="M 93.5,96.5 C 94.8333,97.1667 94.8333,97.1667 93.5,96.5 Z"/></g>
<g><path style="opacity:0.008" fill="#037ac5" d="M 95.5,97.5 C 96.8333,98.1667 96.8333,98.1667 95.5,97.5 Z"/></g>
<g><path style="opacity:0.006" fill="#037ac3" d="M 117.5,97.5 C 118.833,98.1667 118.833,98.8333 117.5,99.5C 117.5,98.8333 117.5,98.1667 117.5,97.5 Z"/></g>
<g><path style="opacity:0.004" fill="#047bc6" d="M 110.5,98.5 C 109.833,99.1667 109.833,99.1667 110.5,98.5 Z"/></g>
<g><path style="opacity:0.016" fill="#037ac5" d="M 83.5,99.5 C 83.5,99.8333 83.5,100.167 83.5,100.5C 82.8299,100.019 82.8299,99.6853 83.5,99.5 Z"/></g>
<g><path style="opacity:0.004" fill="#0379c4" d="M 116.5,99.5 C 116.833,99.5 117.167,99.5 117.5,99.5C 117.315,100.17 116.981,100.17 116.5,99.5 Z"/></g>
<g><path style="opacity:0.008" fill="#037ac4" d="M 83.5,100.5 C 84.8333,101.167 84.8333,101.167 83.5,100.5 Z"/></g>
<g><path style="opacity:0.004" fill="#047cc5" d="M 114.5,101.5 C 114.5,101.167 114.5,100.833 114.5,100.5C 115.167,100.5 115.833,100.5 116.5,100.5C 116.158,101.338 115.492,101.672 114.5,101.5 Z"/></g>
<g><path style="opacity:0.016" fill="#037ac5" d="M 190.5,100.5 C 191.833,101.167 191.833,101.167 190.5,100.5 Z"/></g>
<g><path style="opacity:0.004" fill="#027bc4" d="M 114.5,101.5 C 114.103,102.525 113.437,102.692 112.5,102C 113.094,101.536 113.761,101.369 114.5,101.5 Z"/></g>
<g><path style="opacity:0.016" fill="#047ac5" d="M 189.5,101.5 C 189.833,101.5 190.167,101.5 190.5,101.5C 190.315,102.17 189.981,102.17 189.5,101.5 Z"/></g>
<g><path style="opacity:0.012" fill="#067ac4" d="M 188.5,102.5 C 188.833,102.5 189.167,102.5 189.5,102.5C 189.315,103.17 188.981,103.17 188.5,102.5 Z"/></g>
<g><path style="opacity:0.004" fill="#0279c4" d="M 103.5,103.5 C 104.833,104.167 104.833,104.167 103.5,103.5 Z"/></g>
<g><path style="opacity:0.012" fill="#027ac4" d="M 104.5,108.5 C 104.351,107.448 104.517,106.448 105,105.5C 105.74,106.749 105.573,107.749 104.5,108.5 Z"/></g>
<g><path style="opacity:0.016" fill="#047bc4" d="M 93.5,106.5 C 93.5,106.833 93.5,107.167 93.5,107.5C 92.8299,107.019 92.8299,106.685 93.5,106.5 Z"/></g>
<g><path style="opacity:0.012" fill="#037ac5" d="M 93.5,107.5 C 94.8333,108.167 94.8333,108.167 93.5,107.5 Z"/></g>
<g><path style="opacity:0.008" fill="#027ac3" d="M 184.5,107.5 C 185.833,108.167 185.833,108.167 184.5,107.5 Z"/></g>
<g><path style="opacity:0.004" fill="#037ac3" d="M 103.5,108.5 C 103.833,108.5 104.167,108.5 104.5,108.5C 104.315,109.17 103.981,109.17 103.5,108.5 Z"/></g>
<g><path style="opacity:0.008" fill="#027ac4" d="M 183.5,108.5 C 183.833,108.5 184.167,108.5 184.5,108.5C 184.315,109.17 183.981,109.17 183.5,108.5 Z"/></g>
<g><path style="opacity:0.004" fill="#067cc1" d="M 102.5,109.5 C 102.833,109.5 103.167,109.5 103.5,109.5C 103.315,110.17 102.981,110.17 102.5,109.5 Z"/></g>
<g><path style="opacity:0.008" fill="#027ac4" d="M 182.5,109.5 C 182.833,109.5 183.167,109.5 183.5,109.5C 183.315,110.17 182.981,110.17 182.5,109.5 Z"/></g>
<g><path style="opacity:0.006" fill="#027bc4" d="M 99.5,110.5 C 99.1034,111.525 98.4368,111.692 97.5,111C 98.0944,110.536 98.7611,110.369 99.5,110.5 Z"/></g>
<g><path style="opacity:0.008" fill="#037ac4" d="M 101.5,110.5 C 101.833,110.5 102.167,110.5 102.5,110.5C 102.315,111.17 101.981,111.17 101.5,110.5 Z"/></g>
<g><path style="opacity:0.008" fill="#0279c4" d="M 182.5,110.5 C 181.833,111.167 181.833,111.167 182.5,110.5 Z"/></g>
<g><path style="opacity:0.008" fill="#037ac4" d="M 181.5,111.5 C 180.833,112.167 180.833,112.167 181.5,111.5 Z"/></g>
<g><path style="opacity:0.004" fill="#0279c5" d="M 180.5,112.5 C 179.833,113.167 179.833,113.167 180.5,112.5 Z"/></g>
<g><path style="opacity:0.012" fill="#047bc3" d="M 177.5,113.5 C 178.833,114.167 178.833,114.167 177.5,113.5 Z"/></g>
<g><path style="opacity:0.016" fill="#047bc4" d="M 176.5,114.5 C 176.833,114.5 177.167,114.5 177.5,114.5C 177.315,115.17 176.981,115.17 176.5,114.5 Z"/></g>
<g><path style="opacity:0.012" fill="#037ac5" d="M 175.5,115.5 C 175.833,115.5 176.167,115.5 176.5,115.5C 176.315,116.17 175.981,116.17 175.5,115.5 Z"/></g>
<g><path style="opacity:0.01" fill="#037bc4" d="M 67.5,117.5 C 69.9664,116.366 72.633,116.199 75.5,117C 72.854,117.497 70.1873,117.664 67.5,117.5 Z"/></g>
<g><path style="opacity:0.011" fill="#047bc4" d="M 77.5,117.5 C 79.6282,116.371 81.9615,116.204 84.5,117C 82.1902,117.497 79.8568,117.663 77.5,117.5 Z"/></g>
<g><path style="opacity:0.008" fill="#037ac4" d="M 175.5,116.5 C 174.833,117.167 174.833,117.167 175.5,116.5 Z"/></g>
<g><path style="opacity:0.009" fill="#037bc4" d="M 62.5,118.5 C 63.2506,117.427 64.2506,117.26 65.5,118C 64.552,118.483 63.552,118.649 62.5,118.5 Z"/></g>
<g><path style="opacity:0.01" fill="#037bc4" d="M 86.5,118.5 C 87.6009,117.402 88.9343,117.235 90.5,118C 89.2068,118.49 87.8734,118.657 86.5,118.5 Z"/></g>
<g><path style="opacity:0.009" fill="#037bc3" d="M 117.5,118.5 C 116.448,118.649 115.448,118.483 114.5,118C 115.749,117.26 116.749,117.427 117.5,118.5 Z"/></g>
<g><path style="opacity:0.008" fill="#047ac4" d="M 119.5,117.5 C 120.833,118.167 120.833,118.167 119.5,117.5 Z"/></g>
<g><path style="opacity:0.012" fill="#047ac5" d="M 172.5,117.5 C 173.833,118.167 173.833,118.167 172.5,117.5 Z"/></g>
<g><path style="opacity:0.01" fill="#037ac4" d="M 59.5,119.5 C 59.8966,118.475 60.5632,118.308 61.5,119C 60.9056,119.464 60.2389,119.631 59.5,119.5 Z"/></g>
<g><path style="opacity:0.805" fill="#037bc4" d="M 96.5,121.5 C 98.0463,122.86 99.8796,123.86 102,124.5C 104.985,123.255 107.818,121.922 110.5,120.5C 111.791,120.737 112.791,120.404 113.5,119.5C 115.099,119.768 116.432,119.434 117.5,118.5C 118.167,118.5 118.833,118.5 119.5,118.5C 120.167,119.833 121.167,120.833 122.5,121.5C 121.778,124.223 120.111,125.889 117.5,126.5C 115.901,126.232 114.568,126.566 113.5,127.5C 112.209,127.263 111.209,127.596 110.5,128.5C 109.508,128.328 108.842,128.662 108.5,129.5C 107.508,129.328 106.842,129.662 106.5,130.5C 105.508,130.328 104.842,130.662 104.5,131.5C 103.508,131.328 102.842,131.662 102.5,132.5C 102.167,132.5 101.833,132.5 101.5,132.5C 101.027,131.094 100.027,130.427 98.5,130.5C 97.2196,129.069 95.5529,128.402 93.5,128.5C 92.791,127.596 91.791,127.263 90.5,127.5C 89.4324,126.566 88.099,126.232 86.5,126.5C 79.5,123.833 72.5,123.833 65.5,126.5C 62.0836,126.528 59.0836,127.528 56.5,129.5C 55.5084,129.328 54.8417,129.662 54.5,130.5C 53.5084,130.328 52.8417,130.662 52.5,131.5C 51.5084,131.328 50.8417,131.662 50.5,132.5C 49.8333,132.5 49.5,132.833 49.5,133.5C 48.5084,133.328 47.8417,133.662 47.5,134.5C 46.8333,134.5 46.5,134.833 46.5,135.5C 45.8333,135.5 45.5,135.833 45.5,136.5C 44.8333,136.5 44.5,136.833 44.5,137.5C 43.8333,137.5 43.5,137.833 43.5,138.5C 42.8333,138.5 42.5,138.833 42.5,139.5C 41.8333,139.5 41.5,139.833 41.5,140.5C 40.8333,140.5 40.5,140.833 40.5,141.5C 39.8333,141.5 39.5,141.833 39.5,142.5C 38.8333,142.5 38.5,142.833 38.5,143.5C 37.6618,143.842 37.3284,144.508 37.5,145.5C 36.8333,145.5 36.5,145.833 36.5,146.5C 35.8333,146.5 35.5,146.833 35.5,147.5C 23.7828,147.791 12.1162,147.458 0.5,146.5C 0.5,145.833 0.166667,145.5 -0.5,145.5C -0.5,144.167 -0.5,142.833 -0.5,141.5C 0.166667,141.5 0.5,141.167 0.5,140.5C 11.1719,140.667 21.8385,140.5 32.5,140C 38.089,133.573 44.4223,128.073 51.5,123.5C 52.4916,123.672 53.1583,123.338 53.5,122.5C 67.7068,117.577 82.0402,117.244 96.5,121.5 Z"/></g>
<g><path style="opacity:0.012" fill="#037bc4" d="M 113.5,119.5 C 112.761,119.631 112.094,119.464 111.5,119C 112.437,118.308 113.103,118.475 113.5,119.5 Z"/></g>
<g><path style="opacity:0.012" fill="#037ac4" d="M 171.5,118.5 C 171.833,118.5 172.167,118.5 172.5,118.5C 172.315,119.17 171.981,119.17 171.5,118.5 Z"/></g>
<g><path style="opacity:0.008" fill="#057cc4" d="M 110.5,120.5 C 109.761,120.631 109.094,120.464 108.5,120C 109.437,119.308 110.103,119.475 110.5,120.5 Z"/></g>
<g><path style="opacity:0.008" fill="#037ac4" d="M 171.5,119.5 C 170.833,120.167 170.833,120.167 171.5,119.5 Z"/></g>
<g><path style="opacity:0.01" fill="#027bc4" d="M 96.5,121.5 C 96.8966,120.475 97.5632,120.308 98.5,121C 97.9056,121.464 97.2389,121.631 96.5,121.5 Z"/></g>
<g><path style="opacity:0.008" fill="#047ac5" d="M 122.5,120.5 C 123.833,121.167 123.833,121.167 122.5,120.5 Z"/></g>
<g><path style="opacity:0.016" fill="#057ac4" d="M 168.5,120.5 C 169.833,121.167 169.833,121.167 168.5,120.5 Z"/></g>
<g><path style="opacity:0.012" fill="#047bc4" d="M 53.5,122.5 C 52.8333,121.167 52.8333,121.167 53.5,122.5 Z"/></g>
<g><path style="opacity:0.012" fill="#037ac5" d="M 99.5,121.5 C 100.833,122.167 100.833,122.167 99.5,121.5 Z"/></g>
<g><path style="opacity:0.008" fill="#047ac4" d="M 168.5,121.5 C 167.833,122.167 167.833,122.167 168.5,121.5 Z"/></g>
<g><path style="opacity:0.012" fill="#037ac5" d="M 51.5,123.5 C 50.8333,122.167 50.8333,122.167 51.5,123.5 Z"/></g>
<g><path style="opacity:0.012" fill="#047ac5" d="M 165.5,122.5 C 166.833,123.167 166.833,123.167 165.5,122.5 Z"/></g>
<g><path style="opacity:0.008" fill="#037bc4" d="M 163.5,124.5 C 163.5,124.167 163.5,123.833 163.5,123.5C 164.167,123.5 164.833,123.5 165.5,123.5C 165.158,124.338 164.492,124.672 163.5,124.5 Z"/></g>
<g><path style="opacity:0.008" fill="#037bc5" d="M 161.5,125.5 C 161.5,125.167 161.5,124.833 161.5,124.5C 162.167,124.5 162.833,124.5 163.5,124.5C 163.158,125.338 162.492,125.672 161.5,125.5 Z"/></g>
<g><path style="opacity:0.004" fill="#067cc5" d="M 74.5,126.5 C 75.6009,125.402 76.9343,125.235 78.5,126C 77.2068,126.49 75.8734,126.657 74.5,126.5 Z"/></g>
<g><path style="opacity:0.008" fill="#027ac4" d="M 159.5,126.5 C 159.5,126.167 159.5,125.833 159.5,125.5C 160.167,125.5 160.833,125.5 161.5,125.5C 161.158,126.338 160.492,126.672 159.5,126.5 Z"/></g>
<g><path style="opacity:0.01" fill="#037bc4" d="M 65.5,126.5 C 67.1992,126.34 68.8659,126.506 70.5,127C 68.6131,127.78 66.9464,127.613 65.5,126.5 Z"/></g>
<g><path style="opacity:0.008" fill="#037bc4" d="M 86.5,126.5 C 85.0536,127.613 83.3869,127.78 81.5,127C 83.1341,126.506 84.8008,126.34 86.5,126.5 Z"/></g>
<g><path style="opacity:0.01" fill="#037bc4" d="M 117.5,126.5 C 118.552,126.351 119.552,126.517 120.5,127C 119.251,127.74 118.251,127.573 117.5,126.5 Z"/></g>
<g><path style="opacity:0.008" fill="#027bc4" d="M 157.5,127.5 C 157.5,127.167 157.5,126.833 157.5,126.5C 158.167,126.5 158.833,126.5 159.5,126.5C 159.158,127.338 158.492,127.672 157.5,127.5 Z"/></g>
<g><path style="opacity:0.008" fill="#027bc4" d="M 62.5,128.5 C 62.8966,127.475 63.5632,127.308 64.5,128C 63.9056,128.464 63.2389,128.631 62.5,128.5 Z"/></g>
<g><path style="opacity:0.01" fill="#037bc4" d="M 90.5,127.5 C 89.7494,128.573 88.7494,128.74 87.5,128C 88.448,127.517 89.448,127.351 90.5,127.5 Z"/></g>
<g><path style="opacity:0.012" fill="#027bc4" d="M 113.5,128.5 C 113.5,128.167 113.5,127.833 113.5,127.5C 117.5,127.833 117.5,128.167 113.5,128.5 Z"/></g>
<g><path style="opacity:0.008" fill="#037bc4" d="M 155.5,127.5 C 156.167,127.5 156.833,127.5 157.5,127.5C 156.833,128.833 156.167,128.833 155.5,127.5 Z"/></g>
<g><path style="opacity:0.008" fill="#037ac4" d="M 59.5,129.5 C 59.8966,128.475 60.5632,128.308 61.5,129C 60.9056,129.464 60.2389,129.631 59.5,129.5 Z"/></g>
<g><path style="opacity:0.01" fill="#027bc5" d="M 93.5,128.5 C 93.5,128.833 93.5,129.167 93.5,129.5C 90.8333,129.167 90.8333,128.833 93.5,128.5 Z"/></g>
<g><path style="opacity:0.008" fill="#037bc4" d="M 110.5,129.5 C 110.5,129.167 110.5,128.833 110.5,128.5C 111.5,128.5 112.5,128.5 113.5,128.5C 112.791,129.404 111.791,129.737 110.5,129.5 Z"/></g>
<g><path style="opacity:0.01" fill="#037ac4" d="M 152.5,128.5 C 153.239,128.369 153.906,128.536 154.5,129C 153.563,129.692 152.897,129.525 152.5,128.5 Z"/></g>
<g><path style="opacity:0.008" fill="#037cc4" d="M 56.5,130.5 C 56.5,130.167 56.5,129.833 56.5,129.5C 59.1667,129.833 59.1667,130.167 56.5,130.5 Z"/></g>
<g><path style="opacity:0.008" fill="#027ac3" d="M 93.5,129.5 C 94.2389,129.369 94.9056,129.536 95.5,130C 94.5632,130.692 93.8966,130.525 93.5,129.5 Z"/></g>
<g><path style="opacity:0.008" fill="#037bc4" d="M 108.5,129.5 C 109.167,129.5 109.833,129.5 110.5,129.5C 109.833,130.833 109.167,130.833 108.5,129.5 Z"/></g>
<g><path style="opacity:0.004" fill="#027cc3" d="M 123.5,128.5 C 123.5,129.167 123.5,129.833 123.5,130.5C 122.167,129.833 122.167,129.167 123.5,128.5 Z"/></g>
<g><path style="opacity:0.01" fill="#037bc4" d="M 149.5,130.5 C 149.897,129.475 150.563,129.308 151.5,130C 150.906,130.464 150.239,130.631 149.5,130.5 Z"/></g>
<g><path style="opacity:0.004" fill="#027ac4" d="M 38.5,130.5 C 39.8333,131.167 39.8333,131.167 38.5,130.5 Z"/></g>
<g><path style="opacity:0.01" fill="#037bc4" d="M 54.5,131.5 C 54.5,131.167 54.5,130.833 54.5,130.5C 55.1667,130.5 55.8333,130.5 56.5,130.5C 56.1583,131.338 55.4916,131.672 54.5,131.5 Z"/></g>
<g><path style="opacity:0.004" fill="#057cc4" d="M 98.5,130.5 C 98.5,130.833 98.5,131.167 98.5,131.5C 95.8333,131.167 95.8333,130.833 98.5,130.5 Z"/></g>
<g><path style="opacity:0.012" fill="#027bc4" d="M 106.5,130.5 C 107.833,131.167 107.833,131.167 106.5,130.5 Z"/></g>
<g><path style="opacity:0.004" fill="#027ac3" d="M 123.5,130.5 C 123.833,130.5 124.167,130.5 124.5,130.5C 124.5,130.833 124.5,131.167 124.5,131.5C 124.167,131.167 123.833,130.833 123.5,130.5 Z"/></g>
<g><path style="opacity:0.009" fill="#037bc4" d="M 145.5,131.5 C 146.251,130.427 147.251,130.26 148.5,131C 147.552,131.483 146.552,131.649 145.5,131.5 Z"/></g>
<g><path style="opacity:0.012" fill="#037bc4" d="M 162.5,131.5 C 162.897,130.475 163.563,130.308 164.5,131C 163.906,131.464 163.239,131.631 162.5,131.5 Z"/></g>
<g><path style="opacity:0.008" fill="#0279c4" d="M 38.5,131.5 C 37.8333,132.167 37.8333,132.167 38.5,131.5 Z"/></g>
<g><path style="opacity:0.004" fill="#037bc4" d="M 52.5,132.5 C 52.5,132.167 52.5,131.833 52.5,131.5C 53.1667,131.5 53.8333,131.5 54.5,131.5C 54.1583,132.338 53.4916,132.672 52.5,132.5 Z"/></g>
<g><path style="opacity:0.012" fill="#037ac4" d="M 98.5,131.5 C 99.8333,132.167 99.8333,132.167 98.5,131.5 Z"/></g>
<g><path style="opacity:0.012" fill="#047ac4" d="M 104.5,131.5 C 105.833,132.167 105.833,132.167 104.5,131.5 Z"/></g>
<g><path style="opacity:0.008" fill="#027bc4" d="M 124.5,131.5 C 125.239,131.369 125.906,131.536 126.5,132C 125.563,132.692 124.897,132.525 124.5,131.5 Z"/></g>
<g><path style="opacity:0.01" fill="#037bc4" d="M 138.5,132.5 C 140.288,131.378 142.288,131.211 144.5,132C 142.527,132.495 140.527,132.662 138.5,132.5 Z"/></g>
<g><path style="opacity:0.006" fill="#047bc2" d="M 50.5,133.5 C 50.5,133.167 50.5,132.833 50.5,132.5C 51.1667,132.5 51.8333,132.5 52.5,132.5C 52.1583,133.338 51.4916,133.672 50.5,133.5 Z"/></g>
<g><path style="opacity:0.012" fill="#037bc3" d="M 101.5,132.5 C 100.833,133.167 100.833,133.167 101.5,132.5 Z"/></g>
<g><path style="opacity:0.006" fill="#037bc3" d="M 102.5,132.5 C 103.167,132.5 103.833,132.5 104.5,132.5C 103.833,133.833 103.167,133.833 102.5,132.5 Z"/></g>
<g><path style="opacity:0.768" fill="#037bc4" d="M 168.5,135.5 C 168.859,137.371 169.859,138.871 171.5,140C 182.576,140.189 193.576,140.689 204.5,141.5C 204.747,143.858 204.081,145.858 202.5,147.5C 190.783,147.791 179.116,147.458 167.5,146.5C 167.672,145.508 167.338,144.842 166.5,144.5C 164.248,141.662 162.248,138.662 160.5,135.5C 160.5,133.5 161.5,132.5 163.5,132.5C 165.423,133.092 167.089,134.092 168.5,135.5 Z"/></g>
<g><path style="opacity:0.016" fill="#037ac4" d="M 49.5,133.5 C 49.8333,133.5 50.1667,133.5 50.5,133.5C 50.3147,134.17 49.9813,134.17 49.5,133.5 Z"/></g>
<g><path style="opacity:0.006" fill="#047bc4" d="M 158.5,133.5 C 159.598,134.601 159.765,135.934 159,137.5C 158.51,136.207 158.343,134.873 158.5,133.5 Z"/></g>
<g><path style="opacity:0.008" fill="#037bc4" d="M 47.5,135.5 C 47.5,135.167 47.5,134.833 47.5,134.5C 48.1667,134.5 48.8333,134.5 49.5,134.5C 49.1583,135.338 48.4916,135.672 47.5,135.5 Z"/></g>
<g><path style="opacity:0.012" fill="#027ac4" d="M 169.5,135.5 C 168.833,134.167 168.833,134.167 169.5,135.5 Z"/></g>
<g><path style="opacity:0.016" fill="#047ac5" d="M 46.5,135.5 C 46.8333,135.5 47.1667,135.5 47.5,135.5C 47.3147,136.17 46.9813,136.17 46.5,135.5 Z"/></g>
<g><path style="opacity:0.008" fill="#037ac4" d="M 169.5,135.5 C 170.167,135.5 170.5,135.833 170.5,136.5C 170.167,136.167 169.833,135.833 169.5,135.5 Z"/></g>
<g><path style="opacity:0.016" fill="#037ac4" d="M 45.5,136.5 C 45.8333,136.5 46.1667,136.5 46.5,136.5C 46.3147,137.17 45.9813,137.17 45.5,136.5 Z"/></g>
<g><path style="opacity:0.004" fill="#027ac4" d="M 170.5,136.5 C 171.833,137.167 171.833,137.167 170.5,136.5 Z"/></g>
<g><path style="opacity:0.016" fill="#037ac4" d="M 44.5,137.5 C 44.8333,137.5 45.1667,137.5 45.5,137.5C 45.3147,138.17 44.9813,138.17 44.5,137.5 Z"/></g>
<g><path style="opacity:0.012" fill="#027bc4" d="M 43.5,138.5 C 43.8333,138.5 44.1667,138.5 44.5,138.5C 44.3147,139.17 43.9813,139.17 43.5,138.5 Z"/></g>
<g><path style="opacity:0.011" fill="#037bc4" d="M 74.5,139.5 C 77.6399,138.359 80.9733,138.192 84.5,139C 81.1832,139.498 77.8499,139.665 74.5,139.5 Z"/></g>
<g><path style="opacity:0.011" fill="#037bc4" d="M 118.5,139.5 C 121.64,138.359 124.973,138.192 128.5,139C 125.183,139.498 121.85,139.665 118.5,139.5 Z"/></g>
<g><path style="opacity:0.004" fill="#0379c4" d="M 160.5,139.5 C 159.833,138.167 159.833,138.167 160.5,139.5 Z"/></g>
<g><path style="opacity:0.004" fill="#027ac4" d="M -0.5,139.5 C 0.166667,139.5 0.5,139.833 0.5,140.5C 0.166667,140.167 -0.166667,139.833 -0.5,139.5 Z"/></g>
<g><path style="opacity:0.012" fill="#037bc4" d="M 42.5,139.5 C 42.8333,139.5 43.1667,139.5 43.5,139.5C 43.3147,140.17 42.9813,140.17 42.5,139.5 Z"/></g>
<g><path style="opacity:0.01" fill="#037bc4" d="M 70.5,140.5 C 70.8966,139.475 71.5632,139.308 72.5,140C 71.9056,140.464 71.2389,140.631 70.5,140.5 Z"/></g>
<g><path style="opacity:0.009" fill="#027bc4" d="M 89.5,140.5 C 88.448,140.649 87.448,140.483 86.5,140C 87.7494,139.26 88.7494,139.427 89.5,140.5 Z"/></g>
<g><path style="opacity:0.009" fill="#027bc4" d="M 113.5,140.5 C 114.251,139.427 115.251,139.26 116.5,140C 115.552,140.483 114.552,140.649 113.5,140.5 Z"/></g>
<g><path style="opacity:0.009" fill="#037bc4" d="M 129.5,140.5 C 130.251,139.427 131.251,139.26 132.5,140C 131.552,140.483 130.552,140.649 129.5,140.5 Z"/></g>
<g><path style="opacity:0.008" fill="#0379c4" d="M 160.5,139.5 C 161.167,139.5 161.5,139.833 161.5,140.5C 161.167,140.167 160.833,139.833 160.5,139.5 Z"/></g>
<g><path style="opacity:0.012" fill="#037ac4" d="M 41.5,140.5 C 41.8333,140.5 42.1667,140.5 42.5,140.5C 42.3147,141.17 41.9813,141.17 41.5,140.5 Z"/></g>
<g><path style="opacity:0.826" fill="#037bc4" d="M 89.5,141.5 C 90.209,142.404 91.209,142.737 92.5,142.5C 94.2048,144.192 96.2048,145.525 98.5,146.5C 99.1217,147.627 99.955,148.627 101,149.5C 103.688,147.636 106.188,145.636 108.5,143.5C 109.492,143.672 110.158,143.338 110.5,142.5C 111.791,142.737 112.791,142.404 113.5,141.5C 118.797,140.725 124.13,140.392 129.5,140.5C 132.756,141.786 136.089,143.12 139.5,144.5C 143.5,147.833 147.167,151.5 150.5,155.5C 150.328,156.492 150.662,157.158 151.5,157.5C 152.766,162.257 153.766,167.091 154.5,172C 153.638,175.811 152.971,179.644 152.5,183.5C 151.662,183.842 151.328,184.508 151.5,185.5C 150.326,186.514 149.66,187.847 149.5,189.5C 148.662,189.842 148.328,190.508 148.5,191.5C 147.833,191.5 147.5,191.833 147.5,192.5C 146.662,192.842 146.328,193.508 146.5,194.5C 145.661,195.641 144.994,196.974 144.5,198.5C 144.654,202.652 144.654,206.985 144.5,211.5C 143.566,212.568 143.232,213.901 143.5,215.5C 142.262,217.214 141.595,219.214 141.5,221.5C 140.596,222.209 140.263,223.209 140.5,224.5C 139.662,224.842 139.328,225.508 139.5,226.5C 138.662,226.842 138.328,227.508 138.5,228.5C 137.662,228.842 137.328,229.508 137.5,230.5C 136.833,230.5 136.5,230.833 136.5,231.5C 135.662,231.842 135.328,232.508 135.5,233.5C 134.833,233.5 134.5,233.833 134.5,234.5C 133.662,234.842 133.328,235.508 133.5,236.5C 132.833,236.5 132.5,236.833 132.5,237.5C 131.833,237.5 131.5,237.833 131.5,238.5C 130.833,238.5 130.5,238.833 130.5,239.5C 129.833,239.5 129.5,239.833 129.5,240.5C 128.833,240.5 128.5,240.833 128.5,241.5C 125.833,241.5 123.167,241.5 120.5,241.5C 118.384,239.4 116.717,237.067 115.5,234.5C 115.59,231.848 114.924,229.515 113.5,227.5C 113.737,226.209 113.404,225.209 112.5,224.5C 112.737,223.209 112.404,222.209 111.5,221.5C 111.737,220.209 111.404,219.209 110.5,218.5C 110.737,217.209 110.404,216.209 109.5,215.5C 109.737,214.209 109.404,213.209 108.5,212.5C 106.641,208.074 103.308,206.574 98.5,208C 97.5842,208.278 96.9175,208.778 96.5,209.5C 95.8333,209.5 95.5,209.833 95.5,210.5C 94.6618,210.842 94.3284,211.508 94.5,212.5C 93.596,213.209 93.2627,214.209 93.5,215.5C 91.1939,219.085 89.8606,223.085 89.5,227.5C 88.596,228.209 88.2627,229.209 88.5,230.5C 87.129,232.936 86.129,235.603 85.5,238.5C 84.8333,238.5 84.5,238.833 84.5,239.5C 83.8333,239.5 83.5,239.833 83.5,240.5C 80.5701,241.299 77.5701,241.632 74.5,241.5C 73.8333,240.167 72.8333,239.167 71.5,238.5C 70.396,236.611 69.0627,234.945 67.5,233.5C 67.6716,232.508 67.3382,231.842 66.5,231.5C 64.4673,227.435 62.4673,223.435 60.5,219.5C 59.0735,211.052 57.7401,202.719 56.5,194.5C 56.6716,193.508 56.3382,192.842 55.5,192.5C 54.9744,190.77 53.9744,189.436 52.5,188.5C 52.5979,186.447 51.9313,184.78 50.5,183.5C 50.7373,182.209 50.404,181.209 49.5,180.5C 49.7845,178.585 49.4511,176.919 48.5,175.5C 48.7395,171.158 49.0728,166.824 49.5,162.5C 57.1534,145.004 70.4867,138.004 89.5,141.5 Z M 89.5,149.5 C 88.448,149.351 87.448,149.517 86.5,150C 87.8721,150.402 89.2054,150.902 90.5,151.5C 91.1067,151.376 91.44,151.043 91.5,150.5C 93.0269,150.427 94.0269,151.094 94.5,152.5C 94.0618,152.435 93.7284,152.601 93.5,153C 97.4462,156.387 100.28,160.554 102,165.5C 102.838,166.999 103.671,167.332 104.5,166.5C 105.833,166.5 107.167,166.5 108.5,166.5C 109.078,167.547 109.744,167.38 110.5,166C 110.272,165.601 109.938,165.435 109.5,165.5C 109.5,163.833 109.5,162.167 109.5,160.5C 110.272,158.47 109.606,156.637 107.5,155C 110.048,152.558 113.048,150.892 116.5,150C 115.552,149.517 114.552,149.351 113.5,149.5C 116.356,147.994 119.523,147.328 123,147.5C 125.361,147.504 127.527,147.837 129.5,148.5C 130.791,148.263 131.791,148.596 132.5,149.5C 133.492,149.328 134.158,149.662 134.5,150.5C 135.492,150.328 136.158,150.662 136.5,151.5C 135.167,151.833 135.167,152.167 136.5,152.5C 136.5,153.167 136.833,153.5 137.5,153.5C 140.158,156.015 142.325,159.015 144,162.5C 144.464,161.906 144.631,161.239 144.5,160.5C 145.404,161.209 145.737,162.209 145.5,163.5C 147.489,167.402 147.823,171.402 146.5,175.5C 146.768,177.099 146.434,178.432 145.5,179.5C 145.737,180.791 145.404,181.791 144.5,182.5C 144.737,183.791 144.404,184.791 143.5,185.5C 143.573,187.027 142.906,188.027 141.5,188.5C 140.671,187.668 139.838,188.001 139,189.5C 137.702,190.946 137.535,192.279 138.5,193.5C 138.816,199.75 138.15,205.75 136.5,211.5C 136.768,213.099 136.434,214.432 135.5,215.5C 135.737,216.791 135.404,217.791 134.5,218.5C 134.737,219.791 134.404,220.791 133.5,221.5C 133.631,220.761 133.464,220.094 133,219.5C 131.627,222.412 130.127,225.246 128.5,228C 128.728,228.399 129.062,228.565 129.5,228.5C 129.672,229.492 129.338,230.158 128.5,230.5C 127.671,229.668 126.838,230.001 126,231.5C 125.626,232.416 125.126,233.25 124.5,234C 124.728,234.399 125.062,234.565 125.5,234.5C 124.811,235.774 123.977,235.774 123,234.5C 122.51,233.207 122.343,231.873 122.5,230.5C 123.097,230.265 123.43,229.765 123.5,229C 123,227.5 122.5,226 122,224.5C 121.517,225.448 121.351,226.448 121.5,227.5C 119.261,222.784 117.595,217.784 116.5,212.5C 115.596,211.791 115.263,210.791 115.5,209.5C 114.662,209.158 114.328,208.492 114.5,207.5C 114.938,207.565 115.272,207.399 115.5,207C 112.897,203.724 109.73,201.224 106,199.5C 105.235,199.57 104.735,199.903 104.5,200.5C 102.5,200.5 100.5,200.5 98.5,200.5C 95.7964,199.486 93.4631,200.319 91.5,203C 91.7284,203.399 92.0618,203.565 92.5,203.5C 91.8333,204.833 90.8333,205.833 89.5,206.5C 88.6715,205.668 87.8382,206.001 87,207.5C 86.3083,208.437 86.475,209.103 87.5,209.5C 87.5979,211.553 86.9313,213.22 85.5,214.5C 85.7373,215.791 85.404,216.791 84.5,217.5C 84.7373,218.791 84.404,219.791 83.5,220.5C 83.7373,221.791 83.404,222.791 82.5,223.5C 82.5905,226.152 81.9238,228.485 80.5,230.5C 80.6567,231.873 80.49,233.207 80,234.5C 79.0228,235.774 78.1894,235.774 77.5,234.5C 78.547,233.922 78.3803,233.256 77,232.5C 76.6012,232.728 76.4346,233.062 76.5,233.5C 75.0937,233.027 74.427,232.027 74.5,230.5C 74.9382,230.565 75.2716,230.399 75.5,230C 73.5392,226.579 71.7059,223.079 70,219.5C 69.5357,220.094 69.369,220.761 69.5,221.5C 67.672,218.865 66.5053,215.865 66,212.5C 64.8119,206.222 64.3119,199.888 64.5,193.5C 65.7125,192.503 65.5458,191.503 64,190.5C 63.6012,190.728 63.4346,191.062 63.5,191.5C 62.0937,191.027 61.427,190.027 61.5,188.5C 61.9382,188.565 62.2716,188.399 62.5,188C 61.5399,186.581 60.7065,185.081 60,183.5C 59.5357,184.094 59.369,184.761 59.5,185.5C 58.0687,184.22 57.4021,182.553 57.5,180.5C 56.1141,177.785 55.4474,174.785 55.5,171.5C 55.4336,167.421 56.4336,163.755 58.5,160.5C 58.369,161.239 58.5357,161.906 59,162.5C 60.7766,158.096 63.6099,154.596 67.5,152C 67.2716,151.601 66.9382,151.435 66.5,151.5C 67.287,149.896 68.6203,149.229 70.5,149.5C 71.209,148.596 72.209,148.263 73.5,148.5C 75.4726,147.837 77.6392,147.504 80,147.5C 83.4774,147.328 86.644,147.994 89.5,149.5 Z M 136.5,152.5 C 136.5,152.167 136.5,151.833 136.5,151.5C 138.027,151.427 139.027,152.094 139.5,153.5C 138.833,153.5 138.167,153.5 137.5,153.5C 136.833,153.5 136.5,153.167 136.5,152.5 Z M 90.5,157.5 C 91.1667,157.5 91.8333,157.5 92.5,157.5C 92.5,158.167 92.8333,158.5 93.5,158.5C 93.5,159.167 93.5,159.833 93.5,160.5C 92.1667,159.833 91.1667,158.833 90.5,157.5 Z"/></g>
<g><path style="opacity:0.01" fill="#047bc4" d="M 89.5,141.5 C 89.5,141.167 89.5,140.833 89.5,140.5C 92.1667,140.833 92.1667,141.167 89.5,141.5 Z"/></g>
<g><path style="opacity:0.008" fill="#047cc5" d="M 113.5,140.5 C 113.5,140.833 113.5,141.167 113.5,141.5C 110.833,141.167 110.833,140.833 113.5,140.5 Z"/></g>
<g><path style="opacity:0.008" fill="#0279c4" d="M 161.5,140.5 C 162.833,141.167 162.833,141.167 161.5,140.5 Z"/></g>
<g><path style="opacity:0.004" fill="#047ac4" d="M 205.5,141.5 C 204.833,140.167 204.833,140.167 205.5,141.5 Z"/></g>
<g><path style="opacity:0.016" fill="#037ac4" d="M 40.5,141.5 C 40.8333,141.5 41.1667,141.5 41.5,141.5C 41.3147,142.17 40.9813,142.17 40.5,141.5 Z"/></g>
<g><path style="opacity:0.012" fill="#037ac3" d="M 92.5,141.5 C 93.8333,142.167 93.8333,142.167 92.5,141.5 Z"/></g>
<g><path style="opacity:0.012" fill="#037bc4" d="M 110.5,142.5 C 109.833,141.167 109.833,141.167 110.5,142.5 Z"/></g>
<g><path style="opacity:0.008" fill="#047bc4" d="M 205.5,141.5 C 206.598,142.601 206.765,143.934 206,145.5C 205.51,144.207 205.343,142.873 205.5,141.5 Z"/></g>
<g><path style="opacity:0.016" fill="#047bc5" d="M 39.5,142.5 C 39.8333,142.5 40.1667,142.5 40.5,142.5C 40.3147,143.17 39.9813,143.17 39.5,142.5 Z"/></g>
<g><path style="opacity:0.012" fill="#037ac4" d="M 108.5,143.5 C 107.833,142.167 107.833,142.167 108.5,143.5 Z"/></g>
<g><path style="opacity:0.008" fill="#037ac5" d="M 105.5,143.5 C 106.833,144.167 106.833,144.167 105.5,143.5 Z"/></g>
<g><path style="opacity:0.012" fill="#047ac4" d="M 139.5,143.5 C 140.833,144.167 140.833,144.167 139.5,143.5 Z"/></g>
<g><path style="opacity:0.004" fill="#037bc4" d="M 38.5,143.5 C 38.8333,143.5 39.1667,143.5 39.5,143.5C 39.6716,144.492 39.3382,145.158 38.5,145.5C 38.5,144.833 38.5,144.167 38.5,143.5 Z"/></g>
<g><path style="opacity:0.008" fill="#037ac4" d="M 60.5,144.5 C 61.8333,145.167 61.8333,145.167 60.5,144.5 Z"/></g>
<g><path style="opacity:0.008" fill="#037ac5" d="M 141.5,144.5 C 142.833,145.167 142.833,145.167 141.5,144.5 Z"/></g>
<g><path style="opacity:0.012" fill="#037ac4" d="M 37.5,145.5 C 37.8333,145.5 38.1667,145.5 38.5,145.5C 38.3147,146.17 37.9813,146.17 37.5,145.5 Z"/></g>
<g><path style="opacity:0.012" fill="#037ac4" d="M 98.5,145.5 C 99.8333,146.167 99.8333,146.167 98.5,145.5 Z"/></g>
<g><path style="opacity:0.008" fill="#047cc3" d="M 166.5,144.5 C 166.5,145.167 166.5,145.833 166.5,146.5C 165.167,145.833 165.167,145.167 166.5,144.5 Z"/></g>
<g><path style="opacity:0.004" fill="#067cc4" d="M -0.5,146.5 C -0.166667,146.5 0.166667,146.5 0.5,146.5C 0.5,146.833 0.5,147.167 0.5,147.5C 0.166667,147.167 -0.166667,146.833 -0.5,146.5 Z"/></g>
<g><path style="opacity:0.004" fill="#047bc5" d="M 36.5,146.5 C 36.8333,146.5 37.1667,146.5 37.5,146.5C 37.3147,147.17 36.9813,147.17 36.5,146.5 Z"/></g>
<g><path style="opacity:0.004" fill="#027bc4" d="M 100.5,147.5 C 100.897,146.475 101.563,146.308 102.5,147C 101.906,147.464 101.239,147.631 100.5,147.5 Z"/></g>
<g><path style="opacity:0.004" fill="#047bc4" d="M 166.5,146.5 C 166.833,146.5 167.167,146.5 167.5,146.5C 167.5,146.833 167.5,147.167 167.5,147.5C 167.167,147.167 166.833,146.833 166.5,146.5 Z"/></g>
<g><path style="opacity:0.008" fill="#037bc5" d="M 0.5,147.5 C 1.83333,148.167 1.83333,148.167 0.5,147.5 Z"/></g>
<g><path style="opacity:0.004" fill="#0479c5" d="M 35.5,147.5 C 35.8333,147.5 36.1667,147.5 36.5,147.5C 36.3147,148.17 35.9813,148.17 35.5,147.5 Z"/></g>
<g><path style="opacity:0.004" fill="#037bc4" d="M 167.5,147.5 C 168.833,148.167 168.833,148.167 167.5,147.5 Z"/></g>
<g><path style="opacity:0.008" fill="#047bc4" d="M 202.5,147.5 C 203.833,148.167 203.833,148.167 202.5,147.5 Z"/></g>
<g><path style="opacity:0.875" fill="#037bc4" d="M 82.5,153.5 C 85.1013,154.801 87.768,156.134 90.5,157.5C 91.1667,158.833 92.1667,159.833 93.5,160.5C 94.1667,161.833 95.1667,162.833 96.5,163.5C 96.427,165.027 97.0937,166.027 98.5,166.5C 93.5,167.167 88.5,167.833 83.5,168.5C 81.1016,168.259 79.1016,168.926 77.5,170.5C 76.5084,170.328 75.8417,170.662 75.5,171.5C 73.9731,171.427 72.9731,172.094 72.5,173.5C 71.1667,174.167 70.1667,175.167 69.5,176.5C 68.0937,176.973 67.427,177.973 67.5,179.5C 66.6618,179.842 66.3284,180.508 66.5,181.5C 64.4658,180.409 63.1324,178.743 62.5,176.5C 62.5,173.167 62.5,169.833 62.5,166.5C 63.404,165.791 63.7373,164.791 63.5,163.5C 64.9063,163.027 65.573,162.027 65.5,160.5C 67.9078,158.084 70.5744,156.084 73.5,154.5C 76.4824,154.037 79.4824,153.704 82.5,153.5 Z"/></g>
<g><path style="opacity:0.012" fill="#037bc4" d="M 150.5,154.5 C 151.833,155.167 151.833,155.167 150.5,154.5 Z"/></g>
<g><path style="opacity:0.012" fill="#037ac3" d="M 151.5,156.5 C 152.833,157.167 152.833,157.167 151.5,156.5 Z"/></g>
<g><path style="opacity:0.008" fill="#037ac4" d="M 49.5,157.5 C 50.525,157.897 50.6917,158.563 50,159.5C 49.5357,158.906 49.369,158.239 49.5,157.5 Z"/></g>
<g><path style="opacity:0.012" fill="#037ac4" d="M 152.5,158.5 C 153.833,159.167 153.833,159.167 152.5,158.5 Z"/></g>
<g><path style="opacity:0.01" fill="#037bc4" d="M 49.5,162.5 C 48.475,162.103 48.3083,161.437 49,160.5C 49.4643,161.094 49.631,161.761 49.5,162.5 Z"/></g>
<g><path style="opacity:0.008" fill="#037bc4" d="M 153.5,160.5 C 154.525,160.897 154.692,161.563 154,162.5C 153.536,161.906 153.369,161.239 153.5,160.5 Z"/></g>
<g><path style="opacity:0.01" fill="#037bc4" d="M 47.5,163.5 C 48.5983,164.601 48.765,165.934 48,167.5C 47.51,166.207 47.3433,164.873 47.5,163.5 Z"/></g>
<g><path style="opacity:0.01" fill="#037bc4" d="M 154.5,163.5 C 155.598,164.601 155.765,165.934 155,167.5C 154.51,166.207 154.343,164.873 154.5,163.5 Z"/></g>
<g><path style="opacity:0.009" fill="#037bc4" d="M 48.5,175.5 C 48.6567,176.873 48.49,178.207 48,179.5C 47.235,177.934 47.4017,176.601 48.5,175.5 Z"/></g>
<g><path style="opacity:0.01" fill="#037bc4" d="M 154.5,175.5 C 155.598,176.601 155.765,177.934 155,179.5C 154.51,178.207 154.343,176.873 154.5,175.5 Z"/></g>
<g><path style="opacity:0.012" fill="#037bc3" d="M 49.5,180.5 C 49.631,181.239 49.4643,181.906 49,182.5C 48.3083,181.563 48.475,180.897 49.5,180.5 Z"/></g>
<g><path style="opacity:0.012" fill="#037bc4" d="M 153.5,180.5 C 154.525,180.897 154.692,181.563 154,182.5C 153.536,181.906 153.369,181.239 153.5,180.5 Z"/></g>
<g><path style="opacity:0.008" fill="#037bc4" d="M 50.5,183.5 C 50.631,184.239 50.4643,184.906 50,185.5C 49.3083,184.563 49.475,183.897 50.5,183.5 Z"/></g>
<g><path style="opacity:0.01" fill="#037ac4" d="M 152.5,183.5 C 153.833,184.167 153.833,184.833 152.5,185.5C 152.5,184.833 152.5,184.167 152.5,183.5 Z"/></g>
<g><path style="opacity:0.012" fill="#037ac4" d="M 50.5,186.5 C 51.8333,187.167 51.8333,187.167 50.5,186.5 Z"/></g>
<g><path style="opacity:0.012" fill="#037bc4" d="M 151.5,185.5 C 151.833,185.5 152.167,185.5 152.5,185.5C 152.167,188.167 151.833,188.167 151.5,185.5 Z"/></g>
<g><path style="opacity:0.012" fill="#037ac4" d="M 52.5,188.5 C 51.8333,189.167 51.8333,189.167 52.5,188.5 Z"/></g>
<g><path style="opacity:0.012" fill="#037ac5" d="M 150.5,188.5 C 151.833,189.167 151.833,189.167 150.5,188.5 Z"/></g>
<g><path style="opacity:0.008" fill="#037bc3" d="M 149.5,189.5 C 149.833,189.5 150.167,189.5 150.5,189.5C 150.672,190.492 150.338,191.158 149.5,191.5C 149.5,190.833 149.5,190.167 149.5,189.5 Z"/></g>
<g><path style="opacity:0.008" fill="#027ac4" d="M 52.5,190.5 C 53.8333,191.167 53.8333,191.167 52.5,190.5 Z"/></g>
<g><path style="opacity:0.012" fill="#037ac4" d="M 148.5,191.5 C 148.833,191.5 149.167,191.5 149.5,191.5C 149.315,192.17 148.981,192.17 148.5,191.5 Z"/></g>
<g><path style="opacity:0.006" fill="#027ac4" d="M 147.5,192.5 C 147.833,192.5 148.167,192.5 148.5,192.5C 148.672,193.492 148.338,194.158 147.5,194.5C 147.5,193.833 147.5,193.167 147.5,192.5 Z"/></g>
<g><path style="opacity:0.008" fill="#037bc3" d="M 55.5,192.5 C 55.5,193.167 55.5,193.833 55.5,194.5C 54.1667,193.833 54.1667,193.167 55.5,192.5 Z"/></g>
<g><path style="opacity:0.01" fill="#037bc4" d="M 55.5,194.5 C 55.8333,194.5 56.1667,194.5 56.5,194.5C 56.1667,197.167 55.8333,197.167 55.5,194.5 Z"/></g>
<g><path style="opacity:0.01" fill="#027bc4" d="M 146.5,194.5 C 146.833,194.5 147.167,194.5 147.5,194.5C 147.167,197.167 146.833,197.167 146.5,194.5 Z"/></g>
<g><path style="opacity:0.01" fill="#037bc4" d="M 145.5,203.5 C 146.629,205.628 146.796,207.961 146,210.5C 145.503,208.19 145.337,205.857 145.5,203.5 Z"/></g>
<g><path style="opacity:0.01" fill="#037bc4" d="M 56.5,205.5 C 57.6129,206.946 57.7796,208.613 57,210.5C 56.5065,208.866 56.3398,207.199 56.5,205.5 Z"/></g>
<g><path style="opacity:0.012" fill="#027ac4" d="M 96.5,210.5 C 96.5,210.167 96.5,209.833 96.5,209.5C 99.1667,209.833 99.1667,210.167 96.5,210.5 Z"/></g>
<g><path style="opacity:0.012" fill="#037bc4" d="M 95.5,210.5 C 95.8333,210.5 96.1667,210.5 96.5,210.5C 96.6716,211.492 96.3382,212.158 95.5,212.5C 95.5,211.833 95.5,211.167 95.5,210.5 Z"/></g>
<g><path style="opacity:0.009" fill="#037bc4" d="M 57.5,212.5 C 58.5735,213.251 58.7401,214.251 58,215.5C 57.5172,214.552 57.3505,213.552 57.5,212.5 Z"/></g>
<g><path style="opacity:0.01" fill="#037bc4" d="M 94.5,212.5 C 94.8333,212.5 95.1667,212.5 95.5,212.5C 95.1667,215.167 94.8333,215.167 94.5,212.5 Z"/></g>
<g><path style="opacity:0.012" fill="#037bc4" d="M 144.5,211.5 C 145.573,212.251 145.74,213.251 145,214.5C 144.517,213.552 144.351,212.552 144.5,211.5 Z"/></g>
<g><path style="opacity:0.012" fill="#047bc4" d="M 108.5,212.5 C 108.631,213.239 108.464,213.906 108,214.5C 107.308,213.563 107.475,212.897 108.5,212.5 Z"/></g>
<g><path style="opacity:0.01" fill="#037bc4" d="M 93.5,215.5 C 94.525,215.897 94.6917,216.563 94,217.5C 93.5357,216.906 93.369,216.239 93.5,215.5 Z"/></g>
<g><path style="opacity:0.01" fill="#037bc4" d="M 109.5,215.5 C 109.631,216.239 109.464,216.906 109,217.5C 108.308,216.563 108.475,215.897 109.5,215.5 Z"/></g>
<g><path style="opacity:0.008" fill="#037bc4" d="M 143.5,215.5 C 144.573,216.251 144.74,217.251 144,218.5C 143.517,217.552 143.351,216.552 143.5,215.5 Z"/></g>
<g><path style="opacity:0.01" fill="#037bc4" d="M 58.5,216.5 C 59.525,216.897 59.6917,217.563 59,218.5C 58.5357,217.906 58.369,217.239 58.5,216.5 Z"/></g>
<g><path style="opacity:0.008" fill="#037bc4" d="M 92.5,218.5 C 93.525,218.897 93.6917,219.563 93,220.5C 92.5357,219.906 92.369,219.239 92.5,218.5 Z"/></g>
<g><path style="opacity:0.01" fill="#037bc4" d="M 110.5,218.5 C 110.631,219.239 110.464,219.906 110,220.5C 109.308,219.563 109.475,218.897 110.5,218.5 Z"/></g>
<g><path style="opacity:0.01" fill="#037bc4" d="M 60.5,219.5 C 60.631,220.239 60.4643,220.906 60,221.5C 59.3083,220.563 59.475,219.897 60.5,219.5 Z"/></g>
<g><path style="opacity:0.008" fill="#037bc4" d="M 142.5,221.5 C 142.369,220.761 142.536,220.094 143,219.5C 143.692,220.437 143.525,221.103 142.5,221.5 Z"/></g>
<g><path style="opacity:0.008" fill="#037bc4" d="M 91.5,221.5 C 92.525,221.897 92.6917,222.563 92,223.5C 91.5357,222.906 91.369,222.239 91.5,221.5 Z"/></g>
<g><path style="opacity:0.01" fill="#037bc4" d="M 111.5,221.5 C 111.631,222.239 111.464,222.906 111,223.5C 110.308,222.563 110.475,221.897 111.5,221.5 Z"/></g>
<g><path style="opacity:0.008" fill="#047bc4" d="M 141.5,221.5 C 141.833,221.5 142.167,221.5 142.5,221.5C 142.167,224.167 141.833,224.167 141.5,221.5 Z"/></g>
<g><path style="opacity:0.008" fill="#037bc4" d="M 60.5,222.5 C 61.525,222.897 61.6917,223.563 61,224.5C 60.5357,223.906 60.369,223.239 60.5,222.5 Z"/></g>
<g><path style="opacity:0.012" fill="#027bc4" d="M 90.5,224.5 C 91.525,224.897 91.6917,225.563 91,226.5C 90.5357,225.906 90.369,225.239 90.5,224.5 Z"/></g>
<g><path style="opacity:0.01" fill="#037ac4" d="M 112.5,224.5 C 112.631,225.239 112.464,225.906 112,226.5C 111.308,225.563 111.475,224.897 112.5,224.5 Z"/></g>
<g><path style="opacity:0.008" fill="#037bc4" d="M 140.5,224.5 C 141.833,225.167 141.833,225.833 140.5,226.5C 140.5,225.833 140.5,225.167 140.5,224.5 Z"/></g>
<g><path style="opacity:0.008" fill="#037bc4" d="M 139.5,226.5 C 139.833,226.5 140.167,226.5 140.5,226.5C 140.672,227.492 140.338,228.158 139.5,228.5C 139.5,227.833 139.5,227.167 139.5,226.5 Z"/></g>
<g><path style="opacity:0.01" fill="#037bc4" d="M 89.5,227.5 C 90.525,227.897 90.6917,228.563 90,229.5C 89.5357,228.906 89.369,228.239 89.5,227.5 Z"/></g>
<g><path style="opacity:0.008" fill="#037bc4" d="M 113.5,227.5 C 113.649,228.552 113.483,229.552 113,230.5C 112.26,229.251 112.427,228.251 113.5,227.5 Z"/></g>
<g><path style="opacity:0.012" fill="#047bc5" d="M 138.5,228.5 C 138.833,228.5 139.167,228.5 139.5,228.5C 139.315,229.17 138.981,229.17 138.5,228.5 Z"/></g>
<g><path style="opacity:0.012" fill="#037ac5" d="M 137.5,230.5 C 138.833,231.167 138.833,231.167 137.5,230.5 Z"/></g>
<g><path style="opacity:0.008" fill="#037bc4" d="M 88.5,230.5 C 89.5735,231.251 89.7401,232.251 89,233.5C 88.5172,232.552 88.3505,231.552 88.5,230.5 Z"/></g>
<g><path style="opacity:0.012" fill="#037bc3" d="M 113.5,231.5 C 114.525,231.897 114.692,232.563 114,233.5C 113.536,232.906 113.369,232.239 113.5,231.5 Z"/></g>
<g><path style="opacity:0.006" fill="#037ac4" d="M 136.5,231.5 C 136.833,231.5 137.167,231.5 137.5,231.5C 137.672,232.492 137.338,233.158 136.5,233.5C 136.5,232.833 136.5,232.167 136.5,231.5 Z"/></g>
<g><path style="opacity:0.008" fill="#047cc5" d="M 66.5,231.5 C 66.5,232.167 66.5,232.833 66.5,233.5C 65.1667,232.833 65.1667,232.167 66.5,231.5 Z"/></g>
<g><path style="opacity:0.012" fill="#047bc3" d="M 66.5,233.5 C 66.8333,233.5 67.1667,233.5 67.5,233.5C 67.3147,234.17 66.9813,234.17 66.5,233.5 Z"/></g>
<g><path style="opacity:0.016" fill="#0379c4" d="M 135.5,233.5 C 135.833,233.5 136.167,233.5 136.5,233.5C 136.315,234.17 135.981,234.17 135.5,233.5 Z"/></g>
<g><path style="opacity:0.01" fill="#037bc4" d="M 87.5,234.5 C 88.525,234.897 88.6917,235.563 88,236.5C 87.5357,235.906 87.369,235.239 87.5,234.5 Z"/></g>
<g><path style="opacity:0.006" fill="#027ac4" d="M 134.5,234.5 C 134.833,234.5 135.167,234.5 135.5,234.5C 135.672,235.492 135.338,236.158 134.5,236.5C 134.5,235.833 134.5,235.167 134.5,234.5 Z"/></g>
<g><path style="opacity:0.008" fill="#037ac4" d="M 67.5,235.5 C 68.8333,236.167 68.8333,236.167 67.5,235.5 Z"/></g>
<g><path style="opacity:0.012" fill="#037bc4" d="M 115.5,234.5 C 115.631,235.239 115.464,235.906 115,236.5C 114.308,235.563 114.475,234.897 115.5,234.5 Z"/></g>
<g><path style="opacity:0.012" fill="#037ac4" d="M 133.5,236.5 C 133.833,236.5 134.167,236.5 134.5,236.5C 134.315,237.17 133.981,237.17 133.5,236.5 Z"/></g>
<g><path style="opacity:0.008" fill="#037ac5" d="M 86.5,237.5 C 87.8333,238.167 87.8333,238.167 86.5,237.5 Z"/></g>
<g><path style="opacity:0.016" fill="#037ac4" d="M 132.5,237.5 C 132.833,237.5 133.167,237.5 133.5,237.5C 133.315,238.17 132.981,238.17 132.5,237.5 Z"/></g>
<g><path style="opacity:0.004" fill="#067ec4" d="M 71.5,238.5 C 70.8333,239.167 70.8333,239.167 71.5,238.5 Z"/></g>
<g><path style="opacity:0.012" fill="#047ac4" d="M 85.5,238.5 C 85.8333,238.5 86.1667,238.5 86.5,238.5C 86.3147,239.17 85.9813,239.17 85.5,238.5 Z"/></g>
<g><path style="opacity:0.008" fill="#047ac3" d="M 131.5,238.5 C 131.833,238.5 132.167,238.5 132.5,238.5C 132.315,239.17 131.981,239.17 131.5,238.5 Z"/></g>
<g><path style="opacity:0.008" fill="#057ac3" d="M 84.5,239.5 C 84.8333,239.5 85.1667,239.5 85.5,239.5C 85.3147,240.17 84.9813,240.17 84.5,239.5 Z"/></g>
<g><path style="opacity:0.004" fill="#047bc5" d="M 130.5,239.5 C 130.833,239.5 131.167,239.5 131.5,239.5C 131.315,240.17 130.981,240.17 130.5,239.5 Z"/></g>
<g><path style="opacity:0.012" fill="#047ac4" d="M 83.5,240.5 C 83.8333,240.5 84.1667,240.5 84.5,240.5C 84.3147,241.17 83.9813,241.17 83.5,240.5 Z"/></g>
<g><path style="opacity:0.008" fill="#047bc4" d="M 129.5,240.5 C 129.833,240.5 130.167,240.5 130.5,240.5C 130.315,241.17 129.981,241.17 129.5,240.5 Z"/></g>
<g><path style="opacity:0.012" fill="#037ac4" d="M 74.5,241.5 C 73.8333,242.167 73.8333,242.167 74.5,241.5 Z"/></g>
<g><path style="opacity:0.008" fill="#037ac5" d="M 83.5,241.5 C 82.8333,242.167 82.8333,242.167 83.5,241.5 Z"/></g>
<g><path style="opacity:0.008" fill="#037ac4" d="M 120.5,241.5 C 119.833,242.167 119.833,242.167 120.5,241.5 Z"/></g>
<g><path style="opacity:0.008" fill="#0279c4" d="M 128.5,241.5 C 128.833,241.5 129.167,241.5 129.5,241.5C 129.315,242.17 128.981,242.17 128.5,241.5 Z"/></g>
<g><path style="opacity:0.004" fill="#047cc4" d="M 75.5,243.5 C 77.2884,242.378 79.2884,242.211 81.5,243C 79.5273,243.495 77.5273,243.662 75.5,243.5 Z"/></g>
<g><path style="opacity:0.012" fill="#047bc3" d="M 121.5,243.5 C 123.288,242.378 125.288,242.211 127.5,243C 125.527,243.495 123.527,243.662 121.5,243.5 Z"/></g>
</svg>
