<?xml version="1.0" encoding="UTF-8"?>
<!DOCTYPE svg PUBLIC "-//W3C//DTD SVG 1.1//EN" "http://www.w3.org/Graphics/SVG/1.1/DTD/svg11.dtd">
<svg xmlns="http://www.w3.org/2000/svg" version="1.1" width="256px" height="256px" style="shape-rendering:geometricPrecision; text-rendering:geometricPrecision; image-rendering:optimizeQuality; fill-rule:evenodd; clip-rule:evenodd" xmlns:xlink="http://www.w3.org/1999/xlink">
<g><path style="opacity:0.004" fill="#037bc4" d="M 80.5,5.5 C 82.2884,4.37753 84.2884,4.21086 86.5,5C 84.5273,5.49546 82.5273,5.66212 80.5,5.5 Z"/></g>
<g><path style="opacity:0.004" fill="#037ac6" d="M 162.5,4.5 C 163.833,5.16667 163.833,5.16667 162.5,4.5 Z"/></g>
<g><path style="opacity:0.01" fill="#037bc4" d="M 77.5,6.5 C 76.1266,6.65668 74.7932,6.49001 73.5,6C 75.0657,5.23502 76.3991,5.40168 77.5,6.5 Z"/></g>
<g><path style="opacity:0.01" fill="#037bc4" d="M 89.5,6.5 C 90.2506,5.42654 91.2506,5.25988 92.5,6C 91.552,6.48278 90.552,6.64945 89.5,6.5 Z"/></g>
<g><path style="opacity:0.01" fill="#037bc4" d="M 156.5,6.5 C 157.251,5.42654 158.251,5.25988 159.5,6C 158.552,6.48278 157.552,6.64945 156.5,6.5 Z"/></g>
<g><path style="opacity:0.004" fill="#047ac4" d="M 164.5,5.5 C 165.833,6.16667 165.833,6.16667 164.5,5.5 Z"/></g>
<g><path style="opacity:0.012" fill="#037bc4" d="M 72.5,7.5 C 71.7611,7.63101 71.0944,7.46434 70.5,7C 71.4368,6.30831 72.1034,6.47498 72.5,7.5 Z"/></g>
<g><path style="opacity:0.793" fill="#037bc4" d="M 77.5,6.5 C 83.934,6.32716 90.2674,6.99383 96.5,8.5C 97.209,9.40397 98.209,9.73731 99.5,9.5C 100.209,10.404 101.209,10.7373 102.5,10.5C 103.209,11.404 104.209,11.7373 105.5,11.5C 106.568,12.4345 107.901,12.7678 109.5,12.5C 110.952,13.3019 112.618,13.8019 114.5,14C 121.5,14.6667 128.5,14.6667 135.5,14C 139.795,13.431 143.795,12.2644 147.5,10.5C 149.553,10.5979 151.22,9.93127 152.5,8.5C 153.791,8.73731 154.791,8.40397 155.5,7.5C 158.518,7.29619 161.518,6.96286 164.5,6.5C 164.833,7.5 165.5,8.16667 166.5,8.5C 166.338,10.5273 166.505,12.5273 167,14.5C 170.038,17.2026 172.705,20.2026 175,23.5C 175.333,23.1667 175.667,22.8333 176,22.5C 179.601,25.3019 182.768,24.8019 185.5,21C 186.928,20.4209 188.262,20.5876 189.5,21.5C 188.691,26.5385 189.857,30.8718 193,34.5C 195.497,32.5218 198.331,32.0218 201.5,33C 202.282,35.7405 202.782,38.5738 203,41.5C 203.852,42.5707 204.685,43.5707 205.5,44.5C 205.833,45.8333 206.167,45.8333 206.5,44.5C 207.167,44.5 207.5,44.1667 207.5,43.5C 210.012,41.5333 212.679,41.2 215.5,42.5C 218.616,54.0143 219.283,65.6809 217.5,77.5C 216.549,78.9187 216.216,80.5853 216.5,82.5C 215.549,83.9187 215.216,85.5853 215.5,87.5C 214.566,88.5676 214.232,89.901 214.5,91.5C 213.076,93.5145 212.41,95.8478 212.5,98.5C 211.076,100.515 210.41,102.848 210.5,105.5C 209.596,106.209 209.263,107.209 209.5,108.5C 208.596,109.209 208.263,110.209 208.5,111.5C 206.595,115.216 205.261,119.216 204.5,123.5C 203.596,124.209 203.263,125.209 203.5,126.5C 202.596,127.209 202.263,128.209 202.5,129.5C 201.596,130.209 201.263,131.209 201.5,132.5C 199.926,134.102 199.259,136.102 199.5,138.5C 197.526,143.182 196.359,148.182 196,153.5C 195.11,172.192 193.944,190.859 192.5,209.5C 191.549,210.919 191.216,212.585 191.5,214.5C 190.087,217.219 189.42,220.219 189.5,223.5C 188.076,225.515 187.41,227.848 187.5,230.5C 185.595,234.216 184.261,238.216 183.5,242.5C 182.596,243.209 182.263,244.209 182.5,245.5C 181.833,245.5 181.5,245.833 181.5,246.5C 180.662,246.842 180.328,247.508 180.5,248.5C 179.833,248.5 179.5,248.833 179.5,249.5C 178.833,249.5 178.5,249.833 178.5,250.5C 177.833,250.5 177.5,250.833 177.5,251.5C 176.833,251.5 176.5,251.833 176.5,252.5C 175.508,252.328 174.842,252.662 174.5,253.5C 173.833,253.5 173.5,253.833 173.5,254.5C 172.209,254.263 171.209,254.596 170.5,255.5C 166.5,255.5 162.5,255.5 158.5,255.5C 158.158,254.662 157.492,254.328 156.5,254.5C 155.101,253.11 153.434,252.11 151.5,251.5C 149.035,248.386 147.035,245.053 145.5,241.5C 145.451,237.922 144.785,234.589 143.5,231.5C 143.795,229.265 143.461,227.265 142.5,225.5C 142.14,217.631 141.474,209.798 140.5,202C 141.35,197.002 141.017,192.169 139.5,187.5C 139.706,184.505 139.04,181.838 137.5,179.5C 137.737,178.209 137.404,177.209 136.5,176.5C 136.598,174.447 135.931,172.78 134.5,171.5C 132.442,162.641 127.442,159.974 119.5,163.5C 118.833,163.5 118.5,163.833 118.5,164.5C 117.662,164.842 117.328,165.508 117.5,166.5C 116.662,166.842 116.328,167.508 116.5,168.5C 115.662,168.842 115.328,169.508 115.5,170.5C 114.662,170.842 114.328,171.508 114.5,172.5C 113.662,172.842 113.328,173.508 113.5,174.5C 112.596,175.209 112.263,176.209 112.5,177.5C 111.596,178.209 111.263,179.209 111.5,180.5C 110.566,181.568 110.232,182.901 110.5,184.5C 109.71,185.609 109.21,186.942 109,188.5C 108.65,201.538 107.817,214.538 106.5,227.5C 105.539,229.265 105.205,231.265 105.5,233.5C 104.213,237.313 103.213,241.313 102.5,245.5C 101.094,245.973 100.427,246.973 100.5,248.5C 99.8333,248.5 99.5,248.833 99.5,249.5C 98.8333,249.5 98.5,249.833 98.5,250.5C 97.8333,250.5 97.5,250.833 97.5,251.5C 96.8333,251.5 96.5,251.833 96.5,252.5C 95.5084,252.328 94.8417,252.662 94.5,253.5C 92.847,253.66 91.5137,254.326 90.5,255.5C 86.5,255.5 82.5,255.5 78.5,255.5C 78.1583,254.662 77.4916,254.328 76.5,254.5C 75.1007,253.11 73.4341,252.11 71.5,251.5C 70.4884,250.128 69.4884,248.795 68.5,247.5C 66.4809,242.429 64.4809,237.429 62.5,232.5C 62.7373,231.209 62.404,230.209 61.5,229.5C 61.1016,225.239 60.1016,221.239 58.5,217.5C 58.4512,213.922 57.7846,210.589 56.5,207.5C 56.8016,204.941 56.4682,202.607 55.5,200.5C 55.2447,183.967 54.2447,167.634 52.5,151.5C 52.7489,147.542 52.0823,143.876 50.5,140.5C 50.7373,139.209 50.404,138.209 49.5,137.5C 49.7406,135.102 49.0739,133.102 47.5,131.5C 47.7373,130.209 47.404,129.209 46.5,128.5C 46.7373,127.209 46.404,126.209 45.5,125.5C 45.7373,124.209 45.404,123.209 44.5,122.5C 43.7387,118.216 42.4053,114.216 40.5,110.5C 40.7373,109.209 40.404,108.209 39.5,107.5C 39.7373,106.209 39.404,105.209 38.5,104.5C 38.5905,101.848 37.9238,99.5145 36.5,97.5C 35.1188,89.9852 33.4521,82.6519 31.5,75.5C 27.3803,43.385 40.0469,21.0517 69.5,8.5C 70.791,8.73731 71.791,8.40397 72.5,7.5C 74.4147,7.78448 76.0813,7.45115 77.5,6.5 Z M 93.5,14.5 C 94.791,14.2627 95.791,14.596 96.5,15.5C 97.791,15.2627 98.791,15.596 99.5,16.5C 96.9028,16.7208 96.9028,17.2208 99.5,18C 101,18.5 102.5,19 104,19.5C 104.765,19.4301 105.265,19.0967 105.5,18.5C 107.099,18.2322 108.432,18.5655 109.5,19.5C 119.503,20.7944 129.503,20.7944 139.5,19.5C 141.726,20.559 144.059,20.3923 146.5,19C 145.552,18.5172 144.552,18.3505 143.5,18.5C 144.568,17.5655 145.901,17.2322 147.5,17.5C 148.78,16.0687 150.447,15.4021 152.5,15.5C 153.209,14.596 154.209,14.2627 155.5,14.5C 156.568,13.5655 157.901,13.2322 159.5,13.5C 159.56,12.9569 159.893,12.6236 160.5,12.5C 161.452,14.0453 161.785,15.712 161.5,17.5C 161.062,17.4346 160.728,17.6012 160.5,18C 162.333,19.8333 164.167,21.6667 166,23.5C 166.399,23.2716 166.565,22.9382 166.5,22.5C 167.289,22.7828 167.956,23.2828 168.5,24C 167.578,26.294 166.578,28.4606 165.5,30.5C 165.5,31.5 165.5,32.5 165.5,33.5C 166.338,33.8417 166.672,34.5084 166.5,35.5C 166.062,35.4346 165.728,35.6012 165.5,36C 166.46,37.4194 167.293,38.9194 168,40.5C 168.69,41.7383 169.19,41.7383 169.5,40.5C 170.289,40.7828 170.956,41.2828 171.5,42C 170.891,43.9483 170.224,45.7816 169.5,47.5C 169.784,49.4147 169.451,51.0813 168.5,52.5C 168.5,54.8333 168.5,57.1667 168.5,59.5C 167.668,60.3285 168.001,61.1618 169.5,62C 172.661,62.2033 174.828,60.7033 176,57.5C 176.402,56.1279 176.902,54.7946 177.5,53.5C 177.376,52.8933 177.043,52.56 176.5,52.5C 176.263,51.209 176.596,50.209 177.5,49.5C 177.263,48.209 177.596,47.209 178.5,46.5C 179.092,43.8728 179.425,41.2062 179.5,38.5C 180.465,37.2789 180.298,35.9456 179,34.5C 178.536,35.0944 178.369,35.7611 178.5,36.5C 177.596,35.791 177.263,34.791 177.5,33.5C 178.167,32.8333 178.833,32.1667 179.5,31.5C 180.209,32.404 181.209,32.7373 182.5,32.5C 183.459,36.7518 183.459,36.0852 182.5,30.5C 182.56,29.9569 182.893,29.6236 183.5,29.5C 184.26,32.1867 184.927,34.8534 185.5,37.5C 184.167,38.1667 184.167,38.8333 185.5,39.5C 185.308,42.6008 184.642,45.6008 183.5,48.5C 184.127,49.4168 184.461,50.4168 184.5,51.5C 184.062,51.4346 183.728,51.6012 183.5,52C 184.333,52.8333 185.167,53.6667 186,54.5C 185.904,56.3806 186.071,58.0473 186.5,59.5C 186.167,61.5 185.833,63.5 185.5,65.5C 184.453,66.0778 184.62,66.7445 186,67.5C 186.399,67.2716 186.565,66.9382 186.5,66.5C 188.554,66.6347 190.221,65.968 191.5,64.5C 191.435,64.9382 191.601,65.2716 192,65.5C 193.481,64.5291 194.315,63.1958 194.5,61.5C 195.167,61.5 195.833,61.5 196.5,61.5C 196.833,62.8333 197.167,62.8333 197.5,61.5C 198.5,61.8333 199.167,62.5 199.5,63.5C 198.167,63.8333 198.167,64.1667 199.5,64.5C 199.842,65.3382 200.508,65.6716 201.5,65.5C 202.773,67.7128 203.773,70.0462 204.5,72.5C 205.609,72.5569 206.609,72.8902 207.5,73.5C 207.833,72.5 208.5,71.8333 209.5,71.5C 209.833,79.5 210.167,79.5 210.5,71.5C 210.833,71.5 211.167,71.5 211.5,71.5C 211.504,77.142 210.504,82.4753 208.5,87.5C 208.768,89.099 208.434,90.4324 207.5,91.5C 207.59,94.1522 206.924,96.4855 205.5,98.5C 205.59,101.152 204.924,103.485 203.5,105.5C 203.649,104.448 203.483,103.448 203,102.5C 202.5,104 202,105.5 201.5,107C 201.57,107.765 201.903,108.265 202.5,108.5C 202.737,109.791 202.404,110.791 201.5,111.5C 201.737,112.791 201.404,113.791 200.5,114.5C 200.737,115.791 200.404,116.791 199.5,117.5C 199.737,118.791 199.404,119.791 198.5,120.5C 198.737,121.791 198.404,122.791 197.5,123.5C 197.737,124.791 197.404,125.791 196.5,126.5C 196.279,123.903 195.779,123.903 195,126.5C 194.26,127.749 194.427,128.749 195.5,129.5C 195.072,132.785 194.072,135.785 192.5,138.5C 192.324,141.727 191.657,144.727 190.5,147.5C 189.556,163.49 188.723,179.49 188,195.5C 187.451,203.811 185.951,211.811 183.5,219.5C 183.768,221.099 183.434,222.432 182.5,223.5C 182.768,225.099 182.434,226.432 181.5,227.5C 181.649,226.448 181.483,225.448 181,224.5C 180.5,226 180,227.5 179.5,229C 179.57,229.765 179.903,230.265 180.5,230.5C 180.472,233.916 179.472,236.916 177.5,239.5C 177.737,240.791 177.404,241.791 176.5,242.5C 176.631,241.761 176.464,241.094 176,240.5C 174.73,244.77 171.896,247.27 167.5,248C 168.448,248.483 169.448,248.649 170.5,248.5C 166.741,250.946 162.741,251.112 158.5,249C 157.058,248.623 156.058,247.79 155.5,246.5C 155.938,246.565 156.272,246.399 156.5,246C 155.874,245.25 155.374,244.416 155,243.5C 154.31,242.262 153.81,242.262 153.5,243.5C 152.662,243.158 152.328,242.492 152.5,241.5C 151.566,240.432 151.232,239.099 151.5,237.5C 149.813,231.736 148.647,225.736 148,219.5C 147.197,206.113 146.03,192.78 144.5,179.5C 143.596,178.791 143.263,177.791 143.5,176.5C 142.596,175.791 142.263,174.791 142.5,173.5C 141.556,166.974 138.389,161.307 133,156.5C 132.601,156.728 132.435,157.062 132.5,157.5C 131.508,157.672 130.842,157.338 130.5,156.5C 129.209,156.737 128.209,156.404 127.5,155.5C 124.794,155.575 122.127,155.908 119.5,156.5C 118.279,155.535 116.946,155.702 115.5,157C 113.457,158.708 111.79,160.708 110.5,163C 110.728,163.399 111.062,163.565 111.5,163.5C 111.672,164.492 111.338,165.158 110.5,165.5C 110.672,166.492 110.338,167.158 109.5,167.5C 109.672,168.492 109.338,169.158 108.5,169.5C 108.737,170.791 108.404,171.791 107.5,172.5C 107.631,171.761 107.464,171.094 107,170.5C 105.702,171.946 105.535,173.279 106.5,174.5C 106.737,175.791 106.404,176.791 105.5,177.5C 105.737,178.791 105.404,179.791 104.5,180.5C 104.768,182.099 104.434,183.432 103.5,184.5C 103.106,197.031 102.106,209.365 100.5,221.5C 100.344,227.767 99.3445,233.767 97.5,239.5C 97.7373,240.791 97.404,241.791 96.5,242.5C 96.631,241.761 96.4643,241.094 96,240.5C 94.7296,244.77 91.8963,247.27 87.5,248C 88.448,248.483 89.448,248.649 90.5,248.5C 89.4324,249.434 88.099,249.768 86.5,249.5C 83.7559,250.491 81.0893,250.157 78.5,248.5C 76.9731,248.573 75.9731,247.906 75.5,246.5C 75.9382,246.565 76.2716,246.399 76.5,246C 75.8742,245.25 75.3742,244.416 75,243.5C 74.31,242.262 73.81,242.262 73.5,243.5C 72.6618,243.158 72.3284,242.492 72.5,241.5C 71.596,240.791 71.2627,239.791 71.5,238.5C 69.9261,236.898 69.2594,234.898 69.5,232.5C 68.596,231.791 68.2627,230.791 68.5,229.5C 66.2507,224.503 64.9174,219.17 64.5,213.5C 62.5589,206.428 61.3923,199.095 61,191.5C 60.6056,176.137 59.7722,160.804 58.5,145.5C 57.5489,144.081 57.2155,142.415 57.5,140.5C 55.5947,136.784 54.2613,132.784 53.5,128.5C 54.6211,126.911 54.4544,125.244 53,123.5C 52.5357,124.094 52.369,124.761 52.5,125.5C 51.596,124.791 51.2627,123.791 51.5,122.5C 50.596,121.791 50.2627,120.791 50.5,119.5C 49.596,118.791 49.2627,117.791 49.5,116.5C 48.596,115.791 48.2627,114.791 48.5,113.5C 47.596,112.791 47.2627,111.791 47.5,110.5C 46.596,109.791 46.2627,108.791 46.5,107.5C 47.0967,107.265 47.4301,106.765 47.5,106C 47,104.5 46.5,103 46,101.5C 45.5172,102.448 45.3505,103.448 45.5,104.5C 44.0762,102.485 43.4095,100.152 43.5,97.5C 42.0762,95.4855 41.4095,93.1522 41.5,90.5C 40.087,87.7814 39.4203,84.7814 39.5,81.5C 36.3589,71.0865 35.8589,60.4198 38,49.5C 38.2401,47.1484 39.0735,45.1484 40.5,43.5C 40.2627,42.209 40.596,41.209 41.5,40.5C 41.369,41.2389 41.5357,41.9056 42,42.5C 43.298,41.0544 43.4646,39.7211 42.5,38.5C 42.427,36.9731 43.0937,35.9731 44.5,35.5C 44.4346,35.9382 44.6012,36.2716 45,36.5C 46.1764,34.8043 47.343,33.1376 48.5,31.5C 49.1667,31.5 49.5,31.1667 49.5,30.5C 50.1667,30.5 50.5,30.1667 50.5,29.5C 51.1667,29.5 51.5,29.1667 51.5,28.5C 52.1667,28.5 52.5,28.1667 52.5,27.5C 53.1667,27.5 53.5,27.1667 53.5,26.5C 54.8717,25.4884 56.205,24.4884 57.5,23.5C 58.1667,23.5 58.5,23.1667 58.5,22.5C 59.8333,22.1667 59.8333,21.8333 58.5,21.5C 58.9731,20.0937 59.9731,19.427 61.5,19.5C 61.56,20.0431 61.8933,20.3764 62.5,20.5C 66.6025,18.1153 70.9358,16.2819 75.5,15C 74.552,14.5172 73.552,14.3505 72.5,14.5C 75.886,13.0296 79.5527,12.3629 83.5,12.5C 87.1411,12.3148 90.4744,12.9814 93.5,14.5 Z M 58.5,21.5 C 58.5,21.8333 58.5,22.1667 58.5,22.5C 57.8333,22.5 57.5,22.8333 57.5,23.5C 56.8333,23.5 56.1667,23.5 55.5,23.5C 55.9731,22.0937 56.9731,21.427 58.5,21.5 Z M 53.5,25.5 C 53.5,25.8333 53.5,26.1667 53.5,26.5C 52.8333,26.5 52.5,26.8333 52.5,27.5C 51.8333,27.5 51.5,27.8333 51.5,28.5C 50.8333,28.5 50.5,28.8333 50.5,29.5C 49.8333,29.5 49.5,29.8333 49.5,30.5C 48.8333,30.5 48.5,30.8333 48.5,31.5C 48.1667,31.5 47.8333,31.5 47.5,31.5C 48.5,28.5 50.5,26.5 53.5,25.5 Z M 196.5,41.5 C 197.11,42.391 197.443,43.391 197.5,44.5C 196.833,44.1667 196.167,43.8333 195.5,43.5C 195.328,42.5084 195.662,41.8417 196.5,41.5 Z M 195.5,43.5 C 195.5,44.8333 196.167,45.5 197.5,45.5C 198.405,46.7024 198.405,48.0357 197.5,49.5C 196.833,49.5 196.167,49.5 195.5,49.5C 195.167,45.5 194.833,45.5 194.5,49.5C 193.206,47.32 193.539,45.32 195.5,43.5 Z M 195.5,51.5 C 196.167,51.5 196.833,51.5 197.5,51.5C 196.833,54.1667 196.167,54.1667 195.5,51.5 Z M 197.5,61.5 C 197.167,61.5 196.833,61.5 196.5,61.5C 196.737,60.209 196.404,59.209 195.5,58.5C 195.461,57.2438 195.961,56.2438 197,55.5C 197.495,57.4727 197.662,59.4727 197.5,61.5 Z M 195.5,58.5 C 195.443,59.609 195.11,60.609 194.5,61.5C 194.167,61.5 193.833,61.5 193.5,61.5C 193.427,59.9731 194.094,58.9731 195.5,58.5 Z M 211.5,71.5 C 211.806,68.6146 211.473,65.9479 210.5,63.5C 210.709,62.0783 211.209,60.745 212,59.5C 212.812,63.6888 212.645,67.6888 211.5,71.5 Z M 202.5,62.5 C 202.737,63.791 202.404,64.791 201.5,65.5C 201.158,64.6618 200.492,64.3284 199.5,64.5C 199.5,64.1667 199.5,63.8333 199.5,63.5C 200.609,63.4431 201.609,63.1098 202.5,62.5 Z"/></g>
<g><path style="opacity:0.012" fill="#037bc4" d="M 155.5,7.5 C 154.761,7.63101 154.094,7.46434 153.5,7C 154.437,6.30831 155.103,6.47498 155.5,7.5 Z"/></g>
<g><path style="opacity:0.01" fill="#037bc4" d="M 69.5,8.5 C 68.7611,8.63101 68.0944,8.46434 67.5,8C 68.4368,7.30831 69.1034,7.47498 69.5,8.5 Z"/></g>
<g><path style="opacity:0.012" fill="#047bc4" d="M 96.5,8.5 C 96.8966,7.47498 97.5632,7.30831 98.5,8C 97.9056,8.46434 97.2389,8.63101 96.5,8.5 Z"/></g>
<g><path style="opacity:0.01" fill="#037bc4" d="M 152.5,8.5 C 151.761,8.63101 151.094,8.46434 150.5,8C 151.437,7.30831 152.103,7.47498 152.5,8.5 Z"/></g>
<g><path style="opacity:0.008" fill="#037bc3" d="M 166.5,7.5 C 167.833,8.16667 167.833,8.16667 166.5,7.5 Z"/></g>
<g><path style="opacity:0.012" fill="#037ac3" d="M 65.5,8.5 C 66.8333,9.16667 66.8333,9.16667 65.5,8.5 Z"/></g>
<g><path style="opacity:0.01" fill="#037bc4" d="M 99.5,9.5 C 99.8966,8.47498 100.563,8.30831 101.5,9C 100.906,9.46434 100.239,9.63101 99.5,9.5 Z"/></g>
<g><path style="opacity:0.008" fill="#037bc4" d="M 147.5,9.5 C 147.897,8.47498 148.563,8.30831 149.5,9C 148.906,9.46434 148.239,9.63101 147.5,9.5 Z"/></g>
<g><path style="opacity:0.01" fill="#037bc4" d="M 102.5,10.5 C 102.897,9.47498 103.563,9.30831 104.5,10C 103.906,10.4643 103.239,10.631 102.5,10.5 Z"/></g>
<g><path style="opacity:0.01" fill="#037bc4" d="M 147.5,9.5 C 147.5,9.83333 147.5,10.1667 147.5,10.5C 143.5,10.1667 143.5,9.83333 147.5,9.5 Z"/></g>
<g><path style="opacity:0.008" fill="#037bc4" d="M 105.5,11.5 C 106.251,10.4265 107.251,10.2599 108.5,11C 107.552,11.4828 106.552,11.6495 105.5,11.5 Z"/></g>
<g><path style="opacity:0.008" fill="#037bc4" d="M 140.5,11.5 C 141.251,10.4265 142.251,10.2599 143.5,11C 142.552,11.4828 141.552,11.6495 140.5,11.5 Z"/></g>
<g><path style="opacity:0.009" fill="#037bc4" d="M 109.5,12.5 C 110.601,11.4017 111.934,11.235 113.5,12C 112.207,12.49 110.873,12.6567 109.5,12.5 Z"/></g>
<g><path style="opacity:0.01" fill="#037bc4" d="M 136.5,12.5 C 137.251,11.4265 138.251,11.2599 139.5,12C 138.552,12.4828 137.552,12.6495 136.5,12.5 Z"/></g>
<g><path style="opacity:0.008" fill="#037bc4" d="M 115.5,13.5 C 117.966,12.3659 120.633,12.1993 123.5,13C 120.854,13.4974 118.187,13.6641 115.5,13.5 Z"/></g>
<g><path style="opacity:0.009" fill="#037bc4" d="M 126.5,13.5 C 128.966,12.3659 131.633,12.1993 134.5,13C 131.854,13.4974 129.187,13.6641 126.5,13.5 Z"/></g>
<g><path style="opacity:0.008" fill="#037ac5" d="M 54.5,14.5 C 55.8333,15.1667 55.8333,15.1667 54.5,14.5 Z"/></g>
<g><path style="opacity:0.004" fill="#0579c3" d="M 190.5,21.5 C 189.833,20.1667 189.833,20.1667 190.5,21.5 Z"/></g>
<g><path style="opacity:0.006" fill="#027bc3" d="M 190.5,21.5 C 191.525,21.8966 191.692,22.5632 191,23.5C 190.536,22.9056 190.369,22.2389 190.5,21.5 Z"/></g>
<g><path style="opacity:0.016" fill="#037cc4" d="M 177.5,30.5 C 178.167,30.5 178.833,30.5 179.5,30.5C 179.5,30.8333 179.5,31.1667 179.5,31.5C 178.833,32.1667 178.167,32.8333 177.5,33.5C 177.5,32.5 177.5,31.5 177.5,30.5 Z"/></g>
<g><path style="opacity:0.009" fill="#037bc3" d="M 182.5,30.5 C 183.459,36.0852 183.459,36.7518 182.5,32.5C 181.209,32.7373 180.209,32.404 179.5,31.5C 180.791,31.7373 181.791,31.404 182.5,30.5 Z"/></g>
<g><path style="opacity:0.012" fill="#037ac4" d="M 190.5,30.5 C 191.833,31.1667 191.833,31.1667 190.5,30.5 Z"/></g>
<g><path style="opacity:0.012" fill="#037bc3" d="M 194.5,31.5 C 196.628,30.3709 198.961,30.2042 201.5,31C 199.19,31.4966 196.857,31.6633 194.5,31.5 Z"/></g>
<g><path style="opacity:0.01" fill="#037bc4" d="M 32.5,40.5 C 33.525,40.8966 33.6917,41.5632 33,42.5C 32.5357,41.9056 32.369,41.2389 32.5,40.5 Z"/></g>
<g><path style="opacity:0.008" fill="#047ac2" d="M 216.5,42.5 C 215.833,41.1667 215.833,41.1667 216.5,42.5 Z"/></g>
<g><path style="opacity:0.006" fill="#027bc2" d="M 207.5,43.5 C 206.833,43.5 206.5,43.8333 206.5,44.5C 206.167,44.5 205.833,44.5 205.5,44.5C 205.711,42.5759 206.377,42.2426 207.5,43.5 Z"/></g>
<g><path style="opacity:0.01" fill="#037bc4" d="M 216.5,42.5 C 217.525,42.8966 217.692,43.5632 217,44.5C 216.536,43.9056 216.369,43.2389 216.5,42.5 Z"/></g>
<g><path style="opacity:0.012" fill="#037bc4" d="M 195.5,43.5 C 196.167,43.8333 196.833,44.1667 197.5,44.5C 197.5,44.8333 197.5,45.1667 197.5,45.5C 196.167,45.5 195.5,44.8333 195.5,43.5 Z"/></g>
<g><path style="opacity:0.009" fill="#037bc3" d="M 217.5,45.5 C 218.573,46.2506 218.74,47.2506 218,48.5C 217.517,47.552 217.351,46.552 217.5,45.5 Z"/></g>
<g><path style="opacity:0.008" fill="#037bc4" d="M 195.5,49.5 C 196.167,49.5 196.833,49.5 197.5,49.5C 197.5,50.1667 197.5,50.8333 197.5,51.5C 196.833,51.5 196.167,51.5 195.5,51.5C 195.5,50.8333 195.5,50.1667 195.5,49.5 Z"/></g>
<g><path style="opacity:0.011" fill="#037bc4" d="M 218.5,50.5 C 219.598,51.6009 219.765,52.9343 219,54.5C 218.51,53.2068 218.343,51.8734 218.5,50.5 Z"/></g>
<g><path style="opacity:0.016" fill="#037bc4" d="M 195.5,58.5 C 196.404,59.209 196.737,60.209 196.5,61.5C 195.833,61.5 195.167,61.5 194.5,61.5C 195.11,60.609 195.443,59.609 195.5,58.5 Z"/></g>
<g><path style="opacity:0.012" fill="#037bc3" d="M 29.5,51.5 C 30.6552,58.6549 30.8218,65.9882 30,73.5C 29.5003,66.1742 29.3337,58.8409 29.5,51.5 Z"/></g>
<g><path style="opacity:0.018" fill="#037bc4" d="M 210.5,63.5 C 211.473,65.9479 211.806,68.6146 211.5,71.5C 211.167,71.5 210.833,71.5 210.5,71.5C 210.768,69.901 210.434,68.5676 209.5,67.5C 209.5,66.8333 209.5,66.1667 209.5,65.5C 210.338,65.1583 210.672,64.4916 210.5,63.5 Z"/></g>
<g><path style="opacity:0.011" fill="#037bc4" d="M 218.5,69.5 C 219.622,71.2884 219.789,73.2884 219,75.5C 218.505,73.5273 218.338,71.5273 218.5,69.5 Z"/></g>
<g><path style="opacity:0.009" fill="#037bc4" d="M 31.5,75.5 C 31.6602,77.1992 31.4935,78.8659 31,80.5C 30.2204,78.6131 30.3871,76.9464 31.5,75.5 Z"/></g>
<g><path style="opacity:0.009" fill="#037bc4" d="M 217.5,77.5 C 218.598,78.6009 218.765,79.9343 218,81.5C 217.51,80.2068 217.343,78.8734 217.5,77.5 Z"/></g>
<g><path style="opacity:0.012" fill="#037bc4" d="M 31.5,81.5 C 32.5735,82.2506 32.7401,83.2506 32,84.5C 31.5172,83.552 31.3505,82.552 31.5,81.5 Z"/></g>
<g><path style="opacity:0.009" fill="#037bc4" d="M 216.5,82.5 C 217.598,83.6009 217.765,84.9343 217,86.5C 216.51,85.2068 216.343,83.8734 216.5,82.5 Z"/></g>
<g><path style="opacity:0.009" fill="#027bc4" d="M 32.5,86.5 C 33.5735,87.2506 33.7401,88.2506 33,89.5C 32.5172,88.552 32.3505,87.552 32.5,86.5 Z"/></g>
<g><path style="opacity:0.009" fill="#037ac3" d="M 215.5,87.5 C 216.573,88.2506 216.74,89.2506 216,90.5C 215.517,89.552 215.351,88.552 215.5,87.5 Z"/></g>
<g><path style="opacity:0.009" fill="#027ac4" d="M 33.5,90.5 C 34.5735,91.2506 34.7401,92.2506 34,93.5C 33.5172,92.552 33.3505,91.552 33.5,90.5 Z"/></g>
<g><path style="opacity:0.008" fill="#037cc4" d="M 214.5,91.5 C 215.573,92.2506 215.74,93.2506 215,94.5C 214.517,93.552 214.351,92.552 214.5,91.5 Z"/></g>
<g><path style="opacity:0.01" fill="#037bc4" d="M 34.5,94.5 C 35.525,94.8966 35.6917,95.5632 35,96.5C 34.5357,95.9056 34.369,95.2389 34.5,94.5 Z"/></g>
<g><path style="opacity:0.009" fill="#037ac4" d="M 213.5,98.5 C 213.351,97.448 213.517,96.448 214,95.5C 214.74,96.7494 214.573,97.7494 213.5,98.5 Z"/></g>
<g><path style="opacity:0.008" fill="#037bc4" d="M 36.5,97.5 C 36.6495,98.552 36.4828,99.552 36,100.5C 35.2599,99.2506 35.4265,98.2506 36.5,97.5 Z"/></g>
<g><path style="opacity:0.008" fill="#037bc4" d="M 212.5,98.5 C 212.833,98.5 213.167,98.5 213.5,98.5C 213.167,102.5 212.833,102.5 212.5,98.5 Z"/></g>
<g><path style="opacity:0.01" fill="#037bc4" d="M 36.5,101.5 C 37.525,101.897 37.6917,102.563 37,103.5C 36.5357,102.906 36.369,102.239 36.5,101.5 Z"/></g>
<g><path style="opacity:0.01" fill="#037bc5" d="M 211.5,102.5 C 212.525,102.897 212.692,103.563 212,104.5C 211.536,103.906 211.369,103.239 211.5,102.5 Z"/></g>
<g><path style="opacity:0.012" fill="#037bc4" d="M 38.5,104.5 C 38.631,105.239 38.4643,105.906 38,106.5C 37.3083,105.563 37.475,104.897 38.5,104.5 Z"/></g>
<g><path style="opacity:0.008" fill="#037bc4" d="M 210.5,105.5 C 211.833,106.5 211.833,107.5 210.5,108.5C 210.5,107.5 210.5,106.5 210.5,105.5 Z"/></g>
<g><path style="opacity:0.008" fill="#037bc4" d="M 39.5,107.5 C 39.5,108.5 39.5,109.5 39.5,110.5C 38.1667,109.5 38.1667,108.5 39.5,107.5 Z"/></g>
<g><path style="opacity:0.008" fill="#037bc4" d="M 209.5,108.5 C 209.833,108.5 210.167,108.5 210.5,108.5C 210.737,109.791 210.404,110.791 209.5,111.5C 209.5,110.5 209.5,109.5 209.5,108.5 Z"/></g>
<g><path style="opacity:0.007" fill="#037bc4" d="M 39.5,110.5 C 39.8333,110.5 40.1667,110.5 40.5,110.5C 40.1667,114.5 39.8333,114.5 39.5,110.5 Z"/></g>
<g><path style="opacity:0.01" fill="#047bc4" d="M 208.5,111.5 C 208.833,111.5 209.167,111.5 209.5,111.5C 209.167,115.5 208.833,115.5 208.5,111.5 Z"/></g>
<g><path style="opacity:0.008" fill="#037bc4" d="M 40.5,114.5 C 41.525,114.897 41.6917,115.563 41,116.5C 40.5357,115.906 40.369,115.239 40.5,114.5 Z"/></g>
<g><path style="opacity:0.008" fill="#037bc4" d="M 207.5,115.5 C 208.525,115.897 208.692,116.563 208,117.5C 207.536,116.906 207.369,116.239 207.5,115.5 Z"/></g>
<g><path style="opacity:0.008" fill="#037bc4" d="M 41.5,117.5 C 42.525,117.897 42.6917,118.563 42,119.5C 41.5357,118.906 41.369,118.239 41.5,117.5 Z"/></g>
<g><path style="opacity:0.008" fill="#037bc4" d="M 206.5,118.5 C 207.525,118.897 207.692,119.563 207,120.5C 206.536,119.906 206.369,119.239 206.5,118.5 Z"/></g>
<g><path style="opacity:0.008" fill="#037bc4" d="M 43.5,122.5 C 42.475,122.103 42.3083,121.437 43,120.5C 43.4643,121.094 43.631,121.761 43.5,122.5 Z"/></g>
<g><path style="opacity:0.008" fill="#037bc4" d="M 205.5,123.5 C 205.369,122.761 205.536,122.094 206,121.5C 206.692,122.437 206.525,123.103 205.5,123.5 Z"/></g>
<g><path style="opacity:0.008" fill="#037bc4" d="M 43.5,122.5 C 43.8333,122.5 44.1667,122.5 44.5,122.5C 44.5,123.5 44.5,124.5 44.5,125.5C 43.596,124.791 43.2627,123.791 43.5,122.5 Z"/></g>
<g><path style="opacity:0.008" fill="#037bc4" d="M 204.5,123.5 C 204.833,123.5 205.167,123.5 205.5,123.5C 205.737,124.791 205.404,125.791 204.5,126.5C 204.5,125.5 204.5,124.5 204.5,123.5 Z"/></g>
<g><path style="opacity:0.012" fill="#037bc4" d="M 44.5,125.5 C 44.8333,125.5 45.1667,125.5 45.5,125.5C 45.1667,128.167 44.8333,128.167 44.5,125.5 Z"/></g>
<g><path style="opacity:0.012" fill="#047bc4" d="M 203.5,126.5 C 203.833,126.5 204.167,126.5 204.5,126.5C 204.167,129.167 203.833,129.167 203.5,126.5 Z"/></g>
<g><path style="opacity:0.01" fill="#037bc4" d="M 46.5,128.5 C 46.631,129.239 46.4643,129.906 46,130.5C 45.3083,129.563 45.475,128.897 46.5,128.5 Z"/></g>
<g><path style="opacity:0.01" fill="#037bc4" d="M 202.5,129.5 C 203.525,129.897 203.692,130.563 203,131.5C 202.536,130.906 202.369,130.239 202.5,129.5 Z"/></g>
<g><path style="opacity:0.01" fill="#037bc4" d="M 47.5,131.5 C 47.631,132.239 47.4643,132.906 47,133.5C 46.3083,132.563 46.475,131.897 47.5,131.5 Z"/></g>
<g><path style="opacity:0.01" fill="#037bc5" d="M 201.5,132.5 C 202.525,132.897 202.692,133.563 202,134.5C 201.536,133.906 201.369,133.239 201.5,132.5 Z"/></g>
<g><path style="opacity:0.01" fill="#037bc4" d="M 47.5,134.5 C 48.525,134.897 48.6917,135.563 48,136.5C 47.5357,135.906 47.369,135.239 47.5,134.5 Z"/></g>
<g><path style="opacity:0.01" fill="#037bc4" d="M 200.5,135.5 C 201.525,135.897 201.692,136.563 201,137.5C 200.536,136.906 200.369,136.239 200.5,135.5 Z"/></g>
<g><path style="opacity:0.01" fill="#037bc4" d="M 49.5,137.5 C 49.631,138.239 49.4643,138.906 49,139.5C 48.3083,138.563 48.475,137.897 49.5,137.5 Z"/></g>
<g><path style="opacity:0.009" fill="#027bc4" d="M 199.5,138.5 C 200.573,139.251 200.74,140.251 200,141.5C 199.517,140.552 199.351,139.552 199.5,138.5 Z"/></g>
<g><path style="opacity:0.009" fill="#037bc4" d="M 50.5,140.5 C 50.6495,141.552 50.4828,142.552 50,143.5C 49.2599,142.251 49.4265,141.251 50.5,140.5 Z"/></g>
<g><path style="opacity:0.009" fill="#037bc4" d="M 198.5,142.5 C 199.573,143.251 199.74,144.251 199,145.5C 198.517,144.552 198.351,143.552 198.5,142.5 Z"/></g>
<g><path style="opacity:0.01" fill="#037bc4" d="M 50.5,145.5 C 51.5983,146.601 51.765,147.934 51,149.5C 50.51,148.207 50.3433,146.873 50.5,145.5 Z"/></g>
<g><path style="opacity:0.01" fill="#037bc4" d="M 197.5,147.5 C 198.613,148.946 198.78,150.613 198,152.5C 197.506,150.866 197.34,149.199 197.5,147.5 Z"/></g>
<g><path style="opacity:0.009" fill="#037bc4" d="M 52.5,151.5 C 52.6641,154.187 52.4974,156.854 52,159.5C 51.1993,156.633 51.3659,153.966 52.5,151.5 Z"/></g>
<g><path style="opacity:0.01" fill="#037bc4" d="M 196.5,155.5 C 197.638,158.304 197.805,161.304 197,164.5C 196.502,161.518 196.335,158.518 196.5,155.5 Z"/></g>
<g><path style="opacity:0.01" fill="#037bc4" d="M 119.5,164.5 C 119.5,164.167 119.5,163.833 119.5,163.5C 122.167,163.833 122.167,164.167 119.5,164.5 Z"/></g>
<g><path style="opacity:0.009" fill="#037bc4" d="M 52.5,164.5 C 53.6497,169.316 53.8163,174.316 53,179.5C 52.5007,174.511 52.3341,169.511 52.5,164.5 Z"/></g>
<g><path style="opacity:0.01" fill="#037ac4" d="M 118.5,164.5 C 118.833,164.5 119.167,164.5 119.5,164.5C 119.672,165.492 119.338,166.158 118.5,166.5C 118.5,165.833 118.5,165.167 118.5,164.5 Z"/></g>
<g><path style="opacity:0.01" fill="#037bc4" d="M 117.5,166.5 C 117.833,166.5 118.167,166.5 118.5,166.5C 118.672,167.492 118.338,168.158 117.5,168.5C 117.5,167.833 117.5,167.167 117.5,166.5 Z"/></g>
<g><path style="opacity:0.01" fill="#037bc4" d="M 116.5,168.5 C 116.833,168.5 117.167,168.5 117.5,168.5C 117.672,169.492 117.338,170.158 116.5,170.5C 116.5,169.833 116.5,169.167 116.5,168.5 Z"/></g>
<g><path style="opacity:0.008" fill="#037bc4" d="M 115.5,170.5 C 115.833,170.5 116.167,170.5 116.5,170.5C 116.672,171.492 116.338,172.158 115.5,172.5C 115.5,171.833 115.5,171.167 115.5,170.5 Z"/></g>
<g><path style="opacity:0.009" fill="#037bc4" d="M 195.5,171.5 C 196.652,176.985 196.818,182.651 196,188.5C 195.501,182.843 195.334,177.176 195.5,171.5 Z"/></g>
<g><path style="opacity:0.01" fill="#037bc4" d="M 114.5,172.5 C 114.833,172.5 115.167,172.5 115.5,172.5C 115.672,173.492 115.338,174.158 114.5,174.5C 114.5,173.833 114.5,173.167 114.5,172.5 Z"/></g>
<g><path style="opacity:0.012" fill="#047bc5" d="M 134.5,171.5 C 134.631,172.239 134.464,172.906 134,173.5C 133.308,172.563 133.475,171.897 134.5,171.5 Z"/></g>
<g><path style="opacity:0.008" fill="#037bc4" d="M 135.5,176.5 C 134.475,176.103 134.308,175.437 135,174.5C 135.464,175.094 135.631,175.761 135.5,176.5 Z"/></g>
<g><path style="opacity:0.008" fill="#047bc4" d="M 113.5,174.5 C 113.833,174.5 114.167,174.5 114.5,174.5C 114.737,175.791 114.404,176.791 113.5,177.5C 113.5,176.5 113.5,175.5 113.5,174.5 Z"/></g>
<g><path style="opacity:0.012" fill="#037bc4" d="M 135.5,176.5 C 135.833,176.5 136.167,176.5 136.5,176.5C 136.167,179.167 135.833,179.167 135.5,176.5 Z"/></g>
<g><path style="opacity:0.012" fill="#037bc4" d="M 112.5,177.5 C 112.833,177.5 113.167,177.5 113.5,177.5C 113.167,180.167 112.833,180.167 112.5,177.5 Z"/></g>
<g><path style="opacity:0.009" fill="#037bc4" d="M 111.5,180.5 C 112.573,181.251 112.74,182.251 112,183.5C 111.517,182.552 111.351,181.552 111.5,180.5 Z"/></g>
<g><path style="opacity:0.008" fill="#037bc4" d="M 137.5,179.5 C 137.649,180.552 137.483,181.552 137,182.5C 136.26,181.251 136.427,180.251 137.5,179.5 Z"/></g>
<g><path style="opacity:0.009" fill="#037ac4" d="M 137.5,183.5 C 138.573,184.251 138.74,185.251 138,186.5C 137.517,185.552 137.351,184.552 137.5,183.5 Z"/></g>
<g><path style="opacity:0.01" fill="#037bc3" d="M 110.5,184.5 C 111.573,185.251 111.74,186.251 111,187.5C 110.517,186.552 110.351,185.552 110.5,184.5 Z"/></g>
<g><path style="opacity:0.009" fill="#037bc4" d="M 53.5,188.5 C 54.6408,191.64 54.8075,194.973 54,198.5C 53.5017,195.183 53.335,191.85 53.5,188.5 Z"/></g>
<g><path style="opacity:0.01" fill="#037bc4" d="M 139.5,187.5 C 139.66,189.199 139.494,190.866 139,192.5C 138.22,190.613 138.387,188.946 139.5,187.5 Z"/></g>
<g><path style="opacity:0.006" fill="#037bc5" d="M 109.5,189.5 C 110.653,195.319 110.819,201.319 110,207.5C 109.501,201.509 109.334,195.509 109.5,189.5 Z"/></g>
<g><path style="opacity:0.01" fill="#037bc4" d="M 194.5,194.5 C 195.629,196.628 195.796,198.961 195,201.5C 194.503,199.19 194.337,196.857 194.5,194.5 Z"/></g>
<g><path style="opacity:0.009" fill="#037bc4" d="M 55.5,200.5 C 55.6621,202.527 55.4955,204.527 55,206.5C 54.2109,204.288 54.3775,202.288 55.5,200.5 Z"/></g>
<g><path style="opacity:0.009" fill="#037bc4" d="M 193.5,203.5 C 194.613,204.946 194.78,206.613 194,208.5C 193.506,206.866 193.34,205.199 193.5,203.5 Z"/></g>
<g><path style="opacity:0.01" fill="#037bc3" d="M 139.5,207.5 C 140.634,209.966 140.801,212.633 140,215.5C 139.503,212.854 139.336,210.187 139.5,207.5 Z"/></g>
<g><path style="opacity:0.012" fill="#037bc4" d="M 56.5,207.5 C 56.6567,208.873 56.49,210.207 56,211.5C 55.235,209.934 55.4017,208.601 56.5,207.5 Z"/></g>
<g><path style="opacity:0.01" fill="#037bc4" d="M 192.5,209.5 C 193.598,210.601 193.765,211.934 193,213.5C 192.51,212.207 192.343,210.873 192.5,209.5 Z"/></g>
<g><path style="opacity:0.01" fill="#037bc4" d="M 108.5,211.5 C 109.629,213.628 109.796,215.961 109,218.5C 108.503,216.19 108.337,213.857 108.5,211.5 Z"/></g>
<g><path style="opacity:0.012" fill="#037bc4" d="M 56.5,213.5 C 57.5735,214.251 57.7401,215.251 57,216.5C 56.5172,215.552 56.3505,214.552 56.5,213.5 Z"/></g>
<g><path style="opacity:0.009" fill="#037bc3" d="M 191.5,214.5 C 192.598,215.601 192.765,216.934 192,218.5C 191.51,217.207 191.343,215.873 191.5,214.5 Z"/></g>
<g><path style="opacity:0.009" fill="#037bc3" d="M 58.5,217.5 C 58.6567,218.873 58.49,220.207 58,221.5C 57.235,219.934 57.4017,218.601 58.5,217.5 Z"/></g>
<g><path style="opacity:0.009" fill="#037bc4" d="M 140.5,218.5 C 141.613,219.946 141.78,221.613 141,223.5C 140.506,221.866 140.34,220.199 140.5,218.5 Z"/></g>
<g><path style="opacity:0.009" fill="#037bc4" d="M 190.5,219.5 C 191.573,220.251 191.74,221.251 191,222.5C 190.517,221.552 190.351,220.552 190.5,219.5 Z"/></g>
<g><path style="opacity:0.01" fill="#037bc4" d="M 107.5,221.5 C 108.613,222.946 108.78,224.613 108,226.5C 107.506,224.866 107.34,223.199 107.5,221.5 Z"/></g>
<g><path style="opacity:0.009" fill="#037ac5" d="M 58.5,222.5 C 59.5735,223.251 59.7401,224.251 59,225.5C 58.5172,224.552 58.3505,223.552 58.5,222.5 Z"/></g>
<g><path style="opacity:0.008" fill="#037bc4" d="M 189.5,223.5 C 190.573,224.251 190.74,225.251 190,226.5C 189.517,225.552 189.351,224.552 189.5,223.5 Z"/></g>
<g><path style="opacity:0.009" fill="#037bc4" d="M 142.5,225.5 C 142.66,227.199 142.494,228.866 142,230.5C 141.22,228.613 141.387,226.946 142.5,225.5 Z"/></g>
<g><path style="opacity:0.012" fill="#037bc3" d="M 59.5,226.5 C 60.525,226.897 60.6917,227.563 60,228.5C 59.5357,227.906 59.369,227.239 59.5,226.5 Z"/></g>
<g><path style="opacity:0.009" fill="#037bc4" d="M 106.5,227.5 C 107.613,228.946 107.78,230.613 107,232.5C 106.506,230.866 106.34,229.199 106.5,227.5 Z"/></g>
<g><path style="opacity:0.012" fill="#037bc4" d="M 188.5,227.5 C 189.525,227.897 189.692,228.563 189,229.5C 188.536,228.906 188.369,228.239 188.5,227.5 Z"/></g>
<g><path style="opacity:0.008" fill="#037bc4" d="M 61.5,229.5 C 61.5,230.5 61.5,231.5 61.5,232.5C 60.1667,231.5 60.1667,230.5 61.5,229.5 Z"/></g>
<g><path style="opacity:0.008" fill="#037bc4" d="M 187.5,230.5 C 188.573,231.251 188.74,232.251 188,233.5C 187.517,232.552 187.351,231.552 187.5,230.5 Z"/></g>
<g><path style="opacity:0.008" fill="#037bc4" d="M 61.5,232.5 C 61.8333,232.5 62.1667,232.5 62.5,232.5C 62.1667,236.5 61.8333,236.5 61.5,232.5 Z"/></g>
<g><path style="opacity:0.012" fill="#037bc4" d="M 143.5,231.5 C 143.657,232.873 143.49,234.207 143,235.5C 142.235,233.934 142.402,232.601 143.5,231.5 Z"/></g>
<g><path style="opacity:0.012" fill="#037bc4" d="M 105.5,233.5 C 106.598,234.601 106.765,235.934 106,237.5C 105.51,236.207 105.343,234.873 105.5,233.5 Z"/></g>
<g><path style="opacity:0.012" fill="#027bc4" d="M 186.5,234.5 C 187.525,234.897 187.692,235.563 187,236.5C 186.536,235.906 186.369,235.239 186.5,234.5 Z"/></g>
<g><path style="opacity:0.01" fill="#037bc4" d="M 62.5,236.5 C 63.525,236.897 63.6917,237.563 63,238.5C 62.5357,237.906 62.369,237.239 62.5,236.5 Z"/></g>
<g><path style="opacity:0.009" fill="#037bc4" d="M 144.5,241.5 C 143.402,240.399 143.235,239.066 144,237.5C 144.49,238.793 144.657,240.127 144.5,241.5 Z"/></g>
<g><path style="opacity:0.01" fill="#037bc4" d="M 185.5,237.5 C 186.525,237.897 186.692,238.563 186,239.5C 185.536,238.906 185.369,238.239 185.5,237.5 Z"/></g>
<g><path style="opacity:0.008" fill="#037bc4" d="M 63.5,239.5 C 64.525,239.897 64.6917,240.563 64,241.5C 63.5357,240.906 63.369,240.239 63.5,239.5 Z"/></g>
<g><path style="opacity:0.009" fill="#037bc3" d="M 104.5,239.5 C 105.573,240.251 105.74,241.251 105,242.5C 104.517,241.552 104.351,240.552 104.5,239.5 Z"/></g>
<g><path style="opacity:0.008" fill="#037bc4" d="M 184.5,242.5 C 184.369,241.761 184.536,241.094 185,240.5C 185.692,241.437 185.525,242.103 184.5,242.5 Z"/></g>
<g><path style="opacity:0.008" fill="#037bc4" d="M 144.5,241.5 C 144.833,241.5 145.167,241.5 145.5,241.5C 145.167,245.5 144.833,245.5 144.5,241.5 Z"/></g>
<g><path style="opacity:0.008" fill="#047bc4" d="M 183.5,242.5 C 183.833,242.5 184.167,242.5 184.5,242.5C 184.167,245.167 183.833,245.167 183.5,242.5 Z"/></g>
<g><path style="opacity:0.012" fill="#037ac4" d="M 103.5,243.5 C 104.833,244.167 104.833,244.167 103.5,243.5 Z"/></g>
<g><path style="opacity:0.012" fill="#037ac4" d="M 102.5,245.5 C 103.833,246.167 103.833,246.167 102.5,245.5 Z"/></g>
<g><path style="opacity:0.012" fill="#0379c4" d="M 182.5,245.5 C 183.833,246.167 183.833,246.167 182.5,245.5 Z"/></g>
<g><path style="opacity:0.004" fill="#037bc4" d="M 181.5,246.5 C 181.833,246.5 182.167,246.5 182.5,246.5C 182.672,247.492 182.338,248.158 181.5,248.5C 181.5,247.833 181.5,247.167 181.5,246.5 Z"/></g>
<g><path style="opacity:0.008" fill="#027ac4" d="M 101.5,247.5 C 102.833,248.167 102.833,248.167 101.5,247.5 Z"/></g>
<g><path style="opacity:0.004" fill="#037ac4" d="M 68.5,247.5 C 68.631,248.239 68.4643,248.906 68,249.5C 67.3083,248.563 67.475,247.897 68.5,247.5 Z"/></g>
<g><path style="opacity:0.012" fill="#037ac3" d="M 100.5,248.5 C 100.833,248.5 101.167,248.5 101.5,248.5C 101.315,249.17 100.981,249.17 100.5,248.5 Z"/></g>
<g><path style="opacity:0.012" fill="#047ac4" d="M 180.5,248.5 C 180.833,248.5 181.167,248.5 181.5,248.5C 181.315,249.17 180.981,249.17 180.5,248.5 Z"/></g>
<g><path style="opacity:0.012" fill="#047bc4" d="M 99.5,249.5 C 99.8333,249.5 100.167,249.5 100.5,249.5C 100.315,250.17 99.9813,250.17 99.5,249.5 Z"/></g>
<g><path style="opacity:0.016" fill="#037ac4" d="M 179.5,249.5 C 179.833,249.5 180.167,249.5 180.5,249.5C 180.315,250.17 179.981,250.17 179.5,249.5 Z"/></g>
<g><path style="opacity:0.012" fill="#057bc4" d="M 98.5,250.5 C 98.8333,250.5 99.1667,250.5 99.5,250.5C 99.3147,251.17 98.9813,251.17 98.5,250.5 Z"/></g>
<g><path style="opacity:0.016" fill="#047bc3" d="M 178.5,250.5 C 178.833,250.5 179.167,250.5 179.5,250.5C 179.315,251.17 178.981,251.17 178.5,250.5 Z"/></g>
<g><path style="opacity:0.012" fill="#037ac5" d="M 71.5,251.5 C 71.5,251.833 71.5,252.167 71.5,252.5C 70.8299,252.019 70.8299,251.685 71.5,251.5 Z"/></g>
<g><path style="opacity:0.012" fill="#047ac4" d="M 97.5,251.5 C 97.8333,251.5 98.1667,251.5 98.5,251.5C 98.3147,252.17 97.9813,252.17 97.5,251.5 Z"/></g>
<g><path style="opacity:0.012" fill="#037ac5" d="M 151.5,251.5 C 151.5,251.833 151.5,252.167 151.5,252.5C 150.83,252.019 150.83,251.685 151.5,251.5 Z"/></g>
<g><path style="opacity:0.012" fill="#047ac4" d="M 177.5,251.5 C 177.833,251.5 178.167,251.5 178.5,251.5C 178.315,252.17 177.981,252.17 177.5,251.5 Z"/></g>
<g><path style="opacity:0.008" fill="#037ac5" d="M 71.5,252.5 C 72.8333,253.167 72.8333,253.167 71.5,252.5 Z"/></g>
<g><path style="opacity:0.012" fill="#047ac3" d="M 96.5,252.5 C 96.8333,252.5 97.1667,252.5 97.5,252.5C 97.3147,253.17 96.9813,253.17 96.5,252.5 Z"/></g>
<g><path style="opacity:0.008" fill="#037ac5" d="M 151.5,252.5 C 152.833,253.167 152.833,253.167 151.5,252.5 Z"/></g>
<g><path style="opacity:0.012" fill="#047bc4" d="M 176.5,252.5 C 176.833,252.5 177.167,252.5 177.5,252.5C 177.315,253.17 176.981,253.17 176.5,252.5 Z"/></g>
<g><path style="opacity:0.006" fill="#037bc4" d="M 94.5,254.5 C 94.5,254.167 94.5,253.833 94.5,253.5C 95.1667,253.5 95.8333,253.5 96.5,253.5C 96.1583,254.338 95.4916,254.672 94.5,254.5 Z"/></g>
<g><path style="opacity:0.006" fill="#047cc4" d="M 174.5,254.5 C 174.5,254.167 174.5,253.833 174.5,253.5C 175.167,253.5 175.833,253.5 176.5,253.5C 176.158,254.338 175.492,254.672 174.5,254.5 Z"/></g>
<g><path style="opacity:0.008" fill="#047cc4" d="M 74.5,255.5 C 74.8417,254.662 75.5084,254.328 76.5,254.5C 76.5,254.833 76.5,255.167 76.5,255.5C 75.8333,255.5 75.1667,255.5 74.5,255.5 Z"/></g>
<g><path style="opacity:0.012" fill="#037ac4" d="M 94.5,254.5 C 94.5,254.833 94.5,255.167 94.5,255.5C 93.8299,255.019 93.8299,254.685 94.5,254.5 Z"/></g>
<g><path style="opacity:0.008" fill="#037bc3" d="M 154.5,255.5 C 154.842,254.662 155.508,254.328 156.5,254.5C 156.5,254.833 156.5,255.167 156.5,255.5C 155.833,255.5 155.167,255.5 154.5,255.5 Z"/></g>
<g><path style="opacity:0.012" fill="#037ac4" d="M 173.5,254.5 C 173.833,254.5 174.167,254.5 174.5,254.5C 174.5,254.833 174.5,255.167 174.5,255.5C 174.167,255.167 173.833,254.833 173.5,254.5 Z"/></g>
</svg>
