<?xml version="1.0" encoding="UTF-8"?>
<!DOCTYPE svg PUBLIC "-//W3C//DTD SVG 1.1//EN" "http://www.w3.org/Graphics/SVG/1.1/DTD/svg11.dtd">
<svg xmlns="http://www.w3.org/2000/svg" version="1.1" width="256px" height="256px" style="shape-rendering:geometricPrecision; text-rendering:geometricPrecision; image-rendering:optimizeQuality; fill-rule:evenodd; clip-rule:evenodd" xmlns:xlink="http://www.w3.org/1999/xlink">
<g><path style="opacity:0.009" fill="#037bc4" d="M 85.5,6.5 C 86.6009,5.40168 87.9343,5.23502 89.5,6C 88.2068,6.49001 86.8734,6.65668 85.5,6.5 Z"/></g>
<g><path style="opacity:0.009" fill="#037bc4" d="M 98.5,6.5 C 99.9464,5.38705 101.613,5.22039 103.5,6C 101.866,6.49351 100.199,6.66018 98.5,6.5 Z"/></g>
<g><path style="opacity:0.011" fill="#047bc4" d="M 157.5,6.5 C 155.801,6.66018 154.134,6.49351 152.5,6C 154.387,5.22039 156.054,5.38705 157.5,6.5 Z"/></g>
<g><path style="opacity:0.01" fill="#037bc4" d="M 165.5,6.5 C 166.601,5.40168 167.934,5.23502 169.5,6C 168.207,6.49001 166.873,6.65668 165.5,6.5 Z"/></g>
<g><path style="opacity:0.01" fill="#037bc4" d="M 85.5,6.5 C 85.5,6.83333 85.5,7.16667 85.5,7.5C 82.8333,7.16667 82.8333,6.83333 85.5,6.5 Z"/></g>
<g><path style="opacity:0.894" fill="#037bc4" d="M 107.5,8.5 C 109.649,9.73623 111.982,10.7362 114.5,11.5C 115.93,12.5375 117.597,13.2041 119.5,13.5C 124.833,16.1667 130.167,16.1667 135.5,13.5C 139.787,12.3517 143.787,10.685 147.5,8.5C 149.099,8.76781 150.432,8.43448 151.5,7.5C 153.735,7.79472 155.735,7.46138 157.5,6.5C 163.339,6.60149 169.006,7.60149 174.5,9.5C 175.795,10.4884 177.128,11.4884 178.5,12.5C 182.912,17.0054 186.578,22.0054 189.5,27.5C 189.263,28.791 189.596,29.791 190.5,30.5C 193.126,41.5088 193.126,52.5088 190.5,63.5C 189.596,64.209 189.263,65.209 189.5,66.5C 188.069,67.7804 187.402,69.4471 187.5,71.5C 186.069,72.7804 185.402,74.4471 185.5,76.5C 184.662,76.8417 184.328,77.5084 184.5,78.5C 183.662,78.8417 183.328,79.5084 183.5,80.5C 182.662,80.8417 182.328,81.5084 182.5,82.5C 181.662,82.8417 181.328,83.5084 181.5,84.5C 180.662,84.8417 180.328,85.5084 180.5,86.5C 179.662,86.8417 179.328,87.5084 179.5,88.5C 178.833,88.5 178.5,88.8333 178.5,89.5C 177.662,89.8417 177.328,90.5084 177.5,91.5C 176.662,91.8417 176.328,92.5084 176.5,93.5C 175.833,93.5 175.5,93.8333 175.5,94.5C 174.662,94.8417 174.328,95.5084 174.5,96.5C 173.833,96.5 173.5,96.8333 173.5,97.5C 172.833,97.5 172.5,97.8333 172.5,98.5C 171.662,98.8417 171.328,99.5084 171.5,100.5C 170.833,100.5 170.5,100.833 170.5,101.5C 169.833,101.5 169.5,101.833 169.5,102.5C 168.833,102.5 168.5,102.833 168.5,103.5C 167.833,103.5 167.5,103.833 167.5,104.5C 166.167,104.833 166.167,105.167 167.5,105.5C 167.683,112.868 167.35,120.201 166.5,127.5C 165.662,127.842 165.328,128.508 165.5,129.5C 164.833,129.5 164.5,129.833 164.5,130.5C 163.833,130.5 163.5,130.833 163.5,131.5C 158.761,133.595 158.261,136.595 162,140.5C 162.497,142.81 162.663,145.143 162.5,147.5C 161.833,147.5 161.5,147.833 161.5,148.5C 160.833,148.5 160.5,148.833 160.5,149.5C 159.504,149.414 158.671,149.748 158,150.5C 157.73,154.373 157.23,158.206 156.5,162C 156.57,162.765 156.903,163.265 157.5,163.5C 159.025,165.216 160.025,167.216 160.5,169.5C 159.326,170.514 158.66,171.847 158.5,173.5C 157.833,173.5 157.5,173.833 157.5,174.5C 155.824,175.183 155.157,176.517 155.5,178.5C 154.523,181.287 154.19,184.287 154.5,187.5C 153.167,187.833 153.167,188.167 154.5,188.5C 154.833,189.5 155.5,190.167 156.5,190.5C 156.599,193.237 156.265,195.904 155.5,198.5C 154.833,198.5 154.5,198.833 154.5,199.5C 153.351,199.791 152.684,200.624 152.5,202C 151.993,205.739 151.327,209.406 150.5,213C 151.636,214.145 152.636,215.312 153.5,216.5C 153.122,218.921 152.455,221.254 151.5,223.5C 149.656,225.279 148.99,227.612 149.5,230.5C 148.566,231.568 148.232,232.901 148.5,234.5C 147.662,234.842 147.328,235.508 147.5,236.5C 146.662,236.842 146.328,237.508 146.5,238.5C 145.833,238.5 145.5,238.833 145.5,239.5C 143.5,241.5 141.5,243.5 139.5,245.5C 137.973,245.427 136.973,246.094 136.5,247.5C 135.209,247.263 134.209,247.596 133.5,248.5C 132.209,248.263 131.209,248.596 130.5,249.5C 128.167,249.5 125.833,249.5 123.5,249.5C 121.786,248.262 119.786,247.595 117.5,247.5C 117.158,246.662 116.492,246.328 115.5,246.5C 112.092,243.099 109.092,239.432 106.5,235.5C 106.34,233.847 105.674,232.514 104.5,231.5C 102.645,228.627 102.312,225.627 103.5,222.5C 104.124,222.083 104.457,221.416 104.5,220.5C 104.064,215.901 103.064,211.568 101.5,207.5C 99.9493,205.087 99.2826,202.421 99.5,199.5C 100.993,198.688 101.66,197.355 101.5,195.5C 101.068,191.65 100.402,187.983 99.5,184.5C 98.8333,183.167 97.8333,182.167 96.5,181.5C 96.4765,177.471 97.1431,173.638 98.5,170C 98.2761,167.485 97.9428,164.985 97.5,162.5C 97.3601,160.97 96.6935,159.97 95.5,159.5C 92.7931,155.464 93.1264,151.63 96.5,148C 95.8949,142.628 94.8949,137.461 93.5,132.5C 93.0269,131.094 92.0269,130.427 90.5,130.5C 90.2914,129.078 89.7914,127.745 89,126.5C 88.8288,118.989 88.3288,111.655 87.5,104.5C 85.5179,101.19 83.1846,98.1897 80.5,95.5C 80.573,93.9731 79.9063,92.9731 78.5,92.5C 78.6716,91.5084 78.3382,90.8417 77.5,90.5C 77.0679,89.2905 76.4013,88.2905 75.5,87.5C 73.0698,81.6435 70.4032,75.9768 67.5,70.5C 67.5979,68.4471 66.9313,66.7804 65.5,65.5C 65.5905,62.8478 64.9238,60.5145 63.5,58.5C 60.8966,43.6827 63.73,30.0161 72,17.5C 75.1033,13.886 78.6033,10.886 82.5,8.5C 83.791,8.73731 84.791,8.40397 85.5,7.5C 92.8822,6.31457 100.215,6.6479 107.5,8.5 Z M 106.5,19.5 C 105.448,19.3505 104.448,19.5172 103.5,20C 105.615,20.5573 107.615,21.3906 109.5,22.5C 110.107,22.3764 110.44,22.0431 110.5,21.5C 112.553,21.4021 114.22,22.0687 115.5,23.5C 112.903,23.7208 112.903,24.2208 115.5,25C 116.749,25.7401 117.749,25.5735 118.5,24.5C 120.099,24.2322 121.432,24.5655 122.5,25.5C 129.373,25.7802 136.04,24.7802 142.5,22.5C 142.56,23.0431 142.893,23.3764 143.5,23.5C 145.167,22.6667 146.833,21.8333 148.5,21C 147.906,20.5357 147.239,20.369 146.5,20.5C 147.209,19.596 148.209,19.2627 149.5,19.5C 150.209,18.596 151.209,18.2627 152.5,18.5C 157.857,16.0481 163.19,16.0481 168.5,18.5C 167.448,18.3505 166.448,18.5172 165.5,19C 167.641,19.5725 169.641,20.4058 171.5,21.5C 171.5,22.1667 171.833,22.5 172.5,22.5C 172.5,23.1667 172.833,23.5 173.5,23.5C 173.5,24.1667 173.833,24.5 174.5,24.5C 175.653,26.8068 176.82,29.1401 178,31.5C 178.464,30.9056 178.631,30.2389 178.5,29.5C 180.074,31.1016 180.741,33.1016 180.5,35.5C 181.997,39.2227 182.663,43.2227 182.5,47.5C 182.663,51.7773 181.997,55.7773 180.5,59.5C 180.737,60.791 180.404,61.791 179.5,62.5C 179.737,63.791 179.404,64.791 178.5,65.5C 178.631,64.7611 178.464,64.0944 178,63.5C 176.702,64.9456 176.535,66.2789 177.5,67.5C 177.737,68.791 177.404,69.791 176.5,70.5C 176.631,69.7611 176.464,69.0944 176,68.5C 173.833,72.8333 171.667,77.1667 169.5,81.5C 169.624,82.1067 169.957,82.44 170.5,82.5C 170.573,84.0269 169.906,85.0269 168.5,85.5C 168.19,84.2617 167.69,84.2617 167,85.5C 165.004,88.9858 162.837,92.3191 160.5,95.5C 138.497,95.6666 116.497,95.5 94.5,95C 92.5421,92.2518 90.7088,89.4185 89,86.5C 88.31,85.2617 87.81,85.2617 87.5,86.5C 86.0937,86.0269 85.427,85.0269 85.5,83.5C 86.0431,83.44 86.3764,83.1067 86.5,82.5C 85.6667,80.8333 84.8333,79.1667 84,77.5C 83.31,76.2617 82.81,76.2617 82.5,77.5C 81.6618,77.1583 81.3284,76.4916 81.5,75.5C 80.6618,75.1583 80.3284,74.4916 80.5,73.5C 81.0431,73.44 81.3764,73.1067 81.5,72.5C 80.6667,70.8333 79.8333,69.1667 79,67.5C 78.5357,68.0944 78.369,68.7611 78.5,69.5C 77.596,68.791 77.2627,67.791 77.5,66.5C 78.0431,66.44 78.3764,66.1067 78.5,65.5C 77.5682,63.2046 76.7348,60.8713 76,58.5C 75.5172,59.448 75.3505,60.448 75.5,61.5C 72.6272,55.0202 71.9605,48.3535 73.5,41.5C 73.2155,39.5853 73.5489,37.9187 74.5,36.5C 74.2322,34.901 74.5655,33.5676 75.5,32.5C 75.461,29.911 76.461,27.911 78.5,26.5C 78.81,27.7383 79.31,27.7383 80,26.5C 81.1217,24.3762 82.6217,22.5429 84.5,21C 84.2716,20.6012 83.9382,20.4346 83.5,20.5C 84.287,18.8958 85.6203,18.2291 87.5,18.5C 89.4338,17.4684 91.6005,16.8017 94,16.5C 98.4426,16.9081 102.609,17.9081 106.5,19.5 Z M 171.5,21.5 C 171.5,21.1667 171.5,20.8333 171.5,20.5C 173.833,20.8333 175.167,22.1667 175.5,24.5C 175.167,24.5 174.833,24.5 174.5,24.5C 173.833,24.5 173.5,24.1667 173.5,23.5C 172.833,23.5 172.5,23.1667 172.5,22.5C 171.833,22.5 171.5,22.1667 171.5,21.5 Z M 92.5,47.5 C 92.5,47.8333 92.5,48.1667 92.5,48.5C 91.6618,48.8417 91.3284,49.5084 91.5,50.5C 90.1667,50.5 88.8333,50.5 87.5,50.5C 87.1583,49.6618 86.4916,49.3284 85.5,49.5C 85.5,49.1667 85.5,48.8333 85.5,48.5C 87.9029,48.552 90.2362,48.2186 92.5,47.5 Z M 160.5,95.5 C 160.833,95.5 161.167,95.5 161.5,95.5C 150.687,96.8322 139.521,97.4989 128,97.5C 116.662,97.4999 105.495,97.1665 94.5,96.5C 116.673,96.8307 138.673,96.4974 160.5,95.5 Z M 98.5,107.5 C 118.167,107.5 137.833,107.5 157.5,107.5C 157.5,112.833 157.5,118.167 157.5,123.5C 137.833,123.5 118.167,123.5 98.5,123.5C 98.5,118.167 98.5,112.833 98.5,107.5 Z M 147.5,140.5 C 143.837,142.416 139.837,143.416 135.5,143.5C 126.225,145.947 116.725,147.614 107,148.5C 106.536,147.906 106.369,147.239 106.5,146.5C 105.317,142.014 104.817,137.348 105,132.5C 105.333,133.833 105.667,135.167 106,136.5C 106.483,135.552 106.649,134.552 106.5,133.5C 120.833,133.5 135.167,133.5 149.5,133.5C 150.01,136.388 149.344,138.721 147.5,140.5 Z M 134.5,167.5 C 131.124,169.082 127.458,169.749 123.5,169.5C 118.731,170.889 113.731,171.556 108.5,171.5C 108.276,167.821 107.942,164.154 107.5,160.5C 115.184,160.021 122.851,159.355 130.5,158.5C 133.219,157.087 136.219,156.42 139.5,156.5C 140.568,155.566 141.901,155.232 143.5,155.5C 144.531,154.751 145.698,154.085 147,153.5C 147.357,157.51 147.19,161.51 146.5,165.5C 142.557,166.486 138.557,167.152 134.5,167.5 Z M 138.5,190.5 C 133.794,192.375 128.794,193.375 123.5,193.5C 119.705,194.617 115.705,195.283 111.5,195.5C 111.062,191.928 110.396,188.428 109.5,185C 114.118,184.006 118.785,183.506 123.5,183.5C 125.265,182.539 127.265,182.205 129.5,182.5C 130.919,181.549 132.585,181.216 134.5,181.5C 135.568,180.566 136.901,180.232 138.5,180.5C 139.568,179.566 140.901,179.232 142.5,179.5C 143.251,178.427 144.251,178.26 145.5,179C 144.512,182.745 143.845,186.578 143.5,190.5C 141.833,190.5 140.167,190.5 138.5,190.5 Z M 138.5,213.5 C 134.5,213.833 134.5,214.167 138.5,214.5C 137.432,215.434 136.099,215.768 134.5,215.5C 133.081,216.451 131.415,216.784 129.5,216.5C 125.081,217.972 120.414,218.638 115.5,218.5C 115.44,219.043 115.107,219.376 114.5,219.5C 113.767,215.826 113.101,212.159 112.5,208.5C 112.97,207.537 113.637,207.537 114.5,208.5C 118.964,207.356 123.63,206.69 128.5,206.5C 131.589,205.215 134.922,204.549 138.5,204.5C 139.531,203.751 140.698,203.085 142,202.5C 141.843,205.769 141.51,209.102 141,212.5C 140.667,210.5 140.333,208.5 140,206.5C 139.71,208.92 139.21,211.254 138.5,213.5 Z M 138.5,229.5 C 138.19,228.262 137.69,228.262 137,229.5C 136.517,230.448 136.351,231.448 136.5,232.5C 135.833,232.5 135.5,232.833 135.5,233.5C 134.5,233.833 133.833,234.5 133.5,235.5C 130.668,236.271 130.335,236.938 132.5,237.5C 128.833,240.167 125.167,240.167 121.5,237.5C 123.665,236.938 123.332,236.271 120.5,235.5C 120.5,234.833 120.167,234.5 119.5,234.5C 119.5,233.833 119.167,233.5 118.5,233.5C 118.167,232.167 117.833,232.167 117.5,233.5C 116.711,233.217 116.044,232.717 115.5,232C 121.095,230.653 126.762,229.82 132.5,229.5C 134.686,228.035 137.019,227.702 139.5,228.5C 139.376,229.107 139.043,229.44 138.5,229.5 Z M 136.5,232.5 C 136.833,232.5 137.167,232.5 137.5,232.5C 137.573,234.027 136.906,235.027 135.5,235.5C 135.5,234.833 135.5,234.167 135.5,233.5C 136.167,233.5 136.5,233.167 136.5,232.5 Z M 117.5,233.5 C 117.833,233.5 118.167,233.5 118.5,233.5C 119.167,233.5 119.5,233.833 119.5,234.5C 120.167,234.5 120.5,234.833 120.5,235.5C 120.5,235.833 120.5,236.167 120.5,236.5C 118.5,236.5 117.5,235.5 117.5,233.5 Z"/></g>
<g><path style="opacity:0.012" fill="#037bc4" d="M 104.5,7.5 C 104.897,6.47498 105.563,6.30831 106.5,7C 105.906,7.46434 105.239,7.63101 104.5,7.5 Z"/></g>
<g><path style="opacity:0.009" fill="#037bc4" d="M 151.5,7.5 C 150.448,7.64945 149.448,7.48278 148.5,7C 149.749,6.25988 150.749,6.42654 151.5,7.5 Z"/></g>
<g><path style="opacity:0.008" fill="#037bc4" d="M 170.5,7.5 C 170.897,6.47498 171.563,6.30831 172.5,7C 171.906,7.46434 171.239,7.63101 170.5,7.5 Z"/></g>
<g><path style="opacity:0.012" fill="#037ac4" d="M 82.5,8.5 C 81.8333,7.16667 81.8333,7.16667 82.5,8.5 Z"/></g>
<g><path style="opacity:0.01" fill="#047bc4" d="M 107.5,8.5 C 107.897,7.47498 108.563,7.30831 109.5,8C 108.906,8.46434 108.239,8.63101 107.5,8.5 Z"/></g>
<g><path style="opacity:0.01" fill="#037bc4" d="M 147.5,8.5 C 146.761,8.63101 146.094,8.46434 145.5,8C 146.437,7.30831 147.103,7.47498 147.5,8.5 Z"/></g>
<g><path style="opacity:0.012" fill="#037ac4" d="M 143.5,8.5 C 144.833,9.16667 144.833,9.16667 143.5,8.5 Z"/></g>
<g><path style="opacity:0.012" fill="#037ac5" d="M 174.5,8.5 C 175.833,9.16667 175.833,9.16667 174.5,8.5 Z"/></g>
<g><path style="opacity:0.012" fill="#047bc5" d="M 114.5,11.5 C 114.897,10.475 115.563,10.3083 116.5,11C 115.906,11.4643 115.239,11.631 114.5,11.5 Z"/></g>
<g><path style="opacity:0.008" fill="#047ac3" d="M 178.5,11.5 C 179.833,12.1667 179.833,12.1667 178.5,11.5 Z"/></g>
<g><path style="opacity:0.01" fill="#037bc3" d="M 119.5,13.5 C 120.251,12.4265 121.251,12.2599 122.5,13C 121.552,13.4828 120.552,13.6495 119.5,13.5 Z"/></g>
<g><path style="opacity:0.009" fill="#027ac4" d="M 135.5,13.5 C 134.448,13.6495 133.448,13.4828 132.5,13C 133.749,12.2599 134.749,12.4265 135.5,13.5 Z"/></g>
<g><path style="opacity:0.004" fill="#037ac4" d="M 181.5,13.5 C 180.833,12.1667 180.833,12.1667 181.5,13.5 Z"/></g>
<g><path style="opacity:0.004" fill="#037ac4" d="M 181.5,13.5 C 182.833,14.1667 182.833,14.1667 181.5,13.5 Z"/></g>
<g><path style="opacity:0.008" fill="#037bc4" d="M 69.5,17.5 C 70.8333,18.1667 70.8333,18.1667 69.5,17.5 Z"/></g>
<g><path style="opacity:0.012" fill="#047ac4" d="M 66.5,22.5 C 67.8333,23.1667 67.8333,23.1667 66.5,22.5 Z"/></g>
<g><path style="opacity:0.012" fill="#037ac5" d="M 65.5,24.5 C 66.8333,25.1667 66.8333,25.1667 65.5,24.5 Z"/></g>
<g><path style="opacity:0.845" fill="#037bc4" d="M 89.5,24.5 C 90.5,24.5 91.5,24.5 92.5,24.5C 94.1667,25.5 95.5,26.8333 96.5,28.5C 96.5,29.5 96.5,30.5 96.5,31.5C 95.596,32.209 95.2627,33.209 95.5,34.5C 93.9177,37.8756 93.2511,41.5422 93.5,45.5C 92.6618,45.8417 92.3284,46.5084 92.5,47.5C 90.2362,48.2186 87.9029,48.552 85.5,48.5C 85.1667,47.5 84.5,46.8333 83.5,46.5C 83.6471,40.7669 84.3137,35.1002 85.5,29.5C 86.3382,29.1583 86.6716,28.4916 86.5,27.5C 87.8333,26.8333 88.8333,25.8333 89.5,24.5 Z"/></g>
<g><path style="opacity:0.008" fill="#037bc4" d="M 189.5,27.5 C 189.369,26.7611 189.536,26.0944 190,25.5C 190.692,26.4368 190.525,27.1034 189.5,27.5 Z"/></g>
<g><path style="opacity:0.01" fill="#047bc5" d="M 190.5,30.5 C 190.369,29.7611 190.536,29.0944 191,28.5C 191.692,29.4368 191.525,30.1034 190.5,30.5 Z"/></g>
<g><path style="opacity:0.009" fill="#037bc4" d="M 62.5,31.5 C 63.5735,32.2506 63.7401,33.2506 63,34.5C 62.5172,33.552 62.3505,32.552 62.5,31.5 Z"/></g>
<g><path style="opacity:0.01" fill="#037bc4" d="M 191.5,31.5 C 192.525,31.8966 192.692,32.5632 192,33.5C 191.536,32.9056 191.369,32.2389 191.5,31.5 Z"/></g>
<g><path style="opacity:0.009" fill="#027bc4" d="M 192.5,34.5 C 193.598,35.6009 193.765,36.9343 193,38.5C 192.51,37.2068 192.343,35.8734 192.5,34.5 Z"/></g>
<g><path style="opacity:0.011" fill="#037ac4" d="M 61.5,35.5 C 62.5983,36.6009 62.765,37.9343 62,39.5C 61.51,38.2068 61.3433,36.8734 61.5,35.5 Z"/></g>
<g><path style="opacity:0.012" fill="#037bc4" d="M 193.5,40.5 C 194.648,44.9811 194.815,49.6478 194,54.5C 193.501,49.8452 193.334,45.1785 193.5,40.5 Z"/></g>
<g><path style="opacity:0.004" fill="#027bc4" d="M 60.5,42.5 C 61.6378,45.3035 61.8045,48.3035 61,51.5C 60.502,48.5184 60.3354,45.5184 60.5,42.5 Z"/></g>
<g><path style="opacity:0.861" fill="#037bc4" d="M 87.5,50.5 C 88.8333,50.5 90.1667,50.5 91.5,50.5C 91.8333,51.5 92.5,52.1667 93.5,52.5C 93.595,54.7857 94.2616,56.7857 95.5,58.5C 95.4095,61.1522 96.0762,63.4855 97.5,65.5C 97.4021,67.5529 98.0687,69.2196 99.5,70.5C 99.4021,72.5529 100.069,74.2196 101.5,75.5C 101.328,76.4916 101.662,77.1583 102.5,77.5C 102.993,79.8056 103.326,82.139 103.5,84.5C 102.128,85.5116 100.795,86.5116 99.5,87.5C 98.8333,87.5 98.1667,87.5 97.5,87.5C 94.6869,84.5541 92.3535,81.2208 90.5,77.5C 90.7373,76.209 90.404,75.209 89.5,74.5C 89.6716,73.5084 89.3382,72.8417 88.5,72.5C 88.7373,71.209 88.404,70.209 87.5,69.5C 87.405,67.2143 86.7384,65.2143 85.5,63.5C 84.8857,59.8648 84.5524,56.1981 84.5,52.5C 85.7095,52.0679 86.7095,51.4013 87.5,50.5 Z"/></g>
<g><path style="opacity:0.009" fill="#037bc4" d="M 61.5,54.5 C 62.5735,55.2506 62.7401,56.2506 62,57.5C 61.5172,56.552 61.3505,55.552 61.5,54.5 Z"/></g>
<g><path style="opacity:0.01" fill="#027bc4" d="M 192.5,56.5 C 193.573,57.2506 193.74,58.2506 193,59.5C 192.517,58.552 192.351,57.552 192.5,56.5 Z"/></g>
<g><path style="opacity:0.008" fill="#047bc4" d="M 63.5,58.5 C 63.6495,59.552 63.4828,60.552 63,61.5C 62.2599,60.2506 62.4265,59.2506 63.5,58.5 Z"/></g>
<g><path style="opacity:0.01" fill="#037bc4" d="M 191.5,60.5 C 192.525,60.8966 192.692,61.5632 192,62.5C 191.536,61.9056 191.369,61.2389 191.5,60.5 Z"/></g>
<g><path style="opacity:0.01" fill="#037bc4" d="M 63.5,62.5 C 64.525,62.8966 64.6917,63.5632 64,64.5C 63.5357,63.9056 63.369,63.2389 63.5,62.5 Z"/></g>
<g><path style="opacity:0.012" fill="#037bc4" d="M 190.5,63.5 C 191.525,63.8966 191.692,64.5632 191,65.5C 190.536,64.9056 190.369,64.2389 190.5,63.5 Z"/></g>
<g><path style="opacity:0.01" fill="#027bc5" d="M 65.5,65.5 C 65.631,66.2389 65.4643,66.9056 65,67.5C 64.3083,66.5632 64.475,65.8966 65.5,65.5 Z"/></g>
<g><path style="opacity:0.01" fill="#037bc4" d="M 189.5,66.5 C 190.525,66.8966 190.692,67.5632 190,68.5C 189.536,67.9056 189.369,67.2389 189.5,66.5 Z"/></g>
<g><path style="opacity:0.008" fill="#027bc4" d="M 66.5,70.5 C 65.475,70.1034 65.3083,69.4368 66,68.5C 66.4643,69.0944 66.631,69.7611 66.5,70.5 Z"/></g>
<g><path style="opacity:0.008" fill="#037bc4" d="M 188.5,71.5 C 188.369,70.7611 188.536,70.0944 189,69.5C 189.692,70.4368 189.525,71.1034 188.5,71.5 Z"/></g>
<g><path style="opacity:0.01" fill="#037cc4" d="M 66.5,70.5 C 66.8333,70.5 67.1667,70.5 67.5,70.5C 67.1667,73.1667 66.8333,73.1667 66.5,70.5 Z"/></g>
<g><path style="opacity:0.01" fill="#037bc5" d="M 187.5,71.5 C 187.833,71.5 188.167,71.5 188.5,71.5C 188.167,74.1667 187.833,74.1667 187.5,71.5 Z"/></g>
<g><path style="opacity:0.012" fill="#037ac4" d="M 67.5,73.5 C 68.8333,74.1667 68.8333,74.1667 67.5,73.5 Z"/></g>
<g><path style="opacity:0.012" fill="#037ac4" d="M 186.5,74.5 C 187.833,75.1667 187.833,75.1667 186.5,74.5 Z"/></g>
<g><path style="opacity:0.008" fill="#037bc4" d="M 185.5,76.5 C 186.833,77.1667 186.833,77.8333 185.5,78.5C 185.5,77.8333 185.5,77.1667 185.5,76.5 Z"/></g>
<g><path style="opacity:0.008" fill="#037bc4" d="M 184.5,78.5 C 184.833,78.5 185.167,78.5 185.5,78.5C 185.672,79.4916 185.338,80.1583 184.5,80.5C 184.5,79.8333 184.5,79.1667 184.5,78.5 Z"/></g>
<g><path style="opacity:0.008" fill="#037bc4" d="M 183.5,80.5 C 183.833,80.5 184.167,80.5 184.5,80.5C 184.672,81.4916 184.338,82.1583 183.5,82.5C 183.5,81.8333 183.5,81.1667 183.5,80.5 Z"/></g>
<g><path style="opacity:0.008" fill="#037ac4" d="M 182.5,82.5 C 182.833,82.5 183.167,82.5 183.5,82.5C 183.672,83.4916 183.338,84.1583 182.5,84.5C 182.5,83.8333 182.5,83.1667 182.5,82.5 Z"/></g>
<g><path style="opacity:0.008" fill="#037bc5" d="M 181.5,84.5 C 181.833,84.5 182.167,84.5 182.5,84.5C 182.672,85.4916 182.338,86.1583 181.5,86.5C 181.5,85.8333 181.5,85.1667 181.5,84.5 Z"/></g>
<g><path style="opacity:0.012" fill="#047bc4" d="M 180.5,86.5 C 180.833,86.5 181.167,86.5 181.5,86.5C 181.315,87.1701 180.981,87.1701 180.5,86.5 Z"/></g>
<g><path style="opacity:0.012" fill="#047bc4" d="M 75.5,87.5 C 74.8333,88.1667 74.8333,88.1667 75.5,87.5 Z"/></g>
<g><path style="opacity:0.012" fill="#037ac4" d="M 179.5,88.5 C 180.833,89.1667 180.833,89.1667 179.5,88.5 Z"/></g>
<g><path style="opacity:0.008" fill="#037bc4" d="M 178.5,89.5 C 178.833,89.5 179.167,89.5 179.5,89.5C 179.672,90.4916 179.338,91.1583 178.5,91.5C 178.5,90.8333 178.5,90.1667 178.5,89.5 Z"/></g>
<g><path style="opacity:0.008" fill="#037bc4" d="M 77.5,90.5 C 77.5,91.1667 77.5,91.8333 77.5,92.5C 76.1667,91.8333 76.1667,91.1667 77.5,90.5 Z"/></g>
<g><path style="opacity:0.012" fill="#047bc5" d="M 177.5,91.5 C 177.833,91.5 178.167,91.5 178.5,91.5C 178.315,92.1701 177.981,92.1701 177.5,91.5 Z"/></g>
<g><path style="opacity:0.016" fill="#047ac4" d="M 77.5,92.5 C 77.8333,92.5 78.1667,92.5 78.5,92.5C 78.3147,93.1701 77.9813,93.1701 77.5,92.5 Z"/></g>
<g><path style="opacity:0.012" fill="#027ac4" d="M 176.5,93.5 C 177.833,94.1667 177.833,94.1667 176.5,93.5 Z"/></g>
<g><path style="opacity:0.008" fill="#037ac4" d="M 79.5,95.5 C 78.8333,94.1667 78.8333,94.1667 79.5,95.5 Z"/></g>
<g><path style="opacity:0.012" fill="#047bc4" d="M 175.5,94.5 C 175.833,94.5 176.167,94.5 176.5,94.5C 176.315,95.1701 175.981,95.1701 175.5,94.5 Z"/></g>
<g><path style="opacity:0.016" fill="#057ac4" d="M 79.5,95.5 C 79.8333,95.5 80.1667,95.5 80.5,95.5C 80.3147,96.1701 79.9813,96.1701 79.5,95.5 Z"/></g>
<g><path style="opacity:0.012" fill="#027ac4" d="M 174.5,96.5 C 175.833,97.1667 175.833,97.1667 174.5,96.5 Z"/></g>
<g><path style="opacity:0.008" fill="#037bc4" d="M 80.5,97.5 C 81.8333,98.1667 81.8333,98.1667 80.5,97.5 Z"/></g>
<g><path style="opacity:0.016" fill="#047ac4" d="M 173.5,97.5 C 173.833,97.5 174.167,97.5 174.5,97.5C 174.315,98.1701 173.981,98.1701 173.5,97.5 Z"/></g>
<g><path style="opacity:0.006" fill="#047ac3" d="M 172.5,98.5 C 172.833,98.5 173.167,98.5 173.5,98.5C 173.672,99.4916 173.338,100.158 172.5,100.5C 172.5,99.8333 172.5,99.1667 172.5,98.5 Z"/></g>
<g><path style="opacity:0.012" fill="#037ac4" d="M 171.5,100.5 C 171.833,100.5 172.167,100.5 172.5,100.5C 172.315,101.17 171.981,101.17 171.5,100.5 Z"/></g>
<g><path style="opacity:0.012" fill="#037ac4" d="M 170.5,101.5 C 170.833,101.5 171.167,101.5 171.5,101.5C 171.315,102.17 170.981,102.17 170.5,101.5 Z"/></g>
<g><path style="opacity:0.016" fill="#047bc5" d="M 169.5,102.5 C 169.833,102.5 170.167,102.5 170.5,102.5C 170.315,103.17 169.981,103.17 169.5,102.5 Z"/></g>
<g><path style="opacity:0.016" fill="#037ac4" d="M 168.5,103.5 C 168.833,103.5 169.167,103.5 169.5,103.5C 169.315,104.17 168.981,104.17 168.5,103.5 Z"/></g>
<g><path style="opacity:0.016" fill="#037bc4" d="M 87.5,104.5 C 87.6663,111.841 87.4997,119.174 87,126.5C 86.1782,118.988 86.3448,111.655 87.5,104.5 Z"/></g>
<g><path style="opacity:0.004" fill="#087ec1" d="M 167.5,104.5 C 167.833,104.5 168.167,104.5 168.5,104.5C 168.315,105.17 167.981,105.17 167.5,104.5 Z"/></g>
<g><path style="opacity:0.01" fill="#047cc4" d="M 167.5,127.5 C 167.351,126.448 167.517,125.448 168,124.5C 168.74,125.749 168.573,126.749 167.5,127.5 Z"/></g>
<g><path style="opacity:0.012" fill="#037bc4" d="M 87.5,127.5 C 88.8333,128.167 88.8333,128.167 87.5,127.5 Z"/></g>
<g><path style="opacity:0.006" fill="#037ac2" d="M 166.5,127.5 C 166.833,127.5 167.167,127.5 167.5,127.5C 167.672,128.492 167.338,129.158 166.5,129.5C 166.5,128.833 166.5,128.167 166.5,127.5 Z"/></g>
<g><path style="opacity:0.012" fill="#037ac4" d="M 165.5,129.5 C 165.833,129.5 166.167,129.5 166.5,129.5C 166.315,130.17 165.981,130.17 165.5,129.5 Z"/></g>
<g><path style="opacity:0.008" fill="#027bc4" d="M 90.5,130.5 C 90.5,130.833 90.5,131.167 90.5,131.5C 89.8299,131.019 89.8299,130.685 90.5,130.5 Z"/></g>
<g><path style="opacity:0.012" fill="#037ac5" d="M 164.5,130.5 C 164.833,130.5 165.167,130.5 165.5,130.5C 165.315,131.17 164.981,131.17 164.5,130.5 Z"/></g>
<g><path style="opacity:0.004" fill="#027ac4" d="M 90.5,131.5 C 91.8333,132.167 91.8333,132.167 90.5,131.5 Z"/></g>
<g><path style="opacity:0.012" fill="#037ac5" d="M 163.5,131.5 C 163.833,131.5 164.167,131.5 164.5,131.5C 164.315,132.17 163.981,132.17 163.5,131.5 Z"/></g>
<g><path style="opacity:0.012" fill="#027bc4" d="M 93.5,132.5 C 93.6495,133.552 93.4828,134.552 93,135.5C 92.2599,134.251 92.4265,133.251 93.5,132.5 Z"/></g>
<g><path style="opacity:0.01" fill="#037bc4" d="M 93.5,138.5 C 94.6225,140.288 94.7891,142.288 94,144.5C 93.5045,142.527 93.3379,140.527 93.5,138.5 Z"/></g>
<g><path style="opacity:0.01" fill="#037bc4" d="M 106.5,146.5 C 106.336,143.813 106.503,141.146 107,138.5C 107.226,141.095 107.726,143.595 108.5,146C 107.906,146.464 107.239,146.631 106.5,146.5 Z"/></g>
<g><path style="opacity:0.009" fill="#047bc4" d="M 163.5,147.5 C 163.337,145.143 163.503,142.81 164,140.5C 164.796,143.039 164.629,145.372 163.5,147.5 Z"/></g>
<g><path style="opacity:0.008" fill="#057ac5" d="M 162.5,147.5 C 162.833,147.5 163.167,147.5 163.5,147.5C 163.315,148.17 162.981,148.17 162.5,147.5 Z"/></g>
<g><path style="opacity:0.004" fill="#057ac3" d="M 161.5,148.5 C 161.833,148.5 162.167,148.5 162.5,148.5C 162.315,149.17 161.981,149.17 161.5,148.5 Z"/></g>
<g><path style="opacity:0.008" fill="#037bc4" d="M 160.5,149.5 C 160.833,149.5 161.167,149.5 161.5,149.5C 161.315,150.17 160.981,150.17 160.5,149.5 Z"/></g>
<g><path style="opacity:0.008" fill="#037bc4" d="M 92.5,150.5 C 93.8333,151.167 93.8333,151.167 92.5,150.5 Z"/></g>
<g><path style="opacity:0.012" fill="#037bc5" d="M 160.5,150.5 C 159.833,151.167 159.833,151.167 160.5,150.5 Z"/></g>
<g><path style="opacity:0.007" fill="#027bc4" d="M 91.5,152.5 C 92.5735,153.251 92.7401,154.251 92,155.5C 91.5172,154.552 91.3505,153.552 91.5,152.5 Z"/></g>
<g><path style="opacity:0.01" fill="#037bc4" d="M 159.5,151.5 C 159.663,153.857 159.497,156.19 159,158.5C 158.204,155.961 158.371,153.628 159.5,151.5 Z"/></g>
<g><path style="opacity:0.015" fill="#047bc3" d="M 143.5,155.5 C 144.5,155.5 145.5,155.5 146.5,155.5C 146.657,156.873 146.49,158.207 146,159.5C 145.52,157.867 144.687,156.534 143.5,155.5 Z"/></g>
<g><path style="opacity:0.008" fill="#027ac4" d="M 95.5,159.5 C 95.5,159.833 95.5,160.167 95.5,160.5C 94.8299,160.019 94.8299,159.685 95.5,159.5 Z"/></g>
<g><path style="opacity:0.01" fill="#027bc4" d="M 95.5,160.5 C 96.5735,161.251 96.7401,162.251 96,163.5C 95.5172,162.552 95.3505,161.552 95.5,160.5 Z"/></g>
<g><path style="opacity:0.012" fill="#037bc4" d="M 108.5,161.5 C 110.527,161.338 112.527,161.505 114.5,162C 112.273,162.121 110.44,162.954 109,164.5C 108.517,163.552 108.351,162.552 108.5,161.5 Z"/></g>
<g><path style="opacity:0.01" fill="#027bc4" d="M 144.5,161.5 C 145.776,162.386 145.776,163.386 144.5,164.5C 143.913,163.767 143.913,162.767 144.5,161.5 Z"/></g>
<g><path style="opacity:0.01" fill="#037ac4" d="M 159.5,163.5 C 158.833,163.5 158.167,163.5 157.5,163.5C 157.786,161.067 158.452,161.067 159.5,163.5 Z"/></g>
<g><path style="opacity:0.004" fill="#0379c5" d="M 159.5,163.5 C 160.833,164.167 160.833,164.167 159.5,163.5 Z"/></g>
<g><path style="opacity:0.012" fill="#047ac4" d="M 160.5,165.5 C 161.833,166.167 161.833,166.167 160.5,165.5 Z"/></g>
<g><path style="opacity:0.009" fill="#037bc4" d="M 96.5,166.5 C 97.6291,168.628 97.7958,170.961 97,173.5C 96.5034,171.19 96.3367,168.857 96.5,166.5 Z"/></g>
<g><path style="opacity:0.011" fill="#037bc4" d="M 109.5,167.5 C 111.155,168.93 113.155,169.764 115.5,170C 113.527,170.495 111.527,170.662 109.5,170.5C 109.5,169.5 109.5,168.5 109.5,167.5 Z"/></g>
<g><path style="opacity:0.012" fill="#047bc4" d="M 160.5,169.5 C 161.525,169.897 161.692,170.563 161,171.5C 160.536,170.906 160.369,170.239 160.5,169.5 Z"/></g>
<g><path style="opacity:0.004" fill="#037ac3" d="M 159.5,172.5 C 160.833,173.167 160.833,173.167 159.5,172.5 Z"/></g>
<g><path style="opacity:0.008" fill="#037bc4" d="M 158.5,173.5 C 158.833,173.5 159.167,173.5 159.5,173.5C 159.315,174.17 158.981,174.17 158.5,173.5 Z"/></g>
<g><path style="opacity:0.008" fill="#037bc4" d="M 157.5,174.5 C 157.833,174.5 158.167,174.5 158.5,174.5C 158.315,175.17 157.981,175.17 157.5,174.5 Z"/></g>
<g><path style="opacity:0.008" fill="#037ac4" d="M 157.5,175.5 C 156.833,176.167 156.833,176.167 157.5,175.5 Z"/></g>
<g><path style="opacity:0.01" fill="#037bc4" d="M 155.5,178.5 C 156.629,180.628 156.796,182.961 156,185.5C 155.503,183.19 155.337,180.857 155.5,178.5 Z"/></g>
<g><path style="opacity:0.008" fill="#047bc4" d="M 96.5,181.5 C 95.8333,182.167 95.8333,182.167 96.5,181.5 Z"/></g>
<g><path style="opacity:0.004" fill="#037ac4" d="M 97.5,184.5 C 96.8333,183.167 96.8333,183.167 97.5,184.5 Z"/></g>
<g><path style="opacity:0.009" fill="#037bc4" d="M 97.5,184.5 C 98.1667,184.5 98.8333,184.5 99.5,184.5C 99.4656,193.666 98.7989,193.666 97.5,184.5 Z"/></g>
<g><path style="opacity:0.011" fill="#037bc4" d="M 111.5,185.5 C 112.239,185.369 112.906,185.536 113.5,186C 112.123,193.342 111.456,193.176 111.5,185.5 Z"/></g>
<g><path style="opacity:0.009" fill="#037bc4" d="M 141.5,187.5 C 142.043,187.56 142.376,187.893 142.5,188.5C 141.635,189.583 140.635,189.749 139.5,189C 140.416,188.722 141.082,188.222 141.5,187.5 Z"/></g>
<g><path style="opacity:0.008" fill="#067bc4" d="M 154.5,187.5 C 155.833,188.167 155.833,188.167 154.5,187.5 Z"/></g>
<g><path style="opacity:0.008" fill="#047bc4" d="M 157.5,190.5 C 156.833,189.167 156.833,189.167 157.5,190.5 Z"/></g>
<g><path style="opacity:0.01" fill="#047bc4" d="M 157.5,190.5 C 158.622,192.288 158.789,194.288 158,196.5C 157.505,194.527 157.338,192.527 157.5,190.5 Z"/></g>
<g><path style="opacity:0.014" fill="#047bc4" d="M 99.5,193.5 C 100.598,194.601 100.765,195.934 100,197.5C 99.51,196.207 99.3433,194.873 99.5,193.5 Z"/></g>
<g><path style="opacity:0.004" fill="#037ac5" d="M 156.5,197.5 C 157.833,198.167 157.833,198.167 156.5,197.5 Z"/></g>
<g><path style="opacity:0.008" fill="#057bc3" d="M 99.5,199.5 C 98.8333,198.167 98.8333,198.167 99.5,199.5 Z"/></g>
<g><path style="opacity:0.008" fill="#037bc4" d="M 155.5,198.5 C 155.833,198.5 156.167,198.5 156.5,198.5C 156.315,199.17 155.981,199.17 155.5,198.5 Z"/></g>
<g><path style="opacity:0.01" fill="#037bc4" d="M 98.5,199.5 C 98.6602,201.199 98.4935,202.866 98,204.5C 97.2204,202.613 97.3871,200.946 98.5,199.5 Z"/></g>
<g><path style="opacity:0.008" fill="#027bc4" d="M 154.5,199.5 C 154.833,199.5 155.167,199.5 155.5,199.5C 155.315,200.17 154.981,200.17 154.5,199.5 Z"/></g>
<g><path style="opacity:0.008" fill="#027bc4" d="M 154.5,200.5 C 154.649,201.552 154.483,202.552 154,203.5C 153.26,202.251 153.427,201.251 154.5,200.5 Z"/></g>
<g><path style="opacity:0.008" fill="#037ac4" d="M 98.5,205.5 C 99.8333,206.167 99.8333,206.167 98.5,205.5 Z"/></g>
<g><path style="opacity:0.01" fill="#037bc4" d="M 152.5,205.5 C 153.622,207.288 153.789,209.288 153,211.5C 152.505,209.527 152.338,207.527 152.5,205.5 Z"/></g>
<g><path style="opacity:0.012" fill="#0479c4" d="M 101.5,207.5 C 100.833,208.167 100.833,208.167 101.5,207.5 Z"/></g>
<g><path style="opacity:0.009" fill="#037bc4" d="M 114.5,208.5 C 116.857,208.337 119.19,208.503 121.5,209C 119.236,209.236 117.069,209.736 115,210.5C 114.536,209.906 114.369,209.239 114.5,208.5 Z"/></g>
<g><path style="opacity:0.01" fill="#027bc4" d="M 101.5,211.5 C 102.622,213.288 102.789,215.288 102,217.5C 101.505,215.527 101.338,213.527 101.5,211.5 Z"/></g>
<g><path style="opacity:0.006" fill="#037bc4" d="M 154.5,216.5 C 154.167,216.5 153.833,216.5 153.5,216.5C 153.833,213.833 154.167,213.833 154.5,216.5 Z"/></g>
<g><path style="opacity:0.005" fill="#027bc5" d="M 154.5,216.5 C 155.573,217.251 155.74,218.251 155,219.5C 154.517,218.552 154.351,217.552 154.5,216.5 Z"/></g>
<g><path style="opacity:0.012" fill="#047bc4" d="M 103.5,222.5 C 103.167,222.5 102.833,222.5 102.5,222.5C 102.833,218.5 103.167,218.5 103.5,222.5 Z"/></g>
<g><path style="opacity:0.012" fill="#037bc4" d="M 153.5,220.5 C 154.833,221.167 154.833,221.167 153.5,220.5 Z"/></g>
<g><path style="opacity:0.012" fill="#037ac4" d="M 102.5,222.5 C 101.833,223.167 101.833,223.167 102.5,222.5 Z"/></g>
<g><path style="opacity:0.004" fill="#027ac4" d="M 152.5,222.5 C 153.833,223.167 153.833,223.167 152.5,222.5 Z"/></g>
<g><path style="opacity:0.008" fill="#037ac4" d="M 151.5,223.5 C 151.833,223.5 152.167,223.5 152.5,223.5C 152.315,224.17 151.981,224.17 151.5,223.5 Z"/></g>
<g><path style="opacity:0.012" fill="#037bc4" d="M 151.5,224.5 C 151.66,226.199 151.494,227.866 151,229.5C 150.22,227.613 150.387,225.946 151.5,224.5 Z"/></g>
<g><path style="opacity:0.01" fill="#047bc4" d="M 101.5,228.5 C 102.525,228.897 102.692,229.563 102,230.5C 101.536,229.906 101.369,229.239 101.5,228.5 Z"/></g>
<g><path style="opacity:0.009" fill="#047bc4" d="M 149.5,230.5 C 150.573,231.251 150.74,232.251 150,233.5C 149.517,232.552 149.351,231.552 149.5,230.5 Z"/></g>
<g><path style="opacity:0.012" fill="#047bc4" d="M 104.5,231.5 C 103.833,232.167 103.833,232.167 104.5,231.5 Z"/></g>
<g><path style="opacity:0.004" fill="#047cc4" d="M 135.5,233.5 C 135.5,234.167 135.5,234.833 135.5,235.5C 134.833,235.5 134.167,235.5 133.5,235.5C 133.833,234.5 134.5,233.833 135.5,233.5 Z"/></g>
<g><path style="opacity:0.008" fill="#027bc4" d="M 148.5,234.5 C 149.833,235.167 149.833,235.833 148.5,236.5C 148.5,235.833 148.5,235.167 148.5,234.5 Z"/></g>
<g><path style="opacity:0.008" fill="#047cc4" d="M 106.5,235.5 C 106.631,236.239 106.464,236.906 106,237.5C 105.308,236.563 105.475,235.897 106.5,235.5 Z"/></g>
<g><path style="opacity:0.012" fill="#047bc4" d="M 147.5,236.5 C 147.833,236.5 148.167,236.5 148.5,236.5C 148.315,237.17 147.981,237.17 147.5,236.5 Z"/></g>
<g><path style="opacity:0.012" fill="#037ac5" d="M 146.5,238.5 C 147.833,239.167 147.833,239.167 146.5,238.5 Z"/></g>
<g><path style="opacity:0.012" fill="#047bc5" d="M 145.5,239.5 C 145.833,239.5 146.167,239.5 146.5,239.5C 146.315,240.17 145.981,240.17 145.5,239.5 Z"/></g>
<g><path style="opacity:0.004" fill="#0279c4" d="M 144.5,241.5 C 145.833,242.167 145.833,242.167 144.5,241.5 Z"/></g>
<g><path style="opacity:0.012" fill="#047ac5" d="M 139.5,245.5 C 140.833,246.167 140.833,246.167 139.5,245.5 Z"/></g>
<g><path style="opacity:0.012" fill="#037ac4" d="M 115.5,246.5 C 114.833,247.167 114.833,247.167 115.5,246.5 Z"/></g>
<g><path style="opacity:0.008" fill="#037ac4" d="M 139.5,246.5 C 138.833,247.167 138.833,247.167 139.5,246.5 Z"/></g>
<g><path style="opacity:0.012" fill="#047bc4" d="M 117.5,247.5 C 116.833,248.167 116.833,248.167 117.5,247.5 Z"/></g>
<g><path style="opacity:0.012" fill="#0379c4" d="M 136.5,247.5 C 137.833,248.167 137.833,248.167 136.5,247.5 Z"/></g>
<g><path style="opacity:0.012" fill="#037bc4" d="M 118.5,248.5 C 119.833,249.167 119.833,249.167 118.5,248.5 Z"/></g>
<g><path style="opacity:0.008" fill="#037bc4" d="M 133.5,249.5 C 133.5,249.167 133.5,248.833 133.5,248.5C 136.167,248.833 136.167,249.167 133.5,249.5 Z"/></g>
<g><path style="opacity:0.01" fill="#037bc4" d="M 123.5,249.5 C 122.749,250.573 121.749,250.74 120.5,250C 121.448,249.517 122.448,249.351 123.5,249.5 Z"/></g>
<g><path style="opacity:0.009" fill="#037bc4" d="M 130.5,249.5 C 131.5,249.5 132.5,249.5 133.5,249.5C 132.5,250.833 131.5,250.833 130.5,249.5 Z"/></g>
</svg>
