<?xml version="1.0" encoding="UTF-8"?>
<!DOCTYPE svg PUBLIC "-//W3C//DTD SVG 1.1//EN" "http://www.w3.org/Graphics/SVG/1.1/DTD/svg11.dtd">
<svg xmlns="http://www.w3.org/2000/svg" version="1.1" width="48px" height="48px" style="shape-rendering:geometricPrecision; text-rendering:geometricPrecision; image-rendering:optimizeQuality; fill-rule:evenodd; clip-rule:evenodd" xmlns:xlink="http://www.w3.org/1999/xlink">
<g><path style="opacity:0.826" fill="#d2dade" d="M 16.5,3.5 C 36.6499,1.48275 45.4833,10.4828 43,30.5C 36.8117,43.0873 27.145,46.7539 14,41.5C 10.8797,42.5731 7.71305,43.5731 4.5,44.5C 3.5,44.1667 2.83333,43.5 2.5,42.5C 4.83313,38.2377 5.33313,33.9044 4,29.5C 1.51898,17.4655 5.68564,8.79887 16.5,3.5 Z"/></g>
<g><path style="opacity:1" fill="#f8fbf8" d="M 18.5,4.5 C 32.0153,3.36715 40.0153,9.36715 42.5,22.5C 39.6622,39.4216 29.9955,45.4216 13.5,40.5C 10.9209,40.8595 8.42092,41.5262 6,42.5C 5.5,42.1667 5,41.8333 4.5,41.5C 5.47902,38.9173 6.14569,36.2506 6.5,33.5C 1.97598,20.2233 5.97598,10.5567 18.5,4.5 Z"/></g>
<g><path style="opacity:1" fill="#49c558" d="M 19.5,7.5 C 32.847,7.01502 39.347,13.3484 39,26.5C 36.9781,34.8512 31.6447,39.1845 23,39.5C 19.9287,39.2162 17.0954,38.2162 14.5,36.5C 12.9291,37.3094 11.2624,37.6427 9.5,37.5C 9.51909,35.9397 9.85242,34.4397 10.5,33C 5.1691,21.5047 8.1691,13.0047 19.5,7.5 Z"/></g>
<g><path style="opacity:1" fill="#f2fbf3" d="M 15.5,14.5 C 18.6557,14.5291 20.3223,16.1957 20.5,19.5C 20.0233,20.4776 19.3567,21.3109 18.5,22C 20.029,25.0288 22.3623,27.1955 25.5,28.5C 27.1913,26.7438 29.1913,26.2438 31.5,27C 32.6515,31.8055 30.6515,33.4721 25.5,32C 19.8068,29.4376 15.8068,25.271 13.5,19.5C 13.9024,17.6998 14.5691,16.0332 15.5,14.5 Z"/></g>
</svg>
