<?xml version="1.0" encoding="UTF-8"?>
<!DOCTYPE svg PUBLIC "-//W3C//DTD SVG 1.1//EN" "http://www.w3.org/Graphics/SVG/1.1/DTD/svg11.dtd">
<svg xmlns="http://www.w3.org/2000/svg" version="1.1" width="32px" height="32px" style="shape-rendering:geometricPrecision; text-rendering:geometricPrecision; image-rendering:optimizeQuality; fill-rule:evenodd; clip-rule:evenodd" xmlns:xlink="http://www.w3.org/1999/xlink">
<g><path style="opacity:0.651" fill="#000000" d="M 10.5,3.5 C 23.3202,2.15271 28.8202,7.81938 27,20.5C 22.9314,27.3091 17.0981,29.3091 9.5,26.5C 7.61826,27.0933 5.78493,27.7599 4,28.5C 3.88135,22.5734 3.88135,16.5734 4,10.5C 5.69406,7.64238 7.86073,5.30904 10.5,3.5 Z M 11.5,6.5 C 21.6591,5.15811 25.8257,9.49144 24,19.5C 22.8333,21.3333 21.3333,22.8333 19.5,24C 15.4761,24.4973 11.4761,24.3307 7.5,23.5C 6.66934,19.5239 6.50267,15.5239 7,11.5C 8.36569,9.63834 9.86569,7.97167 11.5,6.5 Z"/></g>
<g><path style="opacity:0.636" fill="#000000" d="M 9.5,9.5 C 10.8333,9.5 12.1667,9.5 13.5,9.5C 14.2563,11.6133 14.4229,13.6133 14,15.5C 15.3277,17.669 16.9943,18.0023 19,16.5C 23.4456,18.3282 23.279,19.9948 18.5,21.5C 11.5429,20.195 8.54291,16.195 9.5,9.5 Z"/></g>
</svg>
