<?xml version="1.0" encoding="UTF-8"?>
<!DOCTYPE svg PUBLIC "-//W3C//DTD SVG 1.1//EN" "http://www.w3.org/Graphics/SVG/1.1/DTD/svg11.dtd">
<svg xmlns="http://www.w3.org/2000/svg" version="1.1" width="256px" height="256px" style="shape-rendering:geometricPrecision; text-rendering:geometricPrecision; image-rendering:optimizeQuality; fill-rule:evenodd; clip-rule:evenodd" xmlns:xlink="http://www.w3.org/1999/xlink">
<g><path style="opacity:0.012" fill="#027bc4" d="M 18.5,8.5 C 21.3035,7.36216 24.3035,7.19549 27.5,8C 24.5184,8.49796 21.5184,8.66463 18.5,8.5 Z"/></g>
<g><path style="opacity:0.01" fill="#037bc4" d="M 14.5,9.5 C 14.8966,8.47498 15.5632,8.30831 16.5,9C 15.9056,9.46434 15.2389,9.63101 14.5,9.5 Z"/></g>
<g><path style="opacity:0.012" fill="#037bc3" d="M 28.5,9.5 C 28.8966,8.47498 29.5632,8.30831 30.5,9C 29.9056,9.46434 29.2389,9.63101 28.5,9.5 Z"/></g>
<g><path style="opacity:0.004" fill="#037bc6" d="M 242.5,8.5 C 243.833,9.16667 243.833,9.16667 242.5,8.5 Z"/></g>
<g><path style="opacity:0.012" fill="#037ac4" d="M 12.5,9.5 C 13.8333,10.1667 13.8333,10.1667 12.5,9.5 Z"/></g>
<g><path style="opacity:0.882" fill="#037bc4" d="M 33.5,11.5 C 34.795,12.4884 36.1283,13.4884 37.5,14.5C 40.9129,17.6735 43.5795,21.3402 45.5,25.5C 45.8333,28.8333 46.1667,32.1667 46.5,35.5C 45.5655,36.5676 45.2322,37.901 45.5,39.5C 44.596,40.209 44.2627,41.209 44.5,42.5C 43.6618,42.8417 43.3284,43.5084 43.5,44.5C 42.8333,44.5 42.5,44.8333 42.5,45.5C 41.0937,45.9731 40.427,46.9731 40.5,48.5C 39.8333,48.5 39.5,48.8333 39.5,49.5C 38.8333,49.5 38.5,49.8333 38.5,50.5C 36.9731,50.427 35.9731,51.0937 35.5,52.5C 33.1815,52.9925 31.1815,53.9925 29.5,55.5C 28.5,55.5 27.5,55.5 26.5,55.5C 26.5,64.8333 26.5,74.1667 26.5,83.5C 29.1667,83.5 31.8333,83.5 34.5,83.5C 34.5,134.5 34.5,185.5 34.5,236.5C 33.6618,236.842 33.3284,237.508 33.5,238.5C 32.6618,238.842 32.3284,239.508 32.5,240.5C 31.8333,240.5 31.5,240.833 31.5,241.5C 30.1667,242.167 29.1667,243.167 28.5,244.5C 26.847,244.66 25.5137,245.326 24.5,246.5C 21.7938,246.425 19.1272,246.092 16.5,245.5C 14.1667,243.833 12.1667,241.833 10.5,239.5C 10.6716,238.508 10.3382,237.842 9.5,237.5C 9.5,186.167 9.5,134.833 9.5,83.5C 12.1667,83.5 14.8333,83.5 17.5,83.5C 17.6665,74.1607 17.4998,64.8274 17,55.5C 15.9887,54.6634 14.8221,54.33 13.5,54.5C 10.2382,52.5797 7.23815,50.2463 4.5,47.5C 3.15351,45.4632 1.82018,43.4632 0.5,41.5C 0.737305,40.209 0.403972,39.209 -0.5,38.5C -0.5,34.5 -0.5,30.5 -0.5,26.5C 6.21401,11.4713 17.5473,6.47132 33.5,11.5 Z M 25.5,19.5 C 26.791,19.2627 27.791,19.596 28.5,20.5C 29.4916,20.3284 30.1583,20.6618 30.5,21.5C 30.0618,21.4346 29.7284,21.6012 29.5,22C 31.3783,23.5429 32.8783,25.3762 34,27.5C 34.4643,26.9056 34.631,26.2389 34.5,25.5C 35.404,26.209 35.7373,27.209 35.5,28.5C 34.6931,32.0213 34.0264,35.688 33.5,39.5C 31.8333,40.5 30.5,41.8333 29.5,43.5C 26.8333,43.8333 26.8333,44.1667 29.5,44.5C 28.791,45.404 27.791,45.7373 26.5,45.5C 23.8333,44.1667 21.1667,44.1667 18.5,45.5C 17.209,45.7373 16.209,45.404 15.5,44.5C 17.6655,43.9377 17.3322,43.271 14.5,42.5C 14.5,41.8333 14.1667,41.5 13.5,41.5C 13.5,40.8333 13.1667,40.5 12.5,40.5C 11.0697,37.011 10.2363,33.3443 10,29.5C 9.50335,31.8098 9.33669,34.1432 9.5,36.5C 8.84417,35.3784 8.51084,34.0451 8.5,32.5C 8.36103,30.1175 9.02769,28.1175 10.5,26.5C 10.369,27.2389 10.5357,27.9056 11,28.5C 12.1667,24.6667 14.6667,22.1667 18.5,21C 17.9056,20.5357 17.2389,20.369 16.5,20.5C 19.3726,18.5185 22.3726,18.1851 25.5,19.5 Z M 11.5,40.5 C 11.8333,40.5 12.1667,40.5 12.5,40.5C 13.1667,40.5 13.5,40.8333 13.5,41.5C 14.1667,41.5 14.5,41.8333 14.5,42.5C 14.5,42.8333 14.5,43.1667 14.5,43.5C 12.5,43.5 11.5,42.5 11.5,40.5 Z M 18.5,92.5 C 20.8333,92.5 23.1667,92.5 25.5,92.5C 25.5,94.8333 25.5,97.1667 25.5,99.5C 23.1667,99.5 20.8333,99.5 18.5,99.5C 18.5,97.1667 18.5,94.8333 18.5,92.5 Z M 19.5,235.5 C 18.5013,192.003 18.168,148.337 18.5,104.5C 20.8333,104.5 23.1667,104.5 25.5,104.5C 25.8176,148.53 25.4843,192.53 24.5,236.5C 22.5853,236.784 20.9187,236.451 19.5,235.5 Z"/></g>
<g><path style="opacity:0.886" fill="#037bc4" d="M 242.5,9.5 C 243.864,11.1911 245.197,12.8577 246.5,14.5C 246.328,15.4916 246.662,16.1583 247.5,16.5C 249.044,21.9194 251.378,26.9194 254.5,31.5C 254.328,32.4916 254.662,33.1583 255.5,33.5C 255.5,34.8333 255.5,36.1667 255.5,37.5C 254.069,38.7804 253.402,40.4471 253.5,42.5C 252.662,42.8417 252.328,43.5084 252.5,44.5C 251.069,45.7804 250.402,47.4471 250.5,49.5C 249.662,49.8417 249.328,50.5084 249.5,51.5C 248.596,52.209 248.263,53.209 248.5,54.5C 247.506,63.9856 247.173,73.6522 247.5,83.5C 250.167,83.5 252.833,83.5 255.5,83.5C 255.5,134.833 255.5,186.167 255.5,237.5C 254.662,237.842 254.328,238.508 254.5,239.5C 252.833,240.5 251.5,241.833 250.5,243.5C 249.833,243.5 249.5,243.833 249.5,244.5C 246.302,245.787 242.969,246.453 239.5,246.5C 238.791,245.596 237.791,245.263 236.5,245.5C 233.833,243.5 231.5,241.167 229.5,238.5C 228.513,186.863 228.18,135.196 228.5,83.5C 231.167,83.5 233.833,83.5 236.5,83.5C 236.5,72.8333 236.5,62.1667 236.5,51.5C 237.338,51.1583 237.672,50.4916 237.5,49.5C 238.906,49.0269 239.573,48.0269 239.5,46.5C 241.861,42.9487 243.861,39.1153 245.5,35C 242.159,27.9846 238.825,20.9846 235.5,14C 236.677,10.6506 239.01,9.15058 242.5,9.5 Z M 237.5,92.5 C 240.5,92.5 243.5,92.5 246.5,92.5C 246.5,94.8333 246.5,97.1667 246.5,99.5C 243.5,99.5 240.5,99.5 237.5,99.5C 237.5,97.1667 237.5,94.8333 237.5,92.5 Z M 239.5,235.5 C 238.778,235.082 238.278,234.416 238,233.5C 237.5,190.501 237.333,147.501 237.5,104.5C 240.5,104.5 243.5,104.5 246.5,104.5C 246.667,148.168 246.5,191.835 246,235.5C 243.726,236.811 241.56,236.811 239.5,235.5 Z"/></g>
<g><path style="opacity:0.004" fill="#037bc4" d="M 244.5,9.5 C 245.833,10.1667 245.833,10.1667 244.5,9.5 Z"/></g>
<g><path style="opacity:0.012" fill="#047bc4" d="M 33.5,10.5 C 34.8333,11.1667 34.8333,11.1667 33.5,10.5 Z"/></g>
<g><path style="opacity:0.012" fill="#037ac3" d="M 234.5,11.5 C 235.833,12.1667 235.833,12.1667 234.5,11.5 Z"/></g>
<g><path style="opacity:0.008" fill="#027bc4" d="M 246.5,14.5 C 246.369,13.7611 246.536,13.0944 247,12.5C 247.692,13.4368 247.525,14.1034 246.5,14.5 Z"/></g>
<g><path style="opacity:0.012" fill="#047bc4" d="M 37.5,13.5 C 38.8333,14.1667 38.8333,14.1667 37.5,13.5 Z"/></g>
<g><path style="opacity:0.004" fill="#027ac4" d="M 39.5,14.5 C 40.8333,15.1667 40.8333,15.1667 39.5,14.5 Z"/></g>
<g><path style="opacity:0.008" fill="#037bc4" d="M 234.5,15.5 C 235.525,15.8966 235.692,16.5632 235,17.5C 234.536,16.9056 234.369,16.2389 234.5,15.5 Z"/></g>
<g><path style="opacity:0.012" fill="#037ac4" d="M 247.5,15.5 C 248.833,16.1667 248.833,16.1667 247.5,15.5 Z"/></g>
<g><path style="opacity:0.012" fill="#037ac4" d="M 248.5,17.5 C 249.833,18.1667 249.833,18.1667 248.5,17.5 Z"/></g>
<g><path style="opacity:0.008" fill="#037ac5" d="M 1.5,18.5 C 2.83333,19.1667 2.83333,19.1667 1.5,18.5 Z"/></g>
<g><path style="opacity:0.012" fill="#037ac4" d="M 249.5,19.5 C 250.833,20.1667 250.833,20.1667 249.5,19.5 Z"/></g>
<g><path style="opacity:0.01" fill="#037bc4" d="M 45.5,25.5 C 45.369,24.7611 45.5357,24.0944 46,23.5C 46.6917,24.4368 46.525,25.1034 45.5,25.5 Z"/></g>
<g><path style="opacity:0.012" fill="#037bc4" d="M 46.5,26.5 C 47.5735,27.2506 47.7401,28.2506 47,29.5C 46.5172,28.552 46.3505,27.552 46.5,26.5 Z"/></g>
<g><path style="opacity:0.008" fill="#037bc4" d="M 255.5,29.5 C 255.5,30.1667 255.5,30.8333 255.5,31.5C 255.167,31.5 254.833,31.5 254.5,31.5C 254.328,30.5084 254.662,29.8417 255.5,29.5 Z"/></g>
<g><path style="opacity:0.009" fill="#047bc4" d="M 46.5,35.5 C 47.8333,36.8333 47.8333,38.1667 46.5,39.5C 46.5,38.1667 46.5,36.8333 46.5,35.5 Z"/></g>
<g><path style="opacity:0.005" fill="#037bc4" d="M 33.5,39.5 C 33.5,40.1667 33.5,40.8333 33.5,41.5C 32.8333,41.5 32.5,41.8333 32.5,42.5C 31.8333,42.5 31.5,42.8333 31.5,43.5C 30.8333,43.5 30.1667,43.5 29.5,43.5C 30.5,41.8333 31.8333,40.5 33.5,39.5 Z"/></g>
<g><path style="opacity:0.012" fill="#047bc4" d="M 45.5,39.5 C 45.8333,39.5 46.1667,39.5 46.5,39.5C 46.1667,42.1667 45.8333,42.1667 45.5,39.5 Z"/></g>
<g><path style="opacity:0.012" fill="#037ac5" d="M 255.5,40.5 C 255.5,40.8333 255.5,41.1667 255.5,41.5C 254.83,41.0187 254.83,40.6853 255.5,40.5 Z"/></g>
<g><path style="opacity:0.008" fill="#037bc4" d="M -0.5,41.5 C -0.166667,41.5 0.166667,41.5 0.5,41.5C 0.67158,42.4916 0.338246,43.1583 -0.5,43.5C -0.5,42.8333 -0.5,42.1667 -0.5,41.5 Z"/></g>
<g><path style="opacity:0.012" fill="#047bc5" d="M 44.5,42.5 C 45.8333,43.1667 45.8333,43.1667 44.5,42.5 Z"/></g>
<g><path style="opacity:0.008" fill="#037ac4" d="M 253.5,42.5 C 254.833,43.1667 254.833,43.8333 253.5,44.5C 253.5,43.8333 253.5,43.1667 253.5,42.5 Z"/></g>
<g><path style="opacity:0.009" fill="#027bc4" d="M 89.5,44.5 C 93.6463,43.353 97.9796,43.1864 102.5,44C 98.1794,44.499 93.8461,44.6657 89.5,44.5 Z"/></g>
<g><path style="opacity:0.012" fill="#037ac5" d="M 43.5,44.5 C 44.8333,45.1667 44.8333,45.1667 43.5,44.5 Z"/></g>
<g><path style="opacity:0.012" fill="#037bc4" d="M 104.5,45.5 C 105.601,44.4017 106.934,44.235 108.5,45C 107.207,45.49 105.873,45.6567 104.5,45.5 Z"/></g>
<g><path style="opacity:0.008" fill="#037cc4" d="M 252.5,44.5 C 252.833,44.5 253.167,44.5 253.5,44.5C 253.167,47.1667 252.833,47.1667 252.5,44.5 Z"/></g>
<g><path style="opacity:0.012" fill="#047bc5" d="M 42.5,45.5 C 42.8333,45.5 43.1667,45.5 43.5,45.5C 43.3147,46.1701 42.9813,46.1701 42.5,45.5 Z"/></g>
<g><path style="opacity:0.873" fill="#037bc4" d="M 104.5,45.5 C 108.733,46.7974 113.067,48.1307 117.5,49.5C 122.63,52.2338 127.63,55.2338 132.5,58.5C 133.122,59.6266 133.955,60.6266 135,61.5C 140.844,56.333 147.344,52.333 154.5,49.5C 157.152,49.5905 159.485,48.9238 161.5,47.5C 172.362,46.2528 183.029,47.2528 193.5,50.5C 195.181,52.0075 197.181,53.0075 199.5,53.5C 200.945,55.0627 202.611,56.396 204.5,57.5C 211.127,63.7814 216.127,71.1147 219.5,79.5C 220.118,84.3296 220.785,89.163 221.5,94C 220.795,97.8042 220.462,101.637 220.5,105.5C 219.232,107.905 218.565,110.572 218.5,113.5C 217.596,114.209 217.263,115.209 217.5,116.5C 216.596,117.209 216.263,118.209 216.5,119.5C 215.069,120.78 214.402,122.447 214.5,124.5C 213.596,125.209 213.263,126.209 213.5,127.5C 212.662,127.842 212.328,128.508 212.5,129.5C 211.596,130.209 211.263,131.209 211.5,132.5C 210.662,132.842 210.328,133.508 210.5,134.5C 209.596,135.209 209.263,136.209 209.5,137.5C 208.662,137.842 208.328,138.508 208.5,139.5C 207.596,140.209 207.263,141.209 207.5,142.5C 206.069,143.78 205.402,145.447 205.5,147.5C 204.662,147.842 204.328,148.508 204.5,149.5C 203.596,150.209 203.263,151.209 203.5,152.5C 202.662,152.842 202.328,153.508 202.5,154.5C 201.069,155.78 200.402,157.447 200.5,159.5C 199.069,160.78 198.402,162.447 198.5,164.5C 197.662,164.842 197.328,165.508 197.5,166.5C 196.596,167.209 196.263,168.209 196.5,169.5C 195.662,169.842 195.328,170.508 195.5,171.5C 194.069,172.78 193.402,174.447 193.5,176.5C 192.069,177.78 191.402,179.447 191.5,181.5C 190.069,182.78 189.402,184.447 189.5,186.5C 188.596,187.209 188.263,188.209 188.5,189.5C 187.662,189.842 187.328,190.508 187.5,191.5C 186.596,192.209 186.263,193.209 186.5,194.5C 185.662,194.842 185.328,195.508 185.5,196.5C 184.596,197.209 184.263,198.209 184.5,199.5C 183.069,200.78 182.402,202.447 182.5,204.5C 181.662,204.842 181.328,205.508 181.5,206.5C 180.069,207.78 179.402,209.447 179.5,211.5C 178.662,211.842 178.328,212.508 178.5,213.5C 177.596,214.209 177.263,215.209 177.5,216.5C 176.662,216.842 176.328,217.508 176.5,218.5C 175.596,219.209 175.263,220.209 175.5,221.5C 174.662,221.842 174.328,222.508 174.5,223.5C 173.662,223.842 173.328,224.508 173.5,225.5C 172.069,226.78 171.402,228.447 171.5,230.5C 170.833,230.5 170.5,230.833 170.5,231.5C 169.662,231.842 169.328,232.508 169.5,233.5C 168.662,233.842 168.328,234.508 168.5,235.5C 167.833,235.5 167.5,235.833 167.5,236.5C 166.833,236.5 166.5,236.833 166.5,237.5C 165.662,237.842 165.328,238.508 165.5,239.5C 164.833,239.5 164.5,239.833 164.5,240.5C 162.973,240.427 161.973,241.094 161.5,242.5C 160.833,242.5 160.5,242.833 160.5,243.5C 158.801,243.62 157.135,243.954 155.5,244.5C 153.484,243.822 151.484,243.156 149.5,242.5C 148.136,240.809 146.803,239.142 145.5,237.5C 143.467,233.435 141.467,229.435 139.5,225.5C 139.737,224.209 139.404,223.209 138.5,222.5C 138.737,221.209 138.404,220.209 137.5,219.5C 137.405,217.214 136.738,215.214 135.5,213.5C 135.768,211.901 135.434,210.568 134.5,209.5C 134.768,207.901 134.434,206.568 133.5,205.5C 133.768,203.901 133.434,202.568 132.5,201.5C 132.211,194.689 130.544,188.355 127.5,182.5C 124.833,179.833 122.167,179.833 119.5,182.5C 118.833,182.5 118.5,182.833 118.5,183.5C 116.167,183.833 114.833,185.167 114.5,187.5C 113.833,187.5 113.5,187.833 113.5,188.5C 112.094,188.973 111.427,189.973 111.5,191.5C 110.662,191.842 110.328,192.508 110.5,193.5C 109.662,193.842 109.328,194.508 109.5,195.5C 108.662,195.842 108.328,196.508 108.5,197.5C 107.662,197.842 107.328,198.508 107.5,199.5C 106.596,200.209 106.263,201.209 106.5,202.5C 104.194,206.085 102.861,210.085 102.5,214.5C 100.627,218.515 99.6268,222.849 99.5,227.5C 98.596,228.209 98.2627,229.209 98.5,230.5C 97.596,231.209 97.2627,232.209 97.5,233.5C 96.6618,233.842 96.3284,234.508 96.5,235.5C 95.8333,235.5 95.5,235.833 95.5,236.5C 94.6618,236.842 94.3284,237.508 94.5,238.5C 93.8333,238.5 93.5,238.833 93.5,239.5C 90.6916,240.929 87.6916,241.595 84.5,241.5C 82.5,240.167 80.8333,238.5 79.5,236.5C 78.8698,234.25 77.8698,232.25 76.5,230.5C 76.7373,229.209 76.404,228.209 75.5,227.5C 75.7678,225.901 75.4345,224.568 74.5,223.5C 74.4512,219.922 73.7846,216.589 72.5,213.5C 72.7845,211.585 72.4511,209.919 71.5,208.5C 71.7678,206.901 71.4345,205.568 70.5,204.5C 70.7678,202.901 70.4345,201.568 69.5,200.5C 69.5905,197.848 68.9238,195.515 67.5,193.5C 67.7373,192.209 67.404,191.209 66.5,190.5C 66.7373,189.209 66.404,188.209 65.5,187.5C 65.7373,186.209 65.404,185.209 64.5,184.5C 64.7373,183.209 64.404,182.209 63.5,181.5C 63.7373,180.209 63.404,179.209 62.5,178.5C 62.7373,177.209 62.404,176.209 61.5,175.5C 61.405,173.214 60.7384,171.214 59.5,169.5C 59.5979,167.447 58.9313,165.78 57.5,164.5C 57.7373,163.209 57.404,162.209 56.5,161.5C 56.7373,160.209 56.404,159.209 55.5,158.5C 55.7373,157.209 55.404,156.209 54.5,155.5C 54.7373,154.209 54.404,153.209 53.5,152.5C 53.7373,151.209 53.404,150.209 52.5,149.5C 52.5905,146.848 51.9238,144.515 50.5,142.5C 50.7678,140.901 50.4345,139.568 49.5,138.5C 45.191,120.964 44.5243,103.298 47.5,85.5C 52.0127,67.6537 62.6794,54.9871 79.5,47.5C 87.7309,45.8193 96.0642,45.1526 104.5,45.5 Z M 110.5,57.5 C 112.553,57.4021 114.22,58.0687 115.5,59.5C 114.761,59.369 114.094,59.5357 113.5,60C 118.188,62.0065 122.521,64.5065 126.5,67.5C 125.055,70.1182 123.389,72.6182 121.5,75C 121.728,75.3988 122.062,75.5654 122.5,75.5C 121.167,78.1667 121.167,80.8333 122.5,83.5C 121.262,83.81 121.262,84.31 122.5,85C 123.437,85.6917 124.103,85.525 124.5,84.5C 125.833,84.1667 127.167,83.8333 128.5,83.5C 128.435,83.9382 128.601,84.2716 129,84.5C 130.167,83.3333 131.333,82.1667 132.5,81C 132.272,80.6012 131.938,80.4346 131.5,80.5C 131.328,79.5084 131.662,78.8417 132.5,78.5C 133.327,79.4387 133.994,79.1054 134.5,77.5C 135.167,77.5 135.5,77.1667 135.5,76.5C 138.167,73.1667 141.167,70.1667 144.5,67.5C 145.167,67.5 145.5,67.1667 145.5,66.5C 146.473,66.0133 147.473,65.5133 148.5,65C 149.738,64.31 149.738,63.81 148.5,63.5C 148.973,62.0937 149.973,61.427 151.5,61.5C 152.78,60.0687 154.447,59.4021 156.5,59.5C 156.735,60.0967 157.235,60.4301 158,60.5C 159.5,60 161,59.5 162.5,59C 161.552,58.5172 160.552,58.3505 159.5,58.5C 160.568,57.5655 161.901,57.2322 163.5,57.5C 166.482,56.8351 169.648,56.5018 173,56.5C 177.772,56.3078 182.272,56.9745 186.5,58.5C 188.553,58.4021 190.22,59.0687 191.5,60.5C 190.761,60.369 190.094,60.5357 189.5,61C 190.946,62.298 192.279,62.4646 193.5,61.5C 195.027,61.427 196.027,62.0937 196.5,63.5C 195.984,64.7582 196.65,65.7582 198.5,66.5C 198.5,67.1667 198.833,67.5 199.5,67.5C 199.5,68.1667 199.833,68.5 200.5,68.5C 200.5,69.1667 200.833,69.5 201.5,69.5C 203.505,72.3507 205.338,75.3507 207,78.5C 207.464,77.9056 207.631,77.2389 207.5,76.5C 210.615,81.8034 211.949,87.6367 211.5,94C 211.824,99.8716 210.824,105.372 208.5,110.5C 208.737,111.791 208.404,112.791 207.5,113.5C 207.737,114.791 207.404,115.791 206.5,116.5C 206.737,117.791 206.404,118.791 205.5,119.5C 205.279,116.903 204.779,116.903 204,119.5C 203.598,120.872 203.098,122.205 202.5,123.5C 202.624,124.107 202.957,124.44 203.5,124.5C 203.737,125.791 203.404,126.791 202.5,127.5C 202.631,126.761 202.464,126.094 202,125.5C 200.702,126.946 200.535,128.279 201.5,129.5C 201.737,130.791 201.404,131.791 200.5,132.5C 200.631,131.761 200.464,131.094 200,130.5C 198.702,131.946 198.535,133.279 199.5,134.5C 199.737,135.791 199.404,136.791 198.5,137.5C 198.631,136.761 198.464,136.094 198,135.5C 196.702,136.946 196.535,138.279 197.5,139.5C 197.737,140.791 197.404,141.791 196.5,142.5C 196.631,141.761 196.464,141.094 196,140.5C 194.702,141.946 194.535,143.279 195.5,144.5C 195.737,145.791 195.404,146.791 194.5,147.5C 194.631,146.761 194.464,146.094 194,145.5C 192.702,146.946 192.535,148.279 193.5,149.5C 193.737,150.791 193.404,151.791 192.5,152.5C 192.631,151.761 192.464,151.094 192,150.5C 190.702,151.946 190.535,153.279 191.5,154.5C 191.598,156.553 190.931,158.22 189.5,159.5C 189.631,158.761 189.464,158.094 189,157.5C 187.702,158.946 187.535,160.279 188.5,161.5C 188.737,162.791 188.404,163.791 187.5,164.5C 187.631,163.761 187.464,163.094 187,162.5C 185.702,163.946 185.535,165.279 186.5,166.5C 186.598,168.553 185.931,170.22 184.5,171.5C 184.598,173.553 183.931,175.22 182.5,176.5C 182.631,175.761 182.464,175.094 182,174.5C 180.702,175.946 180.535,177.279 181.5,178.5C 181.737,179.791 181.404,180.791 180.5,181.5C 180.598,183.553 179.931,185.22 178.5,186.5C 178.737,187.791 178.404,188.791 177.5,189.5C 177.631,188.761 177.464,188.094 177,187.5C 175.702,188.946 175.535,190.279 176.5,191.5C 176.737,192.791 176.404,193.791 175.5,194.5C 175.598,196.553 174.931,198.22 173.5,199.5C 173.631,198.761 173.464,198.094 173,197.5C 171.702,198.946 171.535,200.279 172.5,201.5C 172.737,202.791 172.404,203.791 171.5,204.5C 171.631,203.761 171.464,203.094 171,202.5C 170.167,204.167 169.333,205.833 168.5,207.5C 168.624,208.107 168.957,208.44 169.5,208.5C 169.737,209.791 169.404,210.791 168.5,211.5C 168.631,210.761 168.464,210.094 168,209.5C 166.702,210.946 166.535,212.279 167.5,213.5C 167.737,214.791 167.404,215.791 166.5,216.5C 166.631,215.761 166.464,215.094 166,214.5C 164.702,215.946 164.535,217.279 165.5,218.5C 165.598,220.553 164.931,222.22 163.5,223.5C 163.631,222.761 163.464,222.094 163,221.5C 161.487,224.527 159.987,227.527 158.5,230.5C 157.833,230.5 157.5,230.833 157.5,231.5C 156.29,231.932 155.29,232.599 154.5,233.5C 152.461,232.089 151.461,230.089 151.5,227.5C 152.465,226.279 152.298,224.946 151,223.5C 150.536,224.094 150.369,224.761 150.5,225.5C 149.596,224.791 149.263,223.791 149.5,222.5C 147.528,219.916 146.528,216.916 146.5,213.5C 147.097,213.265 147.43,212.765 147.5,212C 147,210.5 146.5,209 146,207.5C 145.517,208.448 145.351,209.448 145.5,210.5C 144.566,209.432 144.232,208.099 144.5,206.5C 143.566,205.432 143.232,204.099 143.5,202.5C 142.566,201.432 142.232,200.099 142.5,198.5C 141.087,195.781 140.42,192.781 140.5,189.5C 140.868,182.873 138.368,177.207 133,172.5C 132.601,172.728 132.435,173.062 132.5,173.5C 131.508,173.672 130.842,173.338 130.5,172.5C 131.738,172.19 131.738,171.69 130.5,171C 129.563,170.308 128.897,170.475 128.5,171.5C 125.5,171.5 122.5,171.5 119.5,171.5C 116.517,171.138 113.85,172.305 111.5,175C 111.728,175.399 112.062,175.565 112.5,175.5C 110.833,177.833 108.833,179.833 106.5,181.5C 105.922,180.453 105.256,180.62 104.5,182C 104.728,182.399 105.062,182.565 105.5,182.5C 105.573,184.027 104.906,185.027 103.5,185.5C 103.573,187.027 102.906,188.027 101.5,188.5C 101.672,189.492 101.338,190.158 100.5,190.5C 100.672,191.492 100.338,192.158 99.5,192.5C 99.5979,194.553 98.9313,196.22 97.5,197.5C 97.631,196.761 97.4643,196.094 97,195.5C 95.702,196.946 95.5354,198.279 96.5,199.5C 96.7373,200.791 96.404,201.791 95.5,202.5C 95.7373,203.791 95.404,204.791 94.5,205.5C 94.2792,202.903 93.7792,202.903 93,205.5C 92.2599,206.749 92.4265,207.749 93.5,208.5C 93.7373,209.791 93.404,210.791 92.5,211.5C 92.7678,213.099 92.4345,214.432 91.5,215.5C 91.5797,218.781 90.913,221.781 89.5,224.5C 89.7678,226.099 89.4345,227.432 88.5,228.5C 88.719,227.325 88.3857,226.325 87.5,225.5C 86.7025,225.957 86.3691,226.624 86.5,227.5C 85.596,226.791 85.2627,225.791 85.5,224.5C 84.5655,223.432 84.2322,222.099 84.5,220.5C 82.9886,217.456 82.322,214.122 82.5,210.5C 81.5489,209.081 81.2155,207.415 81.5,205.5C 80.5655,204.432 80.2322,203.099 80.5,201.5C 79.5655,200.432 79.2322,199.099 79.5,197.5C 80.0967,197.265 80.4301,196.765 80.5,196C 80,194.5 79.5,193 79,191.5C 78.5172,192.448 78.3505,193.448 78.5,194.5C 77.0762,192.485 76.4095,190.152 76.5,187.5C 75.596,186.791 75.2627,185.791 75.5,184.5C 74.596,183.791 74.2627,182.791 74.5,181.5C 73.596,180.791 73.2627,179.791 73.5,178.5C 72.596,177.791 72.2627,176.791 72.5,175.5C 70.7329,173.208 69.7329,170.542 69.5,167.5C 70.6211,165.911 70.4544,164.244 69,162.5C 68.5357,163.094 68.369,163.761 68.5,164.5C 67.596,163.791 67.2627,162.791 67.5,161.5C 66.596,160.791 66.2627,159.791 66.5,158.5C 65.596,157.791 65.2627,156.791 65.5,155.5C 63.9261,153.898 63.2594,151.898 63.5,149.5C 62.596,148.791 62.2627,147.791 62.5,146.5C 61.596,145.791 61.2627,144.791 61.5,143.5C 54.8606,125.481 53.5273,107.148 57.5,88.5C 57.2322,86.901 57.5655,85.5676 58.5,84.5C 58.2627,83.209 58.596,82.209 59.5,81.5C 59.2627,80.209 59.596,79.209 60.5,78.5C 60.369,79.2389 60.5357,79.9056 61,80.5C 63.0065,75.8123 65.5065,71.4789 68.5,67.5C 69.1667,67.5 69.5,67.1667 69.5,66.5C 70.1667,66.5 70.5,66.1667 70.5,65.5C 72.3497,64.7582 73.0164,63.7582 72.5,62.5C 72.9731,61.0937 73.9731,60.427 75.5,60.5C 75.56,61.0431 75.8933,61.3764 76.5,61.5C 78.1667,60.6667 79.8333,59.8333 81.5,59C 80.9056,58.5357 80.2389,58.369 79.5,58.5C 80.209,57.596 81.209,57.2627 82.5,57.5C 83.209,56.596 84.209,56.2627 85.5,56.5C 93.9402,53.7621 102.274,54.0954 110.5,57.5 Z M 70.5,64.5 C 70.5,64.8333 70.5,65.1667 70.5,65.5C 69.8333,65.5 69.5,65.8333 69.5,66.5C 68.8333,66.5 68.5,66.8333 68.5,67.5C 68.1667,67.5 67.8333,67.5 67.5,67.5C 67.5,65.5 68.5,64.5 70.5,64.5 Z M 145.5,65.5 C 145.5,65.8333 145.5,66.1667 145.5,66.5C 144.833,66.5 144.5,66.8333 144.5,67.5C 143.833,67.5 143.167,67.5 142.5,67.5C 142.973,66.0937 143.973,65.427 145.5,65.5 Z M 198.5,66.5 C 198.5,66.1667 198.5,65.8333 198.5,65.5C 200.833,65.8333 202.167,67.1667 202.5,69.5C 202.167,69.5 201.833,69.5 201.5,69.5C 200.833,69.5 200.5,69.1667 200.5,68.5C 199.833,68.5 199.5,68.1667 199.5,67.5C 198.833,67.5 198.5,67.1667 198.5,66.5 Z M 126.5,67.5 C 126.5,67.1667 126.5,66.8333 126.5,66.5C 128.424,66.7107 128.757,67.3774 127.5,68.5C 127.5,67.8333 127.167,67.5 126.5,67.5 Z M 135.5,74.5 C 135.5,75.1667 135.5,75.8333 135.5,76.5C 134.833,76.5 134.5,76.8333 134.5,77.5C 134.167,77.5 133.833,77.5 133.5,77.5C 133.427,75.9731 134.094,74.9731 135.5,74.5 Z M 118.5,183.5 C 117.5,185.167 116.167,186.5 114.5,187.5C 114.833,185.167 116.167,183.833 118.5,183.5 Z M 86.5,227.5 C 87.1667,227.833 87.8333,228.167 88.5,228.5C 87.7325,232.139 87.0658,231.806 86.5,227.5 Z M 158.5,230.5 C 158.833,230.5 159.167,230.5 159.5,230.5C 159.573,232.027 158.906,233.027 157.5,233.5C 157.5,232.833 157.5,232.167 157.5,231.5C 158.167,231.5 158.5,231.167 158.5,230.5 Z"/></g>
<g><path style="opacity:0.01" fill="#037bc3" d="M 162.5,46.5 C 164.288,45.3775 166.288,45.2109 168.5,46C 166.527,46.4955 164.527,46.6621 162.5,46.5 Z"/></g>
<g><path style="opacity:0.009" fill="#037bc4" d="M 177.5,46.5 C 179.288,45.3775 181.288,45.2109 183.5,46C 181.527,46.4955 179.527,46.6621 177.5,46.5 Z"/></g>
<g><path style="opacity:0.004" fill="#047cc5" d="M 239.5,46.5 C 239.167,46.5 238.833,46.5 238.5,46.5C 238.833,43.8333 239.167,43.8333 239.5,46.5 Z"/></g>
<g><path style="opacity:0.01" fill="#037bc3" d="M 79.5,47.5 C 78.7611,47.631 78.0944,47.4643 77.5,47C 78.4368,46.3083 79.1034,46.475 79.5,47.5 Z"/></g>
<g><path style="opacity:0.009" fill="#037bc4" d="M 161.5,47.5 C 160.448,47.6495 159.448,47.4828 158.5,47C 159.749,46.2599 160.749,46.4265 161.5,47.5 Z"/></g>
<g><path style="opacity:0.012" fill="#037bc4" d="M 238.5,46.5 C 237.833,47.1667 237.833,47.1667 238.5,46.5 Z"/></g>
<g><path style="opacity:0.008" fill="#0379c5" d="M 41.5,47.5 C 42.8333,48.1667 42.8333,48.1667 41.5,47.5 Z"/></g>
<g><path style="opacity:0.012" fill="#037ac4" d="M 75.5,47.5 C 76.8333,48.1667 76.8333,48.1667 75.5,47.5 Z"/></g>
<g><path style="opacity:0.01" fill="#037bc4" d="M 155.5,48.5 C 155.897,47.475 156.563,47.3083 157.5,48C 156.906,48.4643 156.239,48.631 155.5,48.5 Z"/></g>
<g><path style="opacity:0.008" fill="#027ac4" d="M 251.5,49.5 C 251.369,48.7611 251.536,48.0944 252,47.5C 252.692,48.4368 252.525,49.1034 251.5,49.5 Z"/></g>
<g><path style="opacity:0.004" fill="#047bc5" d="M 4.5,47.5 C 4.5,48.1667 4.5,48.8333 4.5,49.5C 3.16667,48.8333 3.16667,48.1667 4.5,47.5 Z"/></g>
<g><path style="opacity:0.008" fill="#037ac5" d="M 40.5,48.5 C 40.8333,48.5 41.1667,48.5 41.5,48.5C 41.3147,49.1701 40.9813,49.1701 40.5,48.5 Z"/></g>
<g><path style="opacity:0.012" fill="#047bc4" d="M 117.5,49.5 C 117.897,48.475 118.563,48.3083 119.5,49C 118.906,49.4643 118.239,49.631 117.5,49.5 Z"/></g>
<g><path style="opacity:0.01" fill="#037bc4" d="M 154.5,49.5 C 153.761,49.631 153.094,49.4643 152.5,49C 153.437,48.3083 154.103,48.475 154.5,49.5 Z"/></g>
<g><path style="opacity:0.012" fill="#037ac5" d="M 237.5,49.5 C 236.833,48.1667 236.833,48.1667 237.5,49.5 Z"/></g>
<g><path style="opacity:0.004" fill="#037bc4" d="M 4.5,49.5 C 5.16667,49.5 5.5,49.8333 5.5,50.5C 5.16667,50.1667 4.83333,49.8333 4.5,49.5 Z"/></g>
<g><path style="opacity:0.012" fill="#037ac4" d="M 39.5,49.5 C 39.8333,49.5 40.1667,49.5 40.5,49.5C 40.3147,50.1701 39.9813,50.1701 39.5,49.5 Z"/></g>
<g><path style="opacity:0.012" fill="#037ac4" d="M 120.5,49.5 C 121.833,50.1667 121.833,50.1667 120.5,49.5 Z"/></g>
<g><path style="opacity:0.012" fill="#037bc3" d="M 193.5,50.5 C 193.897,49.475 194.563,49.3083 195.5,50C 194.906,50.4643 194.239,50.631 193.5,50.5 Z"/></g>
<g><path style="opacity:0.01" fill="#027bc4" d="M 250.5,49.5 C 250.833,49.5 251.167,49.5 251.5,49.5C 251.672,50.4916 251.338,51.1583 250.5,51.5C 250.5,50.8333 250.5,50.1667 250.5,49.5 Z"/></g>
<g><path style="opacity:0.004" fill="#027ac5" d="M 5.5,50.5 C 6.83333,51.1667 6.83333,51.1667 5.5,50.5 Z"/></g>
<g><path style="opacity:0.008" fill="#037ac4" d="M 38.5,50.5 C 38.8333,50.5 39.1667,50.5 39.5,50.5C 39.3147,51.1701 38.9813,51.1701 38.5,50.5 Z"/></g>
<g><path style="opacity:0.012" fill="#037ac4" d="M 122.5,50.5 C 123.833,51.1667 123.833,51.1667 122.5,50.5 Z"/></g>
<g><path style="opacity:0.012" fill="#037ac4" d="M 196.5,50.5 C 197.833,51.1667 197.833,51.1667 196.5,50.5 Z"/></g>
<g><path style="opacity:0.012" fill="#047ac4" d="M 236.5,51.5 C 235.833,50.1667 235.833,50.1667 236.5,51.5 Z"/></g>
<g><path style="opacity:0.004" fill="#027ac4" d="M 38.5,51.5 C 37.8333,52.1667 37.8333,52.1667 38.5,51.5 Z"/></g>
<g><path style="opacity:0.008" fill="#037bc4" d="M 235.5,51.5 C 235.5,61.8333 235.5,72.1667 235.5,82.5C 233.473,82.6621 231.473,82.4955 229.5,82C 231.134,81.5065 232.801,81.3398 234.5,81.5C 234.173,71.3194 234.506,61.3194 235.5,51.5 Z"/></g>
<g><path style="opacity:0.01" fill="#047bc4" d="M 249.5,51.5 C 249.833,51.5 250.167,51.5 250.5,51.5C 250.167,54.1667 249.833,54.1667 249.5,51.5 Z"/></g>
<g><path style="opacity:0.012" fill="#047bc4" d="M 35.5,52.5 C 36.8333,53.1667 36.8333,53.1667 35.5,52.5 Z"/></g>
<g><path style="opacity:0.016" fill="#047ac5" d="M 199.5,52.5 C 200.833,53.1667 200.833,53.1667 199.5,52.5 Z"/></g>
<g><path style="opacity:0.008" fill="#037ac4" d="M 35.5,53.5 C 34.8333,54.1667 34.8333,54.1667 35.5,53.5 Z"/></g>
<g><path style="opacity:0.008" fill="#037ac5" d="M 201.5,53.5 C 202.833,54.1667 202.833,54.1667 201.5,53.5 Z"/></g>
<g><path style="opacity:0.008" fill="#057cc3" d="M 13.5,54.5 C 13.5,54.8333 13.5,55.1667 13.5,55.5C 10.8333,55.1667 10.8333,54.8333 13.5,54.5 Z"/></g>
<g><path style="opacity:0.012" fill="#037ac5" d="M 32.5,54.5 C 33.8333,55.1667 33.8333,55.1667 32.5,54.5 Z"/></g>
<g><path style="opacity:0.004" fill="#087ec3" d="M 248.5,54.5 C 249.493,63.3178 249.827,72.3178 249.5,81.5C 251.5,81.5 253.5,81.5 255.5,81.5C 255.5,81.8333 255.5,82.1667 255.5,82.5C 253.167,82.5 250.833,82.5 248.5,82.5C 248.5,73.1667 248.5,63.8333 248.5,54.5 Z"/></g>
<g><path style="opacity:0.01" fill="#027bc5" d="M 13.5,55.5 C 14.4916,55.3284 15.1583,55.6618 15.5,56.5C 14.5084,56.6716 13.8417,56.3382 13.5,55.5 Z"/></g>
<g><path style="opacity:0.01" fill="#037bc4" d="M 29.5,55.5 C 30.2389,55.369 30.9056,55.5357 31.5,56C 30.5632,56.6917 29.8966,56.525 29.5,55.5 Z"/></g>
<g><path style="opacity:0.004" fill="#0a7ac5" d="M 15.5,56.5 C 16.8333,57.1667 16.8333,57.1667 15.5,56.5 Z"/></g>
<g><path style="opacity:0.008" fill="#027bc4" d="M 27.5,56.5 C 28.4927,64.6499 28.8261,72.9832 28.5,81.5C 30.1992,81.3398 31.8659,81.5065 33.5,82C 31.5273,82.4955 29.5273,82.6621 27.5,82.5C 27.5,73.8333 27.5,65.1667 27.5,56.5 Z"/></g>
<g><path style="opacity:0.004" fill="#037bc3" d="M 204.5,57.5 C 205.167,56.1667 205.833,56.1667 206.5,57.5C 205.833,57.5 205.167,57.5 204.5,57.5 Z"/></g>
<g><path style="opacity:0.004" fill="#047ac4" d="M 132.5,58.5 C 132.897,57.475 133.563,57.3083 134.5,58C 133.906,58.4643 133.239,58.631 132.5,58.5 Z"/></g>
<g><path style="opacity:0.004" fill="#037ac4" d="M 206.5,57.5 C 207.167,57.5 207.5,57.8333 207.5,58.5C 207.167,58.1667 206.833,57.8333 206.5,57.5 Z"/></g>
<g><path style="opacity:0.004" fill="#037ac4" d="M 207.5,58.5 C 208.167,58.5 208.5,58.8333 208.5,59.5C 208.167,59.1667 207.833,58.8333 207.5,58.5 Z"/></g>
<g><path style="opacity:0.004" fill="#0379c4" d="M 208.5,59.5 C 209.167,59.5 209.5,59.8333 209.5,60.5C 209.167,60.1667 208.833,59.8333 208.5,59.5 Z"/></g>
<g><path style="opacity:0.004" fill="#0279c5" d="M 209.5,60.5 C 210.833,61.1667 210.833,61.1667 209.5,60.5 Z"/></g>
<g><path style="opacity:0.01" fill="#037bc4" d="M 220.5,79.5 C 220.167,79.5 219.833,79.5 219.5,79.5C 219.833,75.5 220.167,75.5 220.5,79.5 Z"/></g>
<g><path style="opacity:0.01" fill="#037bc4" d="M 47.5,79.5 C 48.525,79.8966 48.6917,80.5632 48,81.5C 47.5357,80.9056 47.369,80.2389 47.5,79.5 Z"/></g>
<g><path style="opacity:0.009" fill="#037bc4" d="M 220.5,79.5 C 221.573,80.2506 221.74,81.2506 221,82.5C 220.517,81.552 220.351,80.552 220.5,79.5 Z"/></g>
<g><path style="opacity:0.008" fill="#037bc3" d="M 9.5,82.5 C 11.6282,81.3709 13.9615,81.2042 16.5,82C 14.1902,82.4966 11.8568,82.6633 9.5,82.5 Z"/></g>
<g><path style="opacity:0.01" fill="#047bc4" d="M 47.5,85.5 C 46.4265,84.7494 46.2599,83.7494 47,82.5C 47.4828,83.448 47.6495,84.448 47.5,85.5 Z"/></g>
<g><path style="opacity:0.008" fill="#027bc4" d="M 35.5,83.5 C 36.665,133.998 36.8317,184.665 36,235.5C 35.5,184.834 35.3333,134.168 35.5,83.5 Z"/></g>
<g><path style="opacity:0.008" fill="#027bc4" d="M 226.5,83.5 C 227.665,133.998 227.832,184.665 227,235.5C 226.5,184.834 226.333,134.168 226.5,83.5 Z"/></g>
<g><path style="opacity:0.004" fill="#097bc4" d="M 8.5,237.5 C 7.33497,186.668 7.1683,135.668 8,84.5C 8.49999,135.499 8.66666,186.499 8.5,237.5 Z"/></g>
<g><path style="opacity:0.012" fill="#037bc4" d="M 221.5,84.5 C 222.598,85.6009 222.765,86.9343 222,88.5C 221.51,87.2068 221.343,85.8734 221.5,84.5 Z"/></g>
<g><path style="opacity:0.01" fill="#037bc4" d="M 45.5,86.5 C 46.5735,87.2506 46.7401,88.2506 46,89.5C 45.5172,88.552 45.3505,87.552 45.5,86.5 Z"/></g>
<g><path style="opacity:0.009" fill="#037bc4" d="M 44.5,91.5 C 45.6129,92.9464 45.7796,94.6131 45,96.5C 44.5065,94.8659 44.3398,93.1992 44.5,91.5 Z"/></g>
<g><path style="opacity:0.012" fill="#037bc3" d="M 19.5,93.5 C 25.1667,93.6636 25.5,93.9969 20.5,94.5C 20.5,95.5 20.5,96.5 20.5,97.5C 25.5,98.0031 25.1667,98.3364 19.5,98.5C 19.5,96.8333 19.5,95.1667 19.5,93.5 Z"/></g>
<g><path style="opacity:0.013" fill="#037bc3" d="M 238.5,94.5 C 240.607,93.5318 242.941,93.1984 245.5,93.5C 245.5,95.1667 245.5,96.8333 245.5,98.5C 243.076,98.8076 240.743,98.4742 238.5,97.5C 240.22,97.2537 242.22,97.2537 244.5,97.5C 244.5,96.5 244.5,95.5 244.5,94.5C 242.5,94.5 240.5,94.5 238.5,94.5 Z"/></g>
<g><path style="opacity:0.008" fill="#037bc4" d="M 221.5,98.5 C 222.622,100.288 222.789,102.288 222,104.5C 221.505,102.527 221.338,100.527 221.5,98.5 Z"/></g>
<g><path style="opacity:0.007" fill="#027bc4" d="M 43.5,99.5 C 44.6497,104.316 44.8163,109.316 44,114.5C 43.5007,109.511 43.3341,104.511 43.5,99.5 Z"/></g>
<g><path style="opacity:0.008" fill="#027bc4" d="M 19.5,235.5 C 19.5,192.167 19.5,148.833 19.5,105.5C 25.1667,105.664 25.5,105.997 20.5,106.5C 20.1698,149.406 20.5032,192.239 21.5,235C 20.9056,235.464 20.2389,235.631 19.5,235.5 Z"/></g>
<g><path style="opacity:0.012" fill="#037bc4" d="M 244.5,234.5 C 244.5,191.833 244.5,149.167 244.5,106.5C 242.473,106.662 240.473,106.495 238.5,106C 240.81,105.503 243.143,105.337 245.5,105.5C 245.832,148.67 245.499,191.67 244.5,234.5 Z"/></g>
<g><path style="opacity:0.012" fill="#047bc4" d="M 220.5,105.5 C 221.573,106.251 221.74,107.251 221,108.5C 220.517,107.552 220.351,106.552 220.5,105.5 Z"/></g>
<g><path style="opacity:0.012" fill="#037bc4" d="M 219.5,110.5 C 220.525,110.897 220.692,111.563 220,112.5C 219.536,111.906 219.369,111.239 219.5,110.5 Z"/></g>
<g><path style="opacity:0.012" fill="#037bc3" d="M 218.5,113.5 C 219.525,113.897 219.692,114.563 219,115.5C 218.536,114.906 218.369,114.239 218.5,113.5 Z"/></g>
<g><path style="opacity:0.01" fill="#037bc4" d="M 217.5,116.5 C 218.525,116.897 218.692,117.563 218,118.5C 217.536,117.906 217.369,117.239 217.5,116.5 Z"/></g>
<g><path style="opacity:0.01" fill="#037bc4" d="M 44.5,117.5 C 45.6225,119.288 45.7891,121.288 45,123.5C 44.5045,121.527 44.3379,119.527 44.5,117.5 Z"/></g>
<g><path style="opacity:0.01" fill="#027bc4" d="M 216.5,119.5 C 217.525,119.897 217.692,120.563 217,121.5C 216.536,120.906 216.369,120.239 216.5,119.5 Z"/></g>
<g><path style="opacity:0.008" fill="#027cc4" d="M 215.5,124.5 C 215.369,123.761 215.536,123.094 216,122.5C 216.692,123.437 216.525,124.103 215.5,124.5 Z"/></g>
<g><path style="opacity:0.01" fill="#037bc4" d="M 45.5,125.5 C 46.5983,126.601 46.765,127.934 46,129.5C 45.51,128.207 45.3433,126.873 45.5,125.5 Z"/></g>
<g><path style="opacity:0.012" fill="#037bc4" d="M 214.5,124.5 C 214.833,124.5 215.167,124.5 215.5,124.5C 215.167,127.167 214.833,127.167 214.5,124.5 Z"/></g>
<g><path style="opacity:0.008" fill="#037bc4" d="M 213.5,127.5 C 214.833,128.167 214.833,128.833 213.5,129.5C 213.5,128.833 213.5,128.167 213.5,127.5 Z"/></g>
<g><path style="opacity:0.008" fill="#037ac3" d="M 212.5,129.5 C 212.833,129.5 213.167,129.5 213.5,129.5C 213.167,132.167 212.833,132.167 212.5,129.5 Z"/></g>
<g><path style="opacity:0.012" fill="#037bc3" d="M 46.5,130.5 C 47.5735,131.251 47.7401,132.251 47,133.5C 46.5172,132.552 46.3505,131.552 46.5,130.5 Z"/></g>
<g><path style="opacity:0.01" fill="#027bc4" d="M 211.5,132.5 C 212.833,133.167 212.833,133.833 211.5,134.5C 211.5,133.833 211.5,133.167 211.5,132.5 Z"/></g>
<g><path style="opacity:0.012" fill="#037bc3" d="M 47.5,135.5 C 48.525,135.897 48.6917,136.563 48,137.5C 47.5357,136.906 47.369,136.239 47.5,135.5 Z"/></g>
<g><path style="opacity:0.012" fill="#047bc4" d="M 210.5,134.5 C 210.833,134.5 211.167,134.5 211.5,134.5C 211.167,137.167 210.833,137.167 210.5,134.5 Z"/></g>
<g><path style="opacity:0.01" fill="#027bc4" d="M 209.5,137.5 C 210.833,138.167 210.833,138.833 209.5,139.5C 209.5,138.833 209.5,138.167 209.5,137.5 Z"/></g>
<g><path style="opacity:0.012" fill="#047bc4" d="M 49.5,138.5 C 49.6495,139.552 49.4828,140.552 49,141.5C 48.2599,140.251 48.4265,139.251 49.5,138.5 Z"/></g>
<g><path style="opacity:0.012" fill="#037cc4" d="M 208.5,139.5 C 208.833,139.5 209.167,139.5 209.5,139.5C 209.167,142.167 208.833,142.167 208.5,139.5 Z"/></g>
<g><path style="opacity:0.01" fill="#037bc4" d="M 207.5,142.5 C 208.525,142.897 208.692,143.563 208,144.5C 207.536,143.906 207.369,143.239 207.5,142.5 Z"/></g>
<g><path style="opacity:0.008" fill="#047bc4" d="M 50.5,142.5 C 50.6495,143.552 50.4828,144.552 50,145.5C 49.2599,144.251 49.4265,143.251 50.5,142.5 Z"/></g>
<g><path style="opacity:0.012" fill="#037ac4" d="M 206.5,145.5 C 207.833,146.167 207.833,146.167 206.5,145.5 Z"/></g>
<g><path style="opacity:0.012" fill="#037bc4" d="M 50.5,146.5 C 51.525,146.897 51.6917,147.563 51,148.5C 50.5357,147.906 50.369,147.239 50.5,146.5 Z"/></g>
<g><path style="opacity:0.01" fill="#027bc4" d="M 205.5,147.5 C 206.833,148.167 206.833,148.833 205.5,149.5C 205.5,148.833 205.5,148.167 205.5,147.5 Z"/></g>
<g><path style="opacity:0.012" fill="#037bc4" d="M 52.5,149.5 C 52.631,150.239 52.4643,150.906 52,151.5C 51.3083,150.563 51.475,149.897 52.5,149.5 Z"/></g>
<g><path style="opacity:0.008" fill="#037cc3" d="M 204.5,149.5 C 204.833,149.5 205.167,149.5 205.5,149.5C 205.167,152.167 204.833,152.167 204.5,149.5 Z"/></g>
<g><path style="opacity:0.01" fill="#037cc4" d="M 53.5,152.5 C 53.631,153.239 53.4643,153.906 53,154.5C 52.3083,153.563 52.475,152.897 53.5,152.5 Z"/></g>
<g><path style="opacity:0.008" fill="#037bc4" d="M 203.5,152.5 C 204.833,153.167 204.833,153.833 203.5,154.5C 203.5,153.833 203.5,153.167 203.5,152.5 Z"/></g>
<g><path style="opacity:0.01" fill="#037bc4" d="M 202.5,154.5 C 202.833,154.5 203.167,154.5 203.5,154.5C 203.167,157.167 202.833,157.167 202.5,154.5 Z"/></g>
<g><path style="opacity:0.01" fill="#047bc5" d="M 54.5,155.5 C 54.631,156.239 54.4643,156.906 54,157.5C 53.3083,156.563 53.475,155.897 54.5,155.5 Z"/></g>
<g><path style="opacity:0.008" fill="#037bc4" d="M 201.5,159.5 C 201.369,158.761 201.536,158.094 202,157.5C 202.692,158.437 202.525,159.103 201.5,159.5 Z"/></g>
<g><path style="opacity:0.01" fill="#037bc4" d="M 55.5,158.5 C 55.631,159.239 55.4643,159.906 55,160.5C 54.3083,159.563 54.475,158.897 55.5,158.5 Z"/></g>
<g><path style="opacity:0.01" fill="#037bc4" d="M 200.5,159.5 C 200.833,159.5 201.167,159.5 201.5,159.5C 201.167,162.167 200.833,162.167 200.5,159.5 Z"/></g>
<g><path style="opacity:0.01" fill="#037bc4" d="M 56.5,161.5 C 56.631,162.239 56.4643,162.906 56,163.5C 55.3083,162.563 55.475,161.897 56.5,161.5 Z"/></g>
<g><path style="opacity:0.008" fill="#027bc4" d="M 199.5,164.5 C 199.369,163.761 199.536,163.094 200,162.5C 200.692,163.437 200.525,164.103 199.5,164.5 Z"/></g>
<g><path style="opacity:0.01" fill="#027bc4" d="M 57.5,164.5 C 57.631,165.239 57.4643,165.906 57,166.5C 56.3083,165.563 56.475,164.897 57.5,164.5 Z"/></g>
<g><path style="opacity:0.01" fill="#037bc4" d="M 198.5,164.5 C 198.833,164.5 199.167,164.5 199.5,164.5C 199.672,165.492 199.338,166.158 198.5,166.5C 198.5,165.833 198.5,165.167 198.5,164.5 Z"/></g>
<g><path style="opacity:0.008" fill="#037bc3" d="M 197.5,166.5 C 197.833,166.5 198.167,166.5 198.5,166.5C 198.167,169.167 197.833,169.167 197.5,166.5 Z"/></g>
<g><path style="opacity:0.008" fill="#037bc4" d="M 58.5,169.5 C 57.475,169.103 57.3083,168.437 58,167.5C 58.4643,168.094 58.631,168.761 58.5,169.5 Z"/></g>
<g><path style="opacity:0.008" fill="#027bc4" d="M 196.5,169.5 C 197.833,170.167 197.833,170.833 196.5,171.5C 196.5,170.833 196.5,170.167 196.5,169.5 Z"/></g>
<g><path style="opacity:0.008" fill="#037bc4" d="M 58.5,169.5 C 58.8333,169.5 59.1667,169.5 59.5,169.5C 59.1667,173.5 58.8333,173.5 58.5,169.5 Z"/></g>
<g><path style="opacity:0.008" fill="#047bc4" d="M 195.5,171.5 C 195.833,171.5 196.167,171.5 196.5,171.5C 196.167,174.167 195.833,174.167 195.5,171.5 Z"/></g>
<g><path style="opacity:0.008" fill="#027bc4" d="M 194.5,176.5 C 194.369,175.761 194.536,175.094 195,174.5C 195.692,175.437 195.525,176.103 194.5,176.5 Z"/></g>
<g><path style="opacity:0.012" fill="#037bc4" d="M 61.5,175.5 C 61.631,176.239 61.4643,176.906 61,177.5C 60.3083,176.563 60.475,175.897 61.5,175.5 Z"/></g>
<g><path style="opacity:0.01" fill="#037bc5" d="M 193.5,176.5 C 193.833,176.5 194.167,176.5 194.5,176.5C 194.167,179.167 193.833,179.167 193.5,176.5 Z"/></g>
<g><path style="opacity:0.01" fill="#037bc4" d="M 62.5,178.5 C 62.631,179.239 62.4643,179.906 62,180.5C 61.3083,179.563 61.475,178.897 62.5,178.5 Z"/></g>
<g><path style="opacity:0.008" fill="#027ac4" d="M 192.5,181.5 C 192.369,180.761 192.536,180.094 193,179.5C 193.692,180.437 193.525,181.103 192.5,181.5 Z"/></g>
<g><path style="opacity:0.01" fill="#027bc4" d="M 63.5,181.5 C 63.631,182.239 63.4643,182.906 63,183.5C 62.3083,182.563 62.475,181.897 63.5,181.5 Z"/></g>
<g><path style="opacity:0.01" fill="#037bc4" d="M 191.5,181.5 C 191.833,181.5 192.167,181.5 192.5,181.5C 192.167,184.167 191.833,184.167 191.5,181.5 Z"/></g>
<g><path style="opacity:0.01" fill="#027bc4" d="M 119.5,182.5 C 120.239,182.369 120.906,182.536 121.5,183C 120.563,183.692 119.897,183.525 119.5,182.5 Z"/></g>
<g><path style="opacity:0.007" fill="#037bc3" d="M 127.5,182.5 C 127.489,185.001 126.822,185.168 125.5,183C 126.094,182.536 126.761,182.369 127.5,182.5 Z"/></g>
<g><path style="opacity:0.01" fill="#037cc4" d="M 64.5,184.5 C 64.631,185.239 64.4643,185.906 64,186.5C 63.3083,185.563 63.475,184.897 64.5,184.5 Z"/></g>
<g><path style="opacity:0.008" fill="#027bc4" d="M 190.5,186.5 C 190.369,185.761 190.536,185.094 191,184.5C 191.692,185.437 191.525,186.103 190.5,186.5 Z"/></g>
<g><path style="opacity:0.01" fill="#037ac4" d="M 127.5,185.5 C 128.525,185.897 128.692,186.563 128,187.5C 127.536,186.906 127.369,186.239 127.5,185.5 Z"/></g>
<g><path style="opacity:0.01" fill="#047bc4" d="M 189.5,186.5 C 189.833,186.5 190.167,186.5 190.5,186.5C 190.167,189.167 189.833,189.167 189.5,186.5 Z"/></g>
<g><path style="opacity:0.01" fill="#037bc5" d="M 65.5,187.5 C 65.631,188.239 65.4643,188.906 65,189.5C 64.3083,188.563 64.475,187.897 65.5,187.5 Z"/></g>
<g><path style="opacity:0.016" fill="#037bc4" d="M 113.5,188.5 C 114.833,189.167 114.833,189.167 113.5,188.5 Z"/></g>
<g><path style="opacity:0.009" fill="#027bc3" d="M 128.5,188.5 C 129.573,189.251 129.74,190.251 129,191.5C 128.517,190.552 128.351,189.552 128.5,188.5 Z"/></g>
<g><path style="opacity:0.008" fill="#037bc3" d="M 188.5,189.5 C 189.833,190.167 189.833,190.833 188.5,191.5C 188.5,190.833 188.5,190.167 188.5,189.5 Z"/></g>
<g><path style="opacity:0.01" fill="#037ac5" d="M 66.5,190.5 C 66.631,191.239 66.4643,191.906 66,192.5C 65.3083,191.563 65.475,190.897 66.5,190.5 Z"/></g>
<g><path style="opacity:0.012" fill="#027ac5" d="M 112.5,190.5 C 113.833,191.167 113.833,191.167 112.5,190.5 Z"/></g>
<g><path style="opacity:0.008" fill="#037bc4" d="M 111.5,191.5 C 111.833,191.5 112.167,191.5 112.5,191.5C 112.672,192.492 112.338,193.158 111.5,193.5C 111.5,192.833 111.5,192.167 111.5,191.5 Z"/></g>
<g><path style="opacity:0.008" fill="#047bc5" d="M 187.5,191.5 C 187.833,191.5 188.167,191.5 188.5,191.5C 188.167,194.167 187.833,194.167 187.5,191.5 Z"/></g>
<g><path style="opacity:0.009" fill="#037bc4" d="M 129.5,192.5 C 130.598,193.601 130.765,194.934 130,196.5C 129.51,195.207 129.343,193.873 129.5,192.5 Z"/></g>
<g><path style="opacity:0.008" fill="#037bc4" d="M 67.5,193.5 C 67.6495,194.552 67.4828,195.552 67,196.5C 66.2599,195.251 66.4265,194.251 67.5,193.5 Z"/></g>
<g><path style="opacity:0.008" fill="#027ac3" d="M 110.5,193.5 C 110.833,193.5 111.167,193.5 111.5,193.5C 111.672,194.492 111.338,195.158 110.5,195.5C 110.5,194.833 110.5,194.167 110.5,193.5 Z"/></g>
<g><path style="opacity:0.01" fill="#037bc4" d="M 186.5,194.5 C 187.833,195.167 187.833,195.833 186.5,196.5C 186.5,195.833 186.5,195.167 186.5,194.5 Z"/></g>
<g><path style="opacity:0.01" fill="#037bc4" d="M 109.5,195.5 C 109.833,195.5 110.167,195.5 110.5,195.5C 110.672,196.492 110.338,197.158 109.5,197.5C 109.5,196.833 109.5,196.167 109.5,195.5 Z"/></g>
<g><path style="opacity:0.012" fill="#037bc4" d="M 67.5,197.5 C 68.525,197.897 68.6917,198.563 68,199.5C 67.5357,198.906 67.369,198.239 67.5,197.5 Z"/></g>
<g><path style="opacity:0.01" fill="#037bc3" d="M 108.5,197.5 C 108.833,197.5 109.167,197.5 109.5,197.5C 109.672,198.492 109.338,199.158 108.5,199.5C 108.5,198.833 108.5,198.167 108.5,197.5 Z"/></g>
<g><path style="opacity:0.009" fill="#037bc4" d="M 130.5,197.5 C 131.573,198.251 131.74,199.251 131,200.5C 130.517,199.552 130.351,198.552 130.5,197.5 Z"/></g>
<g><path style="opacity:0.008" fill="#047bc6" d="M 185.5,196.5 C 185.833,196.5 186.167,196.5 186.5,196.5C 186.737,197.791 186.404,198.791 185.5,199.5C 185.5,198.5 185.5,197.5 185.5,196.5 Z"/></g>
<g><path style="opacity:0.01" fill="#027bc4" d="M 184.5,199.5 C 184.833,199.5 185.167,199.5 185.5,199.5C 185.167,202.167 184.833,202.167 184.5,199.5 Z"/></g>
<g><path style="opacity:0.008" fill="#037bc4" d="M 69.5,200.5 C 69.6495,201.552 69.4828,202.552 69,203.5C 68.2599,202.251 68.4265,201.251 69.5,200.5 Z"/></g>
<g><path style="opacity:0.012" fill="#047bc4" d="M 107.5,199.5 C 107.833,199.5 108.167,199.5 108.5,199.5C 108.167,202.167 107.833,202.167 107.5,199.5 Z"/></g>
<g><path style="opacity:0.01" fill="#037bc5" d="M 106.5,202.5 C 107.525,202.897 107.692,203.563 107,204.5C 106.536,203.906 106.369,203.239 106.5,202.5 Z"/></g>
<g><path style="opacity:0.012" fill="#047bc4" d="M 132.5,201.5 C 132.649,202.552 132.483,203.552 132,204.5C 131.26,203.251 131.427,202.251 132.5,201.5 Z"/></g>
<g><path style="opacity:0.008" fill="#027ac4" d="M 183.5,204.5 C 183.369,203.761 183.536,203.094 184,202.5C 184.692,203.437 184.525,204.103 183.5,204.5 Z"/></g>
<g><path style="opacity:0.009" fill="#037bc4" d="M 70.5,204.5 C 70.6495,205.552 70.4828,206.552 70,207.5C 69.2599,206.251 69.4265,205.251 70.5,204.5 Z"/></g>
<g><path style="opacity:0.01" fill="#037bc4" d="M 182.5,204.5 C 182.833,204.5 183.167,204.5 183.5,204.5C 183.672,205.492 183.338,206.158 182.5,206.5C 182.5,205.833 182.5,205.167 182.5,204.5 Z"/></g>
<g><path style="opacity:0.008" fill="#037bc4" d="M 105.5,205.5 C 106.525,205.897 106.692,206.563 106,207.5C 105.536,206.906 105.369,206.239 105.5,205.5 Z"/></g>
<g><path style="opacity:0.009" fill="#037bc4" d="M 133.5,205.5 C 133.649,206.552 133.483,207.552 133,208.5C 132.26,207.251 132.427,206.251 133.5,205.5 Z"/></g>
<g><path style="opacity:0.012" fill="#047bc4" d="M 181.5,206.5 C 181.833,206.5 182.167,206.5 182.5,206.5C 182.167,209.167 181.833,209.167 181.5,206.5 Z"/></g>
<g><path style="opacity:0.01" fill="#027bc4" d="M 104.5,208.5 C 105.525,208.897 105.692,209.563 105,210.5C 104.536,209.906 104.369,209.239 104.5,208.5 Z"/></g>
<g><path style="opacity:0.01" fill="#047bc4" d="M 71.5,208.5 C 71.6567,209.873 71.49,211.207 71,212.5C 70.235,210.934 70.4017,209.601 71.5,208.5 Z"/></g>
<g><path style="opacity:0.008" fill="#027bc5" d="M 180.5,211.5 C 180.369,210.761 180.536,210.094 181,209.5C 181.692,210.437 181.525,211.103 180.5,211.5 Z"/></g>
<g><path style="opacity:0.01" fill="#047bc4" d="M 134.5,209.5 C 134.649,210.552 134.483,211.552 134,212.5C 133.26,211.251 133.427,210.251 134.5,209.5 Z"/></g>
<g><path style="opacity:0.01" fill="#037bc4" d="M 103.5,211.5 C 104.525,211.897 104.692,212.563 104,213.5C 103.536,212.906 103.369,212.239 103.5,211.5 Z"/></g>
<g><path style="opacity:0.008" fill="#027bc5" d="M 179.5,211.5 C 179.833,211.5 180.167,211.5 180.5,211.5C 180.672,212.492 180.338,213.158 179.5,213.5C 179.5,212.833 179.5,212.167 179.5,211.5 Z"/></g>
<g><path style="opacity:0.012" fill="#037ac4" d="M 135.5,213.5 C 135.631,214.239 135.464,214.906 135,215.5C 134.308,214.563 134.475,213.897 135.5,213.5 Z"/></g>
<g><path style="opacity:0.012" fill="#037bc4" d="M 72.5,213.5 C 72.6567,214.873 72.49,216.207 72,217.5C 71.235,215.934 71.4017,214.601 72.5,213.5 Z"/></g>
<g><path style="opacity:0.012" fill="#037bc4" d="M 178.5,213.5 C 178.833,213.5 179.167,213.5 179.5,213.5C 179.167,216.167 178.833,216.167 178.5,213.5 Z"/></g>
<g><path style="opacity:0.008" fill="#037bc5" d="M 102.5,214.5 C 103.573,215.251 103.74,216.251 103,217.5C 102.517,216.552 102.351,215.552 102.5,214.5 Z"/></g>
<g><path style="opacity:0.008" fill="#027cc5" d="M 177.5,216.5 C 178.833,217.167 178.833,217.833 177.5,218.5C 177.5,217.833 177.5,217.167 177.5,216.5 Z"/></g>
<g><path style="opacity:0.01" fill="#037bc4" d="M 101.5,218.5 C 102.573,219.251 102.74,220.251 102,221.5C 101.517,220.552 101.351,219.552 101.5,218.5 Z"/></g>
<g><path style="opacity:0.01" fill="#037bc3" d="M 72.5,219.5 C 73.5735,220.251 73.7401,221.251 73,222.5C 72.5172,221.552 72.3505,220.552 72.5,219.5 Z"/></g>
<g><path style="opacity:0.012" fill="#047bc4" d="M 176.5,218.5 C 176.833,218.5 177.167,218.5 177.5,218.5C 177.167,221.167 176.833,221.167 176.5,218.5 Z"/></g>
<g><path style="opacity:0.008" fill="#037bc4" d="M 137.5,219.5 C 137.5,220.5 137.5,221.5 137.5,222.5C 136.167,221.5 136.167,220.5 137.5,219.5 Z"/></g>
<g><path style="opacity:0.008" fill="#037ac5" d="M 175.5,221.5 C 176.833,222.167 176.833,222.833 175.5,223.5C 175.5,222.833 175.5,222.167 175.5,221.5 Z"/></g>
<g><path style="opacity:0.009" fill="#037bc4" d="M 74.5,223.5 C 74.6495,224.552 74.4828,225.552 74,226.5C 73.2599,225.251 73.4265,224.251 74.5,223.5 Z"/></g>
<g><path style="opacity:0.009" fill="#037bc4" d="M 100.5,223.5 C 101.573,224.251 101.74,225.251 101,226.5C 100.517,225.552 100.351,224.552 100.5,223.5 Z"/></g>
<g><path style="opacity:0.008" fill="#037bc4" d="M 137.5,222.5 C 137.833,222.5 138.167,222.5 138.5,222.5C 138.5,223.5 138.5,224.5 138.5,225.5C 137.596,224.791 137.263,223.791 137.5,222.5 Z"/></g>
<g><path style="opacity:0.008" fill="#037bc4" d="M 174.5,223.5 C 174.833,223.5 175.167,223.5 175.5,223.5C 175.672,224.492 175.338,225.158 174.5,225.5C 174.5,224.833 174.5,224.167 174.5,223.5 Z"/></g>
<g><path style="opacity:0.011" fill="#037bc3" d="M 88.5,228.5 C 87.8333,228.167 87.1667,227.833 86.5,227.5C 86.3691,226.624 86.7025,225.957 87.5,225.5C 88.3857,226.325 88.719,227.325 88.5,228.5 Z"/></g>
<g><path style="opacity:0.01" fill="#027bc3" d="M 138.5,225.5 C 138.833,225.5 139.167,225.5 139.5,225.5C 139.167,228.167 138.833,228.167 138.5,225.5 Z"/></g>
<g><path style="opacity:0.008" fill="#047bc3" d="M 173.5,225.5 C 173.833,225.5 174.167,225.5 174.5,225.5C 174.167,228.167 173.833,228.167 173.5,225.5 Z"/></g>
<g><path style="opacity:0.01" fill="#037bc5" d="M 75.5,227.5 C 75.631,228.239 75.4643,228.906 75,229.5C 74.3083,228.563 74.475,227.897 75.5,227.5 Z"/></g>
<g><path style="opacity:0.009" fill="#037bc4" d="M 99.5,227.5 C 100.833,228.5 100.833,229.5 99.5,230.5C 99.5,229.5 99.5,228.5 99.5,227.5 Z"/></g>
<g><path style="opacity:0.012" fill="#037ac4" d="M 139.5,228.5 C 140.833,229.167 140.833,229.167 139.5,228.5 Z"/></g>
<g><path style="opacity:0.012" fill="#037bc4" d="M 172.5,228.5 C 173.833,229.167 173.833,229.167 172.5,228.5 Z"/></g>
<g><path style="opacity:0.01" fill="#027bc4" d="M 76.5,230.5 C 76.631,231.239 76.4643,231.906 76,232.5C 75.3083,231.563 75.475,230.897 76.5,230.5 Z"/></g>
<g><path style="opacity:0.012" fill="#037bc5" d="M 171.5,230.5 C 172.833,231.167 172.833,231.167 171.5,230.5 Z"/></g>
<g><path style="opacity:0.012" fill="#047bc4" d="M 98.5,230.5 C 98.8333,230.5 99.1667,230.5 99.5,230.5C 99.1667,233.167 98.8333,233.167 98.5,230.5 Z"/></g>
<g><path style="opacity:0.009" fill="#037bc4" d="M 157.5,231.5 C 157.5,232.167 157.5,232.833 157.5,233.5C 156.5,233.5 155.5,233.5 154.5,233.5C 155.29,232.599 156.29,231.932 157.5,231.5 Z"/></g>
<g><path style="opacity:0.006" fill="#037bc4" d="M 170.5,231.5 C 170.833,231.5 171.167,231.5 171.5,231.5C 171.672,232.492 171.338,233.158 170.5,233.5C 170.5,232.833 170.5,232.167 170.5,231.5 Z"/></g>
<g><path style="opacity:0.012" fill="#037bc4" d="M 76.5,233.5 C 77.8333,234.167 77.8333,234.167 76.5,233.5 Z"/></g>
<g><path style="opacity:0.008" fill="#027bc5" d="M 97.5,233.5 C 98.8333,234.167 98.8333,234.833 97.5,235.5C 97.5,234.833 97.5,234.167 97.5,233.5 Z"/></g>
<g><path style="opacity:0.008" fill="#037bc4" d="M 169.5,233.5 C 169.833,233.5 170.167,233.5 170.5,233.5C 170.672,234.492 170.338,235.158 169.5,235.5C 169.5,234.833 169.5,234.167 169.5,233.5 Z"/></g>
<g><path style="opacity:0.01" fill="#037ac4" d="M 239.5,235.5 C 239.511,232.999 240.178,232.832 241.5,235C 240.906,235.464 240.239,235.631 239.5,235.5 Z"/></g>
<g><path style="opacity:0.012" fill="#0379c4" d="M 96.5,235.5 C 96.8333,235.5 97.1667,235.5 97.5,235.5C 97.3147,236.17 96.9813,236.17 96.5,235.5 Z"/></g>
<g><path style="opacity:0.012" fill="#037bc5" d="M 168.5,235.5 C 168.833,235.5 169.167,235.5 169.5,235.5C 169.315,236.17 168.981,236.17 168.5,235.5 Z"/></g>
<g><path style="opacity:0.01" fill="#027bc4" d="M 34.5,236.5 C 35.8333,237.167 35.8333,237.833 34.5,238.5C 34.5,237.833 34.5,237.167 34.5,236.5 Z"/></g>
<g><path style="opacity:0.004" fill="#037ac4" d="M 95.5,236.5 C 95.8333,236.5 96.1667,236.5 96.5,236.5C 96.6716,237.492 96.3382,238.158 95.5,238.5C 95.5,237.833 95.5,237.167 95.5,236.5 Z"/></g>
<g><path style="opacity:0.012" fill="#047bc4" d="M 167.5,236.5 C 167.833,236.5 168.167,236.5 168.5,236.5C 168.315,237.17 167.981,237.17 167.5,236.5 Z"/></g>
<g><path style="opacity:0.008" fill="#047bc4" d="M 228.5,238.5 C 227.475,238.103 227.308,237.437 228,236.5C 228.464,237.094 228.631,237.761 228.5,238.5 Z"/></g>
<g><path style="opacity:0.008" fill="#037bc4" d="M 79.5,236.5 C 79.631,237.239 79.4643,237.906 79,238.5C 78.3083,237.563 78.475,236.897 79.5,236.5 Z"/></g>
<g><path style="opacity:0.012" fill="#047bc5" d="M 8.5,237.5 C 8.83333,237.5 9.16667,237.5 9.5,237.5C 9.5,238.167 9.5,238.833 9.5,239.5C 8.66175,239.158 8.32842,238.492 8.5,237.5 Z"/></g>
<g><path style="opacity:0.006" fill="#047bc2" d="M 33.5,238.5 C 33.8333,238.5 34.1667,238.5 34.5,238.5C 34.6716,239.492 34.3382,240.158 33.5,240.5C 33.5,239.833 33.5,239.167 33.5,238.5 Z"/></g>
<g><path style="opacity:0.008" fill="#037ac5" d="M 94.5,238.5 C 94.8333,238.5 95.1667,238.5 95.5,238.5C 95.3147,239.17 94.9813,239.17 94.5,238.5 Z"/></g>
<g><path style="opacity:0.004" fill="#037bc4" d="M 145.5,237.5 C 145.631,238.239 145.464,238.906 145,239.5C 144.308,238.563 144.475,237.897 145.5,237.5 Z"/></g>
<g><path style="opacity:0.004" fill="#037bc2" d="M 166.5,237.5 C 166.833,237.5 167.167,237.5 167.5,237.5C 167.672,238.492 167.338,239.158 166.5,239.5C 166.5,238.833 166.5,238.167 166.5,237.5 Z"/></g>
<g><path style="opacity:0.012" fill="#037ac4" d="M 228.5,238.5 C 228.833,238.5 229.167,238.5 229.5,238.5C 229.315,239.17 228.981,239.17 228.5,238.5 Z"/></g>
<g><path style="opacity:0.008" fill="#037ac4" d="M 93.5,239.5 C 93.8333,239.5 94.1667,239.5 94.5,239.5C 94.3147,240.17 93.9813,240.17 93.5,239.5 Z"/></g>
<g><path style="opacity:0.008" fill="#027ac4" d="M 165.5,239.5 C 165.833,239.5 166.167,239.5 166.5,239.5C 166.315,240.17 165.981,240.17 165.5,239.5 Z"/></g>
<g><path style="opacity:0.012" fill="#047ac5" d="M 254.5,239.5 C 254.833,239.5 255.167,239.5 255.5,239.5C 255.5,239.833 255.5,240.167 255.5,240.5C 255.167,240.167 254.833,239.833 254.5,239.5 Z"/></g>
<g><path style="opacity:0.004" fill="#037bc3" d="M 9.5,239.5 C 9.83333,239.5 10.1667,239.5 10.5,239.5C 10.1667,242.167 9.83333,242.167 9.5,239.5 Z"/></g>
<g><path style="opacity:0.012" fill="#047bc5" d="M 32.5,240.5 C 32.8333,240.5 33.1667,240.5 33.5,240.5C 33.3147,241.17 32.9813,241.17 32.5,240.5 Z"/></g>
<g><path style="opacity:0.004" fill="#037ac5" d="M 93.5,240.5 C 92.8333,241.167 92.8333,241.167 93.5,240.5 Z"/></g>
<g><path style="opacity:0.008" fill="#0279c4" d="M 164.5,240.5 C 164.833,240.5 165.167,240.5 165.5,240.5C 165.315,241.17 164.981,241.17 164.5,240.5 Z"/></g>
<g><path style="opacity:0.008" fill="#037ac4" d="M 229.5,240.5 C 230.833,241.167 230.833,241.167 229.5,240.5 Z"/></g>
<g><path style="opacity:0.006" fill="#027bc4" d="M 84.5,241.5 C 84.5,241.833 84.5,242.167 84.5,242.5C 81.8333,242.167 81.8333,241.833 84.5,241.5 Z"/></g>
<g><path style="opacity:0.012" fill="#057bc4" d="M 90.5,241.5 C 91.8333,242.167 91.8333,242.167 90.5,241.5 Z"/></g>
<g><path style="opacity:0.004" fill="#027ac5" d="M 164.5,241.5 C 163.833,242.167 163.833,242.167 164.5,241.5 Z"/></g>
<g><path style="opacity:0.004" fill="#037ac3" d="M 253.5,241.5 C 254.833,242.167 254.833,242.167 253.5,241.5 Z"/></g>
<g><path style="opacity:0.004" fill="#037ac4" d="M 31.5,241.5 C 31.8333,241.5 32.1667,241.5 32.5,241.5C 32.6716,242.492 32.3382,243.158 31.5,243.5C 31.5,242.833 31.5,242.167 31.5,241.5 Z"/></g>
<g><path style="opacity:0.008" fill="#037bc4" d="M 84.5,242.5 C 86.1992,242.34 87.8659,242.506 89.5,243C 87.6131,243.78 85.9464,243.613 84.5,242.5 Z"/></g>
<g><path style="opacity:0.012" fill="#047ac4" d="M 149.5,242.5 C 149.5,242.833 149.5,243.167 149.5,243.5C 148.83,243.019 148.83,242.685 149.5,242.5 Z"/></g>
<g><path style="opacity:0.012" fill="#057ac3" d="M 161.5,242.5 C 162.833,243.167 162.833,243.167 161.5,242.5 Z"/></g>
<g><path style="opacity:0.004" fill="#037ac2" d="M 253.5,242.5 C 252.833,243.167 252.833,243.167 253.5,242.5 Z"/></g>
<g><path style="opacity:0.004" fill="#0279c4" d="M 31.5,243.5 C 30.8333,244.167 30.8333,244.167 31.5,243.5 Z"/></g>
<g><path style="opacity:0.008" fill="#037ac4" d="M 149.5,243.5 C 150.833,244.167 150.833,244.167 149.5,243.5 Z"/></g>
<g><path style="opacity:0.012" fill="#037ac5" d="M 160.5,243.5 C 160.833,243.5 161.167,243.5 161.5,243.5C 161.315,244.17 160.981,244.17 160.5,243.5 Z"/></g>
<g><path style="opacity:0.004" fill="#057ac3" d="M 250.5,244.5 C 250.5,244.167 250.5,243.833 250.5,243.5C 251.167,243.5 251.833,243.5 252.5,243.5C 252.158,244.338 251.492,244.672 250.5,244.5 Z"/></g>
<g><path style="opacity:0.008" fill="#057bc4" d="M 28.5,244.5 C 29.8333,245.167 29.8333,245.167 28.5,244.5 Z"/></g>
<g><path style="opacity:0.012" fill="#037ac4" d="M 151.5,244.5 C 152.833,245.167 152.833,245.167 151.5,244.5 Z"/></g>
<g><path style="opacity:0.012" fill="#037bc3" d="M 158.5,244.5 C 159.833,245.167 159.833,245.167 158.5,244.5 Z"/></g>
<g><path style="opacity:0.012" fill="#057ac4" d="M 249.5,244.5 C 249.833,244.5 250.167,244.5 250.5,244.5C 250.315,245.17 249.981,245.17 249.5,244.5 Z"/></g>
<g><path style="opacity:0.006" fill="#037bc5" d="M 16.5,245.5 C 16.5,245.833 16.5,246.167 16.5,246.5C 13.8333,246.167 13.8333,245.833 16.5,245.5 Z"/></g>
<g><path style="opacity:0.008" fill="#037ac4" d="M 28.5,245.5 C 27.8333,246.167 27.8333,246.167 28.5,245.5 Z"/></g>
<g><path style="opacity:0.006" fill="#027bc4" d="M 153.5,246.5 C 154.601,245.402 155.934,245.235 157.5,246C 156.207,246.49 154.873,246.657 153.5,246.5 Z"/></g>
<g><path style="opacity:0.012" fill="#037ac3" d="M 236.5,245.5 C 235.833,246.167 235.833,246.167 236.5,245.5 Z"/></g>
<g><path style="opacity:0.008" fill="#037bc4" d="M 249.5,245.5 C 248.833,246.167 248.833,246.167 249.5,245.5 Z"/></g>
<g><path style="opacity:0.01" fill="#027bc4" d="M 16.5,246.5 C 17.2389,246.369 17.9056,246.536 18.5,247C 17.5632,247.692 16.8966,247.525 16.5,246.5 Z"/></g>
<g><path style="opacity:0.01" fill="#037bc4" d="M 24.5,246.5 C 25.2389,246.369 25.9056,246.536 26.5,247C 25.5632,247.692 24.8966,247.525 24.5,246.5 Z"/></g>
<g><path style="opacity:0.01" fill="#037bc4" d="M 239.5,246.5 C 239.103,247.525 238.437,247.692 237.5,247C 238.094,246.536 238.761,246.369 239.5,246.5 Z"/></g>
<g><path style="opacity:0.01" fill="#037bc4" d="M 245.5,247.5 C 245.897,246.475 246.563,246.308 247.5,247C 246.906,247.464 246.239,247.631 245.5,247.5 Z"/></g>
<g><path style="opacity:0.004" fill="#037bc5" d="M 20.5,247.5 C 21.8333,248.167 21.8333,248.167 20.5,247.5 Z"/></g>
<g><path style="opacity:0.004" fill="#037bc4" d="M 241.5,247.5 C 242.833,248.167 242.833,248.167 241.5,247.5 Z"/></g>
</svg>
