<?xml version="1.0" encoding="UTF-8"?>
<!DOCTYPE svg PUBLIC "-//W3C//DTD SVG 1.1//EN" "http://www.w3.org/Graphics/SVG/1.1/DTD/svg11.dtd">
<svg xmlns="http://www.w3.org/2000/svg" version="1.1" width="256px" height="256px" style="shape-rendering:geometricPrecision; text-rendering:geometricPrecision; image-rendering:optimizeQuality; fill-rule:evenodd; clip-rule:evenodd" xmlns:xlink="http://www.w3.org/1999/xlink">
<g><path style="opacity:0.012" fill="#047cc4" d="M 100.5,34.5 C 118.329,33.338 136.329,33.1713 154.5,34C 136.503,34.4999 118.503,34.6666 100.5,34.5 Z"/></g>
<g><path style="opacity:0.01" fill="#037bc4" d="M 86.5,35.5 C 89.3035,34.3622 92.3035,34.1955 95.5,35C 92.5184,35.498 89.5184,35.6646 86.5,35.5 Z"/></g>
<g><path style="opacity:0.009" fill="#037bc4" d="M 159.5,35.5 C 162.304,34.3622 165.304,34.1955 168.5,35C 165.518,35.498 162.518,35.6646 159.5,35.5 Z"/></g>
<g><path style="opacity:0.01" fill="#037bc4" d="M 84.5,36.5 C 81.8127,36.6641 79.146,36.4974 76.5,36C 79.367,35.1993 82.0336,35.3659 84.5,36.5 Z"/></g>
<g><path style="opacity:0.835" fill="#037bc4" d="M 170.5,36.5 C 173.625,37.4794 176.958,37.8128 180.5,37.5C 191.322,39.4684 202.322,41.135 213.5,42.5C 214.919,43.4511 216.585,43.7845 218.5,43.5C 221.219,44.913 224.219,45.5797 227.5,45.5C 229.905,46.7682 232.572,47.4349 235.5,47.5C 236.568,48.4345 237.901,48.7678 239.5,48.5C 240.568,49.4345 241.901,49.7678 243.5,49.5C 244.209,50.404 245.209,50.7373 246.5,50.5C 249.428,51.8167 252.428,53.15 255.5,54.5C 255.5,64.1667 255.5,73.8333 255.5,83.5C 254.662,83.8417 254.328,84.5084 254.5,85.5C 253.662,85.8417 253.328,86.5084 253.5,87.5C 252.833,87.5 252.5,87.8333 252.5,88.5C 251.833,88.5 251.5,88.8333 251.5,89.5C 250.167,90.1667 249.167,91.1667 248.5,92.5C 247.833,92.5 247.5,92.8333 247.5,93.5C 246.833,93.5 246.5,93.8333 246.5,94.5C 244.447,94.4021 242.78,95.0687 241.5,96.5C 237.833,96.5 234.167,96.5 230.5,96.5C 229.791,95.596 228.791,95.2627 227.5,95.5C 229.838,103.815 226.838,107.482 218.5,106.5C 218.5,109.5 218.5,112.5 218.5,115.5C 217.5,115.833 216.833,116.5 216.5,117.5C 214.486,117.608 212.82,116.942 211.5,115.5C 211.5,112.5 211.5,109.5 211.5,106.5C 209.167,106.5 206.833,106.5 204.5,106.5C 204.167,105.5 203.5,104.833 202.5,104.5C 202.2,99.9014 202.533,95.4014 203.5,91C 197.257,89.4652 190.923,88.6319 184.5,88.5C 169.722,86.3126 154.722,84.9793 139.5,84.5C 139.827,89.544 139.494,94.544 138.5,99.5C 135.891,100.23 133.224,100.73 130.5,101C 131.435,103.381 131.768,105.881 131.5,108.5C 130.662,108.842 130.328,109.508 130.5,110.5C 129.508,110.328 128.842,110.662 128.5,111.5C 127.833,111.5 127.167,111.5 126.5,111.5C 126.158,110.662 125.492,110.328 124.5,110.5C 124.672,109.508 124.338,108.842 123.5,108.5C 123.232,105.881 123.565,103.381 124.5,101C 121.776,100.73 119.109,100.23 116.5,99.5C 115.506,94.544 115.173,89.544 115.5,84.5C 94.0042,85.1245 72.6709,87.2912 51.5,91C 52.4667,95.4014 52.8,99.9014 52.5,104.5C 51.5,104.833 50.8333,105.5 50.5,106.5C 48.1667,106.5 45.8333,106.5 43.5,106.5C 43.5,109.5 43.5,112.5 43.5,115.5C 42.5,115.833 41.8333,116.5 41.5,117.5C 39.4862,117.608 37.8195,116.942 36.5,115.5C 36.5,112.5 36.5,109.5 36.5,106.5C 28.1618,107.482 25.1618,103.815 27.5,95.5C 26.209,95.2627 25.209,95.596 24.5,96.5C 20.8333,96.5 17.1667,96.5 13.5,96.5C 12.2196,95.0687 10.5529,94.4021 8.5,94.5C 5.1218,91.1239 2.1218,87.4572 -0.5,83.5C -0.5,73.8333 -0.5,64.1667 -0.5,54.5C 0.5,54.1667 1.16667,53.5 1.5,52.5C 2.79105,52.7373 3.79105,52.404 4.5,51.5C 8.42679,51.0743 12.0935,50.0743 15.5,48.5C 22.7199,47.2771 29.7199,45.6104 36.5,43.5C 38.4147,43.7845 40.0813,43.4511 41.5,42.5C 45.4248,42.5701 49.0915,41.9034 52.5,40.5C 63.3441,39.4778 74.0108,38.1445 84.5,36.5C 113.167,35.1667 141.833,35.1667 170.5,36.5 Z M 185.5,46.5 C 188.059,46.1984 190.393,46.5318 192.5,47.5C 197.1,47.2796 201.433,47.9462 205.5,49.5C 209.425,49.4299 213.091,50.0966 216.5,51.5C 218.415,51.2155 220.081,51.5489 221.5,52.5C 223.099,52.2322 224.432,52.5655 225.5,53.5C 227.099,53.2322 228.432,53.5655 229.5,54.5C 232.495,54.2938 235.162,54.9605 237.5,56.5C 239.099,56.2322 240.432,56.5655 241.5,57.5C 244.471,57.4354 247.138,58.2687 249.5,60C 248.849,67.2655 248.182,74.4322 247.5,81.5C 247.649,80.448 247.483,79.448 247,78.5C 246.427,80.6406 245.594,82.6406 244.5,84.5C 243.833,84.5 243.5,84.8333 243.5,85.5C 242.005,85.9887 240.671,86.6554 239.5,87.5C 237.876,87.6399 236.71,86.9733 236,85.5C 235.517,86.448 235.351,87.448 235.5,88.5C 236.833,88.5 238.167,88.5 239.5,88.5C 237.712,89.6225 235.712,89.7891 233.5,89C 234.866,86.0027 235.533,82.836 235.5,79.5C 236.547,78.9222 236.38,78.2555 235,77.5C 234.601,77.7284 234.435,78.0618 234.5,78.5C 233.391,78.4431 232.391,78.1098 231.5,77.5C 229.93,76.4407 228.597,76.9407 227.5,79C 227.728,79.3988 228.062,79.5654 228.5,79.5C 228.167,82.1667 227.833,84.8333 227.5,87.5C 225.901,87.7678 224.568,87.4345 223.5,86.5C 221.585,86.7845 219.919,86.4511 218.5,85.5C 216.712,85.7852 215.045,85.4519 213.5,84.5C 213.624,83.8933 213.957,83.56 214.5,83.5C 214.966,79.838 214.299,76.5046 212.5,73.5C 211.167,73.8333 209.833,74.1667 208.5,74.5C 207.962,77.1889 207.295,79.8556 206.5,82.5C 202.67,83.3578 199.003,83.0245 195.5,81.5C 194.307,81.0296 193.64,80.0296 193.5,78.5C 193.728,76.7927 194.062,75.126 194.5,73.5C 195.559,71.9301 195.059,70.5968 193,69.5C 192.601,69.7284 192.435,70.0618 192.5,70.5C 191.167,70.5 189.833,70.5 188.5,70.5C 187.671,69.6676 186.838,70.001 186,71.5C 185.308,72.4368 185.475,73.1034 186.5,73.5C 186.5,75.8333 186.5,78.1667 186.5,80.5C 181.833,80.1667 177.167,79.8333 172.5,79.5C 173.215,76.0928 173.215,72.7595 172.5,69.5C 173.332,68.6715 172.999,67.8382 171.5,67C 168.208,66.1042 165.875,67.2709 164.5,70.5C 164.624,71.1067 164.957,71.44 165.5,71.5C 165.5,73.8333 165.5,76.1667 165.5,78.5C 160.788,78.3813 156.288,78.3813 152,78.5C 151.956,75.5248 152.123,72.5248 152.5,69.5C 150.84,67.7516 148.84,67.2516 146.5,68C 144.773,70.9036 144.107,74.0703 144.5,77.5C 139.821,77.6658 135.155,77.4992 130.5,77C 131.435,74.6194 131.768,72.1194 131.5,69.5C 132.559,67.9301 132.059,66.5968 130,65.5C 129.601,65.7284 129.435,66.0618 129.5,66.5C 128.167,66.5 126.833,66.5 125.5,66.5C 124.671,65.6676 123.838,66.001 123,67.5C 122.308,68.4368 122.475,69.1034 123.5,69.5C 123.232,72.1194 123.565,74.6194 124.5,77C 119.845,77.4992 115.179,77.6658 110.5,77.5C 110.789,74.3508 110.289,71.3508 109,68.5C 106.586,67.1443 104.419,67.4776 102.5,69.5C 102.877,72.5248 103.044,75.5248 103,78.5C 98.7116,78.3813 94.2116,78.3813 89.5,78.5C 89.5,76.1667 89.5,73.8333 89.5,71.5C 90.0431,71.44 90.3764,71.1067 90.5,70.5C 88.0673,65.9704 85.0673,65.4704 81.5,69C 81.7284,69.3988 82.0618,69.5654 82.5,69.5C 81.7846,72.7595 81.7846,76.0928 82.5,79.5C 77.8333,79.8333 73.1667,80.1667 68.5,80.5C 68.5,78.1667 68.5,75.8333 68.5,73.5C 69.5593,71.9301 69.0593,70.5968 67,69.5C 66.6012,69.7284 66.4346,70.0618 66.5,70.5C 65.1667,70.5 63.8333,70.5 62.5,70.5C 61.6715,69.6676 60.8382,70.001 60,71.5C 59.3083,72.4368 59.475,73.1034 60.5,73.5C 60.9383,75.126 61.2716,76.7927 61.5,78.5C 61.3601,80.0296 60.6935,81.0296 59.5,81.5C 55.9966,83.0245 52.3299,83.3578 48.5,82.5C 47.7049,79.8556 47.0382,77.1889 46.5,74.5C 45.1667,74.1667 43.8333,73.8333 42.5,73.5C 40.7006,76.5046 40.0339,79.838 40.5,83.5C 41.0431,83.56 41.3764,83.8933 41.5,84.5C 39.9547,85.4519 38.288,85.7852 36.5,85.5C 35.0813,86.4511 33.4147,86.7845 31.5,86.5C 30.4324,87.4345 29.099,87.7678 27.5,87.5C 27.1667,84.8333 26.8333,82.1667 26.5,79.5C 27.3324,78.6715 26.999,77.8382 25.5,77C 24.5632,76.3083 23.8966,76.475 23.5,77.5C 22.609,78.1098 21.609,78.4431 20.5,78.5C 19.9222,77.453 19.2555,77.6197 18.5,79C 18.7284,79.3988 19.0618,79.5654 19.5,79.5C 19.467,82.836 20.1336,86.0027 21.5,89C 19.2884,89.7891 17.2884,89.6225 15.5,88.5C 14.209,88.7373 13.209,88.404 12.5,87.5C 14.6655,86.9377 14.3322,86.271 11.5,85.5C 11.5,84.8333 11.1667,84.5 10.5,84.5C 10.5,83.8333 10.1667,83.5 9.5,83.5C 9.10767,81.8211 8.60767,80.1545 8,78.5C 7.51722,79.448 7.35055,80.448 7.5,81.5C 6.50797,74.0182 6.17464,66.3516 6.5,58.5C 8.80562,58.0074 11.139,57.6741 13.5,57.5C 19.8304,54.9173 26.4971,53.2507 33.5,52.5C 34.9187,51.5489 36.5853,51.2155 38.5,51.5C 41.9085,50.0966 45.5752,49.4299 49.5,49.5C 53.5667,47.9462 57.9,47.2796 62.5,47.5C 83.8625,43.852 105.529,42.1854 127.5,42.5C 147.097,42.2061 166.431,43.5394 185.5,46.5 Z M 8.5,83.5 C 8.83333,83.5 9.16667,83.5 9.5,83.5C 10.1667,83.5 10.5,83.8333 10.5,84.5C 11.1667,84.5 11.5,84.8333 11.5,85.5C 11.5,85.8333 11.5,86.1667 11.5,86.5C 9.5,86.5 8.5,85.5 8.5,83.5 Z M 122.5,84.5 C 125.833,84.5 129.167,84.5 132.5,84.5C 132.5,87.5 132.5,90.5 132.5,93.5C 129.167,93.5 125.833,93.5 122.5,93.5C 122.5,90.5 122.5,87.5 122.5,84.5 Z M 244.5,84.5 C 244.833,84.5 245.167,84.5 245.5,84.5C 245.5,85.8333 244.833,86.5 243.5,86.5C 243.5,86.1667 243.5,85.8333 243.5,85.5C 244.167,85.5 244.5,85.1667 244.5,84.5 Z M 124.5,86.5 C 126.5,86.5 128.5,86.5 130.5,86.5C 130.5,88.1667 130.5,89.8333 130.5,91.5C 128.5,91.5 126.5,91.5 124.5,91.5C 124.5,89.8333 124.5,88.1667 124.5,86.5 Z M 38.5,93.5 C 40.6718,92.4317 43.0051,91.9317 45.5,92C 44.5939,93.6995 44.2606,95.5328 44.5,97.5C 41.4816,97.3354 38.4816,97.502 35.5,98C 38.8333,98.3333 42.1667,98.6667 45.5,99C 41.8484,99.4986 38.1817,99.6653 34.5,99.5C 34.5,97.5 34.5,95.5 34.5,93.5C 35.8333,93.5 37.1667,93.5 38.5,93.5 Z M 216.5,93.5 C 217.833,93.5 219.167,93.5 220.5,93.5C 220.5,95.5 220.5,97.5 220.5,99.5C 216.818,99.6653 213.152,99.4986 209.5,99C 212.833,98.6667 216.167,98.3333 219.5,98C 216.518,97.502 213.518,97.3354 210.5,97.5C 210.739,95.5328 210.406,93.6995 209.5,92C 211.995,91.9317 214.328,92.4317 216.5,93.5 Z M 86.5,102.5 C 88.0269,102.427 89.0269,103.094 89.5,104.5C 87.9731,104.573 86.9731,103.906 86.5,102.5 Z M 168.5,102.5 C 168.027,103.906 167.027,104.573 165.5,104.5C 165.973,103.094 166.973,102.427 168.5,102.5 Z M 50.5,106.5 C 50.5,106.833 50.5,107.167 50.5,107.5C 48.5,107.5 46.5,107.5 44.5,107.5C 44.5,110.167 44.5,112.833 44.5,115.5C 44.1667,115.5 43.8333,115.5 43.5,115.5C 43.5,112.5 43.5,109.5 43.5,106.5C 45.8333,106.5 48.1667,106.5 50.5,106.5 Z M 204.5,107.5 C 204.5,107.167 204.5,106.833 204.5,106.5C 206.833,106.5 209.167,106.5 211.5,106.5C 211.5,109.5 211.5,112.5 211.5,115.5C 211.167,115.5 210.833,115.5 210.5,115.5C 210.5,112.833 210.5,110.167 210.5,107.5C 208.5,107.5 206.5,107.5 204.5,107.5 Z M 73.5,107.5 C 73.0269,108.906 72.0269,109.573 70.5,109.5C 70.9731,108.094 71.9731,107.427 73.5,107.5 Z M 181.5,107.5 C 183.027,107.427 184.027,108.094 184.5,109.5C 182.973,109.573 181.973,108.906 181.5,107.5 Z M 70.5,113.5 C 71.9063,113.973 72.573,114.973 72.5,116.5C 71.0937,116.027 70.427,115.027 70.5,113.5 Z M 184.5,113.5 C 184.573,115.027 183.906,116.027 182.5,116.5C 182.427,114.973 183.094,113.973 184.5,113.5 Z"/></g>
<g><path style="opacity:0.01" fill="#037bc4" d="M 170.5,36.5 C 172.966,35.3659 175.633,35.1993 178.5,36C 175.854,36.4974 173.187,36.6641 170.5,36.5 Z"/></g>
<g><path style="opacity:0.01" fill="#037bc4" d="M 68.5,37.5 C 69.9464,36.3871 71.6131,36.2204 73.5,37C 71.8659,37.4935 70.1992,37.6602 68.5,37.5 Z"/></g>
<g><path style="opacity:0.01" fill="#047bc4" d="M 180.5,37.5 C 182.288,36.3775 184.288,36.2109 186.5,37C 184.527,37.4955 182.527,37.6621 180.5,37.5 Z"/></g>
<g><path style="opacity:0.009" fill="#037bc4" d="M 60.5,38.5 C 61.9464,37.3871 63.6131,37.2204 65.5,38C 63.8659,38.4935 62.1992,38.6602 60.5,38.5 Z"/></g>
<g><path style="opacity:0.01" fill="#037bc4" d="M 189.5,38.5 C 190.946,37.3871 192.613,37.2204 194.5,38C 192.866,38.4935 191.199,38.6602 189.5,38.5 Z"/></g>
<g><path style="opacity:0.009" fill="#037bc4" d="M 53.5,39.5 C 54.9464,38.3871 56.6131,38.2204 58.5,39C 56.8659,39.4935 55.1992,39.6602 53.5,39.5 Z"/></g>
<g><path style="opacity:0.009" fill="#037bc4" d="M 196.5,39.5 C 197.946,38.3871 199.613,38.2204 201.5,39C 199.866,39.4935 198.199,39.6602 196.5,39.5 Z"/></g>
<g><path style="opacity:0.01" fill="#037bc4" d="M 52.5,40.5 C 51.1266,40.6567 49.7932,40.49 48.5,40C 50.0657,39.235 51.3991,39.4017 52.5,40.5 Z"/></g>
<g><path style="opacity:0.01" fill="#037bc4" d="M 202.5,40.5 C 203.601,39.4017 204.934,39.235 206.5,40C 205.207,40.49 203.873,40.6567 202.5,40.5 Z"/></g>
<g><path style="opacity:0.01" fill="#037bc4" d="M 42.5,41.5 C 43.6009,40.4017 44.9343,40.235 46.5,41C 45.2068,41.49 43.8734,41.6567 42.5,41.5 Z"/></g>
<g><path style="opacity:0.009" fill="#037bc5" d="M 208.5,41.5 C 209.601,40.4017 210.934,40.235 212.5,41C 211.207,41.49 209.873,41.6567 208.5,41.5 Z"/></g>
<g><path style="opacity:0.01" fill="#037bc4" d="M 41.5,42.5 C 40.1266,42.6567 38.7932,42.49 37.5,42C 39.0657,41.235 40.3991,41.4017 41.5,42.5 Z"/></g>
<g><path style="opacity:0.01" fill="#037bc4" d="M 213.5,42.5 C 214.601,41.4017 215.934,41.235 217.5,42C 216.207,42.49 214.873,42.6567 213.5,42.5 Z"/></g>
<g><path style="opacity:0.009" fill="#037bc4" d="M 36.5,43.5 C 35.1266,43.6567 33.7932,43.49 32.5,43C 34.0657,42.235 35.3991,42.4017 36.5,43.5 Z"/></g>
<g><path style="opacity:0.01" fill="#047bc4" d="M 218.5,43.5 C 219.251,42.4265 220.251,42.2599 221.5,43C 220.552,43.4828 219.552,43.6495 218.5,43.5 Z"/></g>
<g><path style="opacity:0.009" fill="#037bc4" d="M 27.5,44.5 C 28.6009,43.4017 29.9343,43.235 31.5,44C 30.2068,44.49 28.8734,44.6567 27.5,44.5 Z"/></g>
<g><path style="opacity:0.012" fill="#037bc4" d="M 223.5,44.5 C 224.251,43.4265 225.251,43.2599 226.5,44C 225.552,44.4828 224.552,44.6495 223.5,44.5 Z"/></g>
<g><path style="opacity:0.009" fill="#027bc4" d="M 23.5,45.5 C 24.2506,44.4265 25.2506,44.2599 26.5,45C 25.552,45.4828 24.552,45.6495 23.5,45.5 Z"/></g>
<g><path style="opacity:0.009" fill="#037cc4" d="M 227.5,45.5 C 228.601,44.4017 229.934,44.235 231.5,45C 230.207,45.49 228.873,45.6567 227.5,45.5 Z"/></g>
<g><path style="opacity:0.009" fill="#037bc3" d="M 19.5,46.5 C 20.2506,45.4265 21.2506,45.2599 22.5,46C 21.552,46.4828 20.552,46.6495 19.5,46.5 Z"/></g>
<g><path style="opacity:0.009" fill="#027bc4" d="M 235.5,46.5 C 234.448,46.6495 233.448,46.4828 232.5,46C 233.749,45.2599 234.749,45.4265 235.5,46.5 Z"/></g>
<g><path style="opacity:0.012" fill="#037bc4" d="M 16.5,47.5 C 16.8966,46.475 17.5632,46.3083 18.5,47C 17.9056,47.4643 17.2389,47.631 16.5,47.5 Z"/></g>
<g><path style="opacity:0.012" fill="#047cc4" d="M 235.5,47.5 C 235.5,47.1667 235.5,46.8333 235.5,46.5C 239.5,46.8333 239.5,47.1667 235.5,47.5 Z"/></g>
<g><path style="opacity:0.012" fill="#037bc3" d="M 15.5,48.5 C 14.448,48.6495 13.448,48.4828 12.5,48C 13.7494,47.2599 14.7494,47.4265 15.5,48.5 Z"/></g>
<g><path style="opacity:0.012" fill="#047bc4" d="M 239.5,48.5 C 240.251,47.4265 241.251,47.2599 242.5,48C 241.552,48.4828 240.552,48.6495 239.5,48.5 Z"/></g>
<g><path style="opacity:0.012" fill="#037bc4" d="M 243.5,49.5 C 243.897,48.475 244.563,48.3083 245.5,49C 244.906,49.4643 244.239,49.631 243.5,49.5 Z"/></g>
<g><path style="opacity:0.01" fill="#047bc4" d="M 246.5,50.5 C 247.251,49.4265 248.251,49.2599 249.5,50C 248.552,50.4828 247.552,50.6495 246.5,50.5 Z"/></g>
<g><path style="opacity:0.01" fill="#037bc4" d="M 4.5,51.5 C 3.76109,51.631 3.09442,51.4643 2.5,51C 3.43677,50.3083 4.10343,50.475 4.5,51.5 Z"/></g>
<g><path style="opacity:0.01" fill="#037bc4" d="M 250.5,51.5 C 250.897,50.475 251.563,50.3083 252.5,51C 251.906,51.4643 251.239,51.631 250.5,51.5 Z"/></g>
<g><path style="opacity:0.012" fill="#047ac4" d="M 1.5,52.5 C 0.833333,51.1667 0.833333,51.1667 1.5,52.5 Z"/></g>
<g><path style="opacity:0.012" fill="#047bc4" d="M 253.5,51.5 C 254.833,52.1667 254.833,52.1667 253.5,51.5 Z"/></g>
<g><path style="opacity:0.011" fill="#037bc4" d="M 90.5,73.5 C 91.404,74.209 91.7373,75.209 91.5,76.5C 94.5184,76.3354 97.5184,76.502 100.5,77C 97.1832,77.4983 93.8499,77.665 90.5,77.5C 90.5,76.1667 90.5,74.8333 90.5,73.5 Z"/></g>
<g><path style="opacity:0.012" fill="#037bc4" d="M 111.5,73.5 C 114.85,75.1403 118.517,75.9737 122.5,76C 118.848,76.4986 115.182,76.6653 111.5,76.5C 111.5,75.5 111.5,74.5 111.5,73.5 Z"/></g>
<g><path style="opacity:0.012" fill="#037bc4" d="M 142.5,73.5 C 143.404,74.209 143.737,75.209 143.5,76.5C 139.818,76.6653 136.152,76.4986 132.5,76C 136.311,76.0835 139.645,75.2501 142.5,73.5 Z"/></g>
<g><path style="opacity:0.011" fill="#037bc4" d="M 163.5,73.5 C 164.434,74.5676 164.768,75.901 164.5,77.5C 161.15,77.665 157.817,77.4983 154.5,77C 157.482,76.502 160.482,76.3354 163.5,76.5C 163.5,75.5 163.5,74.5 163.5,73.5 Z"/></g>
<g><path style="opacity:0.012" fill="#037bc4" d="M 69.5,74.5 C 70.4345,75.5676 70.7678,76.901 70.5,78.5C 75.5,79.0031 75.1667,79.3364 69.5,79.5C 69.5,77.8333 69.5,76.1667 69.5,74.5 Z"/></g>
<g><path style="opacity:0.012" fill="#037bc4" d="M 184.5,74.5 C 185.451,75.9187 185.784,77.5853 185.5,79.5C 179.833,79.3364 179.5,79.0031 184.5,78.5C 184.5,77.1667 184.5,75.8333 184.5,74.5 Z"/></g>
<g><path style="opacity:0.012" fill="#037bc3" d="M 173.5,75.5 C 174.534,76.6871 175.867,77.5204 177.5,78C 176.207,78.49 174.873,78.6567 173.5,78.5C 173.5,77.5 173.5,76.5 173.5,75.5 Z"/></g>
<g><path style="opacity:0.013" fill="#037bc3" d="M 80.5,75.5 C 81.404,76.209 81.7373,77.209 81.5,78.5C 80.1266,78.6567 78.7932,78.49 77.5,78C 79.1193,77.7645 80.1193,76.9311 80.5,75.5 Z"/></g>
<g><path style="opacity:0.014" fill="#037bc4" d="M 31.5,86.5 C 30.5,86.5 29.5,86.5 28.5,86.5C 28.3505,85.448 28.5172,84.448 29,83.5C 29.6979,84.6906 30.5313,85.6906 31.5,86.5 Z"/></g>
<g><path style="opacity:0.014" fill="#037bc4" d="M 223.5,86.5 C 224.469,85.6906 225.302,84.6906 226,83.5C 226.483,84.448 226.649,85.448 226.5,86.5C 225.5,86.5 224.5,86.5 223.5,86.5 Z"/></g>
<g><path style="opacity:0.013" fill="#037bc4" d="M 15.5,88.5 C 16.8484,87.8141 18.015,86.8141 19,85.5C 19.4828,86.448 19.6495,87.448 19.5,88.5C 18.1667,88.5 16.8333,88.5 15.5,88.5 Z"/></g>
<g><path style="opacity:0.009" fill="#047bc3" d="M 108.5,86.5 C 110.265,85.5386 112.265,85.2053 114.5,85.5C 114.666,89.8461 114.499,94.1794 114,98.5C 113.501,94.5138 113.334,90.5138 113.5,86.5C 111.833,86.5 110.167,86.5 108.5,86.5 Z"/></g>
<g><path style="opacity:0.014" fill="#037bc4" d="M 123.5,85.5 C 126.167,85.5 128.833,85.5 131.5,85.5C 131.5,87.8333 131.5,90.1667 131.5,92.5C 128.833,92.5 126.167,92.5 123.5,92.5C 123.5,90.1667 123.5,87.8333 123.5,85.5 Z M 124.5,86.5 C 124.5,88.1667 124.5,89.8333 124.5,91.5C 126.5,91.5 128.5,91.5 130.5,91.5C 130.5,89.8333 130.5,88.1667 130.5,86.5C 128.5,86.5 126.5,86.5 124.5,86.5 Z"/></g>
<g><path style="opacity:0.009" fill="#037bc3" d="M 140.5,85.5 C 142.527,85.3379 144.527,85.5045 146.5,86C 144.866,86.4935 143.199,86.6602 141.5,86.5C 141.666,90.5138 141.499,94.5138 141,98.5C 140.501,94.1794 140.334,89.8461 140.5,85.5 Z"/></g>
<g><path style="opacity:0.013" fill="#037bc4" d="M 239.5,87.5 C 239.5,87.8333 239.5,88.1667 239.5,88.5C 238.167,88.5 236.833,88.5 235.5,88.5C 235.351,87.448 235.517,86.448 236,85.5C 236.71,86.9733 237.876,87.6399 239.5,87.5 Z"/></g>
<g><path style="opacity:0.01" fill="#037bc4" d="M 91.5,87.5 C 94.9758,86.3567 98.6425,86.1901 102.5,87C 98.8484,87.4986 95.1817,87.6653 91.5,87.5 Z"/></g>
<g><path style="opacity:0.01" fill="#037bc4" d="M 152.5,87.5 C 155.976,86.3567 159.642,86.1901 163.5,87C 159.848,87.4986 156.182,87.6653 152.5,87.5 Z"/></g>
<g><path style="opacity:0.004" fill="#027bc4" d="M 254.5,85.5 C 254.833,85.5 255.167,85.5 255.5,85.5C 255.5,86.1667 255.5,86.8333 255.5,87.5C 255.167,87.5 254.833,87.5 254.5,87.5C 254.5,86.8333 254.5,86.1667 254.5,85.5 Z"/></g>
<g><path style="opacity:0.01" fill="#037bc4" d="M 79.5,88.5 C 81.9664,87.3659 84.633,87.1993 87.5,88C 84.854,88.4974 82.1873,88.6641 79.5,88.5 Z"/></g>
<g><path style="opacity:0.01" fill="#037bc4" d="M 167.5,88.5 C 169.966,87.3659 172.633,87.1993 175.5,88C 172.854,88.4974 170.187,88.6641 167.5,88.5 Z"/></g>
<g><path style="opacity:0.012" fill="#037ac5" d="M 253.5,87.5 C 253.833,87.5 254.167,87.5 254.5,87.5C 254.315,88.1701 253.981,88.1701 253.5,87.5 Z"/></g>
<g><path style="opacity:0.01" fill="#037bc4" d="M 70.5,89.5 C 72.2884,88.3775 74.2884,88.2109 76.5,89C 74.5273,89.4955 72.5273,89.6621 70.5,89.5 Z"/></g>
<g><path style="opacity:0.01" fill="#037bc4" d="M 184.5,88.5 C 182.712,89.6225 180.712,89.7891 178.5,89C 180.473,88.5045 182.473,88.3379 184.5,88.5 Z"/></g>
<g><path style="opacity:0.012" fill="#037bc5" d="M 252.5,88.5 C 252.833,88.5 253.167,88.5 253.5,88.5C 253.315,89.1701 252.981,89.1701 252.5,88.5 Z"/></g>
<g><path style="opacity:0.011" fill="#037bc4" d="M 63.5,90.5 C 64.9464,89.3871 66.6131,89.2204 68.5,90C 66.8659,90.4935 65.1992,90.6602 63.5,90.5 Z"/></g>
<g><path style="opacity:0.011" fill="#037bc4" d="M 186.5,90.5 C 187.946,89.3871 189.613,89.2204 191.5,90C 189.866,90.4935 188.199,90.6602 186.5,90.5 Z"/></g>
<g><path style="opacity:0.01" fill="#037bc4" d="M 56.5,91.5 C 57.9464,90.3871 59.6131,90.2204 61.5,91C 59.8659,91.4935 58.1992,91.6602 56.5,91.5 Z"/></g>
<g><path style="opacity:0.01" fill="#037bc4" d="M 193.5,91.5 C 194.946,90.3871 196.613,90.2204 198.5,91C 196.866,91.4935 195.199,91.6602 193.5,91.5 Z"/></g>
<g><path style="opacity:0.004" fill="#037ac4" d="M 251.5,89.5 C 251.833,89.5 252.167,89.5 252.5,89.5C 252.672,90.4916 252.338,91.1583 251.5,91.5C 251.5,90.8333 251.5,90.1667 251.5,89.5 Z"/></g>
<g><path style="opacity:0.008" fill="#037bc5" d="M 53.5,91.5 C 54.8333,92.1667 54.8333,92.1667 53.5,91.5 Z"/></g>
<g><path style="opacity:0.008" fill="#037bc4" d="M 200.5,91.5 C 201.833,92.1667 201.833,92.1667 200.5,91.5 Z"/></g>
<g><path style="opacity:0.004" fill="#0279c4" d="M 251.5,91.5 C 250.833,92.1667 250.833,92.1667 251.5,91.5 Z"/></g>
<g><path style="opacity:0.008" fill="#067cc4" d="M 248.5,92.5 C 249.833,93.1667 249.833,93.1667 248.5,92.5 Z"/></g>
<g><path style="opacity:0.012" fill="#037bc4" d="M 247.5,93.5 C 247.833,93.5 248.167,93.5 248.5,93.5C 248.315,94.1701 247.981,94.1701 247.5,93.5 Z"/></g>
<g><path style="opacity:0.008" fill="#027ac5" d="M 8.5,94.5 C 7.83333,95.1667 7.83333,95.1667 8.5,94.5 Z"/></g>
<g><path style="opacity:0.008" fill="#037ac4" d="M 246.5,94.5 C 246.833,94.5 247.167,94.5 247.5,94.5C 247.315,95.1701 246.981,95.1701 246.5,94.5 Z"/></g>
<g><path style="opacity:0.012" fill="#037ac4" d="M 9.5,95.5 C 10.8333,96.1667 10.8333,96.1667 9.5,95.5 Z"/></g>
<g><path style="opacity:0.012" fill="#037bc4" d="M 244.5,95.5 C 245.833,96.1667 245.833,96.1667 244.5,95.5 Z"/></g>
<g><path style="opacity:0.01" fill="#037bc4" d="M 13.5,96.5 C 13.1034,97.525 12.4368,97.6917 11.5,97C 12.0944,96.5357 12.7611,96.369 13.5,96.5 Z"/></g>
<g><path style="opacity:0.01" fill="#037bc4" d="M 24.5,96.5 C 25.7479,97.3339 26.4146,98.6672 26.5,100.5C 26.3333,101.833 26.1667,103.167 26,104.5C 25.7276,101.746 25.2276,99.0795 24.5,96.5 Z"/></g>
<g><path style="opacity:0.01" fill="#037bc4" d="M 230.5,96.5 C 229.772,99.0795 229.272,101.746 229,104.5C 228.833,103.167 228.667,101.833 228.5,100.5C 228.585,98.6672 229.252,97.3339 230.5,96.5 Z"/></g>
<g><path style="opacity:0.01" fill="#047bc3" d="M 241.5,96.5 C 242.239,96.369 242.906,96.5357 243.5,97C 242.563,97.6917 241.897,97.525 241.5,96.5 Z"/></g>
<g><path style="opacity:0.01" fill="#037bc4" d="M 14.5,98.5 C 17.3035,97.3622 20.3035,97.1955 23.5,98C 20.5184,98.498 17.5184,98.6646 14.5,98.5 Z"/></g>
<g><path style="opacity:0.01" fill="#037bc4" d="M 231.5,98.5 C 234.304,97.3622 237.304,97.1955 240.5,98C 237.518,98.498 234.518,98.6646 231.5,98.5 Z"/></g>
<g><path style="opacity:0.004" fill="#027ac5" d="M 81.5,99.5 C 81.8966,98.475 82.5632,98.3083 83.5,99C 82.9056,99.4643 82.2389,99.631 81.5,99.5 Z"/></g>
<g><path style="opacity:0.004" fill="#027bc4" d="M 173.5,99.5 C 172.761,99.631 172.094,99.4643 171.5,99C 172.437,98.3083 173.103,98.475 173.5,99.5 Z"/></g>
<g><path style="opacity:0.008" fill="#047ac5" d="M 81.5,99.5 C 81.5,99.8333 81.5,100.167 81.5,100.5C 80.8299,100.019 80.8299,99.6853 81.5,99.5 Z"/></g>
<g><path style="opacity:0.008" fill="#047ac5" d="M 173.5,99.5 C 174.833,100.167 174.833,100.167 173.5,99.5 Z"/></g>
<g><path style="opacity:0.004" fill="#0279c5" d="M 78.5,100.5 C 79.8333,101.167 79.8333,101.167 78.5,100.5 Z"/></g>
<g><path style="opacity:0.831" fill="#037bc4" d="M 81.5,100.5 C 83.5138,100.392 85.1805,101.058 86.5,102.5C 86.9731,103.906 87.9731,104.573 89.5,104.5C 91.2393,107.243 93.5726,109.243 96.5,110.5C 96.5,111.167 96.5,111.833 96.5,112.5C 95.8333,112.5 95.5,112.833 95.5,113.5C 94.8333,113.5 94.5,113.833 94.5,114.5C 93.5,114.833 92.8333,115.5 92.5,116.5C 91.8333,116.5 91.1667,116.5 90.5,116.5C 90.5,115.833 90.1667,115.5 89.5,115.5C 89.5,114.833 89.1667,114.5 88.5,114.5C 88.2172,113.711 87.7172,113.044 87,112.5C 86.5004,119.492 86.3337,126.492 86.5,133.5C 84.1667,133.5 81.8333,133.5 79.5,133.5C 79.6663,126.492 79.4996,119.492 79,112.5C 77.0077,113.328 75.5077,114.661 74.5,116.5C 73.8333,116.5 73.1667,116.5 72.5,116.5C 72.573,114.973 71.9063,113.973 70.5,113.5C 69.1667,112.167 69.1667,110.833 70.5,109.5C 72.0269,109.573 73.0269,108.906 73.5,107.5C 76.192,105.138 78.8587,102.804 81.5,100.5 Z"/></g>
<g><path style="opacity:0.838" fill="#037bc4" d="M 173.5,100.5 C 176.141,102.804 178.808,105.138 181.5,107.5C 181.973,108.906 182.973,109.573 184.5,109.5C 185.11,110.391 185.443,111.391 185.5,112.5C 184.833,112.5 184.5,112.833 184.5,113.5C 183.094,113.973 182.427,114.973 182.5,116.5C 180.236,115.419 178.069,114.085 176,112.5C 175.5,119.492 175.334,126.492 175.5,133.5C 173.167,133.5 170.833,133.5 168.5,133.5C 168.666,126.492 168.5,119.492 168,112.5C 167.283,113.044 166.783,113.711 166.5,114.5C 165.833,114.5 165.5,114.833 165.5,115.5C 164.833,115.5 164.5,115.833 164.5,116.5C 163.833,116.5 163.167,116.5 162.5,116.5C 162.167,115.5 161.5,114.833 160.5,114.5C 159.859,113.518 159.193,112.518 158.5,111.5C 161.188,109.479 163.521,107.146 165.5,104.5C 167.027,104.573 168.027,103.906 168.5,102.5C 169.82,101.058 171.486,100.392 173.5,100.5 Z"/></g>
<g><path style="opacity:0.004" fill="#0279c5" d="M 175.5,100.5 C 176.833,101.167 176.833,101.167 175.5,100.5 Z"/></g>
<g><path style="opacity:0.012" fill="#037bc4" d="M 117.5,102.5 C 118.946,101.387 120.613,101.22 122.5,102C 120.866,102.494 119.199,102.66 117.5,102.5 Z"/></g>
<g><path style="opacity:0.012" fill="#037bc4" d="M 132.5,102.5 C 133.946,101.387 135.613,101.22 137.5,102C 135.866,102.494 134.199,102.66 132.5,102.5 Z"/></g>
<g><path style="opacity:0.008" fill="#047ac4" d="M 52.5,104.5 C 53.8333,105.167 53.8333,105.167 52.5,104.5 Z"/></g>
<g><path style="opacity:0.008" fill="#047ac4" d="M 202.5,104.5 C 201.833,105.167 201.833,105.167 202.5,104.5 Z"/></g>
<g><path style="opacity:0.014" fill="#037bc4" d="M 35.5,115.5 C 34.5318,113.393 34.1984,111.059 34.5,108.5C 32.8008,108.66 31.1341,108.494 29.5,108C 31.4727,107.505 33.4727,107.338 35.5,107.5C 35.5,110.167 35.5,112.833 35.5,115.5 Z"/></g>
<g><path style="opacity:0.011" fill="#037bc4" d="M 50.5,107.5 C 49.0813,108.451 47.4147,108.784 45.5,108.5C 45.8016,111.059 45.4682,113.393 44.5,115.5C 44.5,112.833 44.5,110.167 44.5,107.5C 46.5,107.5 48.5,107.5 50.5,107.5 Z"/></g>
<g><path style="opacity:0.011" fill="#037bc4" d="M 204.5,107.5 C 206.5,107.5 208.5,107.5 210.5,107.5C 210.5,110.167 210.5,112.833 210.5,115.5C 209.532,113.393 209.198,111.059 209.5,108.5C 207.585,108.784 205.919,108.451 204.5,107.5 Z"/></g>
<g><path style="opacity:0.014" fill="#037bc4" d="M 219.5,115.5 C 219.5,112.833 219.5,110.167 219.5,107.5C 221.527,107.338 223.527,107.505 225.5,108C 223.866,108.494 222.199,108.66 220.5,108.5C 220.802,111.059 220.468,113.393 219.5,115.5 Z"/></g>
<g><path style="opacity:0.008" fill="#047cc4" d="M 123.5,108.5 C 122.833,109.167 122.833,109.167 123.5,108.5 Z"/></g>
<g><path style="opacity:0.008" fill="#047cc4" d="M 131.5,108.5 C 132.833,109.167 132.833,109.167 131.5,108.5 Z"/></g>
<g><path style="opacity:0.004" fill="#027ac4" d="M 96.5,109.5 C 97.8333,110.167 97.8333,110.167 96.5,109.5 Z"/></g>
<g><path style="opacity:0.004" fill="#037ac4" d="M 124.5,110.5 C 123.833,111.167 123.833,111.167 124.5,110.5 Z"/></g>
<g><path style="opacity:0.004" fill="#037ac4" d="M 130.5,110.5 C 131.833,111.167 131.833,111.167 130.5,110.5 Z"/></g>
<g><path style="opacity:0.006" fill="#037ac4" d="M 186.5,112.5 C 186.369,111.761 186.536,111.094 187,110.5C 187.692,111.437 187.525,112.103 186.5,112.5 Z"/></g>
<g><path style="opacity:0.004" fill="#037ac4" d="M 97.5,111.5 C 98.8333,112.167 98.8333,112.167 97.5,111.5 Z"/></g>
<g><path style="opacity:0.004" fill="#057bc3" d="M 126.5,111.5 C 125.833,112.167 125.833,112.167 126.5,111.5 Z"/></g>
<g><path style="opacity:0.004" fill="#057bc3" d="M 128.5,111.5 C 129.833,112.167 129.833,112.167 128.5,111.5 Z"/></g>
<g><path style="opacity:0.004" fill="#037ac4" d="M 156.5,111.5 C 157.833,112.167 157.833,112.167 156.5,111.5 Z"/></g>
<g><path style="opacity:0.008" fill="#037ac5" d="M 96.5,112.5 C 96.8333,112.5 97.1667,112.5 97.5,112.5C 97.3147,113.17 96.9813,113.17 96.5,112.5 Z"/></g>
<g><path style="opacity:0.008" fill="#047bc4" d="M 185.5,112.5 C 185.833,112.5 186.167,112.5 186.5,112.5C 186.315,113.17 185.981,113.17 185.5,112.5 Z"/></g>
<g><path style="opacity:0.012" fill="#037ac4" d="M 95.5,113.5 C 95.8333,113.5 96.1667,113.5 96.5,113.5C 96.3147,114.17 95.9813,114.17 95.5,113.5 Z"/></g>
<g><path style="opacity:0.008" fill="#057bc3" d="M 77.5,114.5 C 78.6533,120.653 78.82,126.986 78,133.5C 77.8104,127.584 77.3104,121.751 76.5,116C 77.056,115.617 77.3893,115.117 77.5,114.5 Z"/></g>
<g><path style="opacity:0.012" fill="#037bc4" d="M 88.5,114.5 C 89.1667,114.5 89.5,114.833 89.5,115.5C 89.5,115.833 89.5,116.167 89.5,116.5C 88.6728,121.985 88.1728,127.652 88,133.5C 87.18,126.986 87.3467,120.653 88.5,114.5 Z"/></g>
<g><path style="opacity:0.016" fill="#047ac4" d="M 94.5,114.5 C 94.8333,114.5 95.1667,114.5 95.5,114.5C 95.3147,115.17 94.9813,115.17 94.5,114.5 Z"/></g>
<g><path style="opacity:0.016" fill="#047cc5" d="M 160.5,114.5 C 159.833,115.167 159.833,115.167 160.5,114.5 Z"/></g>
<g><path style="opacity:0.012" fill="#037bc4" d="M 166.5,114.5 C 167.653,120.653 167.82,126.986 167,133.5C 166.827,127.652 166.327,121.985 165.5,116.5C 165.5,116.167 165.5,115.833 165.5,115.5C 166.167,115.5 166.5,115.167 166.5,114.5 Z"/></g>
<g><path style="opacity:0.008" fill="#057bc3" d="M 176.5,114.5 C 177.289,114.783 177.956,115.283 178.5,116C 177.69,121.751 177.19,127.584 177,133.5C 176.5,127.175 176.334,120.842 176.5,114.5 Z"/></g>
<g><path style="opacity:0.004" fill="#057cc6" d="M 35.5,115.5 C 35.8333,115.5 36.1667,115.5 36.5,115.5C 36.3147,116.17 35.9813,116.17 35.5,115.5 Z"/></g>
<g><path style="opacity:0.004" fill="#057cc6" d="M 218.5,115.5 C 218.833,115.5 219.167,115.5 219.5,115.5C 219.315,116.17 218.981,116.17 218.5,115.5 Z"/></g>
<g><path style="opacity:0.008" fill="#047bc2" d="M 74.5,116.5 C 75.8333,117.167 75.8333,117.167 74.5,116.5 Z"/></g>
<g><path style="opacity:0.008" fill="#037ac4" d="M 89.5,116.5 C 89.8333,116.5 90.1667,116.5 90.5,116.5C 90.3147,117.17 89.9813,117.17 89.5,116.5 Z"/></g>
<g><path style="opacity:0.004" fill="#047ac4" d="M 92.5,116.5 C 93.8333,117.167 93.8333,117.167 92.5,116.5 Z"/></g>
<g><path style="opacity:0.004" fill="#057ac3" d="M 162.5,116.5 C 162.5,116.833 162.5,117.167 162.5,117.5C 161.83,117.019 161.83,116.685 162.5,116.5 Z"/></g>
<g><path style="opacity:0.008" fill="#037bc4" d="M 164.5,116.5 C 164.833,116.5 165.167,116.5 165.5,116.5C 165.315,117.17 164.981,117.17 164.5,116.5 Z"/></g>
<g><path style="opacity:0.008" fill="#047ac4" d="M 41.5,117.5 C 42.8333,118.167 42.8333,118.167 41.5,117.5 Z"/></g>
<g><path style="opacity:0.008" fill="#027bc3" d="M 74.5,117.5 C 74.1034,118.525 73.4368,118.692 72.5,118C 73.0944,117.536 73.7611,117.369 74.5,117.5 Z"/></g>
<g><path style="opacity:0.012" fill="#047ac3" d="M 92.5,117.5 C 91.8333,118.167 91.8333,118.167 92.5,117.5 Z"/></g>
<g><path style="opacity:0.012" fill="#047ac3" d="M 162.5,117.5 C 163.833,118.167 163.833,118.167 162.5,117.5 Z"/></g>
<g><path style="opacity:0.008" fill="#027bc3" d="M 180.5,118.5 C 180.897,117.475 181.563,117.308 182.5,118C 181.906,118.464 181.239,118.631 180.5,118.5 Z"/></g>
<g><path style="opacity:0.004" fill="#037ac4" d="M 216.5,117.5 C 217.833,118.167 217.833,118.167 216.5,117.5 Z"/></g>
<g><path style="opacity:0.008" fill="#027bc4" d="M 41.5,118.5 C 40.7494,119.573 39.7494,119.74 38.5,119C 39.448,118.517 40.448,118.351 41.5,118.5 Z"/></g>
<g><path style="opacity:0.005" fill="#037ac4" d="M 216.5,118.5 C 215.749,119.573 214.749,119.74 213.5,119C 214.448,118.517 215.448,118.351 216.5,118.5 Z"/></g>
<g><path style="opacity:0.008" fill="#057bc5" d="M 113.5,132.5 C 112.833,131.167 112.833,131.167 113.5,132.5 Z"/></g>
<g><path style="opacity:0.008" fill="#047ac5" d="M 141.5,131.5 C 142.833,132.167 142.833,132.167 141.5,131.5 Z"/></g>
<g><path style="opacity:0.842" fill="#037bc4" d="M 113.5,132.5 C 122.833,132.5 132.167,132.5 141.5,132.5C 141.783,133.289 142.283,133.956 143,134.5C 143.499,138.821 143.666,143.154 143.5,147.5C 161.865,147.432 180.198,148.099 198.5,149.5C 198.5,145.833 198.5,142.167 198.5,138.5C 199.289,138.217 199.956,137.717 200.5,137C 210.161,136.5 219.828,136.334 229.5,136.5C 229.833,137.5 230.5,138.167 231.5,138.5C 231.5,143.167 231.5,147.833 231.5,152.5C 232.833,152.5 234.167,152.5 235.5,152.5C 237.302,153.458 239.302,154.125 241.5,154.5C 244.167,156.5 246.5,158.833 248.5,161.5C 249.272,165.452 249.605,169.452 249.5,173.5C 248.596,174.209 248.263,175.209 248.5,176.5C 247.662,176.842 247.328,177.508 247.5,178.5C 246.662,178.842 246.328,179.508 246.5,180.5C 245.662,180.842 245.328,181.508 245.5,182.5C 244.662,182.842 244.328,183.508 244.5,184.5C 243.662,184.842 243.328,185.508 243.5,186.5C 241.395,189.049 241.395,191.715 243.5,194.5C 243.92,204.597 243.254,214.597 241.5,224.5C 240.596,225.209 240.263,226.209 240.5,227.5C 239.833,227.5 239.5,227.833 239.5,228.5C 238.662,228.842 238.328,229.508 238.5,230.5C 237.833,230.5 237.5,230.833 237.5,231.5C 235.833,232.5 234.5,233.833 233.5,235.5C 232.833,235.5 232.5,235.833 232.5,236.5C 231.833,236.5 231.5,236.833 231.5,237.5C 230.508,237.328 229.842,237.662 229.5,238.5C 228.508,238.328 227.842,238.662 227.5,239.5C 226.209,239.263 225.209,239.596 224.5,240.5C 220.5,240.5 216.5,240.5 212.5,240.5C 211.5,239.167 210.5,239.167 209.5,240.5C 208.508,240.328 207.842,240.662 207.5,241.5C 206.209,241.263 205.209,241.596 204.5,242.5C 203.508,242.328 202.842,242.662 202.5,243.5C 193.551,245.572 184.551,245.905 175.5,244.5C 172.984,245.33 170.65,246.33 168.5,247.5C 154.832,250.056 141.165,250.056 127.5,247.5C 113.835,250.056 100.168,250.056 86.5,247.5C 81.3096,244.793 75.6429,244.126 69.5,245.5C 63.7347,245.533 58.068,244.866 52.5,243.5C 51.2196,242.069 49.5529,241.402 47.5,241.5C 46.6261,240.475 45.4595,239.808 44,239.5C 39.5536,240.412 35.0536,240.745 30.5,240.5C 29.791,239.596 28.791,239.263 27.5,239.5C 23.9026,237.244 20.5693,234.577 17.5,231.5C 17.0679,230.29 16.4013,229.29 15.5,228.5C 14.1421,224.752 12.8087,221.086 11.5,217.5C 11.3336,209.826 11.5003,202.159 12,194.5C 13.7657,191.497 13.599,188.83 11.5,186.5C 10.3411,182.849 8.6744,179.515 6.5,176.5C 6.73731,175.209 6.40397,174.209 5.5,173.5C 5.39458,169.452 5.72791,165.452 6.5,161.5C 9.65606,156.759 13.9894,153.759 19.5,152.5C 20.8333,152.5 22.1667,152.5 23.5,152.5C 23.5,147.833 23.5,143.167 23.5,138.5C 24.2891,138.217 24.9558,137.717 25.5,137C 35.1609,136.5 44.8276,136.334 54.5,136.5C 54.8333,137.5 55.5,138.167 56.5,138.5C 56.5,142.167 56.5,145.833 56.5,149.5C 74.8017,148.099 93.135,147.432 111.5,147.5C 111.334,143.154 111.501,138.821 112,134.5C 112.717,133.956 113.217,133.289 113.5,132.5 Z M 118.5,139.5 C 124.334,140.813 130.167,140.813 136,139.5C 136.497,142.146 136.664,144.813 136.5,147.5C 130.5,147.5 124.5,147.5 118.5,147.5C 118.5,144.833 118.5,142.167 118.5,139.5 Z M 30.5,143.5 C 36.8333,143.5 43.1667,143.5 49.5,143.5C 49.5,145.833 49.5,148.167 49.5,150.5C 43.1487,150.557 36.8154,150.89 30.5,151.5C 30.5,148.833 30.5,146.167 30.5,143.5 Z M 205.5,143.5 C 211.833,143.5 218.167,143.5 224.5,143.5C 224.5,146.167 224.5,148.833 224.5,151.5C 218.185,150.89 211.851,150.557 205.5,150.5C 205.5,148.167 205.5,145.833 205.5,143.5 Z M 237.5,161.5 C 236.448,161.351 235.448,161.517 234.5,162C 239.409,163.332 241.742,166.499 241.5,171.5C 241.737,172.791 241.404,173.791 240.5,174.5C 240.631,173.761 240.464,173.094 240,172.5C 239.209,173.745 238.709,175.078 238.5,176.5C 237.833,175.833 237.167,175.167 236.5,174.5C 236.5,173.833 236.167,173.5 235.5,173.5C 235.5,172.833 235.167,172.5 234.5,172.5C 233.295,170.862 231.962,170.529 230.5,171.5C 228.167,171.5 225.833,171.5 223.5,171.5C 222.279,170.535 220.946,170.702 219.5,172C 217.382,173.049 215.716,174.549 214.5,176.5C 213.833,175.167 213.167,173.833 212.5,172.5C 212.5,170.833 212.5,169.167 212.5,167.5C 212.938,167.565 213.272,167.399 213.5,167C 212.094,164.551 210.094,163.551 207.5,164C 206.262,164.69 206.262,165.19 207.5,165.5C 206.488,166.872 205.488,168.205 204.5,169.5C 204.494,174.215 203.994,178.882 203,183.5C 202.209,182.255 201.709,180.922 201.5,179.5C 201.938,179.565 202.272,179.399 202.5,179C 201.364,177.855 200.364,176.688 199.5,175.5C 192.833,168.833 186.167,168.833 179.5,175.5C 178.71,174.391 178.21,173.058 178,171.5C 177.211,173.712 177.378,175.712 178.5,177.5C 178.217,178.289 177.717,178.956 177,179.5C 176.306,175.446 176.473,171.446 177.5,167.5C 178.043,167.44 178.376,167.107 178.5,166.5C 176.067,161.97 173.067,161.47 169.5,165C 169.728,165.399 170.062,165.565 170.5,165.5C 169.804,169.452 169.304,173.452 169,177.5C 168.283,176.956 167.783,176.289 167.5,175.5C 168.629,173.372 168.796,171.039 168,168.5C 167.802,170.382 167.302,172.048 166.5,173.5C 164.393,170.443 161.726,169.11 158.5,169.5C 154.846,169.058 151.179,168.724 147.5,168.5C 145.401,169.612 143.067,170.279 140.5,170.5C 140.158,171.338 139.492,171.672 138.5,171.5C 138.565,171.062 138.399,170.728 138,170.5C 137.005,171.066 136.172,171.733 135.5,172.5C 134.833,172.5 134.5,172.833 134.5,173.5C 132.895,174.006 132.561,174.673 133.5,175.5C 133.573,177.027 132.906,178.027 131.5,178.5C 131.5,173.5 131.5,168.5 131.5,163.5C 130.662,163.158 130.328,162.492 130.5,161.5C 129.508,161.672 128.842,161.338 128.5,160.5C 127.833,160.5 127.167,160.5 126.5,160.5C 126.158,161.338 125.492,161.672 124.5,161.5C 124.672,162.492 124.338,163.158 123.5,163.5C 123.5,168.5 123.5,173.5 123.5,178.5C 121.167,176.833 119.167,174.833 117.5,172.5C 118.547,171.922 118.38,171.256 117,170.5C 116.601,170.728 116.435,171.062 116.5,171.5C 114.447,171.598 112.78,170.931 111.5,169.5C 114.097,169.279 114.097,168.779 111.5,168C 109.934,167.235 108.601,167.402 107.5,168.5C 103.821,168.724 100.154,169.058 96.5,169.5C 93.2742,169.11 90.6075,170.443 88.5,173.5C 87.6981,172.048 87.1981,170.382 87,168.5C 86.2042,171.039 86.3709,173.372 87.5,175.5C 87.2172,176.289 86.7172,176.956 86,177.5C 85.6958,173.452 85.1958,169.452 84.5,165.5C 84.9382,165.565 85.2716,165.399 85.5,165C 82.8333,161.667 80.1667,161.667 77.5,165C 77.7284,165.399 78.0618,165.565 78.5,165.5C 78.3739,170.056 78.2072,174.723 78,179.5C 77.2828,178.956 76.7828,178.289 76.5,177.5C 77.6225,175.712 77.7891,173.712 77,171.5C 76.79,173.058 76.29,174.391 75.5,175.5C 71.1108,170.445 65.7774,169.278 59.5,172C 58.001,172.838 57.6676,173.671 58.5,174.5C 57.5,176.167 56.1667,177.5 54.5,178.5C 53.9222,177.453 53.2555,177.62 52.5,179C 52.7284,179.399 53.0618,179.565 53.5,179.5C 53.2914,180.922 52.7914,182.255 52,183.5C 51.553,177.13 50.053,171.13 47.5,165.5C 48.7383,165.19 48.7383,164.69 47.5,164C 44.9063,163.551 42.9063,164.551 41.5,167C 41.7284,167.399 42.0618,167.565 42.5,167.5C 43.3352,171.34 43.3352,175.006 42.5,178.5C 42.6602,176.801 42.4935,175.134 42,173.5C 41.7679,174.737 41.2679,175.737 40.5,176.5C 38.2597,174.034 35.593,172.034 32.5,170.5C 31.8933,170.624 31.56,170.957 31.5,171.5C 29.1667,171.5 26.8333,171.5 24.5,171.5C 23.0379,170.529 21.7046,170.862 20.5,172.5C 19.8333,172.5 19.5,172.833 19.5,173.5C 18.1667,173.833 18.1667,174.167 19.5,174.5C 19.573,176.027 18.9063,177.027 17.5,177.5C 17.5,176.833 17.1667,176.5 16.5,176.5C 16.2914,175.078 15.7914,173.745 15,172.5C 14.5357,173.094 14.369,173.761 14.5,174.5C 13.0598,173.054 12.3932,171.221 12.5,169C 12.5143,167.615 12.8476,166.449 13.5,165.5C 13.3379,167.527 13.5045,169.527 14,171.5C 13.3458,166.287 15.5124,163.121 20.5,162C 19.552,161.517 18.552,161.351 17.5,161.5C 21.5911,160.105 25.9244,159.272 30.5,159C 95.1667,153 159.833,153 224.5,159C 229.076,159.272 233.409,160.105 237.5,161.5 Z M 20.5,172.5 C 21.1667,172.5 21.8333,172.5 22.5,172.5C 22.0269,173.906 21.0269,174.573 19.5,174.5C 19.5,174.167 19.5,173.833 19.5,173.5C 20.1667,173.5 20.5,173.167 20.5,172.5 Z M 135.5,172.5 C 136.167,172.5 136.833,172.5 137.5,172.5C 137.027,173.906 136.027,174.573 134.5,174.5C 134.5,174.167 134.5,173.833 134.5,173.5C 135.167,173.5 135.5,173.167 135.5,172.5 Z M 232.5,172.5 C 233.167,172.5 233.833,172.5 234.5,172.5C 235.167,172.5 235.5,172.833 235.5,173.5C 236.167,173.5 236.5,173.833 236.5,174.5C 236.5,175.167 236.5,175.833 236.5,176.5C 234.833,175.5 233.5,174.167 232.5,172.5 Z M 197.5,175.5 C 198.167,175.5 198.833,175.5 199.5,175.5C 199.5,176.167 199.5,176.833 199.5,177.5C 198.5,177.167 197.833,176.5 197.5,175.5 Z M 15.5,176.5 C 15.8333,176.5 16.1667,176.5 16.5,176.5C 17.1667,176.5 17.5,176.833 17.5,177.5C 16.6987,179.793 16.032,179.46 15.5,176.5 Z M 98.5,177.5 C 102.167,176.167 105.833,176.167 109.5,177.5C 110.791,177.263 111.791,177.596 112.5,178.5C 110.335,179.062 110.668,179.729 113.5,180.5C 113.833,181.5 114.5,182.167 115.5,182.5C 115.5,183.167 115.833,183.5 116.5,183.5C 116.709,184.922 117.209,186.255 118,187.5C 118.464,186.906 118.631,186.239 118.5,185.5C 119.404,186.209 119.737,187.209 119.5,188.5C 121.011,191.544 121.678,194.878 121.5,198.5C 122.314,200.631 122.814,202.964 123,205.5C 123.5,217.495 123.667,229.495 123.5,241.5C 111.577,243.02 99.9098,242.353 88.5,239.5C 86.901,239.768 85.5676,239.434 84.5,238.5C 83.3427,229.676 83.176,220.676 84,211.5C 84.4314,205.223 85.5981,199.223 87.5,193.5C 87.2322,191.901 87.5655,190.568 88.5,189.5C 88.2627,188.209 88.596,187.209 89.5,186.5C 89.2291,184.62 89.8958,183.287 91.5,182.5C 91.4346,182.938 91.6012,183.272 92,183.5C 94.8634,180.485 98.3634,178.651 102.5,178C 101.207,177.51 99.8734,177.343 98.5,177.5 Z M 156.5,177.5 C 155.127,177.343 153.793,177.51 152.5,178C 159.106,178.607 163.273,182.107 165,188.5C 165.464,187.906 165.631,187.239 165.5,186.5C 166.404,187.209 166.737,188.209 166.5,189.5C 169.058,196.828 170.558,204.495 171,212.5C 171.824,221.343 171.657,230.01 170.5,238.5C 167.742,239.761 164.742,240.594 161.5,241C 156.327,241.44 151.161,241.94 146,242.5C 141.189,241.802 136.356,241.469 131.5,241.5C 131.333,229.495 131.5,217.495 132,205.5C 132.358,199.538 133.525,193.871 135.5,188.5C 135.263,187.209 135.596,186.209 136.5,185.5C 136.328,184.508 136.662,183.842 137.5,183.5C 137.833,184.833 138.167,184.833 138.5,183.5C 139.833,182.833 140.833,181.833 141.5,180.5C 144.332,179.729 144.665,179.062 142.5,178.5C 143.209,177.596 144.209,177.263 145.5,177.5C 149.167,176.167 152.833,176.167 156.5,177.5 Z M 238.5,176.5 C 238.833,176.5 239.167,176.5 239.5,176.5C 238.968,179.46 238.301,179.793 237.5,177.5C 238.167,177.5 238.5,177.167 238.5,176.5 Z M 228.5,179.5 C 224.5,179.833 224.5,180.167 228.5,180.5C 228.5,181.167 228.833,181.5 229.5,181.5C 229.833,182.833 230.167,182.833 230.5,181.5C 232.104,182.287 232.771,183.62 232.5,185.5C 233.404,186.209 233.737,187.209 233.5,188.5C 235.865,193.793 236.865,199.46 236.5,205.5C 236.646,210.424 235.979,215.091 234.5,219.5C 234.768,221.099 234.434,222.432 233.5,223.5C 233.649,222.448 233.483,221.448 233,220.5C 232.427,222.641 231.594,224.641 230.5,226.5C 229.833,226.5 229.5,226.833 229.5,227.5C 228.833,227.5 228.5,227.833 228.5,228.5C 226.86,229.32 225.193,230.153 223.5,231C 224.094,231.464 224.761,231.631 225.5,231.5C 224.791,232.404 223.791,232.737 222.5,232.5C 219.713,233.477 216.713,233.81 213.5,233.5C 213.422,226.485 213.089,219.485 212.5,212.5C 211.539,210.735 211.205,208.735 211.5,206.5C 210.566,205.432 210.232,204.099 210.5,202.5C 209.566,201.432 209.232,200.099 209.5,198.5C 211.735,195.709 213.735,192.709 215.5,189.5C 216.167,189.5 216.5,189.167 216.5,188.5C 218.641,185.528 221.308,183.028 224.5,181C 224.272,180.601 223.938,180.435 223.5,180.5C 224.879,178.403 226.545,178.07 228.5,179.5 Z M 26.5,179.5 C 26.5,179.833 26.5,180.167 26.5,180.5C 25.8333,180.5 25.5,180.833 25.5,181.5C 25.1667,181.5 24.8333,181.5 24.5,181.5C 24.5,180.167 25.1667,179.5 26.5,179.5 Z M 29.5,179.5 C 30.4916,179.328 31.1583,179.662 31.5,180.5C 36.1694,185.916 40.836,191.916 45.5,198.5C 45.4349,201.428 44.7682,204.095 43.5,206.5C 43.7845,208.415 43.4511,210.081 42.5,211.5C 42.2322,218.683 41.5655,225.683 40.5,232.5C 40.6655,228.486 40.4988,224.486 40,220.5C 39.5014,224.152 39.3347,227.818 39.5,231.5C 36.9407,231.198 34.6074,231.532 32.5,232.5C 31.209,232.737 30.209,232.404 29.5,231.5C 30.2389,231.631 30.9056,231.464 31.5,231C 29.8068,230.153 28.1401,229.32 26.5,228.5C 26.5,227.833 26.1667,227.5 25.5,227.5C 25.5,226.833 25.1667,226.5 24.5,226.5C 23.4058,224.641 22.5725,222.641 22,220.5C 21.5172,221.448 21.3505,222.448 21.5,223.5C 19.1183,218.039 18.1183,212.205 18.5,206C 18.3437,200.91 19.0103,196.077 20.5,191.5C 20.2627,190.209 20.596,189.209 21.5,188.5C 21.2627,187.209 21.596,186.209 22.5,185.5C 22.2627,184.209 22.596,183.209 23.5,182.5C 24.0623,184.665 24.729,184.332 25.5,181.5C 26.1667,181.5 26.5,181.167 26.5,180.5C 27.791,180.737 28.791,180.404 29.5,179.5 Z M 42.5,179.5 C 44.2252,179.843 44.7252,180.843 44,182.5C 43.4867,181.473 42.9867,180.473 42.5,179.5 Z M 212.5,179.5 C 212.013,180.473 211.513,181.473 211,182.5C 210.275,180.843 210.775,179.843 212.5,179.5 Z M 228.5,180.5 C 228.5,180.167 228.5,179.833 228.5,179.5C 229.833,179.5 230.5,180.167 230.5,181.5C 230.167,181.5 229.833,181.5 229.5,181.5C 228.833,181.5 228.5,181.167 228.5,180.5 Z M 63.5,180.5 C 63.5,180.833 63.5,181.167 63.5,181.5C 62.8333,181.5 62.5,181.833 62.5,182.5C 62.1667,182.5 61.8333,182.5 61.5,182.5C 61.5,181.167 62.1667,180.5 63.5,180.5 Z M 67.5,180.5 C 68.4916,180.328 69.1583,180.662 69.5,181.5C 69.0618,181.435 68.7284,181.601 68.5,182C 71.7621,184.592 74.2621,187.759 76,191.5C 76.69,192.738 77.19,192.738 77.5,191.5C 78.8799,191.962 79.5466,192.962 79.5,194.5C 76.5897,209.068 75.5897,223.734 76.5,238.5C 69.907,238.915 63.5737,238.248 57.5,236.5C 58.8734,236.657 60.2068,236.49 61.5,236C 59.6447,235.578 57.8114,235.078 56,234.5C 55.2352,234.57 54.7352,234.903 54.5,235.5C 53.209,235.737 52.209,235.404 51.5,234.5C 54.1667,234.167 54.1667,233.833 51.5,233.5C 50.1874,220.324 49.5208,220.324 49.5,233.5C 48.4358,223.672 49.4358,214.005 52.5,204.5C 52.2322,202.901 52.5655,201.568 53.5,200.5C 53.2627,199.209 53.596,198.209 54.5,197.5C 54.2594,195.102 54.9261,193.102 56.5,191.5C 56.369,192.239 56.5357,192.906 57,193.5C 58.298,192.054 58.4646,190.721 57.5,189.5C 57.3284,188.508 57.6618,187.842 58.5,187.5C 58.3284,186.508 58.6618,185.842 59.5,185.5C 59.4346,185.938 59.6012,186.272 60,186.5C 61.0946,185.307 61.928,183.973 62.5,182.5C 63.1667,182.5 63.5,182.167 63.5,181.5C 65.099,181.768 66.4324,181.434 67.5,180.5 Z M 115.5,180.5 C 116.906,180.973 117.573,181.973 117.5,183.5C 117.167,183.5 116.833,183.5 116.5,183.5C 115.833,183.5 115.5,183.167 115.5,182.5C 115.5,181.833 115.5,181.167 115.5,180.5 Z M 185.5,181.5 C 185.842,180.662 186.508,180.328 187.5,180.5C 188.568,181.434 189.901,181.768 191.5,181.5C 191.5,182.167 191.833,182.5 192.5,182.5C 192.987,183.473 193.487,184.473 194,185.5C 194.69,186.738 195.19,186.738 195.5,185.5C 196.338,185.842 196.672,186.508 196.5,187.5C 197.338,187.842 197.672,188.508 197.5,189.5C 196.535,190.721 196.702,192.054 198,193.5C 198.464,192.906 198.631,192.239 198.5,191.5C 200.074,193.102 200.741,195.102 200.5,197.5C 201.404,198.209 201.737,199.209 201.5,200.5C 202.434,201.568 202.768,202.901 202.5,204.5C 204.51,210.544 205.676,216.877 206,223.5C 206.808,227.027 206.641,230.36 205.5,233.5C 205.476,221.66 204.809,221.66 203.5,233.5C 200.833,233.833 200.833,234.167 203.5,234.5C 202.791,235.404 201.791,235.737 200.5,235.5C 200.265,234.903 199.765,234.57 199,234.5C 197.189,235.078 195.355,235.578 193.5,236C 194.793,236.49 196.127,236.657 197.5,236.5C 191.426,238.248 185.093,238.915 178.5,238.5C 179.32,223.749 178.32,209.082 175.5,194.5C 175.543,193.584 175.876,192.917 176.5,192.5C 176.351,193.552 176.517,194.552 177,195.5C 177.309,194.234 177.809,193.067 178.5,192C 178.272,191.601 177.938,191.435 177.5,191.5C 177.328,190.508 177.662,189.842 178.5,189.5C 178.427,187.973 179.094,186.973 180.5,186.5C 180.435,186.938 180.601,187.272 181,187.5C 182.833,185.667 184.667,183.833 186.5,182C 186.272,181.601 185.938,181.435 185.5,181.5 Z M 191.5,181.5 C 191.5,181.167 191.5,180.833 191.5,180.5C 192.833,180.5 193.5,181.167 193.5,182.5C 193.167,182.5 192.833,182.5 192.5,182.5C 191.833,182.5 191.5,182.167 191.5,181.5 Z M 216.5,186.5 C 216.5,187.167 216.5,187.833 216.5,188.5C 215.833,188.5 215.5,188.833 215.5,189.5C 215.167,189.5 214.833,189.5 214.5,189.5C 214.427,187.973 215.094,186.973 216.5,186.5 Z M 23.5,226.5 C 23.8333,226.5 24.1667,226.5 24.5,226.5C 25.1667,226.5 25.5,226.833 25.5,227.5C 26.1667,227.5 26.5,227.833 26.5,228.5C 26.5,228.833 26.5,229.167 26.5,229.5C 24.5,229.5 23.5,228.5 23.5,226.5 Z M 230.5,226.5 C 230.833,226.5 231.167,226.5 231.5,226.5C 231.5,228.5 230.5,229.5 228.5,229.5C 228.5,229.167 228.5,228.833 228.5,228.5C 229.167,228.5 229.5,228.167 229.5,227.5C 230.167,227.5 230.5,227.167 230.5,226.5 Z"/></g>
<g><path style="opacity:0.011" fill="#037bc4" d="M 79.5,135.5 C 81.6282,134.371 83.9615,134.204 86.5,135C 84.1902,135.497 81.8568,135.663 79.5,135.5 Z"/></g>
<g><path style="opacity:0.011" fill="#037bc4" d="M 168.5,135.5 C 170.628,134.371 172.961,134.204 175.5,135C 173.19,135.497 170.857,135.663 168.5,135.5 Z"/></g>
<g><path style="opacity:0.008" fill="#047bc4" d="M 54.5,135.5 C 55.8333,136.167 55.8333,136.167 54.5,135.5 Z"/></g>
<g><path style="opacity:0.004" fill="#047ec2" d="M 109.5,134.5 C 110.525,134.897 110.692,135.563 110,136.5C 109.536,135.906 109.369,135.239 109.5,134.5 Z"/></g>
<g><path style="opacity:0.004" fill="#057cc4" d="M 144.5,134.5 C 145.525,134.897 145.692,135.563 145,136.5C 144.536,135.906 144.369,135.239 144.5,134.5 Z"/></g>
<g><path style="opacity:0.004" fill="#047bc5" d="M 229.5,135.5 C 230.833,136.167 230.833,136.167 229.5,135.5 Z"/></g>
<g><path style="opacity:0.004" fill="#067bc4" d="M 23.5,138.5 C 22.8333,137.167 22.8333,137.167 23.5,138.5 Z"/></g>
<g><path style="opacity:0.008" fill="#047ac6" d="M 57.5,138.5 C 56.8333,137.167 56.8333,137.167 57.5,138.5 Z"/></g>
<g><path style="opacity:0.008" fill="#037bc5" d="M 198.5,138.5 C 197.833,137.167 197.833,137.167 198.5,138.5 Z"/></g>
<g><path style="opacity:0.004" fill="#047bc5" d="M 232.5,138.5 C 231.833,137.167 231.833,137.167 232.5,138.5 Z"/></g>
<g><path style="opacity:0.012" fill="#037bc4" d="M 22.5,138.5 C 22.6657,142.846 22.499,147.179 22,151.5C 21.1864,146.98 21.353,142.646 22.5,138.5 Z"/></g>
<g><path style="opacity:0.009" fill="#037bc4" d="M 57.5,138.5 C 58.4767,141.287 58.81,144.287 58.5,147.5C 62.1716,148.045 61.8383,148.378 57.5,148.5C 57.5,145.167 57.5,141.833 57.5,138.5 Z"/></g>
<g><path style="opacity:0.009" fill="#027bc4" d="M 197.5,138.5 C 197.5,141.833 197.5,145.167 197.5,148.5C 193.162,148.378 192.828,148.045 196.5,147.5C 196.19,144.287 196.523,141.287 197.5,138.5 Z"/></g>
<g><path style="opacity:0.012" fill="#027bc4" d="M 232.5,138.5 C 233.647,142.646 233.814,146.98 233,151.5C 232.501,147.179 232.334,142.846 232.5,138.5 Z"/></g>
<g><path style="opacity:0.013" fill="#047cc4" d="M 31.5,144.5 C 37.1667,144.5 42.8333,144.5 48.5,144.5C 48.5,146.167 48.5,147.833 48.5,149.5C 45.4816,149.665 42.4816,149.498 39.5,149C 42.146,148.503 44.8127,148.336 47.5,148.5C 47.5,147.5 47.5,146.5 47.5,145.5C 42.5,145.5 37.5,145.5 32.5,145.5C 32.5,146.833 32.5,148.167 32.5,149.5C 37.5,150.003 37.1667,150.336 31.5,150.5C 31.5,148.5 31.5,146.5 31.5,144.5 Z"/></g>
<g><path style="opacity:0.012" fill="#047bc4" d="M 206.5,144.5 C 212.167,144.5 217.833,144.5 223.5,144.5C 223.5,146.5 223.5,148.5 223.5,150.5C 217.833,150.336 217.5,150.003 222.5,149.5C 222.5,148.167 222.5,146.833 222.5,145.5C 217.5,145.5 212.5,145.5 207.5,145.5C 207.5,146.5 207.5,147.5 207.5,148.5C 210.187,148.336 212.854,148.503 215.5,149C 212.518,149.498 209.518,149.665 206.5,149.5C 206.5,147.833 206.5,146.167 206.5,144.5 Z"/></g>
<g><path style="opacity:0.011" fill="#037bc4" d="M 86.5,146.5 C 94.3225,145.344 102.323,145.177 110.5,146C 102.507,146.5 94.5069,146.666 86.5,146.5 Z"/></g>
<g><path style="opacity:0.011" fill="#037bc4" d="M 144.5,146.5 C 152.323,145.344 160.323,145.177 168.5,146C 160.507,146.5 152.507,146.666 144.5,146.5 Z"/></g>
<g><path style="opacity:0.008" fill="#047bc4" d="M 66.5,147.5 C 70.6463,146.353 74.9796,146.186 79.5,147C 75.1794,147.499 70.8461,147.666 66.5,147.5 Z"/></g>
<g><path style="opacity:0.008" fill="#047bc4" d="M 175.5,147.5 C 179.646,146.353 183.98,146.186 188.5,147C 184.179,147.499 179.846,147.666 175.5,147.5 Z"/></g>
<g><path style="opacity:0.014" fill="#037bc4" d="M 19.5,152.5 C 18.448,152.649 17.448,152.483 16.5,152C 17.7494,151.26 18.7494,151.427 19.5,152.5 Z"/></g>
<g><path style="opacity:0.01" fill="#047bc4" d="M 235.5,152.5 C 236.251,151.427 237.251,151.26 238.5,152C 237.552,152.483 236.552,152.649 235.5,152.5 Z"/></g>
<g><path style="opacity:0.012" fill="#037bc5" d="M 241.5,153.5 C 242.833,154.167 242.833,154.167 241.5,153.5 Z"/></g>
<g><path style="opacity:0.004" fill="#037ac5" d="M 6.5,158.5 C 7.83333,159.167 7.83333,159.167 6.5,158.5 Z"/></g>
<g><path style="opacity:0.012" fill="#037ac4" d="M 6.5,161.5 C 5.83333,160.167 5.83333,160.167 6.5,161.5 Z"/></g>
<g><path style="opacity:0.012" fill="#037ac4" d="M 248.5,160.5 C 249.833,161.167 249.833,161.167 248.5,160.5 Z"/></g>
<g><path style="opacity:0.012" fill="#037bc3" d="M 4.5,162.5 C 5.83333,163.167 5.83333,163.167 4.5,162.5 Z"/></g>
<g><path style="opacity:0.011" fill="#037bc4" d="M 4.5,173.5 C 3.36216,170.696 3.19549,167.696 4,164.5C 4.49796,167.482 4.66463,170.482 4.5,173.5 Z"/></g>
<g><path style="opacity:0.011" fill="#037bc4" d="M 250.5,173.5 C 250.335,170.482 250.502,167.482 251,164.5C 251.805,167.696 251.638,170.696 250.5,173.5 Z"/></g>
<g><path style="opacity:0.011" fill="#037ac4" d="M 88.5,173.5 C 88.5,173.833 88.5,174.167 88.5,174.5C 87.8333,174.5 87.5,174.833 87.5,175.5C 86.3709,173.372 86.2042,171.039 87,168.5C 87.1981,170.382 87.6981,172.048 88.5,173.5 Z"/></g>
<g><path style="opacity:0.011" fill="#037bc4" d="M 167.5,175.5 C 167.5,174.833 167.167,174.5 166.5,174.5C 166.5,174.167 166.5,173.833 166.5,173.5C 167.302,172.048 167.802,170.382 168,168.5C 168.796,171.039 168.629,173.372 167.5,175.5 Z"/></g>
<g><path style="opacity:0.014" fill="#047bc4" d="M 76.5,177.5 C 76.5,176.833 76.1667,176.5 75.5,176.5C 75.5,176.167 75.5,175.833 75.5,175.5C 76.29,174.391 76.79,173.058 77,171.5C 77.7891,173.712 77.6225,175.712 76.5,177.5 Z"/></g>
<g><path style="opacity:0.013" fill="#047bc3" d="M 179.5,175.5 C 179.5,175.833 179.5,176.167 179.5,176.5C 178.833,176.5 178.5,176.833 178.5,177.5C 177.378,175.712 177.211,173.712 178,171.5C 178.21,173.058 178.71,174.391 179.5,175.5 Z"/></g>
<g><path style="opacity:0.012" fill="#037ac4" d="M 212.5,172.5 C 213.167,173.833 213.833,175.167 214.5,176.5C 214.5,176.833 214.5,177.167 214.5,177.5C 213.833,177.5 213.5,177.833 213.5,178.5C 213.167,178.5 212.833,178.5 212.5,178.5C 212.5,176.5 212.5,174.5 212.5,172.5 Z"/></g>
<g><path style="opacity:0.013" fill="#037bc4" d="M 42.5,178.5 C 42.1667,178.5 41.8333,178.5 41.5,178.5C 41.5,177.833 41.1667,177.5 40.5,177.5C 40.5,177.167 40.5,176.833 40.5,176.5C 41.2679,175.737 41.7679,174.737 42,173.5C 42.4935,175.134 42.6602,176.801 42.5,178.5 Z"/></g>
<g><path style="opacity:0.008" fill="#037bc4" d="M 249.5,173.5 C 249.833,173.5 250.167,173.5 250.5,173.5C 250.167,176.167 249.833,176.167 249.5,173.5 Z"/></g>
<g><path style="opacity:0.012" fill="#047bc4" d="M 4.5,173.5 C 4.83333,173.5 5.16667,173.5 5.5,173.5C 5.16667,176.167 4.83333,176.167 4.5,173.5 Z"/></g>
<g><path style="opacity:0.012" fill="#037ac4" d="M 6.5,176.5 C 5.83333,177.167 5.83333,177.167 6.5,176.5 Z"/></g>
<g><path style="opacity:0.012" fill="#037ac5" d="M 248.5,176.5 C 249.833,177.167 249.833,177.167 248.5,176.5 Z"/></g>
<g><path style="opacity:0.008" fill="#037bc4" d="M 247.5,178.5 C 248.833,179.167 248.833,179.833 247.5,180.5C 247.5,179.833 247.5,179.167 247.5,178.5 Z"/></g>
<g><path style="opacity:0.005" fill="#037bc4" d="M 113.5,180.5 C 114.167,180.5 114.833,180.5 115.5,180.5C 115.5,181.167 115.5,181.833 115.5,182.5C 114.5,182.167 113.833,181.5 113.5,180.5 Z"/></g>
<g><path style="opacity:0.008" fill="#037bc4" d="M 246.5,180.5 C 246.833,180.5 247.167,180.5 247.5,180.5C 247.672,181.492 247.338,182.158 246.5,182.5C 246.5,181.833 246.5,181.167 246.5,180.5 Z"/></g>
<g><path style="opacity:0.005" fill="#037bc4" d="M 139.5,180.5 C 140.167,180.5 140.833,180.5 141.5,180.5C 140.833,181.833 139.833,182.833 138.5,183.5C 138.5,182.833 138.5,182.167 138.5,181.5C 139.167,181.5 139.5,181.167 139.5,180.5 Z"/></g>
<g><path style="opacity:0.01" fill="#027bc4" d="M 245.5,182.5 C 245.833,182.5 246.167,182.5 246.5,182.5C 246.672,183.492 246.338,184.158 245.5,184.5C 245.5,183.833 245.5,183.167 245.5,182.5 Z"/></g>
<g><path style="opacity:0.008" fill="#037bc4" d="M 244.5,184.5 C 244.833,184.5 245.167,184.5 245.5,184.5C 245.672,185.492 245.338,186.158 244.5,186.5C 244.5,185.833 244.5,185.167 244.5,184.5 Z"/></g>
<g><path style="opacity:0.008" fill="#047bc4" d="M 243.5,186.5 C 243.833,186.5 244.167,186.5 244.5,186.5C 244.167,189.167 243.833,189.167 243.5,186.5 Z"/></g>
<g><path style="opacity:0.008" fill="#047bc4" d="M 11.5,186.5 C 11.631,187.239 11.4643,187.906 11,188.5C 10.3083,187.563 10.475,186.897 11.5,186.5 Z"/></g>
<g><path style="opacity:0.794" fill="#037bc4" d="M 27.5,189.5 C 28.1667,189.5 28.8333,189.5 29.5,189.5C 30.6089,190.879 31.2755,192.545 31.5,194.5C 30.799,198.808 30.4657,203.141 30.5,207.5C 29.5,207.833 28.8333,208.5 28.5,209.5C 27.0695,209.579 25.7362,209.246 24.5,208.5C 23.5091,204.555 23.1758,200.555 23.5,196.5C 24.1036,193.782 25.437,191.449 27.5,189.5 Z"/></g>
<g><path style="opacity:0.794" fill="#037bc4" d="M 225.5,189.5 C 226.167,189.5 226.833,189.5 227.5,189.5C 229.563,191.449 230.896,193.782 231.5,196.5C 231.824,200.555 231.491,204.555 230.5,208.5C 229.264,209.246 227.93,209.579 226.5,209.5C 226.167,208.5 225.5,207.833 224.5,207.5C 224.706,202.343 224.039,197.343 222.5,192.5C 223.5,191.5 224.5,190.5 225.5,189.5 Z"/></g>
<g><path style="opacity:0.009" fill="#037bc3" d="M 10.5,190.5 C 11.5735,191.251 11.7401,192.251 11,193.5C 10.5172,192.552 10.3505,191.552 10.5,190.5 Z"/></g>
<g><path style="opacity:0.01" fill="#037bc4" d="M 243.5,194.5 C 243.343,193.127 243.51,191.793 244,190.5C 244.765,192.066 244.598,193.399 243.5,194.5 Z"/></g>
<g><path style="opacity:0.804" fill="#037bc4" d="M 67.5,194.5 C 67.5,195.167 67.5,195.833 67.5,196.5C 66.596,197.209 66.2627,198.209 66.5,199.5C 65.596,200.209 65.2627,201.209 65.5,202.5C 64.5655,203.568 64.2322,204.901 64.5,206.5C 63.2318,208.905 62.5651,211.572 62.5,214.5C 61.8333,214.5 61.5,214.833 61.5,215.5C 59.8333,215.5 58.1667,215.5 56.5,215.5C 56.5,214.833 56.1667,214.5 55.5,214.5C 55.5,212.5 55.5,210.5 55.5,208.5C 56.4345,207.432 56.7678,206.099 56.5,204.5C 57.4345,203.432 57.7678,202.099 57.5,200.5C 58.404,199.791 58.7373,198.791 58.5,197.5C 59.6737,196.486 60.3404,195.153 60.5,193.5C 63.0835,192.062 65.4168,192.396 67.5,194.5 Z"/></g>
<g><path style="opacity:0.795" fill="#037bc4" d="M 92.5,192.5 C 94.1667,192.5 95.8333,192.5 97.5,192.5C 97.5,193.167 97.8333,193.5 98.5,193.5C 97.3539,202.148 96.3539,210.814 95.5,219.5C 94.8333,219.5 94.5,219.833 94.5,220.5C 92.1417,220.747 90.1417,220.081 88.5,218.5C 89.0084,210.433 90.0084,202.433 91.5,194.5C 92.3382,194.158 92.6716,193.492 92.5,192.5 Z"/></g>
<g><path style="opacity:0.795" fill="#037bc4" d="M 157.5,192.5 C 159.167,192.5 160.833,192.5 162.5,192.5C 162.328,193.492 162.662,194.158 163.5,194.5C 163.676,197.727 164.343,200.727 165.5,203.5C 165.751,208.507 166.084,213.507 166.5,218.5C 164.858,220.081 162.858,220.747 160.5,220.5C 160.5,219.833 160.167,219.5 159.5,219.5C 158.646,210.814 157.646,202.148 156.5,193.5C 157.167,193.5 157.5,193.167 157.5,192.5 Z"/></g>
<g><path style="opacity:0.804" fill="#037bc4" d="M 193.5,192.5 C 193.5,193.167 193.833,193.5 194.5,193.5C 194.66,195.153 195.326,196.486 196.5,197.5C 196.263,198.791 196.596,199.791 197.5,200.5C 197.232,202.099 197.566,203.432 198.5,204.5C 198.232,206.099 198.566,207.432 199.5,208.5C 199.5,210.5 199.5,212.5 199.5,214.5C 198.833,214.5 198.5,214.833 198.5,215.5C 196.833,215.5 195.167,215.5 193.5,215.5C 193.5,214.833 193.167,214.5 192.5,214.5C 192.435,211.572 191.768,208.905 190.5,206.5C 190.768,204.901 190.434,203.568 189.5,202.5C 189.405,200.214 188.738,198.214 187.5,196.5C 187.5,195.833 187.5,195.167 187.5,194.5C 189.142,192.919 191.142,192.253 193.5,192.5 Z"/></g>
<g><path style="opacity:0.01" fill="#047bc4" d="M 9.5,195.5 C 10.6291,197.628 10.7958,199.961 10,202.5C 9.50335,200.19 9.33669,197.857 9.5,195.5 Z"/></g>
<g><path style="opacity:0.011" fill="#037bc4" d="M 244.5,195.5 C 245.634,197.966 245.801,200.633 245,203.5C 244.503,200.854 244.336,198.187 244.5,195.5 Z"/></g>
<g><path style="opacity:0.011" fill="#037bc4" d="M 244.5,207.5 C 245.634,209.966 245.801,212.633 245,215.5C 244.503,212.854 244.336,210.187 244.5,207.5 Z"/></g>
<g><path style="opacity:0.01" fill="#037bc4" d="M 9.5,209.5 C 10.6291,211.628 10.7958,213.961 10,216.5C 9.50335,214.19 9.33669,211.857 9.5,209.5 Z"/></g>
<g><path style="opacity:0.755" fill="#037bc4" d="M 24.5,211.5 C 25.9354,210.904 27.602,210.904 29.5,211.5C 29.8333,212.5 30.5,213.167 31.5,213.5C 31.2322,215.099 31.5655,216.432 32.5,217.5C 31.8902,218.391 31.5569,219.391 31.5,220.5C 29.9582,221.301 28.2915,221.634 26.5,221.5C 26.1667,220.5 25.5,219.833 24.5,219.5C 24.5,217.167 24.5,214.833 24.5,212.5C 25.8333,212.167 25.8333,211.833 24.5,211.5 Z"/></g>
<g><path style="opacity:0.755" fill="#037bc4" d="M 225.5,211.5 C 226.5,211.5 227.5,211.5 228.5,211.5C 228.842,212.338 229.508,212.672 230.5,212.5C 230.5,214.833 230.5,217.167 230.5,219.5C 229.5,219.833 228.833,220.5 228.5,221.5C 226.708,221.634 225.042,221.301 223.5,220.5C 223.443,219.391 223.11,218.391 222.5,217.5C 223.434,216.432 223.768,215.099 223.5,213.5C 224.5,213.167 225.167,212.5 225.5,211.5 Z"/></g>
<g><path style="opacity:0.008" fill="#037bc4" d="M 84.5,238.5 C 84.3336,229.827 84.5002,221.16 85,212.5C 84.8779,221.263 85.7113,229.763 87.5,238C 86.552,238.483 85.552,238.649 84.5,238.5 Z"/></g>
<g><path style="opacity:0.007" fill="#027bc4" d="M 170.5,238.5 C 166.162,238.378 165.828,238.045 169.5,237.5C 169.334,229.493 169.5,221.493 170,213.5C 170.5,221.827 170.666,230.16 170.5,238.5 Z"/></g>
<g><path style="opacity:0.01" fill="#037bc4" d="M 56.5,216.5 C 57.8734,216.343 59.2068,216.51 60.5,217C 59.944,217.383 59.6107,217.883 59.5,218.5C 58.1667,218.5 56.8333,218.5 55.5,218.5C 55.8333,217.833 56.1667,217.167 56.5,216.5 Z"/></g>
<g><path style="opacity:0.01" fill="#037bc4" d="M 198.5,216.5 C 198.833,217.167 199.167,217.833 199.5,218.5C 198.167,218.5 196.833,218.5 195.5,218.5C 195.389,217.883 195.056,217.383 194.5,217C 195.793,216.51 197.127,216.343 198.5,216.5 Z"/></g>
<g><path style="opacity:0.01" fill="#027bc4" d="M 243.5,217.5 C 244.573,218.251 244.74,219.251 244,220.5C 243.517,219.552 243.351,218.552 243.5,217.5 Z"/></g>
<g><path style="opacity:0.009" fill="#037bc4" d="M 11.5,217.5 C 11.6567,218.873 11.49,220.207 11,221.5C 10.235,219.934 10.4017,218.601 11.5,217.5 Z"/></g>
<g><path style="opacity:0.742" fill="#037bc4" d="M 59.5,219.5 C 59.8333,220.5 60.5,221.167 61.5,221.5C 61.4174,225.176 60.4174,228.509 58.5,231.5C 56.4862,231.608 54.8195,230.942 53.5,229.5C 53.3677,226.43 53.701,223.43 54.5,220.5C 56.0418,219.699 57.7085,219.366 59.5,219.5 Z"/></g>
<g><path style="opacity:0.741" fill="#037bc4" d="M 195.5,219.5 C 198.358,219.028 200.358,220.028 201.5,222.5C 201.5,224.833 201.5,227.167 201.5,229.5C 200.5,229.833 199.833,230.5 199.5,231.5C 197.61,231.703 196.11,231.037 195,229.5C 194.178,226.883 193.678,224.216 193.5,221.5C 194.5,221.167 195.167,220.5 195.5,219.5 Z"/></g>
<g><path style="opacity:0.01" fill="#047bc4" d="M 40.5,232.5 C 37.8333,232.5 35.1667,232.5 32.5,232.5C 34.6074,231.532 36.9407,231.198 39.5,231.5C 39.3347,227.818 39.5014,224.152 40,220.5C 40.4988,224.486 40.6655,228.486 40.5,232.5 Z"/></g>
<g><path style="opacity:0.013" fill="#037bc4" d="M 90.5,222.5 C 91.5676,221.566 92.901,221.232 94.5,221.5C 94.5,222.167 94.5,222.833 94.5,223.5C 94.1667,223.5 93.8333,223.5 93.5,223.5C 92.791,222.596 91.791,222.263 90.5,222.5 Z"/></g>
<g><path style="opacity:0.013" fill="#037bc4" d="M 160.5,221.5 C 162.099,221.232 163.432,221.566 164.5,222.5C 163.209,222.263 162.209,222.596 161.5,223.5C 161.167,223.5 160.833,223.5 160.5,223.5C 160.5,222.833 160.5,222.167 160.5,221.5 Z"/></g>
<g><path style="opacity:0.01" fill="#027bc4" d="M 11.5,222.5 C 12.525,222.897 12.6917,223.563 12,224.5C 11.5357,223.906 11.369,223.239 11.5,222.5 Z"/></g>
<g><path style="opacity:0.01" fill="#027bc5" d="M 242.5,224.5 C 242.369,223.761 242.536,223.094 243,222.5C 243.692,223.437 243.525,224.103 242.5,224.5 Z"/></g>
<g><path style="opacity:0.761" fill="#037bc4" d="M 90.5,223.5 C 91.5,223.5 92.5,223.5 93.5,223.5C 93.8333,224.5 94.5,225.167 95.5,225.5C 95.5,228.167 95.5,230.833 95.5,233.5C 94.5,233.833 93.8333,234.5 93.5,235.5C 92.1667,235.5 90.8333,235.5 89.5,235.5C 89.5,234.833 89.1667,234.5 88.5,234.5C 88.0097,230.513 88.6764,226.846 90.5,223.5 Z"/></g>
<g><path style="opacity:0.76" fill="#037bc4" d="M 161.5,223.5 C 162.5,223.5 163.5,223.5 164.5,223.5C 166.324,226.846 166.99,230.513 166.5,234.5C 165.833,234.5 165.5,234.833 165.5,235.5C 164.167,235.5 162.833,235.5 161.5,235.5C 161.167,234.5 160.5,233.833 159.5,233.5C 159.5,230.833 159.5,228.167 159.5,225.5C 160.5,225.167 161.167,224.5 161.5,223.5 Z"/></g>
<g><path style="opacity:0.012" fill="#037bc4" d="M 51.5,233.5 C 50.8333,233.5 50.1667,233.5 49.5,233.5C 49.5208,220.324 50.1874,220.324 51.5,233.5 Z"/></g>
<g><path style="opacity:0.012" fill="#037ac4" d="M 12.5,225.5 C 13.8333,226.167 13.8333,226.167 12.5,225.5 Z"/></g>
<g><path style="opacity:0.013" fill="#037bc4" d="M 205.5,233.5 C 204.833,233.5 204.167,233.5 203.5,233.5C 204.809,221.66 205.476,221.66 205.5,233.5 Z"/></g>
<g><path style="opacity:0.012" fill="#047cc4" d="M 241.5,224.5 C 241.833,224.5 242.167,224.5 242.5,224.5C 242.167,227.167 241.833,227.167 241.5,224.5 Z"/></g>
<g><path style="opacity:0.012" fill="#037ac4" d="M 240.5,227.5 C 241.833,228.167 241.833,228.167 240.5,227.5 Z"/></g>
<g><path style="opacity:0.01" fill="#027bc4" d="M 121.5,228.5 C 122.483,232.298 122.817,236.298 122.5,240.5C 120.473,240.662 118.473,240.495 116.5,240C 118.134,239.506 119.801,239.34 121.5,239.5C 121.5,235.833 121.5,232.167 121.5,228.5 Z"/></g>
<g><path style="opacity:0.009" fill="#027bc4" d="M 132.5,228.5 C 133.482,231.962 133.815,235.629 133.5,239.5C 135.199,239.34 136.866,239.506 138.5,240C 136.527,240.495 134.527,240.662 132.5,240.5C 132.5,236.5 132.5,232.5 132.5,228.5 Z"/></g>
<g><path style="opacity:0.008" fill="#057bc3" d="M 15.5,228.5 C 15.631,229.239 15.4643,229.906 15,230.5C 14.3083,229.563 14.475,228.897 15.5,228.5 Z"/></g>
<g><path style="opacity:0.008" fill="#027bc4" d="M 239.5,228.5 C 239.833,228.5 240.167,228.5 240.5,228.5C 240.672,229.492 240.338,230.158 239.5,230.5C 239.5,229.833 239.5,229.167 239.5,228.5 Z"/></g>
<g><path style="opacity:0.012" fill="#037ac4" d="M 238.5,230.5 C 238.833,230.5 239.167,230.5 239.5,230.5C 239.315,231.17 238.981,231.17 238.5,230.5 Z"/></g>
<g><path style="opacity:0.008" fill="#047ac5" d="M 17.5,231.5 C 16.8333,232.167 16.8333,232.167 17.5,231.5 Z"/></g>
<g><path style="opacity:0.014" fill="#037bc4" d="M 222.5,232.5 C 219.833,232.5 217.167,232.5 214.5,232.5C 214.335,229.15 214.502,225.817 215,222.5C 215.498,225.482 215.665,228.482 215.5,231.5C 218.059,231.198 220.393,231.532 222.5,232.5 Z"/></g>
<g><path style="opacity:0.008" fill="#047ac5" d="M 237.5,231.5 C 237.833,231.5 238.167,231.5 238.5,231.5C 238.315,232.17 237.981,232.17 237.5,231.5 Z"/></g>
<g><path style="opacity:0.004" fill="#027ac4" d="M 18.5,234.5 C 17.8333,233.167 17.8333,233.167 18.5,234.5 Z"/></g>
<g><path style="opacity:0.004" fill="#027ac4" d="M 18.5,234.5 C 19.8333,235.167 19.8333,235.167 18.5,234.5 Z"/></g>
<g><path style="opacity:0.012" fill="#057bc3" d="M 233.5,235.5 C 234.833,236.167 234.833,236.167 233.5,235.5 Z"/></g>
<g><path style="opacity:0.012" fill="#047bc4" d="M 232.5,236.5 C 232.833,236.5 233.167,236.5 233.5,236.5C 233.315,237.17 232.981,237.17 232.5,236.5 Z"/></g>
<g><path style="opacity:0.008" fill="#037ac4" d="M 231.5,237.5 C 231.833,237.5 232.167,237.5 232.5,237.5C 232.315,238.17 231.981,238.17 231.5,237.5 Z"/></g>
<g><path style="opacity:0.012" fill="#047bc4" d="M 229.5,238.5 C 230.833,239.167 230.833,239.167 229.5,238.5 Z"/></g>
<g><path style="opacity:0.008" fill="#037bc4" d="M 27.5,239.5 C 27.1034,240.525 26.4368,240.692 25.5,240C 26.0944,239.536 26.7611,239.369 27.5,239.5 Z"/></g>
<g><path style="opacity:0.008" fill="#027bc4" d="M 227.5,239.5 C 228.167,239.5 228.833,239.5 229.5,239.5C 228.833,240.833 228.167,240.833 227.5,239.5 Z"/></g>
<g><path style="opacity:0.01" fill="#047bc4" d="M 30.5,240.5 C 30.1034,241.525 29.4368,241.692 28.5,241C 29.0944,240.536 29.7611,240.369 30.5,240.5 Z"/></g>
<g><path style="opacity:0.01" fill="#037bc3" d="M 209.5,241.5 C 209.5,241.167 209.5,240.833 209.5,240.5C 210.5,240.5 211.5,240.5 212.5,240.5C 211.791,241.404 210.791,241.737 209.5,241.5 Z"/></g>
<g><path style="opacity:0.008" fill="#037bc5" d="M 224.5,240.5 C 225.239,240.369 225.906,240.536 226.5,241C 225.563,241.692 224.897,241.525 224.5,240.5 Z"/></g>
<g><path style="opacity:0.011" fill="#027bc4" d="M 31.5,242.5 C 34.6399,241.359 37.9733,241.192 41.5,242C 38.1832,242.498 34.8499,242.665 31.5,242.5 Z"/></g>
<g><path style="opacity:0.008" fill="#037bc4" d="M 47.5,241.5 C 47.5,241.833 47.5,242.167 47.5,242.5C 44.8333,242.167 44.8333,241.833 47.5,241.5 Z"/></g>
<g><path style="opacity:0.008" fill="#027bc4" d="M 207.5,241.5 C 208.167,241.5 208.833,241.5 209.5,241.5C 208.833,242.833 208.167,242.833 207.5,241.5 Z"/></g>
<g><path style="opacity:0.011" fill="#037bc4" d="M 213.5,242.5 C 216.64,241.359 219.973,241.192 223.5,242C 220.183,242.498 216.85,242.665 213.5,242.5 Z"/></g>
<g><path style="opacity:0.008" fill="#027bc4" d="M 47.5,242.5 C 48.2389,242.369 48.9056,242.536 49.5,243C 48.5632,243.692 47.8966,243.525 47.5,242.5 Z"/></g>
<g><path style="opacity:0.012" fill="#047bc5" d="M 204.5,243.5 C 204.5,243.167 204.5,242.833 204.5,242.5C 207.167,242.833 207.167,243.167 204.5,243.5 Z"/></g>
<g><path style="opacity:0.01" fill="#037ac4" d="M 52.5,243.5 C 52.1034,244.525 51.4368,244.692 50.5,244C 51.0944,243.536 51.7611,243.369 52.5,243.5 Z"/></g>
<g><path style="opacity:0.01" fill="#027cc4" d="M 202.5,243.5 C 203.167,243.5 203.833,243.5 204.5,243.5C 203.833,244.833 203.167,244.833 202.5,243.5 Z"/></g>
<g><path style="opacity:0.012" fill="#037bc4" d="M 53.5,245.5 C 53.8966,244.475 54.5632,244.308 55.5,245C 54.9056,245.464 54.2389,245.631 53.5,245.5 Z"/></g>
<g><path style="opacity:0.012" fill="#037bc3" d="M 199.5,245.5 C 199.897,244.475 200.563,244.308 201.5,245C 200.906,245.464 200.239,245.631 199.5,245.5 Z"/></g>
<g><path style="opacity:0.009" fill="#037bc4" d="M 56.5,246.5 C 57.2506,245.427 58.2506,245.26 59.5,246C 58.552,246.483 57.552,246.649 56.5,246.5 Z"/></g>
<g><path style="opacity:0.009" fill="#027bc5" d="M 195.5,246.5 C 196.251,245.427 197.251,245.26 198.5,246C 197.552,246.483 196.552,246.649 195.5,246.5 Z"/></g>
<g><path style="opacity:0.01" fill="#037bc4" d="M 61.5,247.5 C 63.6282,246.371 65.9615,246.204 68.5,247C 66.1902,247.497 63.8568,247.663 61.5,247.5 Z"/></g>
<g><path style="opacity:0.011" fill="#037bc4" d="M 70.5,247.5 C 72.9664,246.366 75.633,246.199 78.5,247C 75.854,247.497 73.1873,247.664 70.5,247.5 Z"/></g>
<g><path style="opacity:0.01" fill="#037bc4" d="M 80.5,247.5 C 80.8966,246.475 81.5632,246.308 82.5,247C 81.9056,247.464 81.2389,247.631 80.5,247.5 Z"/></g>
<g><path style="opacity:0.01" fill="#027bc4" d="M 172.5,247.5 C 172.897,246.475 173.563,246.308 174.5,247C 173.906,247.464 173.239,247.631 172.5,247.5 Z"/></g>
<g><path style="opacity:0.011" fill="#037bc4" d="M 176.5,247.5 C 178.966,246.366 181.633,246.199 184.5,247C 181.854,247.497 179.187,247.664 176.5,247.5 Z"/></g>
<g><path style="opacity:0.011" fill="#037bc4" d="M 186.5,247.5 C 188.628,246.371 190.961,246.204 193.5,247C 191.19,247.497 188.857,247.663 186.5,247.5 Z"/></g>
<g><path style="opacity:0.008" fill="#037bc4" d="M 86.5,247.5 C 85.7494,248.573 84.7494,248.74 83.5,248C 84.448,247.517 85.448,247.351 86.5,247.5 Z"/></g>
<g><path style="opacity:0.01" fill="#037bc4" d="M 168.5,247.5 C 169.552,247.351 170.552,247.517 171.5,248C 170.251,248.74 169.251,248.573 168.5,247.5 Z"/></g>
<g><path style="opacity:0.009" fill="#037bc4" d="M 87.5,249.5 C 88.2506,248.427 89.2506,248.26 90.5,249C 89.552,249.483 88.552,249.649 87.5,249.5 Z"/></g>
<g><path style="opacity:0.016" fill="#047bc4" d="M 125.5,249.5 C 126.601,248.402 127.934,248.235 129.5,249C 128.207,249.49 126.873,249.657 125.5,249.5 Z"/></g>
<g><path style="opacity:0.009" fill="#037bc4" d="M 164.5,249.5 C 165.251,248.427 166.251,248.26 167.5,249C 166.552,249.483 165.552,249.649 164.5,249.5 Z"/></g>
<g><path style="opacity:0.01" fill="#047bc4" d="M 92.5,250.5 C 94.2884,249.378 96.2884,249.211 98.5,250C 96.5273,250.495 94.5273,250.662 92.5,250.5 Z"/></g>
<g><path style="opacity:0.01" fill="#037bc4" d="M 118.5,250.5 C 119.946,249.387 121.613,249.22 123.5,250C 121.866,250.494 120.199,250.66 118.5,250.5 Z"/></g>
<g><path style="opacity:0.01" fill="#037bc4" d="M 131.5,250.5 C 132.946,249.387 134.613,249.22 136.5,250C 134.866,250.494 133.199,250.66 131.5,250.5 Z"/></g>
<g><path style="opacity:0.01" fill="#047bc4" d="M 156.5,250.5 C 158.288,249.378 160.288,249.211 162.5,250C 160.527,250.495 158.527,250.662 156.5,250.5 Z"/></g>
<g><path style="opacity:0.004" fill="#027bc5" d="M 102.5,251.5 C 106.311,250.355 110.311,250.188 114.5,251C 110.514,251.499 106.514,251.666 102.5,251.5 Z"/></g>
<g><path style="opacity:0.004" fill="#027bc5" d="M 140.5,251.5 C 144.311,250.355 148.311,250.188 152.5,251C 148.514,251.499 144.514,251.666 140.5,251.5 Z"/></g>
</svg>
