<?xml version="1.0" encoding="UTF-8"?>
<!DOCTYPE svg PUBLIC "-//W3C//DTD SVG 1.1//EN" "http://www.w3.org/Graphics/SVG/1.1/DTD/svg11.dtd">
<svg xmlns="http://www.w3.org/2000/svg" version="1.1" width="256px" height="256px" style="shape-rendering:geometricPrecision; text-rendering:geometricPrecision; image-rendering:optimizeQuality; fill-rule:evenodd; clip-rule:evenodd" xmlns:xlink="http://www.w3.org/1999/xlink">
<g><path style="opacity:0.859" fill="#037bc4" d="M 187.5,-0.5 C 189.833,-0.5 192.167,-0.5 194.5,-0.5C 195.263,1.36841 196.263,3.03508 197.5,4.5C 197.427,6.02694 198.094,7.02694 199.5,7.5C 200.048,9.39362 201.048,11.0603 202.5,12.5C 206.034,14.7664 209.7,16.7664 213.5,18.5C 213.328,19.4916 213.662,20.1583 214.5,20.5C 214.371,22.2161 214.038,23.8828 213.5,25.5C 212.5,25.8333 211.833,26.5 211.5,27.5C 210.833,27.5 210.5,27.8333 210.5,28.5C 209.508,28.3284 208.842,28.6618 208.5,29.5C 207.508,29.3284 206.842,29.6618 206.5,30.5C 204.326,30.7497 202.659,31.7497 201.5,33.5C 200.662,33.8417 200.328,34.5084 200.5,35.5C 199.833,35.5 199.5,35.8333 199.5,36.5C 198.662,36.8417 198.328,37.5084 198.5,38.5C 197.662,38.8417 197.328,39.5084 197.5,40.5C 196.662,40.8417 196.328,41.5084 196.5,42.5C 195.833,42.5 195.5,42.8333 195.5,43.5C 194.5,43.8333 193.833,44.5 193.5,45.5C 191.5,45.5 189.5,45.5 187.5,45.5C 186.154,43.4632 184.82,41.4632 183.5,39.5C 183.573,37.9731 182.906,36.9731 181.5,36.5C 180.422,33.0922 178.089,31.0922 174.5,30.5C 172.492,28.7324 170.326,27.0657 168,25.5C 167.333,23.5 167.333,21.5 168,19.5C 172.333,16.5 176.667,13.5 181,10.5C 182.674,6.47583 184.841,2.80916 187.5,-0.5 Z M 193.5,13.5 C 194.906,13.9731 195.573,14.9731 195.5,16.5C 194.453,17.0778 194.62,17.7445 196,18.5C 196.399,18.2716 196.565,17.9382 196.5,17.5C 198.027,17.427 199.027,18.0937 199.5,19.5C 201.027,19.427 202.027,20.0937 202.5,21.5C 201.5,21.8333 200.833,22.5 200.5,23.5C 199.167,23.8333 199.167,24.1667 200.5,24.5C 200.027,25.9063 199.027,26.573 197.5,26.5C 194.82,27.1699 192.82,29.1699 191.5,32.5C 190.833,32.5 190.167,32.5 189.5,32.5C 187.5,28.5 184.5,25.5 180.5,23.5C 180.5,22.8333 180.5,22.1667 180.5,21.5C 181.833,21.1667 181.833,20.8333 180.5,20.5C 180.973,19.0937 181.973,18.427 183.5,18.5C 183.435,18.9382 183.601,19.2716 184,19.5C 186.454,17.5588 188.287,15.2254 189.5,12.5C 191.605,9.59827 192.938,9.9316 193.5,13.5 Z M 178.5,21.5 C 178.833,22.5 179.5,23.1667 180.5,23.5C 180.5,23.8333 180.5,24.1667 180.5,24.5C 178.804,24.3146 177.471,23.4813 176.5,22C 177.094,21.5357 177.761,21.369 178.5,21.5 Z M 202.5,21.5 C 205.167,22.1667 205.167,22.8333 202.5,23.5C 202.5,22.8333 202.5,22.1667 202.5,21.5 Z M 189.5,33.5 C 190.167,33.8333 190.833,34.1667 191.5,34.5C 190.699,36.7929 190.032,36.4596 189.5,33.5 Z"/></g>
<g><path style="opacity:0.008" fill="#047cc3" d="M 198.5,4.5 C 198.167,4.5 197.833,4.5 197.5,4.5C 197.833,1.83333 198.167,1.83333 198.5,4.5 Z"/></g>
<g><path style="opacity:0.012" fill="#037ac4" d="M 198.5,4.5 C 199.833,5.16667 199.833,5.16667 198.5,4.5 Z"/></g>
<g><path style="opacity:0.012" fill="#037ac3" d="M 199.5,6.5 C 200.833,7.16667 200.833,7.16667 199.5,6.5 Z"/></g>
<g><path style="opacity:0.004" fill="#037ac5" d="M 213.5,17.5 C 214.833,18.1667 214.833,18.1667 213.5,17.5 Z"/></g>
<g><path style="opacity:0.01" fill="#037bc4" d="M 165.5,19.5 C 166.525,19.8966 166.692,20.5632 166,21.5C 165.536,20.9056 165.369,20.2389 165.5,19.5 Z"/></g>
<g><path style="opacity:0.012" fill="#047ac4" d="M 214.5,19.5 C 215.833,20.1667 215.833,20.1667 214.5,19.5 Z"/></g>
<g><path style="opacity:0.01" fill="#037ac4" d="M 178.5,21.5 C 179.167,21.5 179.833,21.5 180.5,21.5C 180.5,22.1667 180.5,22.8333 180.5,23.5C 179.5,23.1667 178.833,22.5 178.5,21.5 Z"/></g>
<g><path style="opacity:0.009" fill="#037bc3" d="M 202.5,21.5 C 202.5,22.1667 202.5,22.8333 202.5,23.5C 201.833,23.5 201.167,23.5 200.5,23.5C 200.833,22.5 201.5,21.8333 202.5,21.5 Z"/></g>
<g><path style="opacity:0.004" fill="#037bc5" d="M 215.5,21.5 C 216.525,21.8966 216.692,22.5632 216,23.5C 215.536,22.9056 215.369,22.2389 215.5,21.5 Z"/></g>
<g><path style="opacity:0.008" fill="#047bc4" d="M 165.5,22.5 C 166.573,23.2506 166.74,24.2506 166,25.5C 165.517,24.552 165.351,23.552 165.5,22.5 Z"/></g>
<g><path style="opacity:0.012" fill="#037ac4" d="M 214.5,24.5 C 215.833,25.1667 215.833,25.1667 214.5,24.5 Z"/></g>
<g><path style="opacity:0.004" fill="#067dc5" d="M 213.5,25.5 C 213.833,25.5 214.167,25.5 214.5,25.5C 214.315,26.1701 213.981,26.1701 213.5,25.5 Z"/></g>
<g><path style="opacity:0.008" fill="#027ac4" d="M 211.5,27.5 C 212.833,28.1667 212.833,28.1667 211.5,27.5 Z"/></g>
<g><path style="opacity:0.012" fill="#037ac5" d="M 210.5,28.5 C 210.833,28.5 211.167,28.5 211.5,28.5C 211.315,29.1701 210.981,29.1701 210.5,28.5 Z"/></g>
<g><path style="opacity:0.012" fill="#047bc5" d="M 208.5,29.5 C 209.833,30.1667 209.833,30.1667 208.5,29.5 Z"/></g>
<g><path style="opacity:0.012" fill="#037ac5" d="M 174.5,30.5 C 173.833,31.1667 173.833,31.1667 174.5,30.5 Z"/></g>
<g><path style="opacity:0.008" fill="#027bc4" d="M 206.5,30.5 C 207.167,30.5 207.833,30.5 208.5,30.5C 207.833,31.8333 207.167,31.8333 206.5,30.5 Z"/></g>
<g><path style="opacity:0.01" fill="#027bc4" d="M 189.5,33.5 C 189.5,33.1667 189.5,32.8333 189.5,32.5C 190.167,32.5 190.833,32.5 191.5,32.5C 191.5,33.1667 191.5,33.8333 191.5,34.5C 190.833,34.1667 190.167,33.8333 189.5,33.5 Z"/></g>
<g><path style="opacity:0.008" fill="#027bc4" d="M 201.5,33.5 C 203.933,33.7856 203.933,34.4523 201.5,35.5C 201.5,34.8333 201.5,34.1667 201.5,33.5 Z"/></g>
<g><path style="opacity:0.016" fill="#037ac4" d="M 200.5,35.5 C 200.833,35.5 201.167,35.5 201.5,35.5C 201.315,36.1701 200.981,36.1701 200.5,35.5 Z"/></g>
<g><path style="opacity:0.012" fill="#0279c4" d="M 181.5,36.5 C 180.833,37.1667 180.833,37.1667 181.5,36.5 Z"/></g>
<g><path style="opacity:0.006" fill="#027ac3" d="M 199.5,36.5 C 199.833,36.5 200.167,36.5 200.5,36.5C 200.672,37.4916 200.338,38.1583 199.5,38.5C 199.5,37.8333 199.5,37.1667 199.5,36.5 Z"/></g>
<g><path style="opacity:0.012" fill="#037bc5" d="M 182.5,39.5 C 181.833,38.1667 181.833,38.1667 182.5,39.5 Z"/></g>
<g><path style="opacity:0.008" fill="#037bc3" d="M 198.5,38.5 C 198.833,38.5 199.167,38.5 199.5,38.5C 199.672,39.4916 199.338,40.1583 198.5,40.5C 198.5,39.8333 198.5,39.1667 198.5,38.5 Z"/></g>
<g><path style="opacity:0.008" fill="#037bc3" d="M 182.5,39.5 C 182.833,39.5 183.167,39.5 183.5,39.5C 183.167,42.1667 182.833,42.1667 182.5,39.5 Z"/></g>
<g><path style="opacity:0.008" fill="#037bc4" d="M 197.5,40.5 C 197.833,40.5 198.167,40.5 198.5,40.5C 198.672,41.4916 198.338,42.1583 197.5,42.5C 197.5,41.8333 197.5,41.1667 197.5,40.5 Z"/></g>
<g><path style="opacity:0.012" fill="#047ac4" d="M 196.5,42.5 C 196.833,42.5 197.167,42.5 197.5,42.5C 197.315,43.1701 196.981,43.1701 196.5,42.5 Z"/></g>
<g><path style="opacity:0.004" fill="#087dc8" d="M 195.5,43.5 C 195.833,43.5 196.167,43.5 196.5,43.5C 196.315,44.1701 195.981,44.1701 195.5,43.5 Z"/></g>
<g><path style="opacity:0.008" fill="#047ac4" d="M 187.5,45.5 C 187.5,45.8333 187.5,46.1667 187.5,46.5C 186.83,46.0187 186.83,45.6853 187.5,45.5 Z"/></g>
<g><path style="opacity:0.008" fill="#037ac3" d="M 193.5,45.5 C 194.833,46.1667 194.833,46.1667 193.5,45.5 Z"/></g>
<g><path style="opacity:0.008" fill="#037ac4" d="M 187.5,46.5 C 188.239,46.369 188.906,46.5357 189.5,47C 188.563,47.6917 187.897,47.525 187.5,46.5 Z"/></g>
<g><path style="opacity:0.008" fill="#037bc4" d="M 193.5,46.5 C 193.103,47.525 192.437,47.6917 191.5,47C 192.094,46.5357 192.761,46.369 193.5,46.5 Z"/></g>
<g><path style="opacity:0.006" fill="#027bc4" d="M 63.5,50.5 C 66.6399,49.3592 69.9733,49.1925 73.5,50C 70.1832,50.4983 66.8499,50.665 63.5,50.5 Z"/></g>
<g><path style="opacity:0.006" fill="#027bc4" d="M 144.5,50.5 C 147.976,49.3567 151.642,49.1901 155.5,50C 151.848,50.4986 148.182,50.6653 144.5,50.5 Z"/></g>
<g><path style="opacity:0.009" fill="#047ac4" d="M 61.5,51.5 C 60.1266,51.6567 58.7932,51.49 57.5,51C 59.0657,50.235 60.3991,50.4017 61.5,51.5 Z"/></g>
<g><path style="opacity:0.01" fill="#037bc4" d="M 76.5,51.5 C 77.9464,50.3871 79.6131,50.2204 81.5,51C 79.8659,51.4935 78.1992,51.6602 76.5,51.5 Z"/></g>
<g><path style="opacity:0.01" fill="#037bc4" d="M 137.5,51.5 C 138.601,50.4017 139.934,50.235 141.5,51C 140.207,51.49 138.873,51.6567 137.5,51.5 Z"/></g>
<g><path style="opacity:0.009" fill="#037bc4" d="M 158.5,51.5 C 159.251,50.4265 160.251,50.2599 161.5,51C 160.552,51.4828 159.552,51.6495 158.5,51.5 Z"/></g>
<g><path style="opacity:0.009" fill="#037cc3" d="M 56.5,52.5 C 55.448,52.6495 54.448,52.4828 53.5,52C 54.7494,51.2599 55.7494,51.4265 56.5,52.5 Z"/></g>
<g><path style="opacity:0.834" fill="#037bc4" d="M 61.5,51.5 C 68.5197,51.5015 75.5197,51.8348 82.5,52.5C 83.5676,53.4345 84.901,53.7678 86.5,53.5C 87.209,54.404 88.209,54.7373 89.5,54.5C 91.649,55.7362 93.9823,56.7362 96.5,57.5C 97.209,58.404 98.209,58.7373 99.5,58.5C 102.526,60.0186 105.859,60.6852 109.5,60.5C 112.025,60.4966 114.359,60.1633 116.5,59.5C 121.207,58.6401 125.541,56.9734 129.5,54.5C 130.791,54.7373 131.791,54.404 132.5,53.5C 142.441,51.3928 152.441,51.0595 162.5,52.5C 163.568,53.4345 164.901,53.7678 166.5,53.5C 172.985,56.3066 178.985,59.9732 184.5,64.5C 187.508,69.1717 190.508,73.8384 193.5,78.5C 193.595,80.7857 194.262,82.7857 195.5,84.5C 195.232,86.099 195.566,87.4324 196.5,88.5C 197.786,98.1643 197.786,107.831 196.5,117.5C 195.549,118.919 195.216,120.585 195.5,122.5C 194.566,123.568 194.232,124.901 194.5,126.5C 193.566,127.568 193.232,128.901 193.5,130.5C 192.596,131.209 192.263,132.209 192.5,133.5C 191.596,134.209 191.263,135.209 191.5,136.5C 190.596,137.209 190.263,138.209 190.5,139.5C 189.596,140.209 189.263,141.209 189.5,142.5C 188.596,143.209 188.263,144.209 188.5,145.5C 187.662,145.842 187.328,146.508 187.5,147.5C 186.069,148.78 185.402,150.447 185.5,152.5C 184.662,152.842 184.328,153.508 184.5,154.5C 183.662,154.842 183.328,155.508 183.5,156.5C 182.069,157.78 181.402,159.447 181.5,161.5C 180.662,161.842 180.328,162.508 180.5,163.5C 179.662,163.842 179.328,164.508 179.5,165.5C 178.662,165.842 178.328,166.508 178.5,167.5C 177.094,167.973 176.427,168.973 176.5,170.5C 175.662,170.842 175.328,171.508 175.5,172.5C 174.662,172.842 174.328,173.508 174.5,174.5C 173.662,174.842 173.328,175.508 173.5,176.5C 172.662,176.842 172.328,177.508 172.5,178.5C 171.662,178.842 171.328,179.508 171.5,180.5C 170.662,180.842 170.328,181.508 170.5,182.5C 169.596,183.209 169.263,184.209 169.5,185.5C 168.596,186.209 168.263,187.209 168.5,188.5C 167.596,189.209 167.263,190.209 167.5,191.5C 166.076,193.515 165.41,195.848 165.5,198.5C 164.087,201.219 163.42,204.219 163.5,207.5C 162.549,208.919 162.216,210.585 162.5,212.5C 160.754,216.889 159.754,221.556 159.5,226.5C 158.566,227.568 158.232,228.901 158.5,230.5C 157.596,231.209 157.263,232.209 157.5,233.5C 156.596,234.209 156.263,235.209 156.5,236.5C 155.596,237.209 155.263,238.209 155.5,239.5C 154.662,239.842 154.328,240.508 154.5,241.5C 153.662,241.842 153.328,242.508 153.5,243.5C 152.662,243.842 152.328,244.508 152.5,245.5C 150.457,246.579 149.124,248.246 148.5,250.5C 147.508,250.328 146.842,250.662 146.5,251.5C 145.833,251.5 145.5,251.833 145.5,252.5C 141.881,253.244 138.215,253.577 134.5,253.5C 133.486,252.326 132.153,251.66 130.5,251.5C 129.488,250.128 128.488,248.795 127.5,247.5C 127.068,246.29 126.401,245.29 125.5,244.5C 125.737,243.209 125.404,242.209 124.5,241.5C 123.863,236.965 122.863,232.632 121.5,228.5C 120.81,216.952 119.477,205.618 117.5,194.5C 117.656,190.236 116.989,186.236 115.5,182.5C 115.768,180.901 115.434,179.568 114.5,178.5C 114.737,177.209 114.404,176.209 113.5,175.5C 113.771,173.62 113.104,172.287 111.5,171.5C 110.167,170.167 108.833,170.167 107.5,171.5C 106.662,171.842 106.328,172.508 106.5,173.5C 105.662,173.842 105.328,174.508 105.5,175.5C 103.96,177.838 103.294,180.505 103.5,183.5C 100.457,198.558 98.4567,213.891 97.5,229.5C 96.3428,232.273 95.6761,235.273 95.5,238.5C 94.2616,240.214 93.595,242.214 93.5,244.5C 92.6618,244.842 92.3284,245.508 92.5,246.5C 91.0937,246.973 90.427,247.973 90.5,249.5C 89.8333,249.5 89.5,249.833 89.5,250.5C 88.8333,250.5 88.5,250.833 88.5,251.5C 84.6995,253.143 80.6995,253.81 76.5,253.5C 75.791,252.596 74.791,252.263 73.5,252.5C 72.1667,250.5 70.5,248.833 68.5,247.5C 67.4884,246.128 66.4884,244.795 65.5,243.5C 65.0652,240.843 64.0652,238.509 62.5,236.5C 62.7373,235.209 62.404,234.209 61.5,233.5C 61.7678,231.901 61.4345,230.568 60.5,229.5C 60.7678,227.901 60.4345,226.568 59.5,225.5C 59.2462,220.556 58.2462,215.889 56.5,211.5C 56.7845,209.585 56.4511,207.919 55.5,206.5C 55.4159,202.163 54.4159,198.163 52.5,194.5C 52.7678,192.901 52.4345,191.568 51.5,190.5C 51.7373,189.209 51.404,188.209 50.5,187.5C 50.7373,186.209 50.404,185.209 49.5,184.5C 48.8678,180.569 47.2011,177.235 44.5,174.5C 44.6716,173.508 44.3382,172.842 43.5,172.5C 42.6743,169.515 41.341,166.849 39.5,164.5C 37.4032,159.311 35.0698,154.311 32.5,149.5C 32.2041,147.597 31.5375,145.93 30.5,144.5C 30.5979,142.447 29.9313,140.78 28.5,139.5C 28.7373,138.209 28.404,137.209 27.5,136.5C 27.5905,133.848 26.9238,131.515 25.5,129.5C 25.4349,126.572 24.7682,123.905 23.5,121.5C 22.944,114.996 22.2774,108.496 21.5,102C 21.979,94.3257 23.3123,86.8257 25.5,79.5C 27.0075,77.8185 28.0075,75.8185 28.5,73.5C 34.0108,64.9846 41.3441,58.6512 50.5,54.5C 52.7857,54.405 54.7857,53.7384 56.5,52.5C 58.4147,52.7845 60.0813,52.4511 61.5,51.5 Z M 79.5,60.5 C 82.4951,60.2938 85.1617,60.9605 87.5,62.5C 89.5529,62.4021 91.2196,63.0687 92.5,64.5C 91.7611,64.369 91.0944,64.5357 90.5,65C 96.9065,67.54 102.24,71.54 106.5,77C 107.437,77.6917 108.103,77.525 108.5,76.5C 110.153,76.6596 111.486,77.3263 112.5,78.5C 114.167,78.5 115.833,78.5 117.5,78.5C 117.435,78.9382 117.601,79.2716 118,79.5C 118.833,78.6667 119.667,77.8333 120.5,77C 120.272,76.6012 119.938,76.4346 119.5,76.5C 119.371,74.7839 119.038,73.1172 118.5,71.5C 116.214,71.405 114.214,70.7384 112.5,69.5C 113.167,69.1667 113.833,68.8333 114.5,68.5C 115.919,67.5489 117.585,67.2155 119.5,67.5C 120.209,66.596 121.209,66.2627 122.5,66.5C 122.56,67.0431 122.893,67.3764 123.5,67.5C 125.167,66.6667 126.833,65.8333 128.5,65C 127.906,64.5357 127.239,64.369 126.5,64.5C 129.084,62.5275 132.084,61.5275 135.5,61.5C 139.896,59.9669 144.563,59.3002 149.5,59.5C 154.437,59.3002 159.104,59.9669 163.5,61.5C 164.791,61.2627 165.791,61.596 166.5,62.5C 168.553,62.4021 170.22,63.0687 171.5,64.5C 170.761,64.369 170.094,64.5357 169.5,65C 171.862,66.5106 174.195,68.0106 176.5,69.5C 176.5,70.1667 176.833,70.5 177.5,70.5C 177.5,71.1667 177.833,71.5 178.5,71.5C 178.5,72.1667 178.833,72.5 179.5,72.5C 182.457,76.7493 184.623,81.4159 186,86.5C 186.483,85.552 186.649,84.552 186.5,83.5C 188.04,85.8383 188.706,88.5049 188.5,91.5C 189.656,98.9887 189.822,106.655 189,114.5C 188.689,118.09 187.856,121.423 186.5,124.5C 186.59,127.152 185.924,129.485 184.5,131.5C 184.737,132.791 184.404,133.791 183.5,134.5C 183.737,135.791 183.404,136.791 182.5,137.5C 182.737,138.791 182.404,139.791 181.5,140.5C 181.598,142.553 180.931,144.22 179.5,145.5C 179.631,144.761 179.464,144.094 179,143.5C 177.702,144.946 177.535,146.279 178.5,147.5C 178.737,148.791 178.404,149.791 177.5,150.5C 177.631,149.761 177.464,149.094 177,148.5C 175.833,150.833 174.667,153.167 173.5,155.5C 173.624,156.107 173.957,156.44 174.5,156.5C 174.672,157.492 174.338,158.158 173.5,158.5C 173.672,159.492 173.338,160.158 172.5,160.5C 172.672,161.492 172.338,162.158 171.5,162.5C 171.672,163.492 171.338,164.158 170.5,164.5C 170.19,163.262 169.69,163.262 169,164.5C 167.5,167.5 166,170.5 164.5,173.5C 164.624,174.107 164.957,174.44 165.5,174.5C 165.34,176.153 164.674,177.486 163.5,178.5C 163.631,177.761 163.464,177.094 163,176.5C 161.702,177.946 161.535,179.279 162.5,180.5C 162.737,181.791 162.404,182.791 161.5,183.5C 161.072,186.785 160.072,189.785 158.5,192.5C 158.102,196.761 157.102,200.761 155.5,204.5C 155.784,206.415 155.451,208.081 154.5,209.5C 154.784,211.415 154.451,213.081 153.5,214.5C 153.58,217.781 152.913,220.781 151.5,223.5C 151.706,226.495 151.04,229.162 149.5,231.5C 149.737,232.791 149.404,233.791 148.5,234.5C 148.737,235.791 148.404,236.791 147.5,237.5C 147.631,236.761 147.464,236.094 147,235.5C 145.9,239.222 143.734,242.056 140.5,244C 141.094,244.464 141.761,244.631 142.5,244.5C 140.68,246.461 138.68,246.794 136.5,245.5C 140.5,245.167 140.5,244.833 136.5,244.5C 135.452,242.067 134.786,242.067 134.5,244.5C 133.069,243.22 132.402,241.553 132.5,239.5C 131.566,238.432 131.232,237.099 131.5,235.5C 130.549,234.081 130.216,232.415 130.5,230.5C 129.539,228.735 129.205,226.735 129.5,224.5C 128.527,222.052 128.194,219.385 128.5,216.5C 127.19,210.712 126.523,204.712 126.5,198.5C 125.527,196.052 125.194,193.385 125.5,190.5C 124.539,188.735 124.205,186.735 124.5,184.5C 123.549,183.081 123.216,181.415 123.5,179.5C 122.262,177.786 121.595,175.786 121.5,173.5C 120.596,172.791 120.263,171.791 120.5,170.5C 119.094,170.027 118.427,169.027 118.5,167.5C 118.938,167.565 119.272,167.399 119.5,167C 118,165.5 116.5,164 115,162.5C 114.601,162.728 114.435,163.062 114.5,163.5C 113.209,163.737 112.209,163.404 111.5,162.5C 110.167,162.5 108.833,162.5 107.5,162.5C 106.486,163.674 105.153,164.34 103.5,164.5C 103.565,164.062 103.399,163.728 103,163.5C 99.1843,166.151 97.351,169.484 97.5,173.5C 97.7373,174.791 97.404,175.791 96.5,176.5C 96.7678,178.099 96.4345,179.432 95.5,180.5C 95.3541,184.387 94.6874,188.054 93.5,191.5C 93.8064,194.385 93.4731,197.052 92.5,199.5C 92.2493,210.44 90.916,221.107 88.5,231.5C 88.7845,233.415 88.4511,235.081 87.5,236.5C 87.7373,237.791 87.404,238.791 86.5,239.5C 86.7373,240.791 86.404,241.791 85.5,242.5C 85.1667,239.833 84.8333,239.833 84.5,242.5C 83.5,242.833 82.8333,243.5 82.5,244.5C 83.1667,244.5 83.8333,244.5 84.5,244.5C 81.9102,247.059 79.2435,247.059 76.5,244.5C 77.2389,244.631 77.9056,244.464 78.5,244C 75.6193,242.749 73.786,240.583 73,237.5C 72.5357,238.094 72.369,238.761 72.5,239.5C 70.5275,236.916 69.5275,233.916 69.5,230.5C 67.9605,228.162 67.2938,225.495 67.5,222.5C 65.7538,218.111 64.7538,213.444 64.5,208.5C 63.087,205.781 62.4203,202.781 62.5,199.5C 61.5655,198.432 61.2322,197.099 61.5,195.5C 60.5655,194.432 60.2322,193.099 60.5,191.5C 59.596,190.791 59.2627,189.791 59.5,188.5C 60.6211,186.911 60.4544,185.244 59,183.5C 58.5357,184.094 58.369,184.761 58.5,185.5C 57.596,184.791 57.2627,183.791 57.5,182.5C 58.4646,181.279 58.298,179.946 57,178.5C 56.5357,179.094 56.369,179.761 56.5,180.5C 55.596,179.791 55.2627,178.791 55.5,177.5C 56.0431,177.44 56.3764,177.107 56.5,176.5C 55.6667,174.833 54.8333,173.167 54,171.5C 53.31,170.262 52.81,170.262 52.5,171.5C 51.0937,171.027 50.427,170.027 50.5,168.5C 51.0431,168.44 51.3764,168.107 51.5,167.5C 49,162.5 46.5,157.5 44,152.5C 43.5357,153.094 43.369,153.761 43.5,154.5C 42.0687,153.22 41.4021,151.553 41.5,149.5C 42.4646,148.279 42.298,146.946 41,145.5C 40.5357,146.094 40.369,146.761 40.5,147.5C 39.0687,146.22 38.4021,144.553 38.5,142.5C 37.596,141.791 37.2627,140.791 37.5,139.5C 35.5275,136.916 34.5275,133.916 34.5,130.5C 33.596,129.791 33.2627,128.791 33.5,127.5C 32.5655,126.432 32.2322,125.099 32.5,123.5C 31.144,120.423 30.3106,117.09 30,113.5C 29.1787,106.321 29.3454,99.3209 30.5,92.5C 30.2155,90.5853 30.5489,88.9187 31.5,87.5C 31.2627,86.209 31.596,85.209 32.5,84.5C 32.2627,83.209 32.596,82.209 33.5,81.5C 33.369,82.2389 33.5357,82.9056 34,83.5C 35.298,82.0544 35.4646,80.7211 34.5,79.5C 34.3284,78.5084 34.6618,77.8417 35.5,77.5C 35.3284,76.5084 35.6618,75.8417 36.5,75.5C 36.4346,75.9382 36.6012,76.2716 37,76.5C 39.8333,72.3333 43.3333,68.8333 47.5,66C 47.2716,65.6012 46.9382,65.4346 46.5,65.5C 47.287,63.8958 48.6203,63.2291 50.5,63.5C 51.7211,64.4646 53.0544,64.298 54.5,63C 53.9056,62.5357 53.2389,62.369 52.5,62.5C 53.209,61.596 54.209,61.2627 55.5,61.5C 59.8962,59.9669 64.5629,59.3002 69.5,59.5C 73.0175,59.5016 76.3509,59.8349 79.5,60.5 Z M 176.5,69.5 C 176.5,69.1667 176.5,68.8333 176.5,68.5C 178.833,68.8333 180.167,70.1667 180.5,72.5C 180.167,72.5 179.833,72.5 179.5,72.5C 178.833,72.5 178.5,72.1667 178.5,71.5C 177.833,71.5 177.5,71.1667 177.5,70.5C 176.833,70.5 176.5,70.1667 176.5,69.5 Z M 164.5,80.5 C 164.833,80.5 165.167,80.5 165.5,80.5C 165.5,81.1667 165.833,81.5 166.5,81.5C 166.5,81.8333 166.5,82.1667 166.5,82.5C 165.167,82.5 164.5,81.8333 164.5,80.5 Z M 157.5,84.5 C 156.833,84.5 156.5,84.8333 156.5,85.5C 156.167,85.5 155.833,85.5 155.5,85.5C 156.032,82.5404 156.699,82.2071 157.5,84.5 Z M 157.5,84.5 C 158.906,84.9731 159.573,85.9731 159.5,87.5C 158.561,88.3274 158.895,88.9941 160.5,89.5C 160.833,90.5 161.5,91.1667 162.5,91.5C 162.027,92.9063 161.027,93.573 159.5,93.5C 159.573,95.0269 158.906,96.0269 157.5,96.5C 157.5,95.8333 157.167,95.5 156.5,95.5C 155.19,93.8523 153.857,92.1856 152.5,90.5C 153.857,88.8144 155.19,87.1477 156.5,85.5C 157.167,85.5 157.5,85.1667 157.5,84.5 Z M 151.5,89.5 C 151.5,90.1667 151.5,90.8333 151.5,91.5C 148.833,90.8333 148.833,90.1667 151.5,89.5 Z M 162.5,89.5 C 164.933,90.5477 164.933,91.2144 162.5,91.5C 162.5,90.8333 162.5,90.1667 162.5,89.5 Z M 155.5,95.5 C 155.833,95.5 156.167,95.5 156.5,95.5C 157.167,95.5 157.5,95.8333 157.5,96.5C 156.699,98.7929 156.032,98.4596 155.5,95.5 Z M 166.5,98.5 C 166.5,98.8333 166.5,99.1667 166.5,99.5C 165.833,99.5 165.5,99.8333 165.5,100.5C 165.167,100.5 164.833,100.5 164.5,100.5C 164.5,99.1667 165.167,98.5 166.5,98.5 Z"/></g>
<g><path style="opacity:0.012" fill="#047cc4" d="M 82.5,52.5 C 83.2506,51.4265 84.2506,51.2599 85.5,52C 84.552,52.4828 83.552,52.6495 82.5,52.5 Z"/></g>
<g><path style="opacity:0.009" fill="#037bc4" d="M 133.5,52.5 C 134.251,51.4265 135.251,51.2599 136.5,52C 135.552,52.4828 134.552,52.6495 133.5,52.5 Z"/></g>
<g><path style="opacity:0.012" fill="#037bc4" d="M 162.5,52.5 C 163.251,51.4265 164.251,51.2599 165.5,52C 164.552,52.4828 163.552,52.6495 162.5,52.5 Z"/></g>
<g><path style="opacity:0.01" fill="#037bc4" d="M 50.5,53.5 C 50.8966,52.475 51.5632,52.3083 52.5,53C 51.9056,53.4643 51.2389,53.631 50.5,53.5 Z"/></g>
<g><path style="opacity:0.012" fill="#037bc5" d="M 86.5,53.5 C 86.8966,52.475 87.5632,52.3083 88.5,53C 87.9056,53.4643 87.2389,53.631 86.5,53.5 Z"/></g>
<g><path style="opacity:0.01" fill="#037bc4" d="M 132.5,53.5 C 131.761,53.631 131.094,53.4643 130.5,53C 131.437,52.3083 132.103,52.475 132.5,53.5 Z"/></g>
<g><path style="opacity:0.01" fill="#027bc4" d="M 166.5,53.5 C 166.897,52.475 167.563,52.3083 168.5,53C 167.906,53.4643 167.239,53.631 166.5,53.5 Z"/></g>
<g><path style="opacity:0.004" fill="#057cc7" d="M 50.5,53.5 C 50.5,53.8333 50.5,54.1667 50.5,54.5C 47.8333,54.1667 47.8333,53.8333 50.5,53.5 Z"/></g>
<g><path style="opacity:0.01" fill="#037bc4" d="M 89.5,54.5 C 89.8966,53.475 90.5632,53.3083 91.5,54C 90.9056,54.4643 90.2389,54.631 89.5,54.5 Z"/></g>
<g><path style="opacity:0.01" fill="#037bc4" d="M 129.5,54.5 C 128.761,54.631 128.094,54.4643 127.5,54C 128.437,53.3083 129.103,53.475 129.5,54.5 Z"/></g>
<g><path style="opacity:0.008" fill="#027bc4" d="M 169.5,54.5 C 169.897,53.475 170.563,53.3083 171.5,54C 170.906,54.4643 170.239,54.631 169.5,54.5 Z"/></g>
<g><path style="opacity:0.008" fill="#027bc4" d="M 124.5,55.5 C 124.897,54.475 125.563,54.3083 126.5,55C 125.906,55.4643 125.239,55.631 124.5,55.5 Z"/></g>
<g><path style="opacity:0.01" fill="#047bc3" d="M 96.5,57.5 C 96.8966,56.475 97.5632,56.3083 98.5,57C 97.9056,57.4643 97.2389,57.631 96.5,57.5 Z"/></g>
<g><path style="opacity:0.01" fill="#037bc4" d="M 99.5,58.5 C 99.8966,57.475 100.563,57.3083 101.5,58C 100.906,58.4643 100.239,58.631 99.5,58.5 Z"/></g>
<g><path style="opacity:0.012" fill="#037bc4" d="M 117.5,58.5 C 117.897,57.475 118.563,57.3083 119.5,58C 118.906,58.4643 118.239,58.631 117.5,58.5 Z"/></g>
<g><path style="opacity:0.012" fill="#037bc4" d="M 221.5,58.5 C 222.601,57.4017 223.934,57.235 225.5,58C 224.207,58.49 222.873,58.6567 221.5,58.5 Z"/></g>
<g><path style="opacity:0.009" fill="#037bc4" d="M 103.5,59.5 C 104.946,58.3871 106.613,58.2204 108.5,59C 106.866,59.4935 105.199,59.6602 103.5,59.5 Z"/></g>
<g><path style="opacity:0.01" fill="#037bc4" d="M 116.5,59.5 C 114.801,59.6602 113.134,59.4935 111.5,59C 113.387,58.2204 115.054,58.3871 116.5,59.5 Z"/></g>
<g><path style="opacity:0.856" fill="#037bc4" d="M 228.5,61.5 C 229.761,67.0927 233.094,70.7594 238.5,72.5C 239.436,73.9744 240.77,74.9744 242.5,75.5C 242.5,77.5 242.5,79.5 242.5,81.5C 241.833,81.5 241.5,81.8333 241.5,82.5C 240.833,82.5 240.5,82.8333 240.5,83.5C 239.508,83.3284 238.842,83.6618 238.5,84.5C 237.508,84.3284 236.842,84.6618 236.5,85.5C 235.508,85.3284 234.842,85.6618 234.5,86.5C 233.833,86.5 233.5,86.8333 233.5,87.5C 232.833,87.5 232.5,87.8333 232.5,88.5C 231.833,88.5 231.5,88.8333 231.5,89.5C 230.662,89.8417 230.328,90.5084 230.5,91.5C 229.662,91.8417 229.328,92.5084 229.5,93.5C 228.662,93.8417 228.328,94.5084 228.5,95.5C 227.833,95.5 227.5,95.8333 227.5,96.5C 226.833,96.5 226.5,96.8333 226.5,97.5C 224.5,97.5 222.5,97.5 220.5,97.5C 217.553,90.0522 212.386,84.7188 205,81.5C 204.333,79.5 204.333,77.5 205,75.5C 212.167,72.3333 217.333,67.1667 220.5,60C 223.498,59.1093 226.164,59.6093 228.5,61.5 Z M 224.5,71.5 C 223.833,71.5 223.167,71.5 222.5,71.5C 223.167,68.8333 223.833,68.8333 224.5,71.5 Z M 221.5,72.5 C 221.5,73.1667 221.5,73.8333 221.5,74.5C 220.833,74.5 220.5,74.8333 220.5,75.5C 219.833,75.5 219.5,75.8333 219.5,76.5C 218.833,76.5 218.167,76.5 217.5,76.5C 218.5,74.8333 219.833,73.5 221.5,72.5 Z M 225.5,74.5 C 225.5,75.1667 225.833,75.5 226.5,75.5C 226.5,76.1667 226.833,76.5 227.5,76.5C 227.842,77.3382 228.508,77.6716 229.5,77.5C 229.5,78.1667 229.5,78.8333 229.5,79.5C 227.895,80.0059 227.561,80.6726 228.5,81.5C 228.167,82.5 227.5,83.1667 226.5,83.5C 226.631,82.7611 226.464,82.0944 226,81.5C 225.632,82.91 224.799,83.91 223.5,84.5C 221.481,82.8103 219.481,81.1436 217.5,79.5C 217.5,78.8333 217.5,78.1667 217.5,77.5C 218.492,77.6716 219.158,77.3382 219.5,76.5C 220.167,76.5 220.5,76.1667 220.5,75.5C 221.167,75.5 221.5,75.1667 221.5,74.5C 222.151,73.9094 222.818,73.2427 223.5,72.5C 224.182,73.2427 224.849,73.9094 225.5,74.5 Z M 225.5,72.5 C 227.167,73.5 228.5,74.8333 229.5,76.5C 228.833,76.5 228.167,76.5 227.5,76.5C 226.833,76.5 226.5,76.1667 226.5,75.5C 225.833,75.5 225.5,75.1667 225.5,74.5C 225.5,73.8333 225.5,73.1667 225.5,72.5 Z M 216.5,77.5 C 216.217,78.2891 215.717,78.9558 215,79.5C 214.472,78.184 214.972,77.5173 216.5,77.5 Z M 230.5,77.5 C 232.424,77.7107 232.757,78.3774 231.5,79.5C 231.167,78.8333 230.833,78.1667 230.5,77.5 Z M 222.5,85.5 C 223.167,85.5 223.833,85.5 224.5,85.5C 223.833,88.1667 223.167,88.1667 222.5,85.5 Z"/></g>
<g><path style="opacity:0.008" fill="#027ac4" d="M 228.5,60.5 C 229.833,61.1667 229.833,61.1667 228.5,60.5 Z"/></g>
<g><path style="opacity:0.008" fill="#027ac5" d="M 185.5,64.5 C 184.833,63.1667 184.833,63.1667 185.5,64.5 Z"/></g>
<g><path style="opacity:0.008" fill="#027ac5" d="M 185.5,64.5 C 186.167,64.5 186.5,64.8333 186.5,65.5C 186.167,65.1667 185.833,64.8333 185.5,64.5 Z"/></g>
<g><path style="opacity:0.004" fill="#027ac4" d="M 186.5,65.5 C 187.833,66.1667 187.833,66.1667 186.5,65.5 Z"/></g>
<g><path style="opacity:0.013" fill="#037bc4" d="M 114.5,68.5 C 115.873,68.3433 117.207,68.51 118.5,69C 117.119,70.5342 115.786,70.3675 114.5,68.5 Z"/></g>
<g><path style="opacity:0.012" fill="#037ac4" d="M 238.5,71.5 C 239.833,72.1667 239.833,72.1667 238.5,71.5 Z"/></g>
<g><path style="opacity:0.004" fill="#057cc4" d="M 28.5,73.5 C 28.1667,73.5 27.8333,73.5 27.5,73.5C 27.8333,70.8333 28.1667,70.8333 28.5,73.5 Z"/></g>
<g><path style="opacity:0.852" fill="#037bc4" d="M 155.5,72.5 C 156.833,72.8333 158.167,73.1667 159.5,73.5C 159.833,74.5 160.5,75.1667 161.5,75.5C 161.427,77.0269 162.094,78.0269 163.5,78.5C 163.328,79.4916 163.662,80.1583 164.5,80.5C 164.5,81.8333 165.167,82.5 166.5,82.5C 168.118,84.316 170.118,85.6493 172.5,86.5C 172.833,87.5 173.5,88.1667 174.5,88.5C 174.5,89.8333 174.5,91.1667 174.5,92.5C 173.167,93.1667 172.167,94.1667 171.5,95.5C 169.973,95.427 168.973,96.0937 168.5,97.5C 167.508,97.3284 166.842,97.6618 166.5,98.5C 165.167,98.5 164.5,99.1667 164.5,100.5C 163.662,100.842 163.328,101.508 163.5,102.5C 162.662,102.842 162.328,103.508 162.5,104.5C 161.833,104.5 161.5,104.833 161.5,105.5C 160.167,106.167 159.167,107.167 158.5,108.5C 157.5,108.5 156.5,108.5 155.5,108.5C 154.71,107.599 153.71,106.932 152.5,106.5C 152.573,104.973 151.906,103.973 150.5,103.5C 150.672,102.508 150.338,101.842 149.5,101.5C 149.489,99.9826 148.823,98.8159 147.5,98C 140.627,96.6725 138.293,92.8391 140.5,86.5C 142.027,86.573 143.027,85.9063 143.5,84.5C 146.732,84.2283 148.732,82.5616 149.5,79.5C 150.338,79.1583 150.672,78.4916 150.5,77.5C 151.947,75.5968 153.614,73.9301 155.5,72.5 Z M 157.5,84.5 C 156.833,84.5 156.5,84.8333 156.5,85.5C 156.167,85.5 155.833,85.5 155.5,85.5C 156.032,82.5404 156.699,82.2071 157.5,84.5 Z M 157.5,84.5 C 158.906,84.9731 159.573,85.9731 159.5,87.5C 158.561,88.3274 158.895,88.9941 160.5,89.5C 160.833,90.5 161.5,91.1667 162.5,91.5C 162.027,92.9063 161.027,93.573 159.5,93.5C 159.573,95.0269 158.906,96.0269 157.5,96.5C 157.5,95.8333 157.167,95.5 156.5,95.5C 155.19,93.8523 153.857,92.1856 152.5,90.5C 153.857,88.8144 155.19,87.1477 156.5,85.5C 157.167,85.5 157.5,85.1667 157.5,84.5 Z M 151.5,89.5 C 151.5,90.1667 151.5,90.8333 151.5,91.5C 148.833,90.8333 148.833,90.1667 151.5,89.5 Z M 162.5,89.5 C 164.933,90.5477 164.933,91.2144 162.5,91.5C 162.5,90.8333 162.5,90.1667 162.5,89.5 Z M 155.5,95.5 C 155.833,95.5 156.167,95.5 156.5,95.5C 157.167,95.5 157.5,95.8333 157.5,96.5C 156.699,98.7929 156.032,98.4596 155.5,95.5 Z"/></g>
<g><path style="opacity:0.008" fill="#037ac4" d="M 205.5,72.5 C 206.833,73.1667 206.833,73.1667 205.5,72.5 Z"/></g>
<g><path style="opacity:0.008" fill="#027ac4" d="M 240.5,72.5 C 241.833,73.1667 241.833,73.1667 240.5,72.5 Z"/></g>
<g><path style="opacity:0.012" fill="#037ac4" d="M 27.5,73.5 C 26.8333,74.1667 26.8333,74.1667 27.5,73.5 Z"/></g>
<g><path style="opacity:0.004" fill="#037ac4" d="M 242.5,74.5 C 243.833,75.1667 243.833,75.1667 242.5,74.5 Z"/></g>
<g><path style="opacity:0.012" fill="#037ac4" d="M 25.5,75.5 C 26.8333,76.1667 26.8333,76.1667 25.5,75.5 Z"/></g>
<g><path style="opacity:0.008" fill="#037ac5" d="M 193.5,78.5 C 193.369,77.7611 193.536,77.0944 194,76.5C 194.692,77.4368 194.525,78.1034 193.5,78.5 Z"/></g>
<g><path style="opacity:0.01" fill="#047ac3" d="M 229.5,77.5 C 229.833,77.5 230.167,77.5 230.5,77.5C 230.833,78.1667 231.167,78.8333 231.5,79.5C 230.833,79.5 230.167,79.5 229.5,79.5C 229.5,78.8333 229.5,78.1667 229.5,77.5 Z"/></g>
<g><path style="opacity:0.008" fill="#047cc5" d="M 25.5,79.5 C 25.1667,79.5 24.8333,79.5 24.5,79.5C 24.8333,76.8333 25.1667,76.8333 25.5,79.5 Z"/></g>
<g><path style="opacity:0.008" fill="#027cc4" d="M 24.5,79.5 C 24.631,80.2389 24.4643,80.9056 24,81.5C 23.3083,80.5632 23.475,79.8966 24.5,79.5 Z"/></g>
<g><path style="opacity:0.008" fill="#047bc4" d="M 202.5,76.5 C 203.613,77.9464 203.78,79.6131 203,81.5C 202.506,79.8659 202.34,78.1992 202.5,76.5 Z"/></g>
<g><path style="opacity:0.008" fill="#037bc4" d="M 243.5,81.5 C 243.34,79.8008 243.506,78.1341 244,76.5C 244.78,78.3869 244.613,80.0536 243.5,81.5 Z"/></g>
<g><path style="opacity:0.008" fill="#037bc4" d="M 195.5,84.5 C 195.351,83.448 195.517,82.448 196,81.5C 196.74,82.7494 196.573,83.7494 195.5,84.5 Z"/></g>
<g><path style="opacity:0.008" fill="#047ac4" d="M 242.5,81.5 C 242.833,81.5 243.167,81.5 243.5,81.5C 243.315,82.1701 242.981,82.1701 242.5,81.5 Z"/></g>
<g><path style="opacity:0.008" fill="#047ac3" d="M 241.5,82.5 C 241.833,82.5 242.167,82.5 242.5,82.5C 242.315,83.1701 241.981,83.1701 241.5,82.5 Z"/></g>
<g><path style="opacity:0.012" fill="#047ac3" d="M 240.5,83.5 C 240.833,83.5 241.167,83.5 241.5,83.5C 241.315,84.1701 240.981,84.1701 240.5,83.5 Z"/></g>
<g><path style="opacity:0.008" fill="#037ac3" d="M 238.5,85.5 C 238.5,85.1667 238.5,84.8333 238.5,84.5C 239.167,84.5 239.833,84.5 240.5,84.5C 240.158,85.3382 239.492,85.6716 238.5,85.5 Z"/></g>
<g><path style="opacity:0.012" fill="#047bc4" d="M 196.5,88.5 C 196.351,87.448 196.517,86.448 197,85.5C 197.74,86.7494 197.573,87.7494 196.5,88.5 Z"/></g>
<g><path style="opacity:0.008" fill="#037cc4" d="M 236.5,86.5 C 236.5,86.1667 236.5,85.8333 236.5,85.5C 237.167,85.5 237.833,85.5 238.5,85.5C 238.158,86.3382 237.492,86.6716 236.5,86.5 Z"/></g>
<g><path style="opacity:0.012" fill="#057cc4" d="M 234.5,87.5 C 234.5,87.1667 234.5,86.8333 234.5,86.5C 235.167,86.5 235.833,86.5 236.5,86.5C 236.158,87.3382 235.492,87.6716 234.5,87.5 Z"/></g>
<g><path style="opacity:0.02" fill="#037bc4" d="M 233.5,87.5 C 233.833,87.5 234.167,87.5 234.5,87.5C 234.315,88.1701 233.981,88.1701 233.5,87.5 Z"/></g>
<g><path style="opacity:0.02" fill="#047ac4" d="M 232.5,88.5 C 232.833,88.5 233.167,88.5 233.5,88.5C 233.315,89.1701 232.981,89.1701 232.5,88.5 Z"/></g>
<g><path style="opacity:0.007" fill="#037ac3" d="M 160.5,89.5 C 161.167,89.5 161.833,89.5 162.5,89.5C 162.5,90.1667 162.5,90.8333 162.5,91.5C 161.5,91.1667 160.833,90.5 160.5,89.5 Z"/></g>
<g><path style="opacity:0.011" fill="#037bc3" d="M 197.5,89.5 C 198.613,90.9464 198.78,92.6131 198,94.5C 197.506,92.8659 197.34,91.1992 197.5,89.5 Z"/></g>
<g><path style="opacity:0.008" fill="#037bc3" d="M 231.5,89.5 C 231.833,89.5 232.167,89.5 232.5,89.5C 232.672,90.4916 232.338,91.1583 231.5,91.5C 231.5,90.8333 231.5,90.1667 231.5,89.5 Z"/></g>
<g><path style="opacity:0.01" fill="#037bc3" d="M 20.5,90.5 C 21.6225,92.2884 21.7891,94.2884 21,96.5C 20.5045,94.5273 20.3379,92.5273 20.5,90.5 Z"/></g>
<g><path style="opacity:0.008" fill="#037bc3" d="M 230.5,91.5 C 230.833,91.5 231.167,91.5 231.5,91.5C 231.672,92.4916 231.338,93.1583 230.5,93.5C 230.5,92.8333 230.5,92.1667 230.5,91.5 Z"/></g>
<g><path style="opacity:0.008" fill="#037bc4" d="M 229.5,93.5 C 229.833,93.5 230.167,93.5 230.5,93.5C 230.672,94.4916 230.338,95.1583 229.5,95.5C 229.5,94.8333 229.5,94.1667 229.5,93.5 Z"/></g>
<g><path style="opacity:0.012" fill="#047ac4" d="M 228.5,95.5 C 228.833,95.5 229.167,95.5 229.5,95.5C 229.315,96.1701 228.981,96.1701 228.5,95.5 Z"/></g>
<g><path style="opacity:0.008" fill="#037ac3" d="M 227.5,96.5 C 227.833,96.5 228.167,96.5 228.5,96.5C 228.315,97.1701 227.981,97.1701 227.5,96.5 Z"/></g>
<g><path style="opacity:0.005" fill="#027bc4" d="M 198.5,97.5 C 199.638,100.304 199.805,103.304 199,106.5C 198.502,103.518 198.335,100.518 198.5,97.5 Z"/></g>
<g><path style="opacity:0.012" fill="#037ac4" d="M 220.5,97.5 C 220.5,97.8333 220.5,98.1667 220.5,98.5C 219.83,98.0187 219.83,97.6853 220.5,97.5 Z"/></g>
<g><path style="opacity:0.008" fill="#037ac3" d="M 226.5,97.5 C 226.833,97.5 227.167,97.5 227.5,97.5C 227.315,98.1701 226.981,98.1701 226.5,97.5 Z"/></g>
<g><path style="opacity:0.01" fill="#037bc4" d="M 220.5,98.5 C 221.239,98.369 221.906,98.5357 222.5,99C 221.563,99.6917 220.897,99.525 220.5,98.5 Z"/></g>
<g><path style="opacity:0.008" fill="#027bc4" d="M 226.5,98.5 C 226.103,99.525 225.437,99.6917 224.5,99C 225.094,98.5357 225.761,98.369 226.5,98.5 Z"/></g>
<g><path style="opacity:0.01" fill="#037bc4" d="M 20.5,108.5 C 21.6225,110.288 21.7891,112.288 21,114.5C 20.5045,112.527 20.3379,110.527 20.5,108.5 Z"/></g>
<g><path style="opacity:0.01" fill="#037bc4" d="M 197.5,110.5 C 198.622,112.288 198.789,114.288 198,116.5C 197.505,114.527 197.338,112.527 197.5,110.5 Z"/></g>
<g><path style="opacity:0.01" fill="#037bc4" d="M 21.5,116.5 C 22.5983,117.601 22.765,118.934 22,120.5C 21.51,119.207 21.3433,117.873 21.5,116.5 Z"/></g>
<g><path style="opacity:0.01" fill="#037bc4" d="M 196.5,117.5 C 197.598,118.601 197.765,119.934 197,121.5C 196.51,120.207 196.343,118.873 196.5,117.5 Z"/></g>
<g><path style="opacity:0.009" fill="#037bc4" d="M 23.5,121.5 C 23.6567,122.873 23.49,124.207 23,125.5C 22.235,123.934 22.4017,122.601 23.5,121.5 Z"/></g>
<g><path style="opacity:0.012" fill="#047bc4" d="M 195.5,122.5 C 196.573,123.251 196.74,124.251 196,125.5C 195.517,124.552 195.351,123.552 195.5,122.5 Z"/></g>
<g><path style="opacity:0.01" fill="#037bc3" d="M 23.5,126.5 C 24.525,126.897 24.6917,127.563 24,128.5C 23.5357,127.906 23.369,127.239 23.5,126.5 Z"/></g>
<g><path style="opacity:0.012" fill="#027bc4" d="M 194.5,126.5 C 195.573,127.251 195.74,128.251 195,129.5C 194.517,128.552 194.351,127.552 194.5,126.5 Z"/></g>
<g><path style="opacity:0.009" fill="#047bc4" d="M 25.5,129.5 C 25.6495,130.552 25.4828,131.552 25,132.5C 24.2599,131.251 24.4265,130.251 25.5,129.5 Z"/></g>
<g><path style="opacity:0.008" fill="#037ac5" d="M 193.5,130.5 C 194.833,131.5 194.833,132.5 193.5,133.5C 193.5,132.5 193.5,131.5 193.5,130.5 Z"/></g>
<g><path style="opacity:0.01" fill="#037bc4" d="M 25.5,133.5 C 26.525,133.897 26.6917,134.563 26,135.5C 25.5357,134.906 25.369,134.239 25.5,133.5 Z"/></g>
<g><path style="opacity:0.008" fill="#047cc4" d="M 192.5,133.5 C 192.833,133.5 193.167,133.5 193.5,133.5C 193.737,134.791 193.404,135.791 192.5,136.5C 192.5,135.5 192.5,134.5 192.5,133.5 Z"/></g>
<g><path style="opacity:0.01" fill="#037bc4" d="M 27.5,136.5 C 27.631,137.239 27.4643,137.906 27,138.5C 26.3083,137.563 26.475,136.897 27.5,136.5 Z"/></g>
<g><path style="opacity:0.01" fill="#037bc4" d="M 191.5,136.5 C 191.833,136.5 192.167,136.5 192.5,136.5C 192.737,137.791 192.404,138.791 191.5,139.5C 191.5,138.5 191.5,137.5 191.5,136.5 Z"/></g>
<g><path style="opacity:0.01" fill="#027bc4" d="M 28.5,139.5 C 28.631,140.239 28.4643,140.906 28,141.5C 27.3083,140.563 27.475,139.897 28.5,139.5 Z"/></g>
<g><path style="opacity:0.008" fill="#037cc4" d="M 190.5,139.5 C 190.833,139.5 191.167,139.5 191.5,139.5C 191.737,140.791 191.404,141.791 190.5,142.5C 190.5,141.5 190.5,140.5 190.5,139.5 Z"/></g>
<g><path style="opacity:0.008" fill="#037ac4" d="M 29.5,144.5 C 28.475,144.103 28.3083,143.437 29,142.5C 29.4643,143.094 29.631,143.761 29.5,144.5 Z"/></g>
<g><path style="opacity:0.008" fill="#037ac4" d="M 189.5,142.5 C 189.833,142.5 190.167,142.5 190.5,142.5C 190.167,145.167 189.833,145.167 189.5,142.5 Z"/></g>
<g><path style="opacity:0.012" fill="#037bc4" d="M 29.5,144.5 C 29.8333,144.5 30.1667,144.5 30.5,144.5C 30.1667,147.167 29.8333,147.167 29.5,144.5 Z"/></g>
<g><path style="opacity:0.008" fill="#037cc4" d="M 188.5,145.5 C 189.833,146.167 189.833,146.833 188.5,147.5C 188.5,146.833 188.5,146.167 188.5,145.5 Z"/></g>
<g><path style="opacity:0.01" fill="#037bc4" d="M 187.5,147.5 C 187.833,147.5 188.167,147.5 188.5,147.5C 188.167,150.167 187.833,150.167 187.5,147.5 Z"/></g>
<g><path style="opacity:0.008" fill="#037bc4" d="M 32.5,149.5 C 32.631,150.239 32.4643,150.906 32,151.5C 31.3083,150.563 31.475,149.897 32.5,149.5 Z"/></g>
<g><path style="opacity:0.008" fill="#027bc4" d="M 186.5,152.5 C 186.369,151.761 186.536,151.094 187,150.5C 187.692,151.437 187.525,152.103 186.5,152.5 Z"/></g>
<g><path style="opacity:0.012" fill="#037bc4" d="M 32.5,152.5 C 33.8333,153.167 33.8333,153.167 32.5,152.5 Z"/></g>
<g><path style="opacity:0.01" fill="#027bc4" d="M 185.5,152.5 C 185.833,152.5 186.167,152.5 186.5,152.5C 186.672,153.492 186.338,154.158 185.5,154.5C 185.5,153.833 185.5,153.167 185.5,152.5 Z"/></g>
<g><path style="opacity:0.008" fill="#037bc4" d="M 184.5,154.5 C 184.833,154.5 185.167,154.5 185.5,154.5C 185.672,155.492 185.338,156.158 184.5,156.5C 184.5,155.833 184.5,155.167 184.5,154.5 Z"/></g>
<g><path style="opacity:0.008" fill="#047ac3" d="M 183.5,156.5 C 183.833,156.5 184.167,156.5 184.5,156.5C 184.167,159.167 183.833,159.167 183.5,156.5 Z"/></g>
<g><path style="opacity:0.012" fill="#037ac4" d="M 182.5,159.5 C 183.833,160.167 183.833,160.167 182.5,159.5 Z"/></g>
<g><path style="opacity:0.012" fill="#037bc4" d="M 181.5,161.5 C 182.833,162.167 182.833,162.167 181.5,161.5 Z"/></g>
<g><path style="opacity:0.012" fill="#037ac4" d="M 180.5,163.5 C 181.833,164.167 181.833,164.167 180.5,163.5 Z"/></g>
<g><path style="opacity:0.008" fill="#037cc4" d="M 39.5,164.5 C 39.631,165.239 39.4643,165.906 39,166.5C 38.3083,165.563 38.475,164.897 39.5,164.5 Z"/></g>
<g><path style="opacity:0.012" fill="#037ac4" d="M 179.5,165.5 C 180.833,166.167 180.833,166.167 179.5,165.5 Z"/></g>
<g><path style="opacity:0.012" fill="#037bc4" d="M 178.5,167.5 C 179.833,168.167 179.833,168.167 178.5,167.5 Z"/></g>
<g><path style="opacity:0.012" fill="#037ac4" d="M 177.5,169.5 C 178.833,170.167 178.833,170.167 177.5,169.5 Z"/></g>
<g><path style="opacity:0.006" fill="#047bc3" d="M 176.5,170.5 C 176.833,170.5 177.167,170.5 177.5,170.5C 177.672,171.492 177.338,172.158 176.5,172.5C 176.5,171.833 176.5,171.167 176.5,170.5 Z"/></g>
<g><path style="opacity:0.011" fill="#037bc4" d="M 107.5,171.5 C 108.833,171.5 110.167,171.5 111.5,171.5C 110.329,172.345 108.995,173.011 107.5,173.5C 107.5,172.833 107.5,172.167 107.5,171.5 Z"/></g>
<g><path style="opacity:0.016" fill="#037bc4" d="M 43.5,172.5 C 42.8333,173.167 42.8333,173.167 43.5,172.5 Z"/></g>
<g><path style="opacity:0.01" fill="#027bc4" d="M 175.5,172.5 C 175.833,172.5 176.167,172.5 176.5,172.5C 176.672,173.492 176.338,174.158 175.5,174.5C 175.5,173.833 175.5,173.167 175.5,172.5 Z"/></g>
<g><path style="opacity:0.01" fill="#027bc4" d="M 106.5,173.5 C 106.833,173.5 107.167,173.5 107.5,173.5C 107.672,174.492 107.338,175.158 106.5,175.5C 106.5,174.833 106.5,174.167 106.5,173.5 Z"/></g>
<g><path style="opacity:0.012" fill="#027ac4" d="M 111.5,173.5 C 112.833,174.167 112.833,174.167 111.5,173.5 Z"/></g>
<g><path style="opacity:0.012" fill="#037ac5" d="M 44.5,174.5 C 43.8333,175.167 43.8333,175.167 44.5,174.5 Z"/></g>
<g><path style="opacity:0.008" fill="#037bc4" d="M 174.5,174.5 C 174.833,174.5 175.167,174.5 175.5,174.5C 175.672,175.492 175.338,176.158 174.5,176.5C 174.5,175.833 174.5,175.167 174.5,174.5 Z"/></g>
<g><path style="opacity:0.01" fill="#037bc4" d="M 113.5,175.5 C 113.631,176.239 113.464,176.906 113,177.5C 112.308,176.563 112.475,175.897 113.5,175.5 Z"/></g>
<g><path style="opacity:0.012" fill="#037ac4" d="M 44.5,176.5 C 45.8333,177.167 45.8333,177.167 44.5,176.5 Z"/></g>
<g><path style="opacity:0.008" fill="#037bc3" d="M 105.5,175.5 C 105.833,175.5 106.167,175.5 106.5,175.5C 106.167,179.5 105.833,179.5 105.5,175.5 Z"/></g>
<g><path style="opacity:0.008" fill="#037ac5" d="M 173.5,176.5 C 173.833,176.5 174.167,176.5 174.5,176.5C 174.672,177.492 174.338,178.158 173.5,178.5C 173.5,177.833 173.5,177.167 173.5,176.5 Z"/></g>
<g><path style="opacity:0.012" fill="#037ac4" d="M 45.5,178.5 C 46.8333,179.167 46.8333,179.167 45.5,178.5 Z"/></g>
<g><path style="opacity:0.008" fill="#037bc4" d="M 114.5,178.5 C 114.649,179.552 114.483,180.552 114,181.5C 113.26,180.251 113.427,179.251 114.5,178.5 Z"/></g>
<g><path style="opacity:0.008" fill="#037bc4" d="M 172.5,178.5 C 172.833,178.5 173.167,178.5 173.5,178.5C 173.672,179.492 173.338,180.158 172.5,180.5C 172.5,179.833 172.5,179.167 172.5,178.5 Z"/></g>
<g><path style="opacity:0.009" fill="#027bc4" d="M 104.5,179.5 C 105.573,180.251 105.74,181.251 105,182.5C 104.517,181.552 104.351,180.552 104.5,179.5 Z"/></g>
<g><path style="opacity:0.012" fill="#037ac5" d="M 46.5,180.5 C 47.8333,181.167 47.8333,181.167 46.5,180.5 Z"/></g>
<g><path style="opacity:0.008" fill="#037cc4" d="M 171.5,180.5 C 171.833,180.5 172.167,180.5 172.5,180.5C 172.672,181.492 172.338,182.158 171.5,182.5C 171.5,181.833 171.5,181.167 171.5,180.5 Z"/></g>
<g><path style="opacity:0.008" fill="#047bc2" d="M 170.5,182.5 C 170.833,182.5 171.167,182.5 171.5,182.5C 171.167,185.167 170.833,185.167 170.5,182.5 Z"/></g>
<g><path style="opacity:0.009" fill="#037bc4" d="M 103.5,183.5 C 104.598,184.601 104.765,185.934 104,187.5C 103.51,186.207 103.343,184.873 103.5,183.5 Z"/></g>
<g><path style="opacity:0.009" fill="#037bc4" d="M 115.5,182.5 C 115.657,183.873 115.49,185.207 115,186.5C 114.235,184.934 114.402,183.601 115.5,182.5 Z"/></g>
<g><path style="opacity:0.008" fill="#037cc4" d="M 49.5,184.5 C 49.5,185.5 49.5,186.5 49.5,187.5C 48.1667,186.5 48.1667,185.5 49.5,184.5 Z"/></g>
<g><path style="opacity:0.01" fill="#037ac4" d="M 169.5,185.5 C 170.525,185.897 170.692,186.563 170,187.5C 169.536,186.906 169.369,186.239 169.5,185.5 Z"/></g>
<g><path style="opacity:0.008" fill="#037bc4" d="M 49.5,187.5 C 49.8333,187.5 50.1667,187.5 50.5,187.5C 50.5,188.5 50.5,189.5 50.5,190.5C 49.596,189.791 49.2627,188.791 49.5,187.5 Z"/></g>
<g><path style="opacity:0.01" fill="#037bc4" d="M 115.5,188.5 C 116.598,189.601 116.765,190.934 116,192.5C 115.51,191.207 115.343,189.873 115.5,188.5 Z"/></g>
<g><path style="opacity:0.01" fill="#037bc4" d="M 168.5,188.5 C 169.525,188.897 169.692,189.563 169,190.5C 168.536,189.906 168.369,189.239 168.5,188.5 Z"/></g>
<g><path style="opacity:0.01" fill="#037bc4" d="M 102.5,189.5 C 103.598,190.601 103.765,191.934 103,193.5C 102.51,192.207 102.343,190.873 102.5,189.5 Z"/></g>
<g><path style="opacity:0.01" fill="#037bc4" d="M 50.5,190.5 C 50.8333,190.5 51.1667,190.5 51.5,190.5C 51.1667,194.5 50.8333,194.5 50.5,190.5 Z"/></g>
<g><path style="opacity:0.008" fill="#037bc4" d="M 167.5,191.5 C 168.573,192.251 168.74,193.251 168,194.5C 167.517,193.552 167.351,192.552 167.5,191.5 Z"/></g>
<g><path style="opacity:0.009" fill="#027bc4" d="M 52.5,194.5 C 52.6495,195.552 52.4828,196.552 52,197.5C 51.2599,196.251 51.4265,195.251 52.5,194.5 Z"/></g>
<g><path style="opacity:0.01" fill="#047bc4" d="M 117.5,194.5 C 117.662,196.527 117.495,198.527 117,200.5C 116.211,198.288 116.378,196.288 117.5,194.5 Z"/></g>
<g><path style="opacity:0.012" fill="#037bc4" d="M 166.5,195.5 C 167.525,195.897 167.692,196.563 167,197.5C 166.536,196.906 166.369,196.239 166.5,195.5 Z"/></g>
<g><path style="opacity:0.01" fill="#037bc3" d="M 101.5,196.5 C 102.613,197.946 102.78,199.613 102,201.5C 101.506,199.866 101.34,198.199 101.5,196.5 Z"/></g>
<g><path style="opacity:0.009" fill="#027bc3" d="M 52.5,198.5 C 53.5735,199.251 53.7401,200.251 53,201.5C 52.5172,200.552 52.3505,199.552 52.5,198.5 Z"/></g>
<g><path style="opacity:0.009" fill="#037cc4" d="M 165.5,198.5 C 166.598,199.601 166.765,200.934 166,202.5C 165.51,201.207 165.343,199.873 165.5,198.5 Z"/></g>
<g><path style="opacity:0.009" fill="#037bc4" d="M 53.5,202.5 C 54.5735,203.251 54.7401,204.251 54,205.5C 53.5172,204.552 53.3505,203.552 53.5,202.5 Z"/></g>
<g><path style="opacity:0.009" fill="#037bc4" d="M 164.5,203.5 C 165.573,204.251 165.74,205.251 165,206.5C 164.517,205.552 164.351,204.552 164.5,203.5 Z"/></g>
<g><path style="opacity:0.009" fill="#037bc4" d="M 100.5,204.5 C 101.634,206.966 101.801,209.633 101,212.5C 100.503,209.854 100.336,207.187 100.5,204.5 Z"/></g>
<g><path style="opacity:0.011" fill="#037bc4" d="M 117.5,203.5 C 118.622,205.288 118.789,207.288 118,209.5C 117.505,207.527 117.338,205.527 117.5,203.5 Z"/></g>
<g><path style="opacity:0.009" fill="#037bc4" d="M 55.5,206.5 C 55.6567,207.873 55.49,209.207 55,210.5C 54.235,208.934 54.4017,207.601 55.5,206.5 Z"/></g>
<g><path style="opacity:0.009" fill="#037bc4" d="M 163.5,207.5 C 164.598,208.601 164.765,209.934 164,211.5C 163.51,210.207 163.343,208.873 163.5,207.5 Z"/></g>
<g><path style="opacity:0.009" fill="#037ac4" d="M 56.5,211.5 C 56.6567,212.873 56.49,214.207 56,215.5C 55.235,213.934 55.4017,212.601 56.5,211.5 Z"/></g>
<g><path style="opacity:0.009" fill="#037ac4" d="M 162.5,212.5 C 163.598,213.601 163.765,214.934 163,216.5C 162.51,215.207 162.343,213.873 162.5,212.5 Z"/></g>
<g><path style="opacity:0.009" fill="#027bc4" d="M 118.5,212.5 C 119.629,214.628 119.796,216.961 119,219.5C 118.503,217.19 118.337,214.857 118.5,212.5 Z"/></g>
<g><path style="opacity:0.009" fill="#037bc4" d="M 99.5,214.5 C 100.622,216.288 100.789,218.288 100,220.5C 99.5045,218.527 99.3379,216.527 99.5,214.5 Z"/></g>
<g><path style="opacity:0.012" fill="#037cc4" d="M 56.5,216.5 C 57.5735,217.251 57.7401,218.251 57,219.5C 56.5172,218.552 56.3505,217.552 56.5,216.5 Z"/></g>
<g><path style="opacity:0.01" fill="#037bc4" d="M 161.5,217.5 C 162.573,218.251 162.74,219.251 162,220.5C 161.517,219.552 161.351,218.552 161.5,217.5 Z"/></g>
<g><path style="opacity:0.009" fill="#037bc4" d="M 57.5,221.5 C 58.5735,222.251 58.7401,223.251 58,224.5C 57.5172,223.552 57.3505,222.552 57.5,221.5 Z"/></g>
<g><path style="opacity:0.01" fill="#037bc4" d="M 119.5,221.5 C 120.613,222.946 120.78,224.613 120,226.5C 119.506,224.866 119.34,223.199 119.5,221.5 Z"/></g>
<g><path style="opacity:0.009" fill="#037bc4" d="M 160.5,222.5 C 161.573,223.251 161.74,224.251 161,225.5C 160.517,224.552 160.351,223.552 160.5,222.5 Z"/></g>
<g><path style="opacity:0.01" fill="#037bc4" d="M 98.5,223.5 C 99.6129,224.946 99.7796,226.613 99,228.5C 98.5065,226.866 98.3398,225.199 98.5,223.5 Z"/></g>
<g><path style="opacity:0.012" fill="#047bc4" d="M 59.5,225.5 C 59.6495,226.552 59.4828,227.552 59,228.5C 58.2599,227.251 58.4265,226.251 59.5,225.5 Z"/></g>
<g><path style="opacity:0.009" fill="#037bc4" d="M 159.5,226.5 C 160.573,227.251 160.74,228.251 160,229.5C 159.517,228.552 159.351,227.552 159.5,226.5 Z"/></g>
<g><path style="opacity:0.008" fill="#037bc4" d="M 60.5,229.5 C 60.6495,230.552 60.4828,231.552 60,232.5C 59.2599,231.251 59.4265,230.251 60.5,229.5 Z"/></g>
<g><path style="opacity:0.01" fill="#037bc3" d="M 121.5,228.5 C 121.66,230.199 121.494,231.866 121,233.5C 120.22,231.613 120.387,229.946 121.5,228.5 Z"/></g>
<g><path style="opacity:0.01" fill="#037bc4" d="M 97.5,229.5 C 98.5983,230.601 98.765,231.934 98,233.5C 97.51,232.207 97.3433,230.873 97.5,229.5 Z"/></g>
<g><path style="opacity:0.009" fill="#037bc4" d="M 158.5,230.5 C 159.833,231.5 159.833,232.5 158.5,233.5C 158.5,232.5 158.5,231.5 158.5,230.5 Z"/></g>
<g><path style="opacity:0.012" fill="#037cc3" d="M 61.5,233.5 C 61.631,234.239 61.4643,234.906 61,235.5C 60.3083,234.563 60.475,233.897 61.5,233.5 Z"/></g>
<g><path style="opacity:0.009" fill="#037bc4" d="M 121.5,234.5 C 122.573,235.251 122.74,236.251 122,237.5C 121.517,236.552 121.351,235.552 121.5,234.5 Z"/></g>
<g><path style="opacity:0.01" fill="#047cc4" d="M 157.5,233.5 C 157.833,233.5 158.167,233.5 158.5,233.5C 158.737,234.791 158.404,235.791 157.5,236.5C 157.5,235.5 157.5,234.5 157.5,233.5 Z"/></g>
<g><path style="opacity:0.01" fill="#037bc4" d="M 96.5,238.5 C 96.3505,237.448 96.5172,236.448 97,235.5C 97.7401,236.749 97.5735,237.749 96.5,238.5 Z"/></g>
<g><path style="opacity:0.01" fill="#037bc4" d="M 62.5,236.5 C 62.631,237.239 62.4643,237.906 62,238.5C 61.3083,237.563 61.475,236.897 62.5,236.5 Z"/></g>
<g><path style="opacity:0.007" fill="#037bc4" d="M 156.5,236.5 C 156.833,236.5 157.167,236.5 157.5,236.5C 157.737,237.791 157.404,238.791 156.5,239.5C 156.5,238.5 156.5,237.5 156.5,236.5 Z"/></g>
<g><path style="opacity:0.008" fill="#027bc3" d="M 62.5,239.5 C 63.525,239.897 63.6917,240.563 63,241.5C 62.5357,240.906 62.369,240.239 62.5,239.5 Z"/></g>
<g><path style="opacity:0.01" fill="#037bc5" d="M 95.5,238.5 C 95.8333,238.5 96.1667,238.5 96.5,238.5C 96.1667,242.5 95.8333,242.5 95.5,238.5 Z"/></g>
<g><path style="opacity:0.01" fill="#037ac4" d="M 155.5,239.5 C 155.833,239.5 156.167,239.5 156.5,239.5C 156.672,240.492 156.338,241.158 155.5,241.5C 155.5,240.833 155.5,240.167 155.5,239.5 Z"/></g>
<g><path style="opacity:0.008" fill="#047bc3" d="M 154.5,241.5 C 154.833,241.5 155.167,241.5 155.5,241.5C 155.672,242.492 155.338,243.158 154.5,243.5C 154.5,242.833 154.5,242.167 154.5,241.5 Z"/></g>
<g><path style="opacity:0.009" fill="#027bc4" d="M 84.5,242.5 C 84.5,243.167 84.5,243.833 84.5,244.5C 83.8333,244.5 83.1667,244.5 82.5,244.5C 82.8333,243.5 83.5,242.833 84.5,242.5 Z"/></g>
<g><path style="opacity:0.008" fill="#037ac4" d="M 94.5,244.5 C 94.369,243.761 94.5357,243.094 95,242.5C 95.6917,243.437 95.525,244.103 94.5,244.5 Z"/></g>
<g><path style="opacity:0.012" fill="#037bc4" d="M 124.5,241.5 C 124.631,242.239 124.464,242.906 124,243.5C 123.308,242.563 123.475,241.897 124.5,241.5 Z"/></g>
<g><path style="opacity:0.012" fill="#037ac3" d="M 65.5,243.5 C 64.8333,244.167 64.8333,244.167 65.5,243.5 Z"/></g>
<g><path style="opacity:0.004" fill="#037cc5" d="M 136.5,244.5 C 135.833,244.5 135.167,244.5 134.5,244.5C 134.786,242.067 135.452,242.067 136.5,244.5 Z"/></g>
<g><path style="opacity:0.006" fill="#037bc3" d="M 153.5,243.5 C 153.833,243.5 154.167,243.5 154.5,243.5C 154.672,244.492 154.338,245.158 153.5,245.5C 153.5,244.833 153.5,244.167 153.5,243.5 Z"/></g>
<g><path style="opacity:0.008" fill="#037bc5" d="M 93.5,244.5 C 93.8333,244.5 94.1667,244.5 94.5,244.5C 94.6716,245.492 94.3382,246.158 93.5,246.5C 93.5,245.833 93.5,245.167 93.5,244.5 Z"/></g>
<g><path style="opacity:0.012" fill="#037ac4" d="M 125.5,244.5 C 124.833,245.167 124.833,245.167 125.5,244.5 Z"/></g>
<g><path style="opacity:0.012" fill="#037ac4" d="M 152.5,245.5 C 152.833,245.5 153.167,245.5 153.5,245.5C 153.315,246.17 152.981,246.17 152.5,245.5 Z"/></g>
<g><path style="opacity:0.012" fill="#047ac5" d="M 92.5,246.5 C 92.8333,246.5 93.1667,246.5 93.5,246.5C 93.3147,247.17 92.9813,247.17 92.5,246.5 Z"/></g>
<g><path style="opacity:0.004" fill="#047cc4" d="M 68.5,247.5 C 68.5,248.167 68.5,248.833 68.5,249.5C 67.1667,248.833 67.1667,248.167 68.5,247.5 Z"/></g>
<g><path style="opacity:0.008" fill="#037ac5" d="M 91.5,248.5 C 92.8333,249.167 92.8333,249.167 91.5,248.5 Z"/></g>
<g><path style="opacity:0.004" fill="#037cc3" d="M 127.5,247.5 C 127.631,248.239 127.464,248.906 127,249.5C 126.308,248.563 126.475,247.897 127.5,247.5 Z"/></g>
<g><path style="opacity:0.004" fill="#037ac4" d="M 68.5,249.5 C 69.1667,249.5 69.5,249.833 69.5,250.5C 69.1667,250.167 68.8333,249.833 68.5,249.5 Z"/></g>
<g><path style="opacity:0.012" fill="#037ac4" d="M 90.5,249.5 C 90.8333,249.5 91.1667,249.5 91.5,249.5C 91.3147,250.17 90.9813,250.17 90.5,249.5 Z"/></g>
<g><path style="opacity:0.004" fill="#027bc4" d="M 69.5,250.5 C 70.8333,251.167 70.8333,251.167 69.5,250.5 Z"/></g>
<g><path style="opacity:0.012" fill="#037bc4" d="M 89.5,250.5 C 89.8333,250.5 90.1667,250.5 90.5,250.5C 90.3147,251.17 89.9813,251.17 89.5,250.5 Z"/></g>
<g><path style="opacity:0.008" fill="#027ac3" d="M 148.5,250.5 C 149.833,251.167 149.833,251.167 148.5,250.5 Z"/></g>
<g><path style="opacity:0.012" fill="#037ac5" d="M 88.5,251.5 C 88.8333,251.5 89.1667,251.5 89.5,251.5C 89.3147,252.17 88.9813,252.17 88.5,251.5 Z"/></g>
<g><path style="opacity:0.012" fill="#047ac4" d="M 130.5,251.5 C 130.5,251.833 130.5,252.167 130.5,252.5C 129.83,252.019 129.83,251.685 130.5,251.5 Z"/></g>
<g><path style="opacity:0.006" fill="#037bc2" d="M 146.5,252.5 C 146.5,252.167 146.5,251.833 146.5,251.5C 147.167,251.5 147.833,251.5 148.5,251.5C 148.158,252.338 147.492,252.672 146.5,252.5 Z"/></g>
<g><path style="opacity:0.008" fill="#037ac4" d="M 73.5,252.5 C 72.8333,253.167 72.8333,253.167 73.5,252.5 Z"/></g>
<g><path style="opacity:0.008" fill="#0379c4" d="M 88.5,252.5 C 87.8333,253.167 87.8333,253.167 88.5,252.5 Z"/></g>
<g><path style="opacity:0.008" fill="#047ac4" d="M 130.5,252.5 C 131.833,253.167 131.833,253.167 130.5,252.5 Z"/></g>
<g><path style="opacity:0.012" fill="#037ac4" d="M 145.5,252.5 C 145.833,252.5 146.167,252.5 146.5,252.5C 146.315,253.17 145.981,253.17 145.5,252.5 Z"/></g>
<g><path style="opacity:0.004" fill="#047cc3" d="M 76.5,253.5 C 76.5,253.833 76.5,254.167 76.5,254.5C 73.8333,254.167 73.8333,253.833 76.5,253.5 Z"/></g>
<g><path style="opacity:0.012" fill="#047ac4" d="M 85.5,253.5 C 86.8333,254.167 86.8333,254.167 85.5,253.5 Z"/></g>
<g><path style="opacity:0.004" fill="#057bc4" d="M 134.5,253.5 C 134.5,253.833 134.5,254.167 134.5,254.5C 131.833,254.167 131.833,253.833 134.5,253.5 Z"/></g>
<g><path style="opacity:0.012" fill="#037ac4" d="M 143.5,253.5 C 144.833,254.167 144.833,254.167 143.5,253.5 Z"/></g>
<g><path style="opacity:0.009" fill="#037bc4" d="M 76.5,255.5 C 76.5,255.167 76.5,254.833 76.5,254.5C 79.3854,254.194 82.0521,254.527 84.5,255.5C 81.8333,255.5 79.1667,255.5 76.5,255.5 Z"/></g>
<g><path style="opacity:0.009" fill="#027bc4" d="M 134.5,255.5 C 134.5,255.167 134.5,254.833 134.5,254.5C 137.385,254.194 140.052,254.527 142.5,255.5C 139.833,255.5 137.167,255.5 134.5,255.5 Z"/></g>
</svg>
