<?xml version="1.0" encoding="UTF-8"?>
<!DOCTYPE svg PUBLIC "-//W3C//DTD SVG 1.1//EN" "http://www.w3.org/Graphics/SVG/1.1/DTD/svg11.dtd">
<svg xmlns="http://www.w3.org/2000/svg" version="1.1" width="394px" height="220px" style="shape-rendering:geometricPrecision; text-rendering:geometricPrecision; image-rendering:optimizeQuality; fill-rule:evenodd; clip-rule:evenodd" xmlns:xlink="http://www.w3.org/1999/xlink">
<g><path style="opacity:0.832" fill="#48a2d1" d="M 180.5,52.5 C 177.438,41.2233 171.438,31.7233 162.5,24C 155.27,19.5108 147.604,18.5108 139.5,21C 131.906,24.9349 124.573,29.2682 117.5,34C 109.954,36.8878 102.287,37.2212 94.5,35C 88.819,31.8272 83.4856,28.1605 78.5,24C 71.2581,19.51 63.5915,18.51 55.5,21C 31.6431,34.1754 22.1431,54.342 27,81.5C 31.1178,111.215 38.1178,140.215 48,168.5C 51.7061,176.201 56.8727,182.701 63.5,188C 69.0438,190.781 73.5438,189.614 77,184.5C 79.2737,180.286 81.2737,175.953 83,171.5C 86.071,160.62 89.7377,149.953 94,139.5C 102.201,130.536 108.534,131.869 113,143.5C 117.007,157.853 122.007,171.853 128,185.5C 134.84,192.316 141.174,191.649 147,183.5C 153.499,170.851 158.166,157.518 161,143.5C 162.039,142.29 163.206,141.29 164.5,140.5C 175.185,140.39 185.852,140.723 196.5,141.5C 200.173,143 203.506,145 206.5,147.5C 192.833,147.5 179.167,147.5 165.5,147.5C 163.333,162.17 158.5,175.837 151,188.5C 141.896,198.696 132.563,199.029 123,189.5C 116.102,176.147 110.769,162.147 107,147.5C 105.985,144.79 104.485,142.457 102.5,140.5C 100.854,141.779 99.6872,143.445 99,145.5C 95.0462,160.363 89.7128,174.696 83,188.5C 72.5089,199.312 62.1756,198.978 52,187.5C 41.1797,172.516 34.1797,155.849 31,137.5C 27.2954,119.568 23.9621,101.568 21,83.5C 16.5645,59.3679 23.3978,39.2012 41.5,23C 51.8199,15.4868 63.1532,13.4868 75.5,17C 81.444,20.6112 87.1107,24.6112 92.5,29C 99.5598,32.6721 106.893,33.3388 114.5,31C 123.091,25.5377 132.091,20.871 141.5,17C 153.586,15.1384 163.419,18.9717 171,28.5C 176.285,36.0081 179.452,44.0081 180.5,52.5 Z"/></g>
<g><path style="opacity:0.985" fill="#fcfdfd" d="M 180.5,52.5 C 181.817,56.0534 182.817,59.7201 183.5,63.5C 186.885,66.6367 190.718,67.3033 195,65.5C 198.012,65.7261 200.845,66.5594 203.5,68C 209.829,73.1425 213.829,79.6425 215.5,87.5C 220.276,85.5041 225.109,85.1708 230,86.5C 235.904,81.7976 242.071,77.4642 248.5,73.5C 250.807,69.2636 254.307,66.597 259,65.5C 271.12,63.9854 281.454,67.6521 290,76.5C 292.006,79.5358 292.84,82.8691 292.5,86.5C 299.048,86.9246 305.548,86.9246 312,86.5C 315.267,86.6962 317.934,88.0295 320,90.5C 325.402,86.5679 330.736,86.5679 336,90.5C 336.925,89.9535 337.758,89.2868 338.5,88.5C 340.252,81.1586 343.918,74.9919 349.5,70C 357.618,67.3726 364.118,69.5392 369,76.5C 371.002,82.6849 369.169,87.1849 363.5,90C 370.879,100.692 368.212,107.525 355.5,110.5C 361.58,115.222 362.747,120.889 359,127.5C 356.46,129.705 354.293,132.205 352.5,135C 349.779,137.027 346.779,138.527 343.5,139.5C 339.951,138.726 336.618,137.393 333.5,135.5C 327.108,139.698 320.942,139.365 315,134.5C 309.567,138.354 304.067,138.354 298.5,134.5C 288.812,140.666 280.645,138.999 274,129.5C 267.855,138.106 260.189,140.106 251,135.5C 242.316,140.016 235.316,138.016 230,129.5C 225.918,133.076 222.418,137.076 219.5,141.5C 216.291,143.265 213.291,145.265 210.5,147.5C 209.167,147.5 207.833,147.5 206.5,147.5C 203.506,145 200.173,143 196.5,141.5C 190.838,135.67 185.338,129.67 180,123.5C 177.69,131.969 172.523,137.636 164.5,140.5C 163.206,141.29 162.039,142.29 161,143.5C 158.166,157.518 153.499,170.851 147,183.5C 141.174,191.649 134.84,192.316 128,185.5C 122.007,171.853 117.007,157.853 113,143.5C 108.534,131.869 102.201,130.536 94,139.5C 89.7377,149.953 86.071,160.62 83,171.5C 81.2737,175.953 79.2737,180.286 77,184.5C 73.5438,189.614 69.0438,190.781 63.5,188C 56.8727,182.701 51.7061,176.201 48,168.5C 38.1178,140.215 31.1178,111.215 27,81.5C 22.1431,54.342 31.6431,34.1754 55.5,21C 63.5915,18.51 71.2581,19.51 78.5,24C 83.4856,28.1605 88.819,31.8272 94.5,35C 102.287,37.2212 109.954,36.8878 117.5,34C 124.573,29.2682 131.906,24.9349 139.5,21C 147.604,18.5108 155.27,19.5108 162.5,24C 171.438,31.7233 177.438,41.2233 180.5,52.5 Z M 266.5,91.5 C 266.128,95.2971 264.794,98.6305 262.5,101.5C 263.263,97.8632 264.597,94.5299 266.5,91.5 Z M 196.5,141.5 C 185.852,140.723 175.185,140.39 164.5,140.5C 172.523,137.636 177.69,131.969 180,123.5C 185.338,129.67 190.838,135.67 196.5,141.5 Z"/></g>
<g><path style="opacity:1" fill="#a4d0e8" d="M 46.5,47.5 C 48.3536,43.0723 51.6869,40.9057 56.5,41C 52.6598,42.418 49.3265,44.5847 46.5,47.5 Z"/></g>
<g><path style="opacity:1" fill="#b0d7eb" d="M 46.5,47.5 C 43.5867,54.9652 42.7534,62.6319 44,70.5C 41.6005,65.8041 40.9338,60.8041 42,55.5C 42.7542,52.3156 44.2542,49.6489 46.5,47.5 Z"/></g>
<g><path style="opacity:1" fill="#4c579c" d="M 181.5,74.5 C 183.228,75.379 185.061,76.0457 187,76.5C 190.804,75.5213 194.638,75.3546 198.5,76C 200.293,78.7953 202.46,81.2953 205,83.5C 204.847,93.8074 199.847,100.474 190,103.5C 187.307,103.64 185.14,102.64 183.5,100.5C 192.566,99.4383 198.232,94.4383 200.5,85.5C 200.61,83.626 199.944,82.126 198.5,81C 193.64,80.0321 188.974,80.5321 184.5,82.5C 182.224,86.9286 180.558,91.5952 179.5,96.5C 186.424,108.606 195.091,119.439 205.5,129C 208.403,131.984 211.403,132.15 214.5,129.5C 214.833,129.833 215.167,130.167 215.5,130.5C 213.922,134.946 210.922,137.112 206.5,137C 195.592,127.26 185.926,116.427 177.5,104.5C 174.433,112.197 171.267,119.864 168,127.5C 166.413,128.727 165.079,128.394 164,126.5C 163.673,122.301 164.506,118.301 166.5,114.5C 167.192,115.025 167.692,115.692 168,116.5C 172.828,110.2 174.661,103.2 173.5,95.5C 174.822,95.67 175.989,95.3366 177,94.5C 177.631,91.6074 178.464,88.7741 179.5,86C 172.968,85.8511 167.468,88.6845 163,94.5C 162.825,97.9499 162.658,101.283 162.5,104.5C 159.29,100.702 157.79,96.369 158,91.5C 164.595,84.9521 172.428,80.6188 181.5,78.5C 181.5,77.1667 181.5,75.8333 181.5,74.5 Z"/></g>
<g><path style="opacity:1" fill="#4b579b" d="M 266.5,74.5 C 274.425,74.9466 280.092,78.6133 283.5,85.5C 280.989,99.5169 275.489,112.184 267,123.5C 260.605,130.134 254.438,129.801 248.5,122.5C 249.955,121.255 251.289,121.422 252.5,123C 255.167,123.667 257.833,123.667 260.5,123C 269.591,111.65 275.591,98.8168 278.5,84.5C 277.467,81.1399 275.134,79.4732 271.5,79.5C 266.444,80.2784 261.944,82.2784 258,85.5C 252.25,99.0811 247.917,113.081 245,127.5C 243.542,128.747 242.042,128.747 240.5,127.5C 239.511,123.893 239.177,120.226 239.5,116.5C 240.978,116.762 242.311,116.429 243.5,115.5C 246.44,106.346 249.773,97.3458 253.5,88.5C 252.998,87.479 252.332,87.3123 251.5,88C 247.667,91.1667 243.833,94.3333 240,97.5C 242.048,107.596 240.381,108.596 235,100.5C 234.333,98.8333 234.333,97.1667 235,95.5C 241.212,89.6446 248.045,84.6446 255.5,80.5C 256.624,79.086 257.624,77.586 258.5,76C 259.996,75.4926 261.163,75.9926 262,77.5C 263.878,76.9473 265.378,75.9473 266.5,74.5 Z M 266.5,91.5 C 266.128,95.2971 264.794,98.6305 262.5,101.5C 263.263,97.8632 264.597,94.5299 266.5,91.5 Z"/></g>
<g><path style="opacity:1" fill="#4d589c" d="M 350.5,97.5 C 352.833,98.1667 355.167,98.8333 357.5,99.5C 354.186,99.9426 351.019,100.943 348,102.5C 344.898,109.897 343.565,117.564 344,125.5C 346.124,124.378 347.957,122.878 349.5,121C 350.167,120.333 350.833,120.333 351.5,121C 349.321,124.512 346.488,127.346 343,129.5C 339.645,129.148 338.145,127.314 338.5,124C 340.113,116.38 342.113,108.88 344.5,101.5C 343.167,100.833 341.833,100.167 340.5,99.5C 341.991,97.9884 343.824,96.9884 346,96.5C 347.536,90.2162 350.036,84.3829 353.5,79C 356.14,78.161 358.473,78.661 360.5,80.5C 358.253,81.2446 356.42,82.578 355,84.5C 352.921,88.6529 351.421,92.9862 350.5,97.5 Z"/></g>
<g><path style="opacity:1" fill="#4b579b" d="M 219.5,95.5 C 222.458,96.5411 225.458,96.5411 228.5,95.5C 231.031,107.291 226.364,112.958 214.5,112.5C 213.58,115.434 212.913,118.434 212.5,121.5C 212.342,123.319 213.009,124.652 214.5,125.5C 219.254,122.913 223.587,119.746 227.5,116C 228.167,115.333 228.833,115.333 229.5,116C 225.899,121.438 221.232,125.605 215.5,128.5C 211.322,127.287 208.989,124.62 208.5,120.5C 209.965,111.149 213.631,102.816 219.5,95.5 Z"/></g>
<g><path style="opacity:1" fill="#9ba0c8" d="M 350.5,97.5 C 353.247,97.1866 355.914,97.52 358.5,98.5C 358.376,99.1067 358.043,99.44 357.5,99.5C 355.167,98.8333 352.833,98.1667 350.5,97.5 Z"/></g>
<g><path style="opacity:1" fill="#f2f3f8" d="M 222.5,98.5 C 223.765,99.5145 224.431,101.014 224.5,103C 224.743,108.583 222.076,110.749 216.5,109.5C 217.623,105.371 219.623,101.705 222.5,98.5 Z"/></g>
<g><path style="opacity:1" fill="#4b579b" d="M 310.5,96.5 C 313.298,96.6303 315.298,97.9637 316.5,100.5C 314.989,104.846 313.823,109.179 313,113.5C 316.795,106.573 321.961,100.907 328.5,96.5C 329.914,97.624 331.414,98.624 333,99.5C 333.144,104.621 332.31,109.621 330.5,114.5C 331.272,116.708 332.105,116.375 333,113.5C 333.167,114 333.333,114.5 333.5,115C 330.228,119.377 327.895,124.21 326.5,129.5C 324.516,129.617 322.85,128.95 321.5,127.5C 326.207,119.014 328.207,110.014 327.5,100.5C 319.619,107.892 313.452,116.558 309,126.5C 307.667,127.833 306.333,127.833 305,126.5C 307.072,118.046 309.239,109.546 311.5,101C 311.333,100.5 311.167,100 311,99.5C 309.887,101.329 308.387,102.163 306.5,102C 307.965,100.226 309.298,98.3925 310.5,96.5 Z"/></g>
<g><path style="opacity:1" fill="#4b569b" d="M 297.5,95.5 C 298.833,95.5 300.167,95.5 301.5,95.5C 301.879,100.297 301.379,104.964 300,109.5C 299.097,110.701 297.931,111.535 296.5,112C 293.386,112.123 290.386,112.29 287.5,112.5C 285.935,116.687 285.268,121.02 285.5,125.5C 291.698,124.392 296.698,121.225 300.5,116C 301.332,115.312 301.998,115.479 302.5,116.5C 299.016,120.485 295.349,124.318 291.5,128C 287.579,128.959 284.412,127.792 282,124.5C 281.279,113.719 284.779,104.552 292.5,97C 294.382,96.8019 296.048,96.3019 297.5,95.5 Z"/></g>
<g><path style="opacity:1" fill="#edeef5" d="M 295.5,98.5 C 296.765,99.5145 297.431,101.014 297.5,103C 297.583,108.417 294.916,110.917 289.5,110.5C 290.442,105.948 292.442,101.948 295.5,98.5 Z"/></g>
<g><path style="opacity:0.638" fill="#44a1d0" d="M 219.5,141.5 C 265.507,141.908 311.507,142.742 357.5,144C 357.957,144.414 358.291,144.914 358.5,145.5C 309.17,146.467 259.837,147.134 210.5,147.5C 213.291,145.265 216.291,143.265 219.5,141.5 Z"/></g>
</svg>
