<?xml version="1.0" encoding="UTF-8"?>
<!DOCTYPE svg PUBLIC "-//W3C//DTD SVG 1.1//EN" "http://www.w3.org/Graphics/SVG/1.1/DTD/svg11.dtd">
<svg xmlns="http://www.w3.org/2000/svg" version="1.1" width="1112px" height="232px" style="shape-rendering:geometricPrecision; text-rendering:geometricPrecision; image-rendering:optimizeQuality; fill-rule:evenodd; clip-rule:evenodd" xmlns:xlink="http://www.w3.org/1999/xlink">
<g><path style="opacity:0.987" fill="#3c4991" d="M 51.5,-0.5 C 58.5,-0.5 65.5,-0.5 72.5,-0.5C 86.4812,4.65434 100.148,10.6543 113.5,17.5C 116.992,16.5903 119.992,14.9236 122.5,12.5C 122.842,11.6618 123.508,11.3284 124.5,11.5C 126.153,11.3404 127.486,10.6737 128.5,9.5C 130.819,9.00751 132.819,8.00751 134.5,6.5C 138.165,6.49815 141.165,5.16482 143.5,2.5C 146.152,2.59047 148.485,1.92381 150.5,0.5C 150.5,0.166667 150.5,-0.166667 150.5,-0.5C 157.833,-0.5 165.167,-0.5 172.5,-0.5C 201.782,7.29159 218.616,26.2916 223,56.5C 223.383,57.056 223.883,57.3893 224.5,57.5C 229.767,56.4111 234.767,54.7444 239.5,52.5C 270.816,51.2593 290.316,65.9259 298,96.5C 299.725,114.842 297.725,132.842 292,150.5C 285.232,173.813 275.566,195.813 263,216.5C 258.762,223.073 253.262,228.073 246.5,231.5C 244.167,231.5 241.833,231.5 239.5,231.5C 239.5,231.167 239.5,230.833 239.5,230.5C 237.204,228.599 235.371,226.266 234,223.5C 229.799,207.696 225.132,192.03 220,176.5C 217.711,170.749 214.545,165.582 210.5,161C 208.975,159.991 207.308,159.491 205.5,159.5C 201.668,160.818 198.501,163.152 196,166.5C 193.058,172.718 190.391,179.051 188,185.5C 184.405,198.953 180.405,212.286 176,225.5C 174.086,227.856 171.919,229.856 169.5,231.5C 166.833,231.5 164.167,231.5 161.5,231.5C 160.833,230.833 160.167,230.167 159.5,229.5C 154.186,224.344 149.353,218.678 145,212.5C 129.281,185.726 118.614,157.059 113,126.5C 112.31,125.262 111.81,125.262 111.5,126.5C 107.862,126.738 105.029,128.404 103,131.5C 93.4372,149.851 86.4372,169.184 82,189.5C 80.255,195.736 77.9216,201.736 75,207.5C 70.9089,211.305 66.0755,212.472 60.5,211C 59.5842,210.722 58.9175,210.222 58.5,209.5C 58.0269,208.094 57.0269,207.427 55.5,207.5C 39.5097,188.54 27.343,167.206 19,143.5C 10.0262,120.632 4.35949,96.9654 2,72.5C -0.214824,41.9202 11.9518,19.2535 38.5,4.5C 42.767,3.74437 46.767,2.41104 50.5,0.5C 51.1667,0.5 51.5,0.166667 51.5,-0.5 Z M 87.5,18.5 C 90.3197,20.7451 93.3197,22.7451 96.5,24.5C 98.2964,26.9 100.63,28.5667 103.5,29.5C 103.973,30.9063 104.973,31.573 106.5,31.5C 106.973,32.9063 107.973,33.573 109.5,33.5C 110.287,35.1042 111.62,35.7709 113.5,35.5C 117.085,37.8061 121.085,39.1394 125.5,39.5C 130.58,41.0152 135.914,41.6818 141.5,41.5C 149.035,41.8044 156.368,40.8044 163.5,38.5C 163.833,38.1667 164.167,37.8333 164.5,37.5C 162.922,36.7022 161.256,36.2022 159.5,36C 149.64,36.0319 139.973,34.6986 130.5,32C 126.995,31.3426 123.995,29.8426 121.5,27.5C 131.725,20.7214 142.725,15.5548 154.5,12C 159.155,11.5008 163.821,11.3342 168.5,11.5C 171.619,12.8699 174.952,13.8699 178.5,14.5C 180.849,16.341 183.515,17.6743 186.5,18.5C 186.973,19.9063 187.973,20.573 189.5,20.5C 203.067,32.6185 209.734,47.6185 209.5,65.5C 207.742,65.8769 206.075,66.5435 204.5,67.5C 193.35,60.4269 181.35,55.2602 168.5,52C 161.198,51.3078 154.198,52.1411 147.5,54.5C 144.759,54.7073 142.426,55.7073 140.5,57.5C 139.508,57.3284 138.842,57.6618 138.5,58.5C 123.895,66.6294 114.728,78.9628 111,95.5C 109.893,101.787 109.393,108.12 109.5,114.5C 106.447,114.111 103.78,114.777 101.5,116.5C 98.0108,117.477 95.1775,119.477 93,122.5C 85.2305,134.109 79.5638,146.776 76,160.5C 72.4638,173.607 68.6304,186.607 64.5,199.5C 56.5521,191.628 50.0521,182.628 45,172.5C 30.8192,144.958 20.8192,115.958 15,85.5C 9.84193,64.1501 13.8419,44.8168 27,27.5C 44.9097,9.72906 65.0764,6.72906 87.5,18.5 Z M 168.5,63.5 C 171.215,65.0719 174.215,66.0719 177.5,66.5C 180.999,68.7505 184.665,70.7505 188.5,72.5C 193.129,77.1514 198.463,80.8181 204.5,83.5C 205.78,84.9313 207.447,85.5979 209.5,85.5C 211.515,86.9238 213.848,87.5905 216.5,87.5C 228.278,89.9584 239.944,89.2917 251.5,85.5C 251.833,85.1667 252.167,84.8333 252.5,84.5C 245.607,82.9394 238.607,82.1061 231.5,82C 225.6,81.1085 219.933,79.4418 214.5,77C 225.203,68.0435 237.536,63.5435 251.5,63.5C 257.688,65.5906 263.688,68.2573 269.5,71.5C 284.456,86.9839 289.29,105.317 284,126.5C 278.478,154.068 268.811,180.068 255,204.5C 251.723,209.414 248.223,214.08 244.5,218.5C 240.519,205.58 236.685,192.58 233,179.5C 230.532,172.566 227.532,165.899 224,159.5C 217.668,149.336 208.834,146.003 197.5,149.5C 193.676,150.335 190.51,152.335 188,155.5C 185.268,159.241 182.934,163.241 181,167.5C 174.79,184.295 169.29,201.295 164.5,218.5C 152.887,204.963 144.054,189.629 138,172.5C 129.645,151.717 124.479,130.217 122.5,108C 124.974,79.6907 140.307,64.8573 168.5,63.5 Z"/></g>
<g><path style="opacity:1" fill="#1c203d" d="M 50.5,0.5 C 46.767,2.41104 42.767,3.74437 38.5,4.5C 42.0845,2.19393 46.0845,0.860597 50.5,0.5 Z"/></g>
<g><path style="opacity:1" fill="#191b34" d="M 150.5,0.5 C 148.485,1.92381 146.152,2.59047 143.5,2.5C 145.515,1.07619 147.848,0.409526 150.5,0.5 Z"/></g>
<g><path style="opacity:1" fill="#1d203c" d="M 143.5,2.5 C 141.165,5.16482 138.165,6.49815 134.5,6.5C 137.088,4.3754 140.088,3.04207 143.5,2.5 Z"/></g>
<g><path style="opacity:0.182" fill="#05060f" d="M 134.5,6.5 C 132.819,8.00751 130.819,9.00751 128.5,9.5C 129.911,7.46095 131.911,6.46095 134.5,6.5 Z"/></g>
<g><path style="opacity:0.914" fill="#070813" d="M 128.5,9.5 C 127.486,10.6737 126.153,11.3404 124.5,11.5C 125.287,9.89578 126.62,9.22911 128.5,9.5 Z"/></g>
<g><path style="opacity:0.898" fill="#16182d" d="M 168.5,11.5 C 172.286,11.32 175.619,12.32 178.5,14.5C 174.952,13.8699 171.619,12.8699 168.5,11.5 Z"/></g>
<g><path style="opacity:0.218" fill="#04050b" d="M 122.5,12.5 C 119.992,14.9236 116.992,16.5903 113.5,17.5C 116.008,15.0764 119.008,13.4097 122.5,12.5 Z"/></g>
<g><path style="opacity:0.31" fill="#0e0e19" d="M 178.5,14.5 C 181.852,14.53 184.518,15.8633 186.5,18.5C 183.515,17.6743 180.849,16.341 178.5,14.5 Z"/></g>
<g><path style="opacity:0.449" fill="#020308" d="M 186.5,18.5 C 188.027,18.427 189.027,19.0937 189.5,20.5C 187.973,20.573 186.973,19.9063 186.5,18.5 Z"/></g>
<g><path style="opacity:0.973" fill="#05060e" d="M 87.5,18.5 C 91.3696,19.2633 94.3696,21.2633 96.5,24.5C 93.3197,22.7451 90.3197,20.7451 87.5,18.5 Z"/></g>
<g><path style="opacity:0.907" fill="#000000" d="M 333.5,25.5 C 353.169,25.3334 372.836,25.5 392.5,26C 428.611,32.3242 444.111,53.8242 439,90.5C 434.193,111.307 421.36,124.14 400.5,129C 393.875,130.045 387.208,130.711 380.5,131C 400.378,157.923 420.378,184.756 440.5,211.5C 439.975,212.192 439.308,212.692 438.5,213C 432.833,213.667 427.167,213.667 421.5,213C 419.714,212.215 418.214,211.049 417,209.5C 395.333,179.833 373.667,150.167 352,120.5C 351.5,121 351,121.5 350.5,122C 351.662,151.762 351.828,181.595 351,211.5C 348.243,213.027 345.243,213.693 342,213.5C 338.8,213.344 335.633,213.011 332.5,212.5C 332.171,150.095 332.504,87.7621 333.5,25.5 Z M 350.5,43.5 C 362.326,42.3403 374.326,42.1737 386.5,43C 409.099,44.9339 420.766,57.2673 421.5,80C 420.122,100.712 409.122,112.379 388.5,115C 376.171,115.5 363.838,115.667 351.5,115.5C 351.831,91.3275 351.498,67.3275 350.5,43.5 Z"/></g>
<g><path style="opacity:0.926" fill="#000000" d="M 610.5,25.5 C 633.836,25.3334 657.169,25.5 680.5,26C 732.782,34.9496 759.116,65.9496 759.5,119C 758.234,177.265 728.567,208.599 670.5,213C 650.79,213.821 631.123,213.654 611.5,212.5C 610.5,150.17 610.167,87.8369 610.5,25.5 Z M 628.5,42.5 C 643.504,42.3334 658.504,42.5001 673.5,43C 717.931,48.4235 739.931,73.4235 739.5,118C 741.22,160.589 721.22,185.923 679.5,194C 662.503,194.5 645.503,194.667 628.5,194.5C 628.5,143.833 628.5,93.1667 628.5,42.5 Z"/></g>
<g><path style="opacity:0.353" fill="#05050d" d="M 96.5,24.5 C 99.3702,25.4333 101.704,27.1 103.5,29.5C 100.63,28.5667 98.2964,26.9 96.5,24.5 Z"/></g>
<g><path style="opacity:0.63" fill="#05050d" d="M 38.5,4.5 C 11.9518,19.2535 -0.214824,41.9202 2,72.5C 4.35949,96.9654 10.0262,120.632 19,143.5C 27.343,167.206 39.5097,188.54 55.5,207.5C 52.6057,206.118 50.1057,204.118 48,201.5C 21.1613,162.493 4.99461,119.493 -0.5,72.5C -0.5,67.8333 -0.5,63.1667 -0.5,58.5C 1.73464,39.2011 10.4013,23.3677 25.5,11C 29.3088,7.76226 33.6421,5.5956 38.5,4.5 Z"/></g>
<g><path style="opacity:0.516" fill="#03040b" d="M 103.5,29.5 C 105.027,29.427 106.027,30.0937 106.5,31.5C 104.973,31.573 103.973,30.9063 103.5,29.5 Z"/></g>
<g><path style="opacity:0.441" fill="#03040b" d="M 106.5,31.5 C 108.027,31.427 109.027,32.0937 109.5,33.5C 107.973,33.573 106.973,32.9063 106.5,31.5 Z"/></g>
<g><path style="opacity:0.239" fill="#06060f" d="M 109.5,33.5 C 111.153,33.6596 112.486,34.3263 113.5,35.5C 111.62,35.7709 110.287,35.1042 109.5,33.5 Z"/></g>
<g><path style="opacity:0.662" fill="#06060f" d="M 189.5,20.5 C 202.752,29.988 210.085,42.988 211.5,59.5C 211.461,61.9522 210.794,63.9522 209.5,65.5C 209.734,47.6185 203.067,32.6185 189.5,20.5 Z"/></g>
<g><path style="opacity:1" fill="#191c34" d="M 113.5,35.5 C 117.767,36.2556 121.767,37.589 125.5,39.5C 121.085,39.1394 117.085,37.8061 113.5,35.5 Z"/></g>
<g><path style="opacity:0.905" fill="#000000" d="M 1111.5,79.5 C 1111.5,84.8333 1111.5,90.1667 1111.5,95.5C 1104.3,96.7839 1097.14,96.7839 1090,95.5C 1089.67,134.167 1089.33,172.833 1089,211.5C 1083.68,213.829 1078.18,214.162 1072.5,212.5C 1072.5,173.833 1072.5,135.167 1072.5,96.5C 1066.82,96.6661 1061.16,96.4994 1055.5,96C 1055,95.5 1054.5,95 1054,94.5C 1053.2,89.581 1053.37,84.7477 1054.5,80C 1060.42,79.8104 1066.25,79.3104 1072,78.5C 1072.5,68.8391 1072.67,59.1724 1072.5,49.5C 1078.09,49.1934 1083.59,49.5268 1089,50.5C 1089.5,60.1609 1089.67,69.8276 1089.5,79.5C 1096.83,79.5 1104.17,79.5 1111.5,79.5 Z"/></g>
<g><path style="opacity:1" fill="#1e2241" d="M 239.5,52.5 C 234.767,54.7444 229.767,56.4111 224.5,57.5C 229.085,54.8605 234.085,53.1938 239.5,52.5 Z"/></g>
<g><path style="opacity:1" fill="#1d203c" d="M 147.5,54.5 C 145.815,56.8176 143.481,57.8176 140.5,57.5C 142.426,55.7073 144.759,54.7073 147.5,54.5 Z"/></g>
<g><path style="opacity:0.984" fill="#141628" d="M 168.5,63.5 C 171.916,63.5275 174.916,64.5275 177.5,66.5C 174.215,66.0719 171.215,65.0719 168.5,63.5 Z"/></g>
<g><path style="opacity:0.259" fill="#0f0e1a" d="M 251.5,63.5 C 258.53,64.018 264.53,66.6847 269.5,71.5C 263.688,68.2573 257.688,65.5906 251.5,63.5 Z"/></g>
<g><path style="opacity:0.355" fill="#10101b" d="M 177.5,66.5 C 181.884,67.1917 185.55,69.1917 188.5,72.5C 184.665,70.7505 180.999,68.7505 177.5,66.5 Z"/></g>
<g><path style="opacity:0.384" fill="#070810" d="M 188.5,72.5 C 194.189,75.6757 199.523,79.3423 204.5,83.5C 198.463,80.8181 193.129,77.1514 188.5,72.5 Z"/></g>
<g><path style="opacity:0.601" fill="#020307" d="M 138.5,58.5 C 126.743,66.3145 118.576,76.9812 114,90.5C 112.58,98.7941 111.08,106.794 109.5,114.5C 109.393,108.12 109.893,101.787 111,95.5C 114.728,78.9628 123.895,66.6294 138.5,58.5 Z"/></g>
<g><path style="opacity:0.901" fill="#000000" d="M 507.5,77.5 C 546.532,73.7505 572.032,90.4172 584,127.5C 585.262,135.113 585.762,142.78 585.5,150.5C 546.594,150.17 507.761,150.504 469,151.5C 469.034,174.203 479.868,189.037 501.5,196C 513.167,198 524.833,198 536.5,196C 548.406,192.763 557.406,185.763 563.5,175C 569.491,174.501 575.491,174.334 581.5,174.5C 575.554,188.285 565.887,198.785 552.5,206C 525.729,217.155 500.062,215.155 475.5,200C 455.483,181.96 447.316,159.46 451,132.5C 458.169,102.164 477.002,83.8309 507.5,77.5 Z M 508.5,92.5 C 540.544,89.3284 560.544,103.162 568.5,134C 535.646,135.492 502.646,135.992 469.5,135.5C 473.141,112.476 486.141,98.1427 508.5,92.5 Z"/></g>
<g><path style="opacity:0.901" fill="#000000" d="M 832.5,77.5 C 872.107,73.6995 897.607,90.6995 909,128.5C 910.247,135.779 910.747,143.112 910.5,150.5C 871.5,150.5 832.5,150.5 793.5,150.5C 793.625,173.593 804.625,188.76 826.5,196C 838.167,198 849.833,198 861.5,196C 873.263,192.611 882.263,185.611 888.5,175C 894.491,174.501 900.491,174.334 906.5,174.5C 895.066,198.238 876.066,211.071 849.5,213C 810.082,214.574 785.582,196.408 776,158.5C 771.688,115.027 790.522,88.0268 832.5,77.5 Z M 833.5,92.5 C 862.975,89.3097 882.475,101.643 892,129.5C 892.495,131.473 892.662,133.473 892.5,135.5C 859.832,135.667 827.165,135.5 794.5,135C 796.375,119.959 803.709,107.959 816.5,99C 822.015,96.1114 827.681,93.9447 833.5,92.5 Z"/></g>
<g><path style="opacity:0.909" fill="#000000" d="M 932.5,77.5 C 937.833,77.5 943.167,77.5 948.5,77.5C 948.334,85.5069 948.5,93.5069 949,101.5C 965.61,79.968 987.11,72.8013 1013.5,80C 1026.73,84.9 1035.57,94.0667 1040,107.5C 1041,112.167 1042,116.833 1043,121.5C 1043.67,151.5 1043.67,181.5 1043,211.5C 1037.68,213.829 1032.18,214.162 1026.5,212.5C 1026.95,180.135 1026.45,147.802 1025,115.5C 1020.59,99.6931 1010.09,91.6931 993.5,91.5C 975.693,92.8081 962.859,101.475 955,117.5C 951.78,124.496 949.78,131.829 949,139.5C 948.833,163.84 948.333,188.174 947.5,212.5C 942.164,214.068 936.997,213.735 932,211.5C 931.172,166.762 931.339,122.096 932.5,77.5 Z"/></g>
<g><path style="opacity:0.633" fill="#030409" d="M 269.5,71.5 C 277.788,76.9862 283.288,84.6529 286,94.5C 287.854,104.478 287.854,114.478 286,124.5C 279.717,157.714 267.383,188.381 249,216.5C 247.981,217.687 246.814,218.687 245.5,219.5C 244.893,219.376 244.56,219.043 244.5,218.5C 248.223,214.08 251.723,209.414 255,204.5C 268.811,180.068 278.478,154.068 284,126.5C 289.29,105.317 284.456,86.9839 269.5,71.5 Z"/></g>
<g><path style="opacity:1" fill="#181a30" d="M 209.5,85.5 C 212.152,85.4095 214.485,86.0762 216.5,87.5C 213.848,87.5905 211.515,86.9238 209.5,85.5 Z"/></g>
<g><path style="opacity:0.616" fill="#05050c" d="M 159.5,229.5 C 154.285,227.124 150.118,223.457 147,218.5C 128.975,190.266 117.142,159.599 111.5,126.5C 111.81,125.262 112.31,125.262 113,126.5C 118.614,157.059 129.281,185.726 145,212.5C 149.353,218.678 154.186,224.344 159.5,229.5 Z"/></g>
<g><path style="opacity:0.622" fill="#020206" d="M 101.5,116.5 C 95.4114,121.771 90.578,128.104 87,135.5C 79.1705,155.989 72.3372,176.822 66.5,198C 66.1639,199.03 65.4972,199.53 64.5,199.5C 68.6304,186.607 72.4638,173.607 76,160.5C 79.5638,146.776 85.2305,134.109 93,122.5C 95.1775,119.477 98.0108,117.477 101.5,116.5 Z"/></g>
<g><path style="opacity:0.637" fill="#04040a" d="M 197.5,149.5 C 190.348,154.502 185.182,161.169 182,169.5C 176.141,185.431 170.975,201.598 166.5,218C 165.969,219.718 165.302,219.885 164.5,218.5C 169.29,201.295 174.79,184.295 181,167.5C 182.934,163.241 185.268,159.241 188,155.5C 190.51,152.335 193.676,150.335 197.5,149.5 Z"/></g>
<g><path style="opacity:0.63" fill="#070710" d="M 205.5,159.5 C 207.308,159.491 208.975,159.991 210.5,161C 214.545,165.582 217.711,170.749 220,176.5C 225.132,192.03 229.799,207.696 234,223.5C 235.371,226.266 237.204,228.599 239.5,230.5C 236.325,230.16 234.159,228.493 233,225.5C 228,209.167 223,192.833 218,176.5C 215.727,169.225 211.561,163.559 205.5,159.5 Z"/></g>
<g><path style="opacity:0.902" fill="#090a14" d="M 55.5,207.5 C 57.0269,207.427 58.0269,208.094 58.5,209.5C 56.9731,209.573 55.9731,208.906 55.5,207.5 Z"/></g>
</svg>
