<?xml version="1.0" encoding="UTF-8" standalone="no" ?>
<!DOCTYPE svg PUBLIC "-//W3C//DTD SVG 1.1//EN" "http://www.w3.org/Graphics/SVG/1.1/DTD/svg11.dtd">
<svg xmlns="http://www.w3.org/2000/svg" xmlns:xlink="http://www.w3.org/1999/xlink" version="1.1" width="700" height="440" viewBox="0 0 700 440" xml:space="preserve">
<desc>Sdelano: LOGOZA.RU</desc>
<defs>

                <style type="text/css">
                    @font-face {
                        font-family: "AAvanteLtLight";
                        src: url("AAvanteLtLight.woff") format("woff");
                        src: url("AAvanteLtLight.ttf") format("truetype");
                        font-weight: normal;
                        font-style: normal;
                        font-display: swap;
                    }
                </style>
            
                <style type="text/css">
                    @import url(http://fonts.googleapis.com/css?family=Open+Sans:100,100i,200,200i,300,300i,400,400i,500,500i,600,600i,700,700i,800,800i,900,900i)
                </style>
            
</defs>
<rect x="0" y="0" width="100%" height="100%" fill="#ffffff"></rect>
<g transform="matrix(1 0 0 1 350 220)"  >
<g style=""   >
		<g transform="matrix(0.23 0 0 0.23 -134.71 -5.44)" id="Capa_1"  >
<filter id="SVGID_1212" y="-20%" height="140%" x="-20%" width="140%" >
	<feGaussianBlur in="SourceAlpha" stdDeviation="0"></feGaussianBlur>
	<feOffset dx="-2" dy="0" result="oBlur" ></feOffset>
	<feFlood flood-color="rgb(0,0,0)" flood-opacity="1"/>
	<feComposite in2="oBlur" operator="in" />
	<feMerge>
		<feMergeNode></feMergeNode>
		<feMergeNode in="SourceGraphic"></feMergeNode>
	</feMerge>
</filter>
<path style="stroke: none; stroke-width: 1; stroke-dasharray: none; stroke-linecap: butt; stroke-dashoffset: 0; stroke-linejoin: miter; stroke-miterlimit: 4; fill: rgb(40,117,181); fill-rule: nonzero; opacity: 1;filter: url(#SVGID_1212);"  transform=" translate(-211.86, -211.86)" d="M 403.069 146.3 c -14.035 -15.717 -33.359 -24.373 -54.404 -24.373 c -11.196 0 -22.783 4.521 -31.579 8.717 c -0.479 0.228 -1.497 0.417 -1.525 -0.551 c -1.879 -20.982 -10.197 -39.549 -23.816 -54.799 c -16.535 -18.512 -39.289 -28.705 -64.078 -28.705 c -19.43 0 -40.146 11.428 -55.285 19.781 c -4.596 2.535 -12.137 7.176 -14.338 7.176 c -2.189 0 -9.666 -4.613 -14.275 -7.16 c -15.1 -8.355 -35.779 -19.797 -55.346 -19.797 c -24.787 0 -47.543 10.193 -64.078 28.705 C 8.645 92.87 0 115.999 0 140.415 c 0 34.526 12.373 83.566 33.096 131.184 c 9.223 21.195 19.051 39.523 28.418 53.004 c 11.404 16.41 21.348 24.387 30.398 24.387 c 4.186 0 11.84 -1.732 16.041 -13.354 c 3.77 -10.431 7.152 -22.361 10.756 -35.078 c 8.842 -31.215 20.953 -73.97 38.734 -73.97 c 0 0 1.813 0.058 1.935 1.571 c 3.887 25.74 12.749 54.335 25.468 83.562 c 7.75 17.807 16.01 33.211 23.889 44.549 c 9.755 14.033 18.355 20.855 26.291 20.855 c 3.775 0 10.669 -1.541 14.398 -11.861 c 3.174 -8.779 6.012 -18.795 9.027 -29.432 c 7.311 -25.814 17.326 -61.168 31.432 -61.168 h 1.006 c 6.063 0 11.689 5.614 17.201 17.164 c 5.805 12.154 10.258 28.465 14.563 44.242 c 2.881 10.549 5.602 20.514 8.684 29.16 c 3.66 10.271 10.492 11.811 14.24 11.812 c 7.908 0 16.504 -6.926 26.274 -21.17 c 7.857 -11.451 16.134 -27.004 23.935 -44.977 c 17.485 -40.303 27.928 -81.199 27.928 -109.396 C 423.712 180.806 416.382 161.202 403.069 146.3 z M 157.056 201.5 c 0 2.638 0.089 5.424 0.264 8.316 c 0.016 0.255 0.187 1.12 -1.063 1.036 c -14.01 0.035 -24.421 9.605 -34.112 29.804 c -7.578 15.795 -13.299 35.999 -18.832 55.537 l -0.039 0.139 c -3.496 12.332 -6.797 23.979 -10.371 33.857 c -0.473 1.311 -0.812 2.537 -1.342 2.707 c -1.418 0.455 -6.863 -2.979 -16.904 -17.426 c -8.654 -12.455 -18.201 -30.304 -26.887 -50.261 c -19.596 -45.024 -31.768 -92.844 -31.768 -124.797 c 0 -38.254 27.09 -77.822 72.42 -77.822 c 11.752 0 27.258 5.395 41.479 14.431 c 2.063 1.31 5.023 3.586 7.887 5.786 c 1.156 0.891 2.295 1.766 3.357 2.566 c 3.432 2.567 8.064 5.926 13.504 9.127 c 2.859 1.689 5.463 3.188 8.373 4.426 c 11.799 5.006 24.307 7.547 37.176 7.547 c 13.143 0 32.481 -3.379 32.162 -6.004 c -0.318 -2.624 -23.645 1.131 -47.869 -6.721 c -6.293 -2.04 -14.404 -4.33 -14.4 -6.898 c 0.001 -0.708 2.279 -1.958 3.887 -2.918 c 1.717 -1.025 3.664 -2.189 6.143 -3.557 c 13.604 -7.506 32.236 -17.785 47.547 -17.785 c 44.52 0 71.442 38.162 72.394 75.763 c 0.012 0.418 0.072 1.185 -0.772 1.701 c -2.89 1.586 -7.147 4.404 -8.903 4.404 c -1.993 0 -8.297 -4.088 -11.459 -5.836 c -12.734 -7.047 -30.176 -16.697 -46.817 -16.697 c -21.047 0 -40.37 8.656 -54.407 24.373 C 164.386 161.202 157.056 180.806 157.056 201.5 z M 381.601 304.743 c -7.305 16.838 -15.295 31.891 -22.496 42.385 c -6.455 9.41 -10.564 15.117 -12.349 13.975 c -0.503 -0.322 -1.264 -2.223 -1.447 -2.74 c -2.881 -8.084 -4.939 -16.096 -7.743 -26.363 c -4.483 -16.432 -9.123 -33.422 -15.524 -46.832 c -8.344 -17.469 -18.533 -25.961 -31.152 -25.961 h -1.006 c -12.191 0 -22.162 8.426 -30.479 25.76 c -6.375 13.289 -11.181 30.248 -15.826 46.654 c -2.934 10.346 -5.701 20.117 -8.691 28.389 c -0.207 0.576 -0.512 1.232 -0.845 1.379 c -1.451 0.631 -5.603 -3.852 -12.612 -13.939 c -7.203 -10.361 -15.16 -25.24 -22.408 -41.893 c -16.35 -37.57 -26.506 -77.441 -26.506 -104.056 c 0 -31.517 22.289 -64.115 59.59 -64.115 c 9.648 0 22.423 4.457 34.168 11.92 c 1.675 1.063 4.109 2.935 6.503 4.773 c 0.979 0.754 1.944 1.494 2.846 2.17 c 2.881 2.162 6.781 4.99 11.397 7.707 c 2.433 1.436 4.646 2.709 7.132 3.764 c 10.004 4.246 20.606 6.4 31.52 6.4 c 11.176 0 32.66 -3.158 32.438 -6.729 c -0.143 -2.289 -24.143 0.711 -45.319 -5.95 c -4.304 -1.354 -10.431 -3.472 -10.583 -4.292 c -0.145 -0.771 1.271 -1.58 2.054 -2.048 c 1.426 -0.852 3.041 -1.816 5.103 -2.953 c 11.291 -6.23 26.754 -14.762 39.307 -14.762 c 37.301 0 59.59 32.599 59.59 64.115 C 408.255 227.299 398.042 266.86 381.601 304.743 z" stroke-linecap="round" />
</g>
		<g transform="matrix(1 0 0 1 52.36 0)" style="filter: url(#SVGID_1213);"  >
<filter id="SVGID_1213" y="-20%" height="140%" x="-20%" width="140%" >
	<feGaussianBlur in="SourceAlpha" stdDeviation="0"></feGaussianBlur>
	<feOffset dx="0" dy="0" result="oBlur" ></feOffset>
	<feFlood flood-color="rgb(0,0,0)" flood-opacity="1"/>
	<feComposite in2="oBlur" operator="in" />
	<feMerge>
		<feMergeNode></feMergeNode>
		<feMergeNode in="SourceGraphic"></feMergeNode>
	</feMerge>
</filter>
		<text xml:space="preserve" font-family="AAvanteLtLight" font-size="85.25" font-style="normal" font-weight="400" style="stroke: rgb(0,0,0); stroke-width: 0; stroke-dasharray: none; stroke-linecap: butt; stroke-dashoffset: 0; stroke-linejoin: round; stroke-miterlimit: 4; fill: rgb(0,0,0); fill-rule: nonzero; opacity: 1; white-space: pre;" paint-order="stroke"  ><tspan x="-131.97" y="26.78" >ReDent</tspan></text>
</g>
</g>
</g>
</svg>